<?xml version="1.0" standalone="no"?>
<!DOCTYPE svg PUBLIC "-//W3C//DTD SVG 1.1//EN" "http://www.w3.org/Graphics/SVG/1.1/DTD/svg11.dtd" >
<svg xmlns="http://www.w3.org/2000/svg">
<metadata></metadata>
<defs>
<font id="antipastoregular" horiz-adv-x="1148" >
<font-face units-per-em="2048" ascent="1638" descent="-410" />
<missing-glyph horiz-adv-x="315" />
<glyph horiz-adv-x="2048" />
<glyph horiz-adv-x="2048" />
<glyph unicode="&#xd;" horiz-adv-x="2048" />
<glyph unicode=" "  horiz-adv-x="315" />
<glyph unicode="&#x09;" horiz-adv-x="315" />
<glyph unicode="&#xa0;" horiz-adv-x="315" />
<glyph unicode="!" horiz-adv-x="311" d="M72 84q0 35 24.5 59.5t59.5 24.5t59.5 -24.5t24.5 -59.5t-25 -59.5t-59 -24.5q-35 0 -59.5 24.5t-24.5 59.5zM92 410v835q0 27 18.5 45.5t45.5 18.5t45 -18.5t18 -45.5v-835q0 -27 -18.5 -45.5t-44.5 -18.5q-27 0 -45.5 18.5t-18.5 45.5z" />
<glyph unicode="&#x22;" horiz-adv-x="550" d="M98 985v315q0 27 18.5 45.5t45.5 18.5t45 -18.5t18 -45.5v-315q0 -23 -18.5 -43t-44.5 -20q-27 0 -45.5 18t-18.5 45zM319 985v315q0 27 18.5 45.5t45.5 18.5t45 -18.5t18 -45.5v-315q0 -23 -18 -43t-45 -20t-45.5 18t-18.5 45z" />
<glyph unicode="#" horiz-adv-x="1296" d="M61 477q0 27 18.5 45.5t45.5 18.5h197l94 295h-152q-27 0 -45 18t-18 45t18.5 45.5t44.5 18.5h193l110 348q6 20 23.5 31.5t38.5 11.5q29 0 45 -20.5t16 -43.5q0 -12 -2 -18l-98 -309h307l111 348q6 20 23.5 31.5t37.5 11.5q29 0 45 -20.5t16 -43.5q0 -12 -2 -18 l-98 -309h141q27 0 45.5 -18.5t18.5 -45.5t-18.5 -45t-45.5 -18h-182l-94 -295h147q27 0 45.5 -18.5t18.5 -45.5t-18.5 -45t-45.5 -18h-188l-119 -371q-6 -20 -24.5 -32.5t-36.5 -12.5q-29 0 -46.5 20.5t-17.5 42.5q0 8 4 21l107 332h-307l-119 -371q-6 -20 -24.5 -32.5 t-37.5 -12.5q-29 0 -46 20.5t-17 42.5q0 8 4 21l107 332h-156q-27 0 -45.5 18.5t-18.5 44.5zM457 541h305l94 295h-307z" />
<glyph unicode="$" horiz-adv-x="987" d="M74 246q0 23 16 43t51 20q37 0 56 -33q14 -29 39.5 -52t57.5 -41.5t66.5 -31t69.5 -18.5v547q-57 20 -114.5 47t-102.5 63.5t-72.5 84t-27.5 106.5q0 68 26.5 123t71.5 95t101.5 65.5t117.5 35.5v127q0 27 18.5 45.5t45.5 18.5t45 -18.5t18 -45.5v-122q78 -8 158 -44 t143 -122q14 -23 14 -43q0 -29 -18 -48.5t-47 -19.5q-37 0 -57 33q-39 61 -91.5 84.5t-101.5 30.5v-400q2 0 3 -1t5 -1q78 -29 141.5 -61.5t109.5 -77.5t71.5 -104.5t25.5 -141.5q0 -74 -28.5 -139.5t-77.5 -116.5t-113.5 -85t-136.5 -44v-143q0 -27 -18.5 -45.5 t-44.5 -18.5q-27 0 -45.5 18.5t-18.5 45.5v143q-49 6 -110.5 26.5t-117 53.5t-92 74t-36.5 88zM242 981q0 -29 16 -51.5t43 -42t60.5 -35.5t68.5 -31v353q-35 -6 -68.5 -20.5t-60.5 -37t-43 -56.5t-16 -79zM557 133q47 8 89 31.5t73 57.5t49 77t18 90q0 96 -63.5 151.5 t-165.5 94.5v-502z" />
<glyph unicode="%" horiz-adv-x="1353" d="M70 1065q0 61 23.5 114.5t63.5 93.5t93 63.5t115 23.5q61 0 114 -23.5t93 -63.5t63.5 -93.5t23.5 -114.5t-23.5 -114.5t-63.5 -93.5t-93 -63.5t-114 -23.5t-114.5 23.5t-93.5 63.5t-63.5 93.5t-23.5 114.5zM197 1065q0 -70 49 -119t119 -49t118.5 49t48.5 119t-49 119 t-118 49q-70 0 -119 -49t-49 -119zM399 57q0 14 4 23l410 1229q6 20 23.5 33.5t40.5 13.5q27 0 43 -22.5t16 -43.5q0 -12 -2 -16l-410 -1231q-8 -23 -25.5 -34t-37.5 -11q-29 0 -45.5 18.5t-16.5 40.5zM692 293q0 61 23.5 114.5t63.5 93.5t93.5 63.5t114.5 23.5t114.5 -23.5 t93.5 -63.5t63.5 -93.5t23.5 -114.5t-23.5 -114.5t-63.5 -93.5t-93 -63.5t-115 -23.5q-61 0 -114.5 23.5t-93.5 63.5t-63.5 93.5t-23.5 114.5zM819 293q0 -70 49.5 -119t118.5 -49q70 0 119 49t49 119t-49 119t-119 49t-119 -49t-49 -119z" />
<glyph unicode="&#x26;" horiz-adv-x="1179" d="M78 365q0 98 46 181t124 134q-2 0 -2 2q-66 47 -106 123t-40 164q0 74 28 138t76 112.5t112.5 76t138.5 27.5t138 -27.5t112.5 -76t76 -113t27.5 -137.5q0 -66 -23.5 -125.5t-63.5 -106.5t-95.5 -78.5t-118.5 -40.5l303 -270l174 158q16 14 41 14q27 0 44 -18.5t17 -44.5 q0 -29 -20 -47l-162 -148l174 -164q20 -18 21 -47q0 -27 -17.5 -46t-44.5 -19q-23 0 -43 16l-184 174l-76 -70q-59 -53 -125.5 -86.5t-154.5 -33.5q-78 0 -146.5 29.5t-120 80.5t-81 121t-29.5 148zM203 365q0 -53 19.5 -98.5t54 -80t79.5 -54t99 -19.5q63 0 123.5 38.5 t138.5 110.5l-369 330q-66 -31 -105.5 -92.5t-39.5 -134.5zM229 969q0 -47 16.5 -87t47.5 -71t72 -48.5t90 -19.5q47 0 88 17.5t71.5 48.5t48 72t17.5 88t-17.5 88t-48 71.5t-71.5 48t-88 17.5t-88 -17.5t-72 -48t-48.5 -71.5t-17.5 -88z" />
<glyph unicode="'" horiz-adv-x="323" d="M98 989v316q0 27 18.5 45t45.5 18t45 -18.5t18 -44.5v-316q0 -27 -18.5 -45t-44.5 -18q-27 0 -45.5 18.5t-18.5 44.5z" />
<glyph unicode="(" horiz-adv-x="575" d="M72 164v981q0 74 27.5 140.5t76.5 116.5t114.5 80.5t139.5 30.5q33 0 52.5 -18t19.5 -45t-18.5 -45.5t-45.5 -18.5q-49 0 -93 -19t-76.5 -52t-51 -77t-18.5 -93v-981q0 -49 18.5 -93t51 -77t76.5 -52.5t93 -19.5q27 0 45.5 -18.5t18.5 -44.5q0 -27 -18.5 -45.5 t-45.5 -18.5q-76 0 -142.5 29t-116.5 79t-78.5 117.5t-28.5 143.5z" />
<glyph unicode=")" horiz-adv-x="577" d="M74 -141q0 27 18.5 45t44.5 18q49 0 93 19.5t77 52.5t51.5 77t18.5 93v981q0 49 -18.5 93t-51.5 77t-77 52t-93 19q-27 0 -45 18.5t-18 45.5t19.5 45t51.5 18q74 0 139.5 -30.5t115 -80.5t77 -116.5t27.5 -140.5v-981q0 -76 -29 -143.5t-79 -117.5t-116.5 -79t-142.5 -29 q-27 0 -45 18.5t-18 45.5z" />
<glyph unicode="*" horiz-adv-x="636" d="M74 1036q0 16 7 30.5t23 23.5l91 51l-91 51q-29 16 -28 55q0 29 19.5 45.5t41.5 16.5q10 0 31 -9l88 -51v103q0 27 18.5 45t42.5 18q27 0 45.5 -18.5t18.5 -44.5v-105l90 53q14 8 35 9q18 0 37.5 -15.5t19.5 -44.5q0 -37 -31 -55l-88 -53l91 -51q29 -18 28 -54 q0 -29 -18.5 -45t-40.5 -16q-16 0 -31 8l-92 51v-104q0 -25 -18.5 -43.5t-45.5 -18.5q-25 0 -43 18.5t-18 43.5v102l-88 -51q-20 -8 -31 -8q-20 0 -41.5 16.5t-21.5 46.5z" />
<glyph unicode="+" horiz-adv-x="858" d="M49 635q0 27 18.5 45t45.5 18h252v254q0 27 18 45.5t45 18.5t45.5 -18.5t18.5 -45.5v-254h253q27 0 45.5 -18t18.5 -45t-18.5 -45.5t-45.5 -18.5h-253v-254q0 -27 -18.5 -45t-45.5 -18t-45 18.5t-18 44.5v254h-252q-27 0 -45.5 18.5t-18.5 45.5z" />
<glyph unicode="," horiz-adv-x="323" d="M98 80q0 27 18.5 45t45.5 18t45 -18.5t18 -44.5v-316q0 -23 -18.5 -43t-44.5 -20q-27 0 -45.5 18.5t-18.5 44.5v316z" />
<glyph unicode="-" horiz-adv-x="950" d="M96 637q0 27 18.5 45t45.5 18h631q27 0 45 -18t18 -45t-18.5 -45.5t-44.5 -18.5h-631q-27 0 -45.5 18.5t-18.5 45.5z" />
<glyph unicode="." horiz-adv-x="329" d="M80 84q0 35 24.5 59.5t59.5 24.5t59.5 -24.5t24.5 -59.5t-24.5 -59.5t-59.5 -24.5t-59.5 24.5t-24.5 59.5z" />
<glyph unicode="/" horiz-adv-x="630" d="M53 61q0 8 4 21l394 1229q6 20 23.5 31.5t37.5 11.5q29 0 45 -20.5t16 -43.5q0 -12 -2 -18l-393 -1229q-6 -20 -24.5 -32.5t-36.5 -12.5q-29 0 -46.5 20.5t-17.5 42.5z" />
<glyph unicode="0" horiz-adv-x="1464" d="M80 651q0 135 51 254t139 208t207 140.5t254 51.5t254 -51.5t208 -140.5t140 -208t51 -254t-51 -253.5t-140 -207t-208 -139.5t-254 -51t-254 51t-207 139.5t-139 207t-51 253.5zM207 651q0 -109 41 -205t111.5 -166.5t167 -111.5t204.5 -41q109 0 205 41t168 111.5 t112.5 167t40.5 204.5q0 109 -40.5 205t-112.5 168t-168 113t-205 41t-205 -41t-166.5 -113t-111.5 -168t-41 -205z" />
<glyph unicode="1" horiz-adv-x="520" d="M76 1092q0 16 7 30.5t23 24.5l230 145q20 14 47 15q27 0 45 -16.5t18 -45.5v-1182q0 -27 -18 -45t-45 -18t-45.5 18.5t-18.5 44.5v1065l-147 -90q-16 -10 -33 -10q-23 0 -43 17.5t-20 46.5z" />
<glyph unicode="2" horiz-adv-x="993" d="M80 66q2 27 35 59l454 432q70 66 113 114t67.5 88t33 75.5t8.5 76.5q0 59 -20.5 110.5t-57.5 90.5t-88.5 60.5t-112.5 21.5q-96 0 -167 -52t-95 -145q-8 -27 -21.5 -44t-40.5 -17t-44 17.5t-17 43.5q0 45 27.5 100.5t79 102.5t124 79t164.5 32q82 0 152.5 -33t124 -88 t84 -130t30.5 -157q0 -100 -48 -192.5t-152 -186.5l-430 -399h565q27 0 45 -18.5t18 -45.5t-18.5 -44t-44.5 -17h-690q-6 0 -19.5 2t-26 9t-22.5 20.5t-10 34.5z" />
<glyph unicode="3" horiz-adv-x="968" d="M74 397q0 27 18.5 45.5t44.5 18.5q27 0 45.5 -18.5t18.5 -45.5q0 -59 22.5 -110t60.5 -89t89 -60.5t110 -22.5q57 0 109.5 22.5t90.5 60.5t60.5 89t22.5 110q0 57 -21.5 107.5t-58.5 88.5t-86 61.5t-106 25.5h-11q-27 0 -45 18.5t-18 44.5q0 27 18.5 45.5t44.5 18.5h9 q74 4 126 57.5t52 128.5q0 78 -54.5 132.5t-132.5 54.5t-132 -54.5t-54 -130.5q0 -29 -18.5 -46t-47.5 -17t-46 17.5t-17 45.5q0 63 24.5 121t67.5 101t100.5 67.5t122.5 24.5q66 0 123.5 -24.5t100.5 -67.5t67.5 -100.5t24.5 -123.5q0 -74 -31 -136t-82 -105 q92 -53 149.5 -146.5t57.5 -208.5q0 -84 -33 -158.5t-88 -130t-130 -88t-159 -32.5t-158.5 32.5t-130 88t-88 130t-32.5 158.5z" />
<glyph unicode="4" horiz-adv-x="937" d="M70 381q0 27 14 49l526 852q18 27 49 27q25 0 45.5 -19.5t20.5 -50.5v-809h82q27 0 45 -18.5t18 -44.5q0 -27 -18 -45.5t-45 -18.5h-82v-233q0 -27 -18.5 -45.5t-44.5 -18.5q-27 0 -45.5 18.5t-18.5 45.5v233h-455q-33 0 -53 22.5t-20 55.5zM229 430h369v584z" />
<glyph unicode="5" horiz-adv-x="1021" d="M78 293q0 23 14 40t43 17q23 0 42.5 -16.5t31.5 -38.5q41 -76 116.5 -122t168.5 -46q68 0 126 25.5t102 69.5t69.5 102.5t25.5 126.5t-25.5 126t-69.5 102t-102.5 69.5t-125.5 25.5q-27 0 -60 -4t-63.5 -14.5t-57 -26.5t-43.5 -41q-16 -23 -30.5 -37t-38.5 -14 q-25 0 -41.5 18.5t-16.5 40.5q0 4 1 6.5t1 6.5l88 540q2 25 20.5 42.5t43.5 17.5h506q27 0 45 -18.5t18 -45.5t-18.5 -45t-44.5 -18h-453l-53 -326q94 45 197 45q92 0 174 -36t143 -97t97 -143t36 -174t-36 -174t-97 -143.5t-143 -97.5t-174 -36q-131 0 -236.5 66.5 t-165.5 175.5q-14 23 -14 51z" />
<glyph unicode="6" horiz-adv-x="1007" d="M66 438q0 70 22.5 134.5t61.5 123.5l372 584q10 14 24.5 21.5t31.5 7.5q29 0 45 -19.5t16 -44.5q0 -18 -8 -33l-223 -348q23 4 46 7t48 3q90 0 170 -33.5t139 -93t94 -139.5t35 -170t-35 -170t-94 -139t-139 -94t-170 -35t-170 35t-139.5 94t-93 139t-33.5 170zM193 438 q0 -66 24.5 -122t65.5 -97t97 -65.5t122 -24.5q63 0 120.5 24.5t99.5 65.5t66.5 97.5t24.5 121.5q0 63 -24.5 120.5t-66.5 99.5t-99.5 67t-120.5 25q-66 0 -122 -25t-97 -67t-65.5 -99t-24.5 -121z" />
<glyph unicode="7" horiz-adv-x="858" d="M61 1243q0 27 18.5 45.5t45.5 18.5h606q31 0 47.5 -19.5t16.5 -44.5q0 -16 -7 -31l-534 -1179q-20 -33 -57 -33q-29 0 -46.5 20.5t-17.5 42.5q0 16 8 31l484 1086h-500q-27 0 -45.5 18.5t-18.5 44.5z" />
<glyph unicode="8" horiz-adv-x="960" d="M78 403q0 111 54 202.5t144 144.5q-53 45 -82.5 107.5t-29.5 135.5q0 66 24.5 123.5t67.5 100.5t100.5 67.5t122.5 24.5q66 0 123 -24.5t100 -67.5t68 -100.5t25 -123.5q0 -74 -31 -136t-84 -105q92 -53 147.5 -145.5t55.5 -203.5q0 -84 -32 -156.5t-86 -128t-128 -87 t-158 -31.5t-156.5 31.5t-127 87t-86 128t-31.5 156.5zM207 401q0 -57 21.5 -106t58.5 -86t86 -58.5t106 -21.5t107.5 21.5t87.5 58.5t58.5 86t21.5 106t-21.5 107.5t-58.5 87.5t-87.5 58.5t-107.5 21.5t-106 -21.5t-86 -58.5t-58.5 -87t-21.5 -108zM291 993q0 -39 14 -73.5 t40 -60t60.5 -40t73.5 -14.5t74 14.5t60.5 40t40 60t14.5 73.5t-14.5 74t-40 60.5t-60.5 40t-74 14.5t-73.5 -14.5t-60.5 -40t-40 -60.5t-14 -74z" />
<glyph unicode="9" horiz-adv-x="1005" d="M66 870q0 90 34.5 170t94 139.5t139.5 94.5t170 35t170 -35t139 -94.5t93 -139t34 -170.5q0 -70 -23.5 -135t-60.5 -123l-373 -583q-20 -31 -55 -31q-29 0 -46 20.5t-17 44.5q0 16 10 33l223 348q-23 -4 -46.5 -7t-47.5 -3q-90 0 -170 34t-139.5 93.5t-94 139 t-34.5 169.5zM193 870q0 -66 24.5 -122t66.5 -98t98 -66.5t122 -24.5q63 0 120.5 24.5t98.5 66.5t65.5 98.5t24.5 121.5q0 63 -24.5 121t-65.5 98.5t-98.5 65.5t-120.5 25q-66 0 -122 -25t-98 -65.5t-66.5 -98.5t-24.5 -121z" />
<glyph unicode=":" horiz-adv-x="337" d="M84 84q0 35 24.5 59.5t59.5 24.5t59.5 -24.5t24.5 -59.5t-24.5 -59.5t-59.5 -24.5t-59.5 24.5t-24.5 59.5zM84 909q0 35 24.5 59.5t59.5 24.5t59.5 -24.5t24.5 -59.5t-24.5 -59.5t-59.5 -24.5t-59.5 24.5t-24.5 59.5z" />
<glyph unicode=";" horiz-adv-x="303" d="M68 907q0 35 24.5 59.5t59.5 24.5t59.5 -24.5t24.5 -59.5t-25 -59.5t-59 -24.5q-35 0 -59.5 24.5t-24.5 59.5zM86 80q0 27 18.5 45t45.5 18t45 -18.5t18 -44.5v-316q0 -23 -18.5 -43t-44.5 -20q-27 0 -45.5 18.5t-18.5 44.5v316z" />
<glyph unicode="=" horiz-adv-x="923" d="M96 471q0 27 18.5 45.5t45.5 18.5h604q27 0 45 -18.5t18 -45.5t-18 -45t-45 -18h-604q-27 0 -45.5 18t-18.5 45zM96 889q0 27 18.5 45t45.5 18h604q27 0 45 -18.5t18 -44.5q0 -27 -18 -45.5t-45 -18.5h-604q-27 0 -45.5 18.5t-18.5 45.5z" />
<glyph unicode="&#x3e;" horiz-adv-x="786" d="M74 905q0 27 17.5 43.5t41.5 16.5q20 0 35 -9l520 -278q23 -12 23 -47q0 -33 -25 -45l-518 -277q-14 -8 -31 -8q-25 0 -43 15.5t-18 43.5q0 18 11 35t28 25l436 213l-447 221q-16 8 -23 21.5t-7 29.5z" />
<glyph unicode="?" horiz-adv-x="919" d="M57 905q0 84 32 158t86 128t127 86t157 32q82 0 155.5 -32t128 -86t86 -128t31.5 -156q0 -84 -31.5 -156.5t-86 -127t-128 -86t-155.5 -31.5h-64v-96q0 -33 -18.5 -52.5t-44.5 -19.5q-27 0 -45.5 19.5t-18.5 52.5v151q0 33 19.5 52.5t52.5 19.5h119q57 0 107 21.5 t87 58.5t58.5 86t21.5 106t-21.5 107.5t-58.5 87.5t-87 58.5t-107 21.5q-55 0 -104.5 -21.5t-87.5 -58.5t-59.5 -87t-21.5 -108q0 -29 -18 -46t-47 -17t-46.5 17.5t-17.5 45.5zM248 84q0 35 24.5 59.5t59.5 24.5t59.5 -24.5t24.5 -59.5t-24.5 -59.5t-59.5 -24.5t-59.5 24.5 t-24.5 59.5z" />
<glyph unicode="@" horiz-adv-x="1632" d="M76 625q0 154 58.5 289t157.5 235t234.5 158.5t288.5 58.5q154 0 289 -58.5t235.5 -158.5t158.5 -235.5t58 -288.5q0 -61 -11 -130t-41.5 -125.5t-84 -93t-135.5 -36.5q-76 0 -128 47t-83 110q-47 -47 -116.5 -80.5t-141.5 -33.5t-134.5 26.5t-109.5 73.5t-73.5 109.5 t-26.5 134.5t26.5 134t73.5 109.5t109.5 74t134.5 26.5t134.5 -26.5t109.5 -74t73.5 -110t26.5 -133.5v-131q0 -55 37 -92t90 -37q47 0 76 24.5t44 62.5t19.5 83t4.5 86q0 127 -48.5 239.5t-131.5 195.5t-195.5 131t-239.5 48t-238.5 -48t-194.5 -131t-131 -195.5 t-48 -239.5t48 -239t131 -195t194.5 -131t238.5 -48q47 0 94 6.5t88 18.5q18 6 35 6q25 0 43.5 -14.5t18.5 -42.5q0 -29 -30 -48.5t-73 -30.5t-91 -15.5t-85 -4.5q-154 0 -289 58.5t-234 158t-157.5 234.5t-58.5 289zM598 627q0 -92 62.5 -154.5t154.5 -62.5 q88 0 150.5 60.5t66.5 156.5q0 92 -62.5 154.5t-154.5 62.5t-154.5 -62.5t-62.5 -154.5z" />
<glyph unicode="A" horiz-adv-x="1288" d="M70 63q0 12 6 25l510 1174q6 16 22.5 31.5t36.5 15.5t36.5 -14.5t25.5 -32.5l505 -1174q4 -8 5 -25q0 -25 -16.5 -43t-45.5 -18q-43 0 -59 39l-164 375h-576l-163 -375q-8 -18 -24.5 -28.5t-35.5 -10.5q-29 0 -46 18.5t-17 42.5zM412 543h465l-232 528z" />
<glyph unicode="B" horiz-adv-x="1001" d="M88 63v1182q0 27 18.5 45.5t45.5 18.5h364q66 0 123 -24.5t100 -67.5t69 -101.5t26 -124.5q0 -74 -33 -137t-86 -109q90 -51 144 -142t54 -204q0 -82 -30.5 -154.5t-85 -127t-127 -86t-154.5 -31.5h-364q-27 0 -45.5 18.5t-18.5 44.5zM215 127h301q55 0 104.5 22.5 t86 59.5t58 86t21.5 104t-21.5 105.5t-58 87.5t-86 58.5t-104.5 21.5h-301v-545zM215 799h301q39 0 74 16t60.5 43t40 61.5t14.5 71.5q0 39 -14.5 73t-40 60.5t-60.5 42t-74 15.5h-301v-383z" />
<glyph unicode="C" horiz-adv-x="1310" d="M80 651q0 135 51 254t139 208t207 140.5t254 51.5q137 0 257 -53.5t210 -145.5q10 -10 18.5 -26.5t8.5 -32.5q0 -27 -18.5 -41.5t-43.5 -14.5q-31 1 -49 21q-74 63 -172 114.5t-211 51.5q-109 0 -205 -41t-166.5 -113t-111.5 -168t-41 -205t41 -205t111.5 -166.5 t167 -111.5t204.5 -41q115 0 214 44t171 122q10 12 25.5 18t32.5 6q27 0 40 -18t13 -41q0 -33 -19 -51q-90 -98 -213 -152.5t-264 -54.5q-135 0 -254 51t-207 139.5t-139 207t-51 253.5z" />
<glyph unicode="D" horiz-adv-x="1243" d="M86 63v1182q0 27 18.5 45.5t45.5 18.5h352q135 0 253.5 -51.5t208 -140.5t140.5 -207.5t51 -254.5q0 -135 -51 -254.5t-140.5 -209t-208 -140.5t-253.5 -51h-352q-27 0 -45.5 18.5t-18.5 44.5zM213 127h289q109 0 205 42t167.5 113.5t112.5 168t41 204.5q0 109 -41 205 t-112.5 168t-168 113t-204.5 41h-289v-1055z" />
<glyph unicode="E" horiz-adv-x="903" d="M76 63v1182q0 27 18.5 45.5t44.5 18.5h623q27 0 45 -18.5t18 -45.5t-18.5 -45t-44.5 -18h-559v-457h372q27 0 45.5 -18.5t18.5 -44.5q0 -27 -18.5 -45.5t-45.5 -18.5h-372v-471h559q27 0 45 -18.5t18 -45.5t-18.5 -45t-44.5 -18h-623q-27 0 -45 18.5t-18 44.5z" />
<glyph unicode="F" horiz-adv-x="890" d="M70 63v1182q0 27 18 45.5t45 18.5h625q27 0 45 -18.5t18 -45.5t-18.5 -45t-44.5 -18h-561v-457h354q27 0 45 -18.5t18 -44.5q0 -27 -18 -45.5t-45 -18.5h-354v-535q0 -27 -18.5 -45t-45.5 -18t-45 18.5t-18 44.5z" />
<glyph unicode="G" horiz-adv-x="1425" d="M78 651q0 135 51 254t139 208t207 140.5t254 51.5q164 0 302 -74t226 -197q14 -23 15 -43q0 -20 -16.5 -39.5t-45.5 -19.5q-14 0 -29.5 6t-27.5 23q-98 115 -206.5 166t-217.5 51t-205 -41t-166.5 -113t-111.5 -168t-41 -205t41 -205t111.5 -166.5t167 -111.5t204.5 -41 q86 0 163 25.5t141.5 70.5t112.5 108.5t77 139.5h-285q-27 0 -45.5 18.5t-18.5 45.5t18.5 45t45.5 18h371q29 0 45 -19.5t16 -46.5q0 -4 -1 -8t-1 -8q-23 -111 -81 -206t-143 -163.5t-191.5 -107.5t-223.5 -39q-135 0 -254 51t-207 139.5t-139 207t-51 253.5z" />
<glyph unicode="H" horiz-adv-x="1103" d="M98 63v1182q0 27 18.5 45.5t45.5 18.5t45 -18.5t18 -45.5v-575h654v575q0 27 18 45.5t45 18.5t45.5 -18.5t18.5 -45.5v-1182q0 -27 -18.5 -45t-45.5 -18t-45 18.5t-18 44.5v480h-654v-480q0 -27 -18.5 -45t-44.5 -18q-27 0 -45.5 18.5t-18.5 44.5z" />
<glyph unicode="I" horiz-adv-x="329" d="M100 63v1182q0 27 18.5 45.5t45.5 18.5t45 -18.5t18 -45.5v-1182q0 -27 -18.5 -45t-44.5 -18q-27 0 -45.5 18.5t-18.5 44.5z" />
<glyph unicode="J" horiz-adv-x="288" d="M-287 -307q0 27 18.5 45t45.5 18q68 0 126 24.5t100 67.5t66.5 100.5t24.5 123.5v1173q0 27 18.5 45.5t45.5 18.5t45 -18.5t18 -45.5v-1173q0 -90 -34.5 -171t-94 -141.5t-140.5 -95.5t-175 -35q-27 0 -45.5 18.5t-18.5 45.5z" />
<glyph unicode="K" horiz-adv-x="1067" d="M94 63v1182q0 27 18.5 45.5t45.5 18.5t45 -18.5t18 -45.5v-543l641 588q18 18 45 19q27 0 45.5 -18.5t18.5 -45.5t-19 -45l-440 -403l442 -701q10 -16 11 -33q0 -23 -17.5 -43t-46.5 -20q-35 0 -53 31l-430 680l-197 -181v-467q0 -27 -18.5 -45t-44.5 -18 q-27 0 -45.5 18.5t-18.5 44.5z" />
<glyph unicode="L" horiz-adv-x="786" d="M70 63v1182q0 27 18 45.5t45 18.5t45.5 -18.5t18.5 -45.5v-1118h520q27 0 45 -18.5t18 -45.5t-18.5 -45t-44.5 -18h-584q-27 0 -45 18.5t-18 44.5z" />
<glyph unicode="M" horiz-adv-x="1572" d="M90 61q0 2 1 4.5t1 6.5l168 1183q4 23 21.5 38.5t42.5 15.5q43 0 59 -39l416 -1037l413 1037q16 39 60 39q25 0 42 -16.5t21 -41.5l144 -1181v-11q0 -25 -16.5 -42t-39.5 -17q-29 0 -47 15.5t-22 37.5l-115 942l-379 -952q-8 -18 -24.5 -32.5t-36.5 -14.5t-37 15.5 t-23 31.5l-387 963l-135 -951q-4 -25 -22.5 -40t-40.5 -15q-29 4 -46.5 20.5t-17.5 40.5z" />
<glyph unicode="N" d="M98 63v1182q0 27 18.5 45.5t45.5 18.5q23 0 34 -9.5t23 -25.5l705 -998v969q0 27 18.5 45.5t44.5 18.5q27 0 45.5 -18.5t18.5 -45.5v-1182q0 -27 -18.5 -45t-45.5 -18q-23 0 -37 13.5t-24 29.5l-701 991v-971q0 -27 -18.5 -45t-44.5 -18q-27 0 -45.5 18.5t-18.5 44.5z " />
<glyph unicode="O" horiz-adv-x="1464" d="M80 651q0 135 51 254t139 208t207 140.5t254 51.5t254 -51.5t208 -140.5t140 -208t51 -254t-51 -253.5t-140 -207t-208 -139.5t-254 -51t-254 51t-207 139.5t-139 207t-51 253.5zM207 651q0 -109 41 -205t111.5 -166.5t167 -111.5t204.5 -41q109 0 205 41t168 111.5 t112.5 167t40.5 204.5q0 109 -40.5 205t-112.5 168t-168 113t-205 41t-205 -41t-166.5 -113t-111.5 -168t-41 -205z" />
<glyph unicode="P" horiz-adv-x="894" d="M72 63v1180q0 27 18.5 46.5t44.5 19.5h334q74 0 137.5 -28t111.5 -76t75.5 -111.5t27.5 -135.5t-27.5 -136t-75.5 -111t-111.5 -75t-137.5 -28h-270v-545q0 -27 -18.5 -45t-45.5 -18t-45 18.5t-18 44.5zM199 735h270q45 0 86 17.5t71.5 48t48 70.5t17.5 87q0 45 -17.5 86 t-48 72t-71.5 48.5t-86 17.5h-270v-447z" />
<glyph unicode="Q" horiz-adv-x="1460" d="M78 651q0 135 51 254t139 208t207 140.5t254 51.5t254 -51.5t208 -140.5t140 -208t51 -254q0 -96 -26.5 -185t-74.5 -164t-115.5 -135.5t-147.5 -98.5q14 -14 38.5 -19.5t48 -11.5t40 -18.5t16.5 -43.5q0 -27 -18.5 -45t-44.5 -18q-68 0 -121 30.5t-88 75.5 q-35 -8 -73 -13t-87 -5q-125 0 -242.5 49t-208 137t-145.5 207t-55 258zM205 651q0 -154 77.5 -277.5t204.5 -189.5l-4 43q0 57 19.5 105.5t53.5 84.5t78 55.5t95 19.5q49 0 93 -19.5t78 -53.5t53.5 -78t19.5 -93v-23l-6 -43q63 33 116.5 81t91 108.5t59 131t21.5 148.5 q0 109 -40.5 205t-112.5 168t-168 113t-205 41t-205 -41t-166.5 -113t-111.5 -168t-41 -205zM610 246q0 -47 33 -81t86 -38q49 0 84 35t35 84t-35 84t-84 35t-84 -35t-35 -84z" />
<glyph unicode="R" horiz-adv-x="946" d="M92 63v1180q0 27 18.5 46.5t45.5 19.5h336q74 0 137 -28t111 -76t76 -111.5t28 -135.5q0 -66 -22.5 -123t-61.5 -103t-93.5 -77.5t-115.5 -42.5l311 -506q6 -10 11.5 -22t5.5 -27q0 -16 -15.5 -36.5t-44.5 -20.5q-18 0 -33.5 10t-25.5 27l-350 571h-191v-545 q0 -27 -18.5 -45t-44.5 -18q-27 0 -45.5 18.5t-18.5 44.5zM219 735h273q45 0 85.5 17.5t71.5 48t48.5 70.5t17.5 87q0 45 -17.5 86t-48.5 72t-71.5 48.5t-85.5 17.5h-273v-447z" />
<glyph unicode="S" horiz-adv-x="987" d="M72 244q0 25 19.5 45t47.5 20q39 0 58 -33q18 -37 54 -64.5t79 -47t87 -28.5t79 -9q55 0 108 20.5t93 55.5t64.5 83t24.5 103t-21.5 96t-60 72t-92 55.5t-114.5 44.5q-61 18 -130 46t-125.5 67t-93 91t-36.5 120q0 78 34.5 138.5t90 102.5t124 63.5t136.5 21.5 q45 0 93 -7.5t95 -26t91 -51t81 -83.5q12 -18 12 -43q0 -29 -17 -48.5t-46 -19.5q-37 0 -57 33q-25 41 -58 64.5t-66.5 36t-67.5 15.5t-60 3q-41 0 -86 -10.5t-83 -33t-62.5 -60.5t-24.5 -95q0 -41 35.5 -74t87 -57.5t106.5 -43t94 -32.5q78 -29 141.5 -61.5t109.5 -77.5 t71.5 -104.5t25.5 -141.5t-34.5 -153.5t-93 -124t-134.5 -82t-157 -29.5q-57 0 -120 15.5t-119 43t-102.5 66.5t-70.5 86q-10 16 -10 33z" />
<glyph unicode="T" horiz-adv-x="944" d="M53 1245q0 27 18.5 45.5t45.5 18.5h710q27 0 45.5 -18.5t18.5 -45.5t-18.5 -45t-45.5 -18h-290v-1119q0 -27 -18.5 -45t-45.5 -18t-45 18.5t-18 44.5v1119h-293q-27 0 -45.5 18.5t-18.5 44.5z" />
<glyph unicode="U" horiz-adv-x="1095" d="M92 455v788q0 23 18.5 44.5t47.5 21.5t45 -20.5t16 -47.5v-786q0 -68 25.5 -127.5t69.5 -103.5t104.5 -70.5t128.5 -26.5t127 26.5t104 70.5t72 103.5t27 127.5v788q0 23 18 44.5t47 21.5t45.5 -22.5t16.5 -45.5v-786q0 -94 -37 -177t-98.5 -144.5t-144.5 -97.5t-177 -36 t-177 36t-144.5 97.5t-97.5 144t-36 177.5z" />
<glyph unicode="V" horiz-adv-x="1153" d="M70 1247q0 25 17 43.5t46 18.5q18 0 34.5 -11.5t25.5 -27.5l385 -1032l380 1032q8 16 23.5 27.5t36.5 11.5q29 0 45 -18.5t16 -43.5q0 -16 -4 -24l-436 -1176q-8 -18 -25.5 -32.5t-35.5 -14.5q-20 0 -37 15.5t-23 31.5l-442 1176q-6 12 -6 24z" />
<glyph unicode="W" horiz-adv-x="1810" d="M82 1247q0 25 17.5 43.5t45.5 18.5q18 0 35 -11.5t25 -27.5l385 -1032l250 1011q4 18 21.5 39t43.5 21q27 0 42.5 -18.5t23.5 -41.5l254 -1011l381 1032q8 16 23.5 27.5t35.5 11.5q29 0 45 -18.5t16 -43.5q0 -16 -4 -24l-436 -1176q-8 -18 -24.5 -32.5t-42.5 -14.5 q-27 0 -44.5 15.5t-21.5 31.5l-248 954l-243 -954q-4 -18 -22.5 -32.5t-43.5 -14.5q-27 0 -43 15.5t-23 31.5l-442 1176q-6 12 -6 24z" />
<glyph unicode="X" horiz-adv-x="1503" d="M96 63q0 27 19 46l547 546l-547 547q-18 18 -19 45q0 27 18.5 45.5t45.5 18.5t45 -19l547 -547l546 547q18 18 45 19q27 0 45.5 -18.5t18.5 -45.5t-18 -45l-547 -547l547 -546q18 -18 18 -46q0 -27 -18.5 -45t-45.5 -18t-45 18l-546 547l-547 -547q-18 -18 -45 -18 t-45.5 18.5t-18.5 44.5z" />
<glyph unicode="Y" horiz-adv-x="1060" d="M70 1243q0 25 17 44.5t46 19.5q35 0 53 -27l344 -514l344 514q18 27 54 27q27 0 45 -19.5t18 -44.5q0 -18 -10 -35l-387 -575v-570q0 -27 -18.5 -45t-45.5 -18t-45 18.5t-18 44.5v570l-385 575q-12 14 -12 35z" />
<glyph unicode="Z" horiz-adv-x="1116" d="M72 63q0 16 12 39l778 1080h-727q-27 0 -45 18.5t-18 44.5q0 27 18.5 45.5t44.5 18.5h846q27 0 45 -18.5t18 -45.5q0 -16 -9 -30.5t-7 -12.5l-780 -1075h733q27 0 45 -18.5t18 -45.5t-18 -45t-45 -18h-846q-27 0 -45 18.5t-18 44.5z" />
<glyph unicode="[" horiz-adv-x="548" d="M74 -262v1565q0 27 18.5 45t44.5 18h273q27 0 45 -18.5t18 -44.5q0 -27 -18.5 -45.5t-44.5 -18.5h-209v-1438h209q27 0 45 -18.5t18 -44.5q0 -27 -18.5 -45.5t-44.5 -18.5h-273q-27 0 -45 18.5t-18 45.5z" />
<glyph unicode="\" horiz-adv-x="630" d="M53 1290q0 23 17.5 43.5t46.5 20.5q20 0 37.5 -11.5t23.5 -31.5l393 -1229q4 -12 4 -21q0 -23 -17 -43t-46 -20q-20 2 -37.5 13.5t-23.5 31.5l-394 1229q-4 12 -4 18z" />
<glyph unicode="]" horiz-adv-x="550" d="M76 -262q0 27 18.5 45t44.5 18h209v1438h-209q-27 0 -45 18.5t-18 45.5t18.5 45t44.5 18h273q27 0 45 -18.5t18 -44.5v-1565q0 -27 -18.5 -45.5t-44.5 -18.5h-273q-27 0 -45 18.5t-18 45.5z" />
<glyph unicode="^" horiz-adv-x="1282" d="M68 545q0 18 8 35q0 2 3 7t17.5 26.5t44 66.5t84 127t137 207t203.5 307q10 16 26.5 33.5t45.5 17.5t42 -15.5t28 -35.5q119 -182 202.5 -307t138 -207t85 -127t46 -66.5t18.5 -26.5t5 -7q8 -14 8 -31q0 -20 -16 -40t-43 -20q-33 0 -49 27l-467 660l-445 -650 q-10 -14 -27.5 -27.5t-37.5 -13.5q-25 0 -41 18.5t-16 41.5z" />
<glyph unicode="_" horiz-adv-x="1146" d="M96 63q0 27 18.5 45.5t45.5 18.5h827q27 0 45.5 -18.5t18.5 -45.5t-18.5 -45t-45.5 -18h-827q-27 0 -45.5 18.5t-18.5 44.5z" />
<glyph unicode="`" horiz-adv-x="417" d="M61 1397q0 23 17.5 44t46.5 21q16 0 30.5 -7t22.5 -23l170 -293q6 -16 6 -29q0 -25 -17.5 -45.5t-45.5 -20.5q-39 0 -53 31l-170 295q-6 12 -7 27z" />
<glyph unicode="a" horiz-adv-x="1159" d="M84 494q0 102 38 193t104.5 158.5t157.5 106.5t198 39q98 0 187 -40t156.5 -107.5t107.5 -157.5t40 -192v-433q0 -27 -18.5 -45t-44.5 -18q-27 0 -45.5 18.5t-18.5 44.5v125q-68 -76 -163 -130t-205 -54q-102 0 -191.5 37t-157 102.5t-106.5 155.5t-39 197zM211 494 q0 -76 28.5 -142.5t79 -117t117 -79t142.5 -28.5q74 0 139 27.5t115.5 77t80 116t33.5 146.5q0 76 -28.5 143.5t-79 117.5t-118 78.5t-142.5 28.5q-76 0 -142.5 -28.5t-117 -78.5t-79 -118t-28.5 -143z" />
<glyph unicode="b" horiz-adv-x="1142" d="M76 63v1182q0 27 18.5 45.5t44.5 18.5q27 0 45.5 -18.5t18.5 -45.5v-442q68 74 162 128t208 58q98 0 187.5 -40t157 -107.5t107.5 -157.5t40 -192q0 -100 -39 -189.5t-105.5 -157t-156.5 -106.5t-195 -39q-111 0 -205 42t-161 116v-95q0 -27 -18.5 -45t-45.5 -18 t-45 18.5t-18 44.5zM203 475q2 -74 32.5 -137.5t80 -110.5t115 -74.5t138.5 -27.5q76 0 143.5 28.5t118 79t79 117t28.5 142.5t-28.5 143t-79 117.5t-118 79t-143.5 28.5q-74 0 -139 -27.5t-114.5 -76.5t-80 -117t-32.5 -147v-17z" />
<glyph unicode="c" horiz-adv-x="1028" d="M84 492q0 102 38 191t104.5 155.5t158 106.5t197.5 44q82 0 147.5 -24.5t112.5 -56t72.5 -63.5t25.5 -48q0 -23 -18.5 -39.5t-40.5 -16.5q-27 0 -45 19q-51 45 -117 72.5t-141 27.5q-76 0 -142.5 -28.5t-117 -79t-79 -118t-28.5 -142.5q0 -76 28.5 -142.5t79 -117 t117 -79t142.5 -28.5t141 27.5t117 76.5q18 18 45 19q25 0 44 -17.5t19 -44.5q0 -16 -23.5 -48t-70.5 -62.5t-115.5 -53t-156.5 -22.5q-102 0 -191.5 37t-157 102.5t-106.5 155.5t-39 197z" />
<glyph unicode="d" horiz-adv-x="1142" d="M76 494q0 102 40 192t107.5 157.5t156.5 107.5t187 40q115 -4 209 -58t162 -128v440q0 27 18.5 45.5t44.5 18.5q27 0 45.5 -18.5t18.5 -45.5v-1182q0 -27 -18.5 -45t-45.5 -18t-45 18.5t-18 44.5v97l-18 -19q-68 -66 -158 -102.5t-191 -36.5q-104 0 -194 39t-156.5 106.5 t-105.5 156.5t-39 190zM203 494q0 -76 28.5 -142.5t78.5 -117t118 -79t143 -28.5q76 0 142.5 28.5t117 79t79 117t28.5 142.5q-4 80 -34 147.5t-79 116.5t-114.5 76.5t-139.5 27.5q-76 0 -143.5 -28.5t-117.5 -78.5t-78.5 -118t-28.5 -143z" />
<glyph unicode="e" d="M80 494q0 102 38 191t104.5 155.5t157.5 106.5t198 44q96 0 185 -39t156.5 -106.5t108.5 -156.5t41 -191q0 -31 -20.5 -47.5t-42.5 -16.5h-795q10 -66 43 -122t81 -97t109.5 -64.5t128.5 -23.5q76 0 141.5 27.5t116.5 76.5q18 18 46 19q27 0 45 -18.5t18 -45.5t-18 -45 q-68 -76 -153 -107.5t-196 -31.5q-102 0 -191 37t-156.5 102.5t-106.5 155.5t-39 197zM213 561h723q-12 63 -45 118.5t-81 95.5t-108.5 63.5t-128.5 23.5t-128 -23.5t-108 -63.5t-80 -95t-44 -119z" />
<glyph unicode="f" horiz-adv-x="591" d="M55 932q0 27 18.5 45t45.5 18h84v43q0 55 20.5 104.5t57 86.5t86 58.5t106.5 21.5q27 0 45.5 -18.5t18.5 -45.5t-18.5 -45t-45.5 -18q-59 0 -101 -42t-42 -102v-43h139q27 0 45 -18.5t18 -44.5q0 -27 -18 -45.5t-45 -18.5h-139v-805q0 -27 -18.5 -45t-45.5 -18t-45 18.5 t-18 44.5v805h-84q-27 0 -45.5 18.5t-18.5 45.5z" />
<glyph unicode="g" horiz-adv-x="1159" d="M84 492q0 102 38 191t104.5 155.5t157.5 106.5t198 44q106 -2 200.5 -47t163.5 -123v90q0 27 18.5 45.5t45.5 18.5t45 -18.5t18 -45.5v-790q0 -100 -39 -189.5t-105.5 -157t-156.5 -106.5t-194 -39t-192.5 37t-156.5 103l-2 2q-18 18 -18 43q0 27 19.5 46t45.5 19 q27 0 43 -16q51 -51 117 -80t144 -29q76 0 143 29t117.5 79t79 116.5t28.5 142.5v45q-68 -76 -163 -120t-205 -44q-102 0 -191.5 37t-157 102.5t-106.5 155.5t-39 197zM211 492q0 -76 28.5 -142.5t79 -117t117 -79t142.5 -28.5q74 0 139 27.5t115.5 74.5t80 110.5 t33.5 137.5v31q-4 74 -33.5 138.5t-80 112.5t-116 75.5t-138.5 27.5q-76 0 -142.5 -28.5t-117 -79t-79 -118t-28.5 -142.5z" />
<glyph unicode="h" horiz-adv-x="897" d="M80 63v1182q0 27 18.5 45.5t44.5 18.5q27 0 45.5 -18.5t18.5 -45.5v-344q47 41 108.5 65.5t130.5 24.5q76 0 143.5 -28.5t118 -78.5t79 -118t28.5 -143v-560q0 -27 -18.5 -45t-44.5 -18q-27 0 -45.5 18.5t-18.5 44.5v560q0 49 -19.5 93t-52 76.5t-76.5 51t-94 18.5 q-49 0 -92 -18.5t-75.5 -49t-51 -72.5t-20.5 -89v-570q0 -29 -17.5 -46t-46.5 -17q-27 0 -44 18.5t-19 44.5z" />
<glyph unicode="i" horiz-adv-x="315" d="M74 1225q0 35 24.5 59.5t59.5 24.5t59.5 -24.5t24.5 -59.5t-24.5 -59.5t-59.5 -24.5t-59.5 24.5t-24.5 59.5zM94 63v869q0 27 18.5 45t45.5 18t45 -18.5t18 -44.5v-869q0 -27 -18.5 -45t-44.5 -18q-27 0 -45.5 18.5t-18.5 44.5z" />
<glyph unicode="j" horiz-adv-x="299" d="M-182 -307q0 27 18.5 45t44.5 18q68 0 109 27t63.5 62.5t29.5 69.5t7 48v969q0 27 18.5 45t45.5 18t45 -18.5t18 -44.5v-969q0 -45 -17.5 -102.5t-57.5 -108.5t-103.5 -87t-157.5 -36q-27 0 -45 18.5t-18 45.5zM70 1225q0 35 24.5 59.5t59.5 24.5t59.5 -24.5t24.5 -59.5 t-25 -59.5t-59 -24.5q-35 0 -59.5 24.5t-24.5 59.5z" />
<glyph unicode="k" horiz-adv-x="815" d="M78 63v1180q0 27 18.5 45.5t44.5 18.5q27 0 45.5 -18.5t18.5 -45.5v-680l413 412q18 18 46 18q27 0 45 -18.5t18 -44.5q0 -27 -18 -45l-295 -287l313 -504q8 -14 8 -31q0 -23 -17.5 -44t-43.5 -21q-35 0 -56 33l-296 475l-117 -117v-326q0 -27 -18.5 -45t-45.5 -18 t-45 18.5t-18 44.5z" />
<glyph unicode="l" horiz-adv-x="331" d="M102 63v1182q0 27 18.5 45.5t45.5 18.5t45 -18.5t18 -45.5v-1182q0 -27 -18 -45t-45 -18t-45.5 18.5t-18.5 44.5z" />
<glyph unicode="m" horiz-adv-x="1406" d="M96 63v869q0 27 18.5 45t45.5 18t45 -18.5t18 -44.5v-23q35 35 91.5 63.5t115.5 28.5q86 0 155.5 -37.5t114.5 -101.5q47 63 117 101t156 38q70 0 131 -26.5t106 -71.5t72 -106.5t27 -130.5v-603q0 -27 -18.5 -45t-45.5 -18t-45 18.5t-18 44.5v603q0 43 -16.5 80.5 t-45 66.5t-66.5 45t-81 16t-81 -16t-65.5 -45t-44 -66.5t-16.5 -80.5v-603q0 -27 -18.5 -45t-45.5 -18t-45 18.5t-18 44.5v603q-4 90 -64.5 149t-144.5 59q-86 0 -144.5 -58t-62.5 -142v-611q0 -27 -18.5 -45t-44.5 -18q-27 0 -45.5 18.5t-18.5 44.5z" />
<glyph unicode="n" horiz-adv-x="925" d="M94 63v869q0 27 18.5 45t45.5 18t45 -18.5t18 -44.5v-27q47 41 108.5 65.5t131.5 24.5q76 0 143.5 -28.5t117.5 -78.5t78.5 -118t28.5 -143v-564q0 -27 -18 -45t-45 -18t-45.5 18.5t-18.5 44.5v564q0 49 -19 93t-52 76.5t-77 51t-93 18.5t-92 -18.5t-76 -49t-51.5 -72.5 t-20.5 -89v-574q0 -27 -18.5 -45t-44.5 -18q-27 0 -45.5 18.5t-18.5 44.5z" />
<glyph unicode="o" d="M80 494q0 102 38 191t104.5 155.5t158 106.5t197.5 44q98 0 187 -40t156.5 -107.5t107.5 -157.5t40 -192q0 -100 -39 -189.5t-105.5 -157t-156.5 -106.5t-195 -39q-102 0 -191 37t-156.5 102.5t-106.5 155.5t-39 197zM207 494q0 -76 28.5 -142.5t79 -117t117 -79 t141.5 -28.5q76 0 143.5 28.5t118 79t79 117t28.5 142.5t-28.5 143.5t-79 117.5t-118 78.5t-143.5 28.5t-142 -28.5t-116.5 -78.5t-79 -118t-28.5 -143z" />
<glyph unicode="p" horiz-adv-x="1140" d="M76 -307v1239q0 27 18.5 45t44.5 18q27 0 45.5 -18.5t18.5 -44.5v-103q68 76 162 118t204 42q104 0 194.5 -39t157 -106.5t105.5 -156.5t39 -189q0 -102 -40 -192.5t-107.5 -158t-156.5 -107.5t-188 -40q-115 4 -209 58.5t-161 127.5v-493q0 -27 -18.5 -45.5t-45.5 -18.5 t-45 18.5t-18 45.5zM203 498q2 -80 32.5 -147.5t80 -117t115 -77t138.5 -27.5q76 0 143.5 28.5t118 79t79 118t28.5 143.5t-28.5 142.5t-79 116.5t-118 78.5t-143.5 28.5q-74 0 -139 -27.5t-114.5 -74.5t-80 -111.5t-32.5 -138.5v-14z" />
<glyph unicode="q" horiz-adv-x="1140" d="M76 498q0 100 39 189t105.5 156.5t156.5 106.5t194 39q109 0 203 -42t164 -118v103q0 27 18.5 45t44.5 18q27 0 45.5 -18.5t18.5 -44.5v-1239q0 -27 -18.5 -45.5t-45.5 -18.5t-45 18.5t-18 45.5v493q-68 -74 -162 -128t-209 -58q-98 0 -187 40t-156.5 107.5t-107.5 157.5 t-40 193zM203 498q0 -76 28.5 -143.5t78.5 -118t118 -79t143 -28.5q74 0 139.5 27.5t114.5 77t79 117t34 147.5q0 76 -28.5 142.5t-79 116.5t-117 78.5t-142.5 28.5t-143.5 -28.5t-117.5 -78.5t-78.5 -117t-28.5 -142z" />
<glyph unicode="r" horiz-adv-x="661" d="M72 63v869q0 27 18.5 45t44.5 18q27 0 45.5 -18.5t18.5 -44.5v-101q66 72 158 118t200 46q33 0 52.5 -18.5t19.5 -44.5q0 -27 -19.5 -45.5t-52.5 -18.5q-74 0 -137.5 -28.5t-111.5 -77.5t-77.5 -112.5t-31.5 -133.5v-453q0 -27 -18.5 -45t-45.5 -18t-45 18.5t-18 44.5z " />
<glyph unicode="s" horiz-adv-x="892" d="M84 242q0 27 17.5 47t45.5 20q23 0 40.5 -13t27.5 -36q27 -66 91.5 -99.5t135.5 -33.5q100 0 171 46t71 130q0 68 -69.5 115t-172.5 61q-147 20 -238 80.5t-91 175.5q0 72 28.5 121t75.5 80t106.5 44t118.5 13q49 0 104.5 -11t102.5 -33.5t78 -55.5t31 -78 q0 -23 -15.5 -44t-50.5 -21q-39 0 -59 45q-18 39 -71.5 58t-119.5 19q-35 0 -70.5 -5t-64 -20.5t-48 -42t-19.5 -69.5q0 -31 19.5 -53.5t49 -37.5t65.5 -23.5t68 -14.5q76 -12 142.5 -35.5t117 -60.5t80 -88t29.5 -119t-28.5 -124t-79 -96t-118 -61.5t-143.5 -21.5 q-129 0 -226 59.5t-130 163.5q-2 6 -2 19z" />
<glyph unicode="t" horiz-adv-x="626" d="M51 932q0 27 18.5 45t45.5 18h135v250q0 27 18.5 45.5t44.5 18.5q27 0 45.5 -18.5t18.5 -45.5v-250h135q27 0 45 -18.5t18 -44.5q0 -27 -18 -45.5t-45 -18.5h-135v-805q0 -27 -18.5 -45t-45.5 -18t-45 18.5t-18 44.5v805h-135q-27 0 -45.5 18.5t-18.5 45.5z" />
<glyph unicode="u" horiz-adv-x="927" d="M96 369v561q0 27 18.5 45t45.5 18t45 -18.5t18 -44.5v-561q0 -49 19.5 -93.5t52.5 -77t77 -51t93 -18.5t92 18.5t75 49t51 72.5t22 89v572q0 27 18 45t45 18t45 -18.5t18 -44.5v-867q0 -27 -18 -45t-45 -18t-45 18.5t-18 44.5v27q-47 -41 -108.5 -65.5t-131.5 -24.5 q-76 0 -143.5 28.5t-117.5 79t-79 118t-29 143.5z" />
<glyph unicode="v" horiz-adv-x="927" d="M72 932q0 27 15 44t44 17q23 0 39 -10t23 -27l266 -727l276 727q6 16 22.5 26.5t35.5 10.5q29 0 46 -19.5t17 -41.5q0 -12 -6 -25q-2 -4 -15.5 -42t-49 -134t-98 -261t-161.5 -419q-8 -23 -23.5 -37t-43.5 -14q-29 0 -46.5 17.5t-23.5 33.5q-86 236 -145.5 398.5t-96 262 t-53 144.5t-16.5 47q-6 12 -6 29z" />
<glyph unicode="w" horiz-adv-x="1286" d="M88 932q0 27 15.5 44t43.5 17q23 0 39.5 -10t22.5 -27l266 -727l98 258q-41 111 -69.5 190t-47 128t-26.5 72.5t-8 25.5q-6 12 -6 29q0 27 15 44t44 17q23 0 39 -10t23 -27l104 -297l111 297q6 16 22.5 26.5t34.5 10.5q29 0 46 -19.5t17 -41.5q0 -12 -6 -25 q-2 -2 -9 -23.5t-25.5 -69.5t-48 -128t-74.5 -201l94 -256l276 727q6 16 22.5 26.5t35.5 10.5q29 0 46 -19.5t17 -41.5q0 -12 -6 -25q-2 -4 -15.5 -42t-49 -134t-98 -261t-161.5 -419q-8 -23 -23.5 -37t-43.5 -14q-29 0 -46.5 17.5t-23.5 33.5q-27 72 -49 138.5t-43 123.5 q-23 -57 -46.5 -123.5t-51.5 -138.5q-8 -23 -23.5 -37t-44.5 -14t-46 17.5t-23 33.5q-86 236 -145.5 398.5t-96.5 262t-53.5 144.5t-16.5 47q-6 12 -6 29z" />
<glyph unicode="x" horiz-adv-x="1171" d="M94 61q0 25 19 48l383 387l-381 387q-20 25 -21 47q0 29 20.5 45t45.5 16q27 0 43 -16l383 -389l383 389q16 16 43 16q25 0 44 -16.5t19 -44.5q0 -27 -18 -47l-383 -387l385 -387q18 -23 18 -48t-19.5 -43t-43.5 -18q-27 0 -45 20l-383 386l-383 -386q-18 -20 -45 -20 q-25 0 -44.5 18.5t-19.5 42.5z" />
<glyph unicode="y" horiz-adv-x="921" d="M68 932q0 27 15 44t44 17q23 0 39 -10t22 -27l267 -727l276 727q6 16 22.5 26.5t34.5 10.5q29 0 46.5 -19.5t17.5 -41.5q0 -12 -6 -25l-467 -1237q-16 -41 -57 -41q-29 0 -46.5 19.5t-17.5 44.5q0 6 1 11t3 11l123 336q-86 236 -145.5 398.5t-96.5 262t-53 144.5t-16 47 q-6 12 -6 29z" />
<glyph unicode="z" horiz-adv-x="1107" d="M88 61q0 25 18 48l699 757h-651q-27 0 -45.5 18.5t-18.5 45.5t18.5 45t45.5 18h798q23 0 42.5 -18.5t19.5 -42.5q0 -25 -21 -49l-690 -756h653q27 0 45.5 -18.5t18.5 -45.5t-18.5 -45t-45.5 -18h-804q-27 0 -45.5 18.5t-18.5 42.5z" />
<glyph unicode="{" horiz-adv-x="727" d="M59 653q0 27 18.5 45.5t45.5 18.5h115v428q0 74 27.5 140.5t76.5 116.5t114.5 80.5t139.5 30.5q33 0 52.5 -18t19.5 -45t-18.5 -45.5t-45.5 -18.5q-49 0 -93 -19t-77 -52t-51 -77t-18 -93v-981q0 -49 18 -93t51 -77t77 -52.5t93 -19.5q27 0 45.5 -18.5t18.5 -44.5 q0 -27 -18.5 -45.5t-45.5 -18.5q-76 0 -142.5 29t-116.5 79t-78.5 117.5t-28.5 143.5v426h-115q-27 0 -45.5 18.5t-18.5 44.5z" />
<glyph unicode="|" horiz-adv-x="329" d="M100 -262v1567q0 27 18.5 45t45.5 18t45 -18.5t18 -44.5v-1567q0 -27 -18.5 -45.5t-44.5 -18.5q-27 0 -45.5 18.5t-18.5 45.5z" />
<glyph unicode="}" horiz-adv-x="727" d="M59 -141q0 27 18.5 45t45.5 18q49 0 93 19.5t77 52.5t51 77t18 93v981q0 49 -18 93t-51 77t-77 52t-93 19q-27 0 -45.5 18.5t-18.5 45.5t19.5 45t52.5 18q74 0 139.5 -30.5t114.5 -80.5t76.5 -116.5t27.5 -140.5v-428h115q27 0 45.5 -18.5t18.5 -45.5t-18.5 -45 t-45.5 -18h-115v-426q0 -76 -28.5 -143.5t-78.5 -117.5t-116.5 -79t-142.5 -29q-27 0 -45.5 18.5t-18.5 45.5z" />
<glyph unicode="~" horiz-adv-x="1079" d="M88 565q0 25 18 43q20 27 48 55.5t59 52t65.5 39t71.5 15.5q23 0 41.5 -2t36.5 -8t39.5 -16.5t50.5 -24.5q35 -18 62.5 -37.5t53 -35t50.5 -25t53 -9.5q39 0 65.5 22.5t46 50.5t38 50.5t43.5 22.5q29 0 43 -19.5t14 -42.5q0 -35 -25.5 -71.5t-63.5 -65.5t-82 -47t-79 -18 q-27 0 -46 2t-39.5 9t-42 19.5t-52.5 32.5q-53 35 -100 63.5t-107 28.5q-35 0 -63.5 -22.5t-52 -48t-45 -48t-42.5 -22.5q-23 0 -41 16.5t-18 40.5z" />
<glyph unicode="&#xa1;" horiz-adv-x="413" d="M123 952q0 -35 24.5 -59.5t59.5 -24.5t59.5 24.5t24.5 59.5t-25 59.5t-59 24.5q-35 0 -59.5 -24.5t-24.5 -59.5zM143 -209q0 -27 18.5 -45.5t45.5 -18.5t45 18.5t18 45.5v835q0 27 -18.5 45.5t-44.5 18.5q-27 0 -45.5 -18.5t-18.5 -45.5v-835z" />
<glyph unicode="&#xa2;" horiz-adv-x="989" d="M63 489q0 90 30 171t84 144.5t128 107.5t162 63v201q0 29 20.5 49t51.5 20q29 0 48 -20.5t19 -48.5v-193q70 -8 128.5 -32.5t99 -54.5t63.5 -57.5t23 -43.5q0 -23 -18.5 -39.5t-41.5 -16.5q-27 0 -45 19q-43 37 -96 61.5t-113 34.5v-729q59 8 112.5 34.5t96.5 67.5 q18 18 45 19q25 0 44.5 -17.5t19.5 -44.5q0 -18 -21.5 -46.5t-61.5 -57.5t-99.5 -51.5t-135.5 -28.5v-133q0 -29 -19.5 -49.5t-47.5 -20.5q-31 0 -51.5 20.5t-20.5 49.5v139q-86 14 -160 56t-128 105.5t-85 145.5t-31 176zM190 489q0 -66 20.5 -123t57.5 -104t88.5 -81 t110.5 -48v713q-59 -16 -110.5 -49t-88.5 -80t-57.5 -105.5t-20.5 -122.5z" />
<glyph unicode="&#xa3;" horiz-adv-x="1126" d="M59 528q0 27 18.5 45.5t45.5 18.5h92v383q0 43 17.5 101.5t57.5 109.5t103.5 87t157.5 36q27 0 45 -18.5t18 -45.5t-18 -45t-45 -18q-68 0 -109 -28t-63.5 -62.5t-29.5 -68.5t-7 -48v-383h102q27 0 45.5 -18.5t18.5 -45.5t-18.5 -45t-45.5 -18h-102v-338h662 q27 0 45 -18.5t18 -45.5t-18.5 -45t-44.5 -18h-725q-25 0 -44.5 18.5t-19.5 44.5v402h-92q-27 0 -45.5 18.5t-18.5 44.5z" />
<glyph unicode="&#xa4;" horiz-adv-x="1173" d="M92 692q0 109 42 201t114 160l-139 204q-14 29 -15 48q0 18 15.5 38.5t46.5 20.5q39 0 59 -33l137 -205q53 29 112.5 46.5t125.5 17.5q57 0 111.5 -14.5t103.5 -38.5l137 194q25 33 57 33q31 0 47.5 -19.5t16.5 -41.5q0 -27 -16 -46l-138 -192q78 -70 125 -166t47 -207 q0 -113 -47 -209t-127 -166q49 -72 78 -114.5t43 -65t20 -29.5l5 -8q12 -18 12 -37q0 -27 -18.5 -46t-47.5 -19q-35 0 -51 29l-5 8t-20.5 31.5t-44 67.5t-77.5 116q-49 -23 -102.5 -36t-112.5 -13q-127 0 -236 57l-137 -231q-18 -29 -53 -29q-27 0 -44.5 18.5t-17.5 44.5 q0 20 11 39l139 230q-72 66 -114 159t-42 203zM221 692q0 -76 29 -142.5t79 -116.5t116.5 -78.5t142.5 -28.5t143.5 28.5t117.5 78.5t78.5 116.5t28.5 142.5t-28.5 143.5t-78.5 118t-117.5 79t-143.5 28.5t-142.5 -28.5t-116.5 -79t-79 -118t-29 -143.5z" />
<glyph unicode="&#xa5;" horiz-adv-x="1085" d="M70 1249q0 18 16 39t45 21q33 0 57 -33l353 -508l354 508q10 16 25.5 24.5t31.5 8.5q29 0 45.5 -19.5t16.5 -42.5t-17 -43l-370 -516h217q27 0 45 -18.5t18 -44.5q0 -27 -18.5 -45.5t-44.5 -18.5h-240v-127h240q27 0 45 -18.5t18 -44.5q0 -27 -18.5 -45.5t-44.5 -18.5 h-240v-244q0 -27 -18.5 -45t-44.5 -18q-27 0 -45.5 18.5t-18.5 44.5v244h-237q-27 0 -45.5 18.5t-18.5 45.5t18.5 45t45.5 18h237v127h-237q-27 0 -45.5 18.5t-18.5 45.5t18.5 45t45.5 18h213l-369 516q-14 29 -14 45z" />
<glyph unicode="&#xa6;" horiz-adv-x="329" d="M100 -311v1609q0 27 18.5 45.5t45.5 18.5t45 -18.5t18 -45.5v-1609q0 -27 -18.5 -45.5t-44.5 -18.5q-27 0 -45.5 18.5t-18.5 45.5z" />
<glyph unicode="&#xa7;" horiz-adv-x="995" d="M82 436q0 94 38.5 175.5t104.5 138.5q-59 43 -94 103t-35 132q0 68 31 127t84 102t125 69t151 26q78 0 149 -24.5t125 -67.5t86 -100.5t32 -123.5q0 -33 -17.5 -51t-44.5 -18t-45 17t-18 44q0 35 -20.5 71t-56.5 64.5t-84 46t-106 17.5q-55 0 -103 -16.5t-85 -43 t-57.5 -63.5t-20.5 -76q0 -59 32 -93t87 -75q35 14 73 22.5t79 8.5q86 0 160.5 -33t130 -88t88 -130t32.5 -161t-32.5 -160.5t-88.5 -130.5q59 -43 94 -103t35 -132q0 -68 -30.5 -127t-84 -102t-125 -69t-151.5 -26t-150.5 24.5t-123.5 67.5t-85 100.5t-32 123.5 q0 33 17.5 51t43.5 18q27 0 45.5 -17t18.5 -44q0 -35 20.5 -71t56.5 -64.5t84 -46t105 -17.5q55 0 103.5 16.5t85 43t57 62.5t20.5 77q0 55 -30.5 90t-77.5 70q-84 -43 -186 -43q-86 0 -161 31.5t-130.5 87t-87 130t-31.5 160.5zM209 436q0 -59 22.5 -110.5t61.5 -90t90 -61 t111 -22.5q57 0 109 22.5t90 61t60.5 90t22.5 110.5q0 57 -22.5 109.5t-60.5 90.5t-90 60.5t-109 22.5q-59 0 -110.5 -22.5t-90.5 -60.5t-61.5 -90.5t-22.5 -109.5z" />
<glyph unicode="&#xa8;" horiz-adv-x="675" d="M92 1518q0 35 24.5 59.5t59.5 24.5t59.5 -25t24.5 -59q0 -35 -24.5 -59.5t-59.5 -24.5t-59.5 24.5t-24.5 59.5zM416 1518q0 35 24.5 59.5t59.5 24.5t59.5 -25t24.5 -59q0 -35 -24.5 -59.5t-59.5 -24.5t-59.5 24.5t-24.5 59.5z" />
<glyph unicode="&#xa9;" horiz-adv-x="1640" d="M80 662q0 154 58.5 288.5t157.5 235t234 159t289 58.5t289 -58.5t235.5 -159t159 -235.5t58.5 -288q0 -154 -58.5 -289t-159 -234.5t-235.5 -158t-289 -58.5t-289 58.5t-234 158t-157.5 234.5t-58.5 289zM207 659q0 -127 48 -238.5t131 -194.5t194.5 -131t238.5 -48 t239.5 48t195.5 131t131.5 194.5t48.5 238.5t-48.5 240t-131.5 196t-195.5 131t-239.5 48t-238.5 -48t-194.5 -131t-131 -196t-48 -240zM467 662q0 72 27.5 134t74.5 109t109.5 75t134.5 28q51 0 94 -13.5t75 -32t52.5 -37t28.5 -30.5q20 -18 20 -47q0 -23 -15 -40t-42 -17 q-23 0 -45.5 13t-48 30.5t-54 31t-63.5 13.5q-45 0 -85 -17.5t-68.5 -47.5t-46 -69.5t-17.5 -85.5q0 -92 62.5 -154.5t154.5 -62.5q45 0 84 15.5t68 44.5q18 20 45 20q29 0 46 -19.5t17 -43.5q0 -35 -29.5 -61.5t-71.5 -45t-86 -28t-75 -9.5q-72 0 -134.5 28t-109.5 75 t-74.5 109.5t-27.5 134.5z" />
<glyph unicode="&#xaa;" horiz-adv-x="921" d="M84 985q0 80 28.5 148.5t80 120t121 81t149.5 29.5q76 0 144.5 -29.5t119.5 -82t81 -121t30 -146.5v-330q0 -20 -15.5 -41.5t-48.5 -21.5t-48 21.5t-15 41.5v76q-53 -57 -108.5 -89t-141.5 -32q-78 0 -146.5 29t-120 79t-81 118.5t-29.5 148.5zM213 987q0 -51 19.5 -97 t53 -80t80 -53.5t97.5 -19.5t97 19.5t80 53.5t53.5 80t19.5 97t-19.5 97t-53.5 80t-80 53.5t-97 19.5t-97.5 -19.5t-80 -53.5t-53 -80t-19.5 -97z" />
<glyph unicode="&#xab;" horiz-adv-x="1093" d="M86 485q0 27 18 45l439 412q18 18 45 19q27 0 45 -18.5t18 -45.5t-18 -45l-391 -367l391 -372q18 -18 18 -45t-18.5 -45.5t-44.5 -18.5q-27 0 -45 19l-437 415q-20 20 -20 47zM453 485q0 27 18 45l438 412q18 18 45 19q27 0 45.5 -18.5t18.5 -45.5t-19 -45l-391 -367 l391 -372q18 -18 19 -45q0 -27 -18.5 -45.5t-45.5 -18.5t-45 19l-438 417q-18 18 -18 45z" />
<glyph unicode="&#xac;" horiz-adv-x="1087" d="M72 637q0 27 18.5 45t44.5 18h817q27 0 45.5 -18t18.5 -45v-291q0 -27 -18.5 -45t-45.5 -18t-45 18t-18 45v227h-754q-27 0 -45 18.5t-18 45.5z" />
<glyph unicode="&#xad;" horiz-adv-x="950" d="M96 637q0 27 18.5 45t45.5 18h631q27 0 45 -18t18 -45t-18.5 -45.5t-44.5 -18.5h-631q-27 0 -45.5 18.5t-18.5 45.5z" />
<glyph unicode="&#xae;" horiz-adv-x="1640" d="M80 651q0 154 58.5 289t157.5 235.5t234 159t289 58.5t289 -58.5t235.5 -159t159 -235.5t58.5 -289t-58.5 -289t-159 -234t-235.5 -157.5t-289 -58.5t-289 58.5t-234 157.5t-157.5 234.5t-58.5 288.5zM207 649q0 -127 48 -238.5t131 -194.5t194.5 -131t238.5 -48 t239.5 48t195.5 131t131.5 194.5t48.5 238.5t-48.5 239.5t-131.5 195.5t-195.5 131.5t-239.5 48.5t-238.5 -48.5t-194.5 -131.5t-131 -195.5t-48 -239.5zM672 346v295q2 74 31.5 141.5t78.5 119.5t116 83t144 31q29 0 47.5 -18.5t18.5 -47.5t-18.5 -47t-47.5 -18 q-53 -2 -97 -22.5t-75.5 -53.5t-50 -76t-20.5 -92v-295q0 -27 -18.5 -45t-45.5 -18t-45 18t-18 45z" />
<glyph unicode="&#xaf;" horiz-adv-x="796" d="M78 1206q0 27 18.5 45.5t44.5 18.5h461q27 0 45.5 -18.5t18.5 -45.5t-18.5 -45t-45.5 -18h-461q-27 0 -45 18.5t-18 44.5z" />
<glyph unicode="&#xb0;" horiz-adv-x="923" d="M80 928q0 80 29.5 149.5t82 121.5t121 82t148.5 30t149.5 -30t121.5 -82t82 -121.5t30 -149.5t-30 -148.5t-82 -121t-121.5 -82t-149.5 -29.5t-148.5 29.5t-121 82t-82 121t-29.5 148.5zM207 928q0 -53 19.5 -99.5t54 -81t81 -54t99.5 -19.5t99 19.5t81 54t55.5 80.5 t20.5 100q0 53 -20.5 99t-55.5 81t-81 55.5t-99 20.5t-99.5 -20.5t-81 -55.5t-54 -81t-19.5 -99z" />
<glyph unicode="&#xb1;" horiz-adv-x="878" d="M59 330q0 27 18.5 45t45.5 18h631q27 0 45 -18.5t18 -44.5q0 -27 -18.5 -45.5t-44.5 -18.5h-631q-27 0 -45.5 18.5t-18.5 45.5zM59 848q0 27 18.5 45t45.5 18h252v254q0 27 18.5 45.5t44.5 18.5q27 0 45.5 -18.5t18.5 -45.5v-254h254q27 0 45 -18.5t18 -44.5 q0 -27 -18.5 -45.5t-44.5 -18.5h-254v-254q0 -27 -18.5 -45t-45.5 -18t-45 18.5t-18 44.5v254h-252q-27 0 -45.5 18.5t-18.5 45.5z" />
<glyph unicode="&#xb2;" horiz-adv-x="825" d="M84 602q0 20 12.5 34.5t22.5 22.5q135 106 211 168l114 93q45 37 58 45q25 20 51.5 46.5t26.5 57.5t-15.5 52.5t-40 35.5t-54.5 21.5t-60 7.5q-25 0 -52.5 -7.5t-52 -19.5t-41 -31.5t-18.5 -44.5q-2 -35 -20.5 -53t-43.5 -18q-23 0 -43 17.5t-20 45.5q0 49 23.5 93 t63.5 76t93 50.5t113 18.5q61 0 114.5 -19.5t93 -52.5t63.5 -77t24 -95q0 -53 -29 -95t-70 -81q-16 -14 -53 -45q-31 -27 -87 -72t-146 -114h362q25 -2 42 -20.5t17 -43.5q0 -27 -17 -44t-42 -19h-537q-20 0 -41.5 15t-21.5 52z" />
<glyph unicode="&#xb3;" horiz-adv-x="694" d="M82 639q0 27 18.5 45t44.5 18q27 0 45.5 -18t18.5 -45q0 -57 39 -97t98 -40t99 40t40 97q0 53 -38.5 96t-100.5 43q-27 0 -44 18.5t-17 45.5t17 44t44 17q59 0 99 41t40 98t-39.5 97.5t-99.5 40.5q-59 0 -98 -40t-39 -98q0 -27 -18.5 -45t-45.5 -18t-45 18.5t-18 44.5 q0 55 20.5 103.5t56.5 85.5t84 57.5t103 20.5t103.5 -20.5t85 -57.5t57 -85.5t20.5 -103.5q0 -59 -25.5 -112t-68.5 -88q43 -37 68.5 -89.5t25.5 -113.5q0 -47 -18.5 -94t-53 -86t-83.5 -62.5t-111 -23.5q-55 0 -103 20.5t-84 57t-56.5 85t-20.5 103.5z" />
<glyph unicode="&#xb4;" horiz-adv-x="415" d="M59 1110q0 14 7 27l170 295q16 31 53 30q29 0 46 -20.5t17 -44.5q0 -16 -6 -29l-170 -293q-8 -16 -22.5 -24.5t-30.5 -8.5q-29 0 -46.5 22.5t-17.5 45.5z" />
<glyph unicode="&#xb6;" horiz-adv-x="329" d="M100 63v1235q0 27 18.5 45.5t45.5 18.5t45 -18.5t18 -45.5v-1235q0 -27 -18.5 -45t-44.5 -18q-27 0 -45.5 18.5t-18.5 44.5z" />
<glyph unicode="&#xb7;" horiz-adv-x="309" d="M82 496q0 31 20.5 52t51.5 21t52 -21.5t21 -51.5q0 -31 -21.5 -51.5t-51.5 -20.5q-31 0 -51.5 20.5t-20.5 51.5z" />
<glyph unicode="&#xb8;" horiz-adv-x="493" d="M68 -199q0 23 17 40.5t40 17.5q31 0 41 -18.5t18.5 -42t19.5 -42t42 -18.5q27 0 45 18.5t18 44.5q0 33 -18.5 43.5t-42 18.5t-42 20.5t-18.5 46.5v191h115v-150q53 -18 87 -64t34 -106q0 -74 -52.5 -126t-125.5 -52q-74 0 -126 52.5t-52 125.5z" />
<glyph unicode="&#xb9;" horiz-adv-x="518" d="M74 1094q0 16 7 30.5t23 24.5l230 145q20 14 47 15q27 0 45 -16.5t18 -45.5v-641q0 -27 -18 -45t-45 -18t-45.5 18.5t-18.5 44.5v524l-147 -90q-16 -10 -33 -10q-23 0 -43 17.5t-20 46.5z" />
<glyph unicode="&#xba;" horiz-adv-x="921" d="M80 928q0 80 29.5 148.5t82 120.5t121 82t148.5 30t148.5 -30t120.5 -82t82 -120.5t30 -148.5t-30 -148.5t-82 -121t-120.5 -82t-148.5 -29.5t-148.5 29.5t-121 82t-82 121t-29.5 148.5zM207 928q0 -53 20.5 -99.5t54 -80t80 -54t99.5 -20.5q51 0 98 20.5t81 54 t54.5 79.5t20.5 100q0 51 -20.5 98t-54.5 81t-81 54.5t-98 20.5q-53 0 -99.5 -20.5t-80 -54.5t-54 -81t-20.5 -98z" />
<glyph unicode="&#xbb;" horiz-adv-x="1093" d="M86 68q0 27 18 45l392 372l-392 367q-18 18 -18 45t18.5 45.5t45.5 18.5t45 -19l438 -412q18 -18 18 -45t-18 -45l-438 -417q-18 -18 -45 -19q-27 0 -45.5 18.5t-18.5 45.5zM453 68q0 27 18 45l391 372l-391 367q-18 18 -18 45t18 45.5t45 18.5t45 -19l438 -412 q18 -18 19 -45q0 -27 -21 -47l-436 -415q-18 -18 -45 -19q-27 0 -45 18.5t-18 45.5z" />
<glyph unicode="&#xbc;" horiz-adv-x="1187" d="M72 1135q0 16 7 30.5t23 24.5l230 145q20 14 47 15q27 0 45 -16.5t18 -45.5v-641q0 -27 -18 -45t-45 -18t-45.5 18.5t-18.5 44.5v524l-147 -90q-16 -10 -33 -10q-23 0 -43 17.5t-20 46.5zM330 57q0 14 4 23l409 1229q6 20 24.5 32.5t39.5 12.5q29 0 44 -19.5t15 -42.5 q0 -12 -2 -18l-409 -1231q-8 -23 -25.5 -34t-38.5 -11q-29 0 -45 18.5t-16 40.5zM651 303q0 12 2 19l131 432q12 45 60 45q29 0 46 -19.5t17 -46.5q0 -10 -2 -16l-104 -352h127v110q0 27 18.5 45.5t44.5 18.5q27 0 45.5 -18.5t18.5 -45.5v-110q27 0 45 -18.5t18 -45.5 t-18.5 -45t-44.5 -18v-172q0 -27 -18.5 -45.5t-45.5 -18.5t-45 18.5t-18 45.5v172h-209q-27 0 -47.5 18t-20.5 47z" />
<glyph unicode="&#xbd;" horiz-adv-x="1411" d="M70 1135q0 16 7 30.5t23 24.5l230 145q20 14 47 15q27 0 45 -16.5t18 -45.5v-641q0 -27 -18.5 -45t-44.5 -18q-27 0 -45.5 18.5t-18.5 44.5v524l-147 -90q-16 -10 -33 -10q-23 0 -43 17.5t-20 46.5zM328 57q0 14 4 23l409 1229q6 20 24.5 32.5t39.5 12.5q29 0 44 -19.5 t15 -42.5q0 -12 -2 -18l-409 -1231q-8 -23 -25.5 -34t-38.5 -11q-29 0 -45 18.5t-16 40.5zM682 68q0 20 12.5 34.5t22.5 22.5q135 106 211 167.5t114 92.5q45 37 58 45q25 20 51.5 47t26.5 58t-15.5 52t-40 35.5t-54.5 21.5t-60 7q-25 0 -52.5 -7t-52 -19.5t-41 -32 t-18.5 -43.5q-2 -35 -20.5 -53.5t-43.5 -18.5q-23 0 -43 17.5t-20 46.5q0 49 23.5 93t63.5 75.5t93 50t113 18.5q61 0 114.5 -19.5t93 -52t63.5 -76.5t24 -95q0 -53 -29 -95.5t-70 -81.5q-16 -14 -53 -45q-31 -27 -87 -71.5t-146 -114.5h362q25 -2 42 -20.5t17 -43.5 q0 -27 -17 -44t-42 -19h-537q-20 0 -41.5 15.5t-21.5 52.5z" />
<glyph unicode="&#xbe;" horiz-adv-x="1316" d="M72 694q0 27 18.5 45.5t44.5 18.5q27 0 45.5 -18.5t18.5 -45.5q0 -57 38.5 -97t98.5 -40q59 0 99 40t40 97q0 55 -39 95.5t-100 44.5q-27 0 -44.5 18t-17.5 45t17.5 44t44.5 17q59 0 99 41t40 99q0 57 -40 97t-99 40t-98 -40t-39 -97q0 -27 -18.5 -45.5t-45.5 -18.5 t-45 18.5t-18 45.5q0 55 20.5 103t56 85t84 57.5t103.5 20.5t103 -20.5t85 -57.5t57.5 -85t20.5 -103q0 -59 -25.5 -112.5t-68.5 -88.5q43 -37 68.5 -89t25.5 -114q0 -47 -18.5 -94t-53 -86t-84 -62.5t-110.5 -23.5q-55 0 -103.5 20.5t-84 57.5t-56 85t-20.5 103zM461 57 q0 14 4 23l409 1229q6 20 23.5 32.5t40.5 12.5q29 0 44 -19.5t15 -42.5q0 -12 -2 -18l-409 -1231q-8 -23 -25.5 -34t-38.5 -11q-29 0 -45 18.5t-16 40.5zM776 303q0 12 2 19l131 432q12 45 60 45q29 0 46 -19.5t17 -46.5q0 -10 -2 -16l-104 -352h127v110q0 27 18.5 45.5 t44.5 18.5q27 0 45.5 -18.5t18.5 -45.5v-110q27 0 45 -18.5t18 -45.5t-18.5 -45t-44.5 -18v-172q0 -27 -18.5 -45.5t-45.5 -18.5t-45 18.5t-18 45.5v172h-209q-27 0 -47.5 18t-20.5 47z" />
<glyph unicode="&#xbf;" horiz-adv-x="935" d="M-10 86q0 84 31.5 156.5t86 127t128 86t155.5 31.5h64v96q0 33 18.5 52.5t44.5 19.5q27 0 45.5 -19.5t18.5 -52.5v-151q0 -33 -19.5 -52.5t-52.5 -19.5h-119q-57 0 -107 -21.5t-87 -58.5t-58.5 -86t-21.5 -106t21.5 -107.5t58.5 -87.5t87 -58.5t107 -21.5 q55 0 104.5 21.5t87.5 58.5t59.5 87t21.5 108q0 29 18 46t47 17t46.5 -17.5t17.5 -45.5q0 -84 -32 -158t-86 -128t-127 -86t-157 -32q-82 0 -155.5 32t-128 86t-86 128t-31.5 156zM434 909q0 35 24.5 59.5t59.5 24.5t59.5 -24.5t24.5 -59.5t-24.5 -59.5t-59.5 -24.5 t-59.5 24.5t-24.5 59.5z" />
<glyph unicode="&#xc0;" horiz-adv-x="1288" d="M70 61q0 12 6 25l510 1174q6 16 22.5 31.5t36.5 15.5t36.5 -14.5t25.5 -32.5l505 -1174q4 -8 5 -25q0 -25 -16.5 -43t-45.5 -18q-43 0 -59 39l-164 375h-576l-163 -375q-8 -18 -24.5 -28.5t-35.5 -10.5q-29 0 -46 18.5t-17 42.5zM395 1751q0 23 17.5 44t46.5 21 q16 0 30.5 -7t22.5 -23l170 -293q6 -16 6 -29q0 -25 -17.5 -45.5t-45.5 -20.5q-39 0 -53 31l-170 295q-6 12 -7 27zM412 541h465l-232 528z" />
<glyph unicode="&#xc1;" horiz-adv-x="1288" d="M70 63q0 12 6 25l510 1174q6 16 22.5 31.5t36.5 15.5t36.5 -14.5t25.5 -32.5l505 -1174q4 -8 5 -25q0 -25 -16.5 -43t-45.5 -18q-43 0 -59 39l-164 375h-576l-163 -375q-8 -18 -24.5 -28.5t-35.5 -10.5q-29 0 -46 18.5t-17 42.5zM412 543h465l-232 528zM579 1462 q0 14 7 27l170 295q16 31 53 30q29 0 46 -20.5t17 -44.5q0 -16 -6 -29l-170 -293q-8 -16 -22.5 -24.5t-30.5 -8.5q-29 0 -46.5 22.5t-17.5 45.5z" />
<glyph unicode="&#xc2;" horiz-adv-x="1288" d="M70 63q0 12 6 25l510 1174q6 16 22.5 31.5t36.5 15.5t36.5 -14.5t25.5 -32.5l505 -1174q4 -8 5 -25q0 -25 -16.5 -43t-45.5 -18q-43 0 -59 39l-164 375h-576l-163 -375q-8 -18 -24.5 -28.5t-35.5 -10.5q-29 0 -46 18.5t-17 42.5zM295 1415q0 27 19 45l284 273 q18 18 45 18t45 -18l287 -268q18 -18 19 -45q0 -27 -18.5 -45.5t-45.5 -18.5t-45 18l-242 228l-239 -232q-18 -18 -45 -18t-45.5 18.5t-18.5 44.5zM412 543h465l-232 528z" />
<glyph unicode="&#xc3;" horiz-adv-x="1288" d="M70 63q0 12 6 25l510 1174q6 16 22.5 31.5t36.5 15.5t36.5 -14.5t25.5 -32.5l505 -1174q4 -8 5 -25q0 -25 -16.5 -43t-45.5 -18q-43 0 -59 39l-164 375h-576l-163 -375q-8 -18 -24.5 -28.5t-35.5 -10.5q-29 0 -46 18.5t-17 42.5zM229 1458q0 23 26.5 57.5t65.5 67.5 t85 56.5t85 23.5q43 0 85 -24.5t82 -54.5t75 -54.5t63 -24.5q39 0 66 22.5t46 50.5t37.5 50.5t43.5 22.5q29 0 43 -19.5t14 -42.5q0 -35 -25.5 -71.5t-63.5 -65.5t-82 -47t-79 -18q-43 0 -81.5 24.5t-76.5 53t-74 53t-73 24.5q-25 0 -47 -12t-42.5 -30.5t-37 -39.5 t-30.5 -37q-14 -23 -46 -22q-23 0 -41 16.5t-18 40.5zM412 543h465l-232 528z" />
<glyph unicode="&#xc4;" horiz-adv-x="1288" d="M70 63q0 12 6 25l510 1174q6 16 22.5 31.5t36.5 15.5t36.5 -14.5t25.5 -32.5l505 -1174q4 -8 5 -25q0 -25 -16.5 -43t-45.5 -18q-43 0 -59 39l-164 375h-576l-163 -375q-8 -18 -24.5 -28.5t-35.5 -10.5q-29 0 -46 18.5t-17 42.5zM395 1479q0 35 24.5 59.5t59.5 24.5 t59.5 -25t24.5 -59q0 -35 -24.5 -59.5t-59.5 -24.5t-59.5 24.5t-24.5 59.5zM412 543h465l-232 528zM719 1479q0 35 24.5 59.5t59.5 24.5t59.5 -25t24.5 -59q0 -35 -24.5 -59.5t-59.5 -24.5t-59.5 24.5t-24.5 59.5z" />
<glyph unicode="&#xc5;" horiz-adv-x="1288" d="M70 63q0 12 6 25l510 1174q6 16 22.5 31.5t36.5 15.5t36.5 -14.5t25.5 -32.5l505 -1174q4 -8 5 -25q0 -25 -16.5 -43t-45.5 -18q-43 0 -59 39l-164 375h-576l-163 -375q-8 -18 -24.5 -28.5t-35.5 -10.5q-29 0 -46 18.5t-17 42.5zM412 543h465l-232 528zM451 1560 q0 82 56 139.5t138 57.5t139.5 -57.5t57.5 -139.5t-57.5 -138t-139.5 -56t-138 56t-56 138zM574 1560q0 -33 19.5 -52t51.5 -19q33 0 53.5 19t20.5 52t-20.5 53.5t-53.5 20.5t-52 -20.5t-19 -53.5z" />
<glyph unicode="&#xc6;" horiz-adv-x="1961" d="M93 63q0 12 6 25l510 1174q6 16 22.5 31.5t36.5 15.5t36.5 -14.5t25.5 -32.5l505 -1174q4 -8 5 -25q0 -25 -16.5 -43t-45.5 -18q-43 0 -59 39l-164 375h-576l-163 -375q-8 -18 -24.5 -28.5t-35.5 -10.5q-29 0 -46 18.5t-17 42.5zM435 543h465l-232 528zM1112 63v1182 q0 27 18.5 45.5t44.5 18.5h623q27 0 45 -18.5t18 -45.5t-18.5 -45t-44.5 -18h-559v-457h372q27 0 45.5 -18.5t18.5 -44.5q0 -27 -18.5 -45.5t-45.5 -18.5h-372v-471h559q27 0 45 -18.5t18 -45.5t-18.5 -45t-44.5 -18h-623q-27 0 -45 18.5t-18 44.5z" />
<glyph unicode="&#xc7;" horiz-adv-x="1310" d="M80 651q0 135 51 254t139 208t207 140.5t254 51.5q137 0 257 -53.5t210 -145.5q10 -10 18.5 -26.5t8.5 -32.5q0 -27 -18.5 -41.5t-43.5 -14.5q-31 1 -49 21q-74 63 -172 114.5t-211 51.5q-109 0 -205 -41t-166.5 -113t-111.5 -168t-41 -205t41 -205t111.5 -166.5 t167 -111.5t204.5 -41q115 0 214 44t171 122q10 12 25.5 18t32.5 6q27 0 40 -18t13 -41q0 -33 -19 -51q-90 -98 -213 -152.5t-264 -54.5q-135 0 -254 51t-207 139.5t-139 207t-51 253.5zM517 -267q0 23 17 40.5t40 17.5q31 0 41 -18.5t18.5 -42t19.5 -42t42 -18.5 q27 0 45 18.5t18 44.5q0 33 -18.5 43.5t-42 18.5t-42 20.5t-18.5 46.5v191h115v-150q53 -18 87 -64t34 -106q0 -74 -52.5 -126t-125.5 -52q-74 0 -126 52.5t-52 125.5z" />
<glyph unicode="&#xc8;" horiz-adv-x="903" d="M76 63v1182q0 27 18.5 45.5t44.5 18.5h623q27 0 45 -18.5t18 -45.5t-18.5 -45t-44.5 -18h-559v-457h372q27 0 45.5 -18.5t18.5 -44.5q0 -27 -18.5 -45.5t-45.5 -18.5h-372v-471h559q27 0 45 -18.5t18 -45.5t-18.5 -45t-44.5 -18h-623q-27 0 -45 18.5t-18 44.5zM229 1751 q0 23 17.5 44t46.5 21q16 0 30.5 -7t22.5 -23l170 -293q6 -16 6 -29q0 -25 -17.5 -45.5t-45.5 -20.5q-39 0 -53 31l-170 295q-6 12 -7 27z" />
<glyph unicode="&#xc9;" horiz-adv-x="903" d="M76 63v1182q0 27 18.5 45.5t44.5 18.5h623q27 0 45 -18.5t18 -45.5t-18.5 -45t-44.5 -18h-559v-457h372q27 0 45.5 -18.5t18.5 -44.5q0 -27 -18.5 -45.5t-45.5 -18.5h-372v-471h559q27 0 45 -18.5t18 -45.5t-18.5 -45t-44.5 -18h-623q-27 0 -45 18.5t-18 44.5zM426 1462 q0 14 7 27l170 295q16 31 53 30q29 0 46 -20.5t17 -44.5q0 -16 -6 -29l-170 -293q-8 -16 -22.5 -24.5t-30.5 -8.5q-29 0 -46.5 22.5t-17.5 45.5z" />
<glyph unicode="&#xca;" horiz-adv-x="903" d="M76 63v1182q0 27 18.5 45.5t44.5 18.5h623q27 0 45 -18.5t18 -45.5t-18.5 -45t-44.5 -18h-559v-457h372q27 0 45.5 -18.5t18.5 -44.5q0 -27 -18.5 -45.5t-45.5 -18.5h-372v-471h559q27 0 45 -18.5t18 -45.5t-18.5 -45t-44.5 -18h-623q-27 0 -45 18.5t-18 44.5zM108 1456 q0 27 19 45l284 273q18 18 45 18t45 -18l287 -268q18 -18 19 -45q0 -27 -18.5 -45.5t-45.5 -18.5t-45 18l-242 228l-239 -232q-18 -18 -45 -18t-45.5 18.5t-18.5 44.5z" />
<glyph unicode="&#xcb;" horiz-adv-x="903" d="M76 63v1182q0 27 18.5 45.5t44.5 18.5h623q27 0 45 -18.5t18 -45.5t-18.5 -45t-44.5 -18h-559v-457h372q27 0 45.5 -18.5t18.5 -44.5q0 -27 -18.5 -45.5t-45.5 -18.5h-372v-471h559q27 0 45 -18.5t18 -45.5t-18.5 -45t-44.5 -18h-623q-27 0 -45 18.5t-18 44.5zM211 1483 q0 35 24.5 59.5t59.5 24.5t59.5 -25t24.5 -59q0 -35 -24.5 -59.5t-59.5 -24.5t-59.5 24.5t-24.5 59.5zM535 1483q0 35 24.5 59.5t59.5 24.5t59.5 -25t24.5 -59q0 -35 -24.5 -59.5t-59.5 -24.5t-59.5 24.5t-24.5 59.5z" />
<glyph unicode="&#xcc;" horiz-adv-x="329" d="M-70 1753q0 23 17.5 44t46.5 21q16 0 30.5 -7t22.5 -23l170 -293q6 -16 6 -29q0 -25 -17.5 -45.5t-45.5 -20.5q-39 0 -53 31l-170 295q-6 12 -7 27zM102 63v1182q0 27 18.5 45.5t45.5 18.5t45 -18.5t18 -45.5v-1182q0 -27 -18.5 -45t-44.5 -18q-27 0 -45.5 18.5 t-18.5 44.5z" />
<glyph unicode="&#xcd;" horiz-adv-x="329" d="M100 63v1182q0 27 18.5 45.5t45.5 18.5t45 -18.5t18 -45.5v-1182q0 -27 -18.5 -45t-44.5 -18q-27 0 -45.5 18.5t-18.5 44.5zM108 1466q0 14 7 27l170 295q16 31 53 30q29 0 46 -20.5t17 -44.5q0 -16 -6 -29l-170 -293q-8 -16 -22.5 -24.5t-30.5 -8.5q-29 0 -46.5 22.5 t-17.5 45.5z" />
<glyph unicode="&#xce;" horiz-adv-x="348" d="M-162 1448q0 27 19 45l284 273q18 18 45 18t45 -18l287 -268q18 -18 19 -45q0 -27 -18.5 -45.5t-45.5 -18.5t-45 18l-242 228l-239 -232q-18 -18 -45 -18t-45.5 18.5t-18.5 44.5zM108 63v1182q0 27 18.5 45.5t45.5 18.5t45 -18.5t18 -45.5v-1182q0 -27 -18.5 -45 t-44.5 -18q-27 0 -45.5 18.5t-18.5 44.5z" />
<glyph unicode="&#xcf;" horiz-adv-x="307" d="M-92 1500q0 35 24.5 59.5t59.5 24.5t59.5 -25t24.5 -59q0 -35 -24.5 -59.5t-59.5 -24.5t-59.5 24.5t-24.5 59.5zM88 63v1182q0 27 18.5 45.5t45.5 18.5t45 -18.5t18 -45.5v-1182q0 -27 -18.5 -45t-44.5 -18q-27 0 -45.5 18.5t-18.5 44.5zM232 1500q0 35 24.5 59.5 t59.5 24.5t59.5 -25t24.5 -59q0 -35 -24.5 -59.5t-59.5 -24.5t-59.5 24.5t-24.5 59.5z" />
<glyph unicode="&#xd0;" horiz-adv-x="1382" d="M78 614q0 27 18.5 45.5t44.5 18.5h95v567q0 27 18 45.5t45 18.5h352q135 0 254 -52.5t208 -141.5t140.5 -209t51.5 -255t-51.5 -253.5t-140.5 -207t-208 -139.5t-254 -51h-352q-27 0 -45 18.5t-18 44.5v488h-95q-27 0 -45 18.5t-18 44.5zM362 127h289q109 0 205 41 t168 111.5t113 167t41 204.5q0 109 -41 205t-113 169t-168 115t-205 42h-289v-504h109q27 0 45.5 -18.5t18.5 -45.5t-18.5 -45t-45.5 -18h-109v-424z" />
<glyph unicode="&#xd1;" d="M98 63v1182q0 27 18.5 45.5t45.5 18.5q23 0 34 -9.5t23 -25.5l705 -998v969q0 27 18.5 45.5t44.5 18.5q27 0 45.5 -18.5t18.5 -45.5v-1182q0 -27 -18.5 -45t-45.5 -18q-23 0 -37 13.5t-24 29.5l-701 991v-971q0 -27 -18.5 -45t-44.5 -18q-27 0 -45.5 18.5t-18.5 44.5z M166 1462q0 23 26.5 57.5t65.5 67.5t85 56.5t85 23.5q43 0 85 -24.5t82 -54.5t75 -54.5t63 -24.5q39 0 66 22.5t46 50.5t37.5 50.5t43.5 22.5q29 0 43 -19.5t14 -42.5q0 -35 -25.5 -71.5t-63.5 -65.5t-82 -47t-79 -18q-43 0 -81.5 24.5t-76.5 53t-74 53t-73 24.5 q-25 0 -47 -12t-42.5 -30.5t-37 -39.5t-30.5 -37q-14 -23 -46 -22q-23 0 -41 16.5t-18 40.5z" />
<glyph unicode="&#xd2;" horiz-adv-x="1464" d="M80 651q0 135 51 254t139 208t207 140.5t254 51.5t254 -51.5t208 -140.5t140 -208t51 -254t-51 -253.5t-140 -207t-208 -139.5t-254 -51t-254 51t-207 139.5t-139 207t-51 253.5zM207 651q0 -109 41 -205t111.5 -166.5t167 -111.5t204.5 -41q109 0 205 41t168 111.5 t112.5 167t40.5 204.5q0 109 -40.5 205t-112.5 168t-168 113t-205 41t-205 -41t-166.5 -113t-111.5 -168t-41 -205zM493 1751q0 23 17.5 44t46.5 21q16 0 30.5 -7t22.5 -23l170 -293q6 -16 6 -29q0 -25 -17.5 -45.5t-45.5 -20.5q-39 0 -53 31l-170 295q-6 12 -7 27z" />
<glyph unicode="&#xd3;" horiz-adv-x="1464" d="M80 651q0 135 51 254t139 208t207 140.5t254 51.5t254 -51.5t208 -140.5t140 -208t51 -254t-51 -253.5t-140 -207t-208 -139.5t-254 -51t-254 51t-207 139.5t-139 207t-51 253.5zM207 651q0 -109 41 -205t111.5 -166.5t167 -111.5t204.5 -41q109 0 205 41t168 111.5 t112.5 167t40.5 204.5q0 109 -40.5 205t-112.5 168t-168 113t-205 41t-205 -41t-166.5 -113t-111.5 -168t-41 -205zM673 1464q0 14 7 27l170 295q16 31 53 30q29 0 46 -20.5t17 -44.5q0 -16 -6 -29l-170 -293q-8 -16 -22.5 -24.5t-30.5 -8.5q-29 0 -46.5 22.5t-17.5 45.5z " />
<glyph unicode="&#xd4;" horiz-adv-x="1464" d="M80 651q0 135 51 254t139 208t207 140.5t254 51.5t254 -51.5t208 -140.5t140 -208t51 -254t-51 -253.5t-140 -207t-208 -139.5t-254 -51t-254 51t-207 139.5t-139 207t-51 253.5zM207 651q0 -109 41 -205t111.5 -166.5t167 -111.5t204.5 -41q109 0 205 41t168 111.5 t112.5 167t40.5 204.5q0 109 -40.5 205t-112.5 168t-168 113t-205 41t-205 -41t-166.5 -113t-111.5 -168t-41 -205zM385 1435q0 27 19 45l284 273q18 18 45 18t45 -18l287 -268q18 -18 19 -45q0 -27 -18.5 -45.5t-45.5 -18.5t-45 18l-242 228l-239 -232q-18 -18 -45 -18 t-45.5 18.5t-18.5 44.5z" />
<glyph unicode="&#xd5;" horiz-adv-x="1464" d="M80 651q0 135 51 254t139 208t207 140.5t254 51.5t254 -51.5t208 -140.5t140 -208t51 -254t-51 -253.5t-140 -207t-208 -139.5t-254 -51t-254 51t-207 139.5t-139 207t-51 253.5zM207 651q0 -109 41 -205t111.5 -166.5t167 -111.5t204.5 -41q109 0 205 41t168 111.5 t112.5 167t40.5 204.5q0 109 -40.5 205t-112.5 168t-168 113t-205 41t-205 -41t-166.5 -113t-111.5 -168t-41 -205zM315 1458q0 23 26.5 57.5t65.5 67.5t85 56.5t85 23.5q43 0 85 -24.5t82 -54.5t75 -54.5t63 -24.5q39 0 66 22.5t46 50.5t37.5 50.5t43.5 22.5q29 0 43 -19.5 t14 -42.5q0 -35 -25.5 -71.5t-63.5 -65.5t-82 -47t-79 -18q-43 0 -81.5 24.5t-76.5 53t-74 53t-73 24.5q-25 0 -47 -12t-42.5 -30.5t-37 -39.5t-30.5 -37q-14 -23 -46 -22q-23 0 -41 16.5t-18 40.5z" />
<glyph unicode="&#xd6;" horiz-adv-x="1464" d="M80 651q0 135 51 254t139 208t207 140.5t254 51.5t254 -51.5t208 -140.5t140 -208t51 -254t-51 -253.5t-140 -207t-208 -139.5t-254 -51t-254 51t-207 139.5t-139 207t-51 253.5zM207 651q0 -109 41 -205t111.5 -166.5t167 -111.5t204.5 -41q109 0 205 41t168 111.5 t112.5 167t40.5 204.5q0 109 -40.5 205t-112.5 168t-168 113t-205 41t-205 -41t-166.5 -113t-111.5 -168t-41 -205zM489 1479q0 35 24.5 59.5t59.5 24.5t59.5 -25t24.5 -59q0 -35 -24.5 -59.5t-59.5 -24.5t-59.5 24.5t-24.5 59.5zM813 1479q0 35 24.5 59.5t59.5 24.5 t59.5 -25t24.5 -59q0 -35 -24.5 -59.5t-59.5 -24.5t-59.5 24.5t-24.5 59.5z" />
<glyph unicode="&#xd7;" horiz-adv-x="1079" d="M94 106q0 25 19 48l338 342l-334 335q-20 25 -21 48q0 29 20.5 45t45.5 16q27 0 43 -16l336 -338l333 336q16 16 44 16q25 0 44 -16.5t19 -44.5q0 -27 -18 -48l-334 -333l338 -338q18 -23 18 -47q0 -25 -19.5 -43.5t-43.5 -18.5q-27 0 -45 21l-336 336l-338 -340 q-18 -20 -45 -21q-25 0 -44.5 18.5t-19.5 42.5z" />
<glyph unicode="&#xd8;" horiz-adv-x="1464" d="M80 651q0 135 51 254t139 208t207 140.5t254 51.5t254 -51.5t208 -140.5t140 -208t51 -254t-51 -253.5t-140 -207t-208 -139.5t-254 -51t-254 51t-207 139.5t-139 207t-51 253.5zM207 651q0 -109 41 -205t111.5 -166.5t167 -111.5t204.5 -41q109 0 205 41t168 111.5 t112.5 167t40.5 204.5q0 109 -40.5 205t-112.5 168t-168 113t-205 41t-205 -41t-166.5 -113t-111.5 -168t-41 -205zM467 38q0 8 4 21l394 1229q6 20 23.5 31.5t37.5 11.5q29 0 45 -20.5t16 -43.5q0 -12 -2 -18l-393 -1229q-6 -20 -24.5 -32.5t-36.5 -12.5q-29 0 -46.5 20.5 t-17.5 42.5z" />
<glyph unicode="&#xd9;" horiz-adv-x="1095" d="M92 455v788q0 23 18.5 44.5t47.5 21.5t45 -20.5t16 -47.5v-786q0 -68 25.5 -127.5t69.5 -103.5t104.5 -70.5t128.5 -26.5t127 26.5t104 70.5t72 103.5t27 127.5v788q0 23 18 44.5t47 21.5t45.5 -22.5t16.5 -45.5v-786q0 -94 -37 -177t-98.5 -144.5t-144.5 -97.5t-177 -36 t-177 36t-144.5 97.5t-97.5 144t-36 177.5zM325 1749q0 23 17.5 44t46.5 21q16 0 30.5 -7t22.5 -23l170 -293q6 -16 6 -29q0 -25 -17.5 -45.5t-45.5 -20.5q-39 0 -53 31l-170 295q-6 12 -7 27z" />
<glyph unicode="&#xda;" horiz-adv-x="1095" d="M92 455v788q0 23 18.5 44.5t47.5 21.5t45 -20.5t16 -47.5v-786q0 -68 25.5 -127.5t69.5 -103.5t104.5 -70.5t128.5 -26.5t127 26.5t104 70.5t72 103.5t27 127.5v788q0 23 18 44.5t47 21.5t45.5 -22.5t16.5 -45.5v-786q0 -94 -37 -177t-98.5 -144.5t-144.5 -97.5t-177 -36 t-177 36t-144.5 97.5t-97.5 144t-36 177.5zM442 1462q0 14 7 27l170 295q16 31 53 30q29 0 46 -20.5t17 -44.5q0 -16 -6 -29l-170 -293q-8 -16 -22.5 -24.5t-30.5 -8.5q-29 0 -46.5 22.5t-17.5 45.5z" />
<glyph unicode="&#xdb;" horiz-adv-x="1095" d="M92 455v788q0 23 18.5 44.5t47.5 21.5t45 -20.5t16 -47.5v-786q0 -68 25.5 -127.5t69.5 -103.5t104.5 -70.5t128.5 -26.5t127 26.5t104 70.5t72 103.5t27 127.5v788q0 23 18 44.5t47 21.5t45.5 -22.5t16.5 -45.5v-786q0 -94 -37 -177t-98.5 -144.5t-144.5 -97.5t-177 -36 t-177 36t-144.5 97.5t-97.5 144t-36 177.5zM215 1456q0 27 19 45l284 273q18 18 45 18t45 -18l287 -268q18 -18 19 -45q0 -27 -18.5 -45.5t-45.5 -18.5t-45 18l-242 228l-239 -232q-18 -18 -45 -18t-45.5 18.5t-18.5 44.5z" />
<glyph unicode="&#xdc;" horiz-adv-x="1095" d="M92 455v788q0 23 18.5 44.5t47.5 21.5t45 -20.5t16 -47.5v-786q0 -68 25.5 -127.5t69.5 -103.5t104.5 -70.5t128.5 -26.5t127 26.5t104 70.5t72 103.5t27 127.5v788q0 23 18 44.5t47 21.5t45.5 -22.5t16.5 -45.5v-786q0 -94 -37 -177t-98.5 -144.5t-144.5 -97.5t-177 -36 t-177 36t-144.5 97.5t-97.5 144t-36 177.5zM301 1498q0 35 24.5 59.5t59.5 24.5t59.5 -25t24.5 -59q0 -35 -24.5 -59.5t-59.5 -24.5t-59.5 24.5t-24.5 59.5zM625 1498q0 35 24.5 59.5t59.5 24.5t59.5 -25t24.5 -59q0 -35 -24.5 -59.5t-59.5 -24.5t-59.5 24.5t-24.5 59.5z " />
<glyph unicode="&#xdd;" horiz-adv-x="1060" d="M70 1243q0 25 17 44.5t46 19.5q35 0 53 -27l344 -514l344 514q18 27 54 27q27 0 45 -19.5t18 -44.5q0 -18 -10 -35l-387 -575v-570q0 -27 -18.5 -45t-45.5 -18t-45 18.5t-18 44.5v570l-385 575q-12 14 -12 35zM456 1462q0 14 7 27l170 295q16 31 53 30q29 0 46 -20.5 t17 -44.5q0 -16 -6 -29l-170 -293q-8 -16 -22.5 -24.5t-30.5 -8.5q-29 0 -46.5 22.5t-17.5 45.5z" />
<glyph unicode="&#xde;" horiz-adv-x="1058" d="M70 -307v1548q0 23 18 44.5t49 21.5q23 0 42.5 -19.5t19.5 -46.5v-440q45 37 94 64.5t95 46t87 27.5t70 9q100 0 187 -39t151.5 -103.5t100.5 -151.5t36 -181q0 -98 -38 -184t-103.5 -150.5t-151.5 -101.5t-180 -37q-102 0 -193.5 43t-156.5 115v-465q0 -27 -18.5 -45.5 t-45.5 -18.5t-45 18.5t-18 45.5zM199 473q0 -72 28.5 -135.5t75.5 -110.5t110.5 -74.5t133.5 -27.5t132 27.5t110.5 74.5t77 110.5t28.5 135.5t-28.5 135.5t-77 111.5t-110.5 75.5t-132 27.5t-133.5 -29.5t-110.5 -78.5t-75.5 -111.5t-28.5 -130.5z" />
<glyph unicode="&#xdf;" horiz-adv-x="890" d="M88 49v944q0 78 29.5 147.5t81 121t120 81t146.5 29.5t147.5 -29.5t120.5 -81t81 -121t30 -147.5q0 -98 -46 -181t-124 -134q76 -53 122 -135t46 -181q0 -78 -30 -146.5t-81 -119.5t-119.5 -80.5t-146.5 -29.5q-27 0 -45.5 18.5t-18.5 44.5q0 27 18.5 45.5t45.5 18.5 q119 10 186.5 81.5t67.5 167.5q0 51 -18.5 95.5t-52.5 78t-81 54t-102 24.5q-27 0 -45.5 18.5t-18.5 45.5t18.5 45t45.5 18q53 0 99 19.5t81 54.5t54.5 80t19.5 98q0 51 -19.5 97.5t-54.5 81t-81 54t-99 19.5t-98 -19.5t-80 -54t-54.5 -81t-19.5 -97.5v-944q0 -27 -18.5 -45 t-44.5 -18q-27 0 -44.5 18.5t-17.5 44.5z" />
<glyph unicode="&#xe0;" horiz-adv-x="1159" d="M84 494q0 102 38 193t104.5 158.5t157.5 106.5t198 39q98 0 187 -40t156.5 -107.5t107.5 -157.5t40 -192v-433q0 -27 -18.5 -45t-44.5 -18q-27 0 -45.5 18.5t-18.5 44.5v125q-68 -76 -163 -130t-205 -54q-102 0 -191.5 37t-157 102.5t-106.5 155.5t-39 197zM211 494 q0 -76 28.5 -142.5t79 -117t117 -79t142.5 -28.5q74 0 139 27.5t115.5 77t80 116t33.5 146.5q0 76 -28.5 143.5t-79 117.5t-118 78.5t-142.5 28.5q-76 0 -142.5 -28.5t-117 -78.5t-79 -118t-28.5 -143zM329 1450q0 23 17.5 44t46.5 21q16 0 30.5 -7t22.5 -23l170 -293 q6 -16 6 -29q0 -25 -17.5 -45.5t-45.5 -20.5q-39 0 -53 31l-170 295q-6 12 -7 27z" />
<glyph unicode="&#xe1;" horiz-adv-x="1159" d="M84 494q0 102 38 193t104.5 158.5t157.5 106.5t198 39q98 0 187 -40t156.5 -107.5t107.5 -157.5t40 -192v-433q0 -27 -18.5 -45t-44.5 -18q-27 0 -45.5 18.5t-18.5 44.5v125q-68 -76 -163 -130t-205 -54q-102 0 -191.5 37t-157 102.5t-106.5 155.5t-39 197zM211 494 q0 -76 28.5 -142.5t79 -117t117 -79t142.5 -28.5q74 0 139 27.5t115.5 77t80 116t33.5 146.5q0 76 -28.5 143.5t-79 117.5t-118 78.5t-142.5 28.5q-76 0 -142.5 -28.5t-117 -78.5t-79 -118t-28.5 -143zM524 1165q0 14 7 27l170 295q16 31 53 30q29 0 46 -20.5t17 -44.5 q0 -16 -6 -29l-170 -293q-8 -16 -22.5 -24.5t-30.5 -8.5q-29 0 -46.5 22.5t-17.5 45.5z" />
<glyph unicode="&#xe2;" horiz-adv-x="1159" d="M84 498q0 102 38 193t104.5 158.5t157.5 106.5t198 39q98 0 187 -40t156.5 -107.5t107.5 -157.5t40 -192v-433q0 -27 -18.5 -45t-44.5 -18q-27 0 -45.5 18.5t-18.5 44.5v125q-68 -76 -163 -130t-205 -54q-102 0 -191.5 37t-157 102.5t-106.5 155.5t-39 197zM211 498 q0 -76 28.5 -142.5t79 -117t117 -79t142.5 -28.5q74 0 139 27.5t115.5 77t80 116t33.5 146.5q0 76 -28.5 143.5t-79 117.5t-118 78.5t-142.5 28.5q-76 0 -142.5 -28.5t-117 -78.5t-79 -118t-28.5 -143zM235 1161q0 27 19 45l284 273q18 18 45 18t45 -18l287 -268 q18 -18 19 -45q0 -27 -18.5 -45.5t-45.5 -18.5t-45 18l-242 228l-239 -232q-18 -18 -45 -18t-45.5 18.5t-18.5 44.5z" />
<glyph unicode="&#xe3;" horiz-adv-x="1159" d="M84 494q0 102 38 193t104.5 158.5t157.5 106.5t198 39q98 0 187 -40t156.5 -107.5t107.5 -157.5t40 -192v-433q0 -27 -18.5 -45t-44.5 -18q-27 0 -45.5 18.5t-18.5 44.5v125q-68 -76 -163 -130t-205 -54q-102 0 -191.5 37t-157 102.5t-106.5 155.5t-39 197zM182 1143 q0 23 26.5 57.5t65.5 67.5t85 56.5t85 23.5q43 0 85 -24.5t82 -54.5t75 -54.5t63 -24.5q39 0 66 22.5t46 50.5t37.5 50.5t43.5 22.5q29 0 43 -19.5t14 -42.5q0 -35 -25.5 -71.5t-63.5 -65.5t-82 -47t-79 -18q-43 0 -81.5 24.5t-76.5 53t-74 53t-73 24.5q-25 0 -47 -12 t-42.5 -30.5t-37 -39.5t-30.5 -37q-14 -23 -46 -22q-23 0 -41 16.5t-18 40.5zM211 494q0 -76 28.5 -142.5t79 -117t117 -79t142.5 -28.5q74 0 139 27.5t115.5 77t80 116t33.5 146.5q0 76 -28.5 143.5t-79 117.5t-118 78.5t-142.5 28.5q-76 0 -142.5 -28.5t-117 -78.5 t-79 -118t-28.5 -143z" />
<glyph unicode="&#xe4;" horiz-adv-x="1159" d="M84 494q0 102 38 193t104.5 158.5t157.5 106.5t198 39q98 0 187 -40t156.5 -107.5t107.5 -157.5t40 -192v-433q0 -27 -18.5 -45t-44.5 -18q-27 0 -45.5 18.5t-18.5 44.5v125q-68 -76 -163 -130t-205 -54q-102 0 -191.5 37t-157 102.5t-106.5 155.5t-39 197zM211 494 q0 -76 28.5 -142.5t79 -117t117 -79t142.5 -28.5q74 0 139 27.5t115.5 77t80 116t33.5 146.5q0 76 -28.5 143.5t-79 117.5t-118 78.5t-142.5 28.5q-76 0 -142.5 -28.5t-117 -78.5t-79 -118t-28.5 -143zM338 1223q0 35 24.5 59.5t59.5 24.5t59.5 -25t24.5 -59 q0 -35 -24.5 -59.5t-59.5 -24.5t-59.5 24.5t-24.5 59.5zM662 1223q0 35 24.5 59.5t59.5 24.5t59.5 -25t24.5 -59q0 -35 -24.5 -59.5t-59.5 -24.5t-59.5 24.5t-24.5 59.5z" />
<glyph unicode="&#xe5;" horiz-adv-x="1159" d="M84 494q0 102 38 193t104.5 158.5t157.5 106.5t198 39q98 0 187 -40t156.5 -107.5t107.5 -157.5t40 -192v-433q0 -27 -18.5 -45t-44.5 -18q-27 0 -45.5 18.5t-18.5 44.5v125q-68 -76 -163 -130t-205 -54q-102 0 -191.5 37t-157 102.5t-106.5 155.5t-39 197zM211 494 q0 -76 28.5 -142.5t79 -117t117 -79t142.5 -28.5q74 0 139 27.5t115.5 77t80 116t33.5 146.5q0 76 -28.5 143.5t-79 117.5t-118 78.5t-142.5 28.5q-76 0 -142.5 -28.5t-117 -78.5t-79 -118t-28.5 -143zM387 1288q0 82 56 139.5t138 57.5t139.5 -57.5t57.5 -139.5t-57.5 -138 t-139.5 -56t-138 56t-56 138zM510 1288q0 -33 19.5 -52t51.5 -19q33 0 53.5 19t20.5 52t-20.5 53.5t-53.5 20.5t-52 -20.5t-19 -53.5z" />
<glyph unicode="&#xe6;" horiz-adv-x="2023" d="M84 494q0 102 38 193t104.5 158.5t157.5 106.5t198 39q98 0 187 -40t156.5 -107.5t107.5 -157.5t40 -192v-433q0 -27 -18.5 -45t-44.5 -18q-27 0 -45.5 18.5t-18.5 44.5v125q-68 -76 -163 -130t-205 -54q-102 0 -191.5 37t-157 102.5t-106.5 155.5t-39 197zM211 494 q0 -76 28.5 -142.5t79 -117t117 -79t142.5 -28.5q74 0 139 27.5t115.5 77t80 116t33.5 146.5q0 76 -28.5 143.5t-79 117.5t-118 78.5t-142.5 28.5q-76 0 -142.5 -28.5t-117 -78.5t-79 -118t-28.5 -143zM948 494q0 102 38 191t104.5 155.5t157.5 106.5t198 44q96 0 185 -39 t156.5 -106.5t108.5 -156.5t41 -191q0 -31 -20.5 -47.5t-42.5 -16.5h-795q10 -66 43 -122t81 -97t109.5 -64.5t128.5 -23.5q76 0 141.5 27.5t116.5 76.5q18 18 46 19q27 0 45 -18.5t18 -45.5t-18 -45q-68 -76 -153 -107.5t-196 -31.5q-102 0 -191 37t-156.5 102.5 t-106.5 155.5t-39 197zM1081 561h723q-12 63 -45 118.5t-81 95.5t-108.5 63.5t-128.5 23.5t-128 -23.5t-108 -63.5t-80 -95t-44 -119z" />
<glyph unicode="&#xe7;" horiz-adv-x="1028" d="M84 492q0 102 38 191t104.5 155.5t158 106.5t197.5 44q82 0 147.5 -24.5t112.5 -56t72.5 -63.5t25.5 -48q0 -23 -18.5 -39.5t-40.5 -16.5q-27 0 -45 19q-51 45 -117 72.5t-141 27.5q-76 0 -142.5 -28.5t-117 -79t-79 -118t-28.5 -142.5q0 -76 28.5 -142.5t79 -117 t117 -79t142.5 -28.5t141 27.5t117 76.5q18 18 45 19q25 0 44 -17.5t19 -44.5q0 -16 -23.5 -48t-70.5 -62.5t-115.5 -53t-156.5 -22.5q-102 0 -191.5 37t-157 102.5t-106.5 155.5t-39 197zM377 -217q0 23 17 40.5t40 17.5q31 0 41 -18.5t18.5 -42t19.5 -42t42 -18.5 q27 0 45 18.5t18 44.5q0 33 -18.5 43.5t-42 18.5t-42 20.5t-18.5 46.5v191h115v-150q53 -18 87 -64t34 -106q0 -74 -52.5 -126t-125.5 -52q-74 0 -126 52.5t-52 125.5z" />
<glyph unicode="&#xe8;" d="M80 494q0 102 38 191t104.5 155.5t157.5 106.5t198 44q96 0 185 -39t156.5 -106.5t108.5 -156.5t41 -191q0 -31 -20.5 -47.5t-42.5 -16.5h-795q10 -66 43 -122t81 -97t109.5 -64.5t128.5 -23.5q76 0 141.5 27.5t116.5 76.5q18 18 46 19q27 0 45 -18.5t18 -45.5t-18 -45 q-68 -76 -153 -107.5t-196 -31.5q-102 0 -191 37t-156.5 102.5t-106.5 155.5t-39 197zM213 561h723q-12 63 -45 118.5t-81 95.5t-108.5 63.5t-128.5 23.5t-128 -23.5t-108 -63.5t-80 -95t-44 -119zM333 1450q0 23 17.5 44t46.5 21q16 0 30.5 -7t22.5 -23l170 -293 q6 -16 6 -29q0 -25 -17.5 -45.5t-45.5 -20.5q-39 0 -53 31l-170 295q-6 12 -7 27z" />
<glyph unicode="&#xe9;" d="M80 494q0 102 38 191t104.5 155.5t157.5 106.5t198 44q96 0 185 -39t156.5 -106.5t108.5 -156.5t41 -191q0 -31 -20.5 -47.5t-42.5 -16.5h-795q10 -66 43 -122t81 -97t109.5 -64.5t128.5 -23.5q76 0 141.5 27.5t116.5 76.5q18 18 46 19q27 0 45 -18.5t18 -45.5t-18 -45 q-68 -76 -153 -107.5t-196 -31.5q-102 0 -191 37t-156.5 102.5t-106.5 155.5t-39 197zM213 561h723q-12 63 -45 118.5t-81 95.5t-108.5 63.5t-128.5 23.5t-128 -23.5t-108 -63.5t-80 -95t-44 -119zM520 1165q0 14 7 27l170 295q16 31 53 30q29 0 46 -20.5t17 -44.5 q0 -16 -6 -29l-170 -293q-8 -16 -22.5 -24.5t-30.5 -8.5q-29 0 -46.5 22.5t-17.5 45.5z" />
<glyph unicode="&#xea;" d="M80 494q0 102 38 191t104.5 155.5t157.5 106.5t198 44q96 0 185 -39t156.5 -106.5t108.5 -156.5t41 -191q0 -31 -20.5 -47.5t-42.5 -16.5h-795q10 -66 43 -122t81 -97t109.5 -64.5t128.5 -23.5q76 0 141.5 27.5t116.5 76.5q18 18 46 19q27 0 45 -18.5t18 -45.5t-18 -45 q-68 -76 -153 -107.5t-196 -31.5q-102 0 -191 37t-156.5 102.5t-106.5 155.5t-39 197zM207 1161q0 27 19 45l284 273q18 18 45 18t45 -18l287 -268q18 -18 19 -45q0 -27 -18.5 -45.5t-45.5 -18.5t-45 18l-242 228l-239 -232q-18 -18 -45 -18t-45.5 18.5t-18.5 44.5zM213 561 h723q-12 63 -45 118.5t-81 95.5t-108.5 63.5t-128.5 23.5t-128 -23.5t-108 -63.5t-80 -95t-44 -119z" />
<glyph unicode="&#xeb;" d="M80 494q0 102 38 191t104.5 155.5t157.5 106.5t198 44q96 0 185 -39t156.5 -106.5t108.5 -156.5t41 -191q0 -31 -20.5 -47.5t-42.5 -16.5h-795q10 -66 43 -122t81 -97t109.5 -64.5t128.5 -23.5q76 0 141.5 27.5t116.5 76.5q18 18 46 19q27 0 45 -18.5t18 -45.5t-18 -45 q-68 -76 -153 -107.5t-196 -31.5q-102 0 -191 37t-156.5 102.5t-106.5 155.5t-39 197zM213 561h723q-12 63 -45 118.5t-81 95.5t-108.5 63.5t-128.5 23.5t-128 -23.5t-108 -63.5t-80 -95t-44 -119zM311 1209q0 35 24.5 59.5t59.5 24.5t59.5 -25t24.5 -59q0 -35 -24.5 -59.5 t-59.5 -24.5t-59.5 24.5t-24.5 59.5zM635 1209q0 35 24.5 59.5t59.5 24.5t59.5 -25t24.5 -59q0 -35 -24.5 -59.5t-59.5 -24.5t-59.5 24.5t-24.5 59.5z" />
<glyph unicode="&#xec;" horiz-adv-x="288" d="M-80 1452q0 23 17.5 44t46.5 21q16 0 30.5 -7t22.5 -23l170 -293q6 -16 6 -29q0 -25 -17.5 -45.5t-45.5 -20.5q-39 0 -53 31l-170 295q-6 12 -7 27zM94 63v855q0 27 18.5 45t44.5 18q27 0 45.5 -18.5t18.5 -44.5v-855q0 -27 -18.5 -45t-45.5 -18t-45 18.5t-18 44.5z" />
<glyph unicode="&#xed;" horiz-adv-x="288" d="M74 63v855q0 27 18.5 45t44.5 18q27 0 45.5 -18.5t18.5 -44.5v-855q0 -27 -18.5 -45t-45.5 -18t-45 18.5t-18 44.5zM77 1165q0 14 7 27l170 295q16 31 53 30q29 0 46 -20.5t17 -44.5q0 -16 -6 -29l-170 -293q-8 -16 -22.5 -24.5t-30.5 -8.5q-29 0 -46.5 22.5t-17.5 45.5z " />
<glyph unicode="&#xee;" horiz-adv-x="313" d="M-191 1142q0 27 19 45l284 273q18 18 45 18t45 -18l287 -268q18 -18 19 -45q0 -27 -18.5 -45.5t-45.5 -18.5t-45 18l-242 228l-239 -232q-18 -18 -45 -18t-45.5 18.5t-18.5 44.5zM92 63v855q0 27 18.5 45t44.5 18q27 0 45.5 -18.5t18.5 -44.5v-855q0 -27 -18.5 -45 t-45.5 -18t-45 18.5t-18 44.5z" />
<glyph unicode="&#xef;" horiz-adv-x="321" d="M-84 1217q0 35 24.5 59.5t59.5 24.5t59.5 -25t24.5 -59q0 -35 -24.5 -59.5t-59.5 -24.5t-59.5 24.5t-24.5 59.5zM97 63v855q0 27 18.5 45t44.5 18q27 0 45.5 -18.5t18.5 -44.5v-855q0 -27 -18.5 -45t-45.5 -18t-45 18.5t-18 44.5zM240 1217q0 35 24.5 59.5t59.5 24.5 t59.5 -25t24.5 -59q0 -35 -24.5 -59.5t-59.5 -24.5t-59.5 24.5t-24.5 59.5z" />
<glyph unicode="&#xf0;" horiz-adv-x="911" d="M74 387q0 80 29.5 149.5t82 122t121 82t148.5 29.5q74 0 139 -25.5t117 -72.5v321q0 14 -7.5 47t-30 67t-63.5 60.5t-108 26.5q-27 0 -45.5 18.5t-18.5 44.5q0 27 18.5 45.5t45.5 18.5q94 0 157.5 -35t102.5 -85t56.5 -107.5t17.5 -100.5l2 -606q0 -80 -30 -148.5 t-82 -120.5t-121.5 -82t-149.5 -30t-148.5 30t-121 82t-82 120.5t-29.5 148.5zM201 387q0 -53 19.5 -99t54 -81t80.5 -54.5t100 -19.5q53 0 99 19.5t81 54.5t55.5 81t20.5 99t-20.5 99t-55.5 81t-81 55.5t-99 20.5t-99.5 -20.5t-81 -55.5t-54 -81t-19.5 -99z" />
<glyph unicode="&#xf1;" horiz-adv-x="929" d="M49 1159q0 23 26.5 57.5t65.5 67.5t85 56.5t85 23.5q43 0 85 -24.5t82 -54.5t75 -54.5t63 -24.5q39 0 66 22.5t46 50.5t37.5 50.5t43.5 22.5q29 0 43 -19.5t14 -42.5q0 -35 -25.5 -71.5t-63.5 -65.5t-82 -47t-79 -18q-43 0 -81.5 24.5t-76.5 53t-74 53t-73 24.5 q-25 0 -47 -12t-42.5 -30.5t-37 -39.5t-30.5 -37q-14 -23 -46 -22q-23 0 -41 16.5t-18 40.5zM94 63v869q0 27 18.5 45t45.5 18t45 -18.5t18 -44.5v-27q47 41 108.5 65.5t131.5 24.5q76 0 143.5 -28.5t117.5 -78.5t78.5 -118t28.5 -143v-564q0 -27 -18 -45t-45 -18 t-45.5 18.5t-18.5 44.5v564q0 49 -19 93t-52 76.5t-77 51t-93 18.5t-92 -18.5t-76 -49t-51.5 -72.5t-20.5 -89v-574q0 -27 -18.5 -45t-44.5 -18q-27 0 -45.5 18.5t-18.5 44.5z" />
<glyph unicode="&#xf2;" d="M80 494q0 102 38 191t104.5 155.5t158 106.5t197.5 44q98 0 187 -40t156.5 -107.5t107.5 -157.5t40 -192q0 -100 -39 -189.5t-105.5 -157t-156.5 -106.5t-195 -39q-102 0 -191 37t-156.5 102.5t-106.5 155.5t-39 197zM207 494q0 -76 28.5 -142.5t79 -117t117 -79 t141.5 -28.5q76 0 143.5 28.5t118 79t79 117t28.5 142.5t-28.5 143.5t-79 117.5t-118 78.5t-143.5 28.5t-142 -28.5t-116.5 -78.5t-79 -118t-28.5 -143zM317 1442q0 23 17.5 44t46.5 21q16 0 30.5 -7t22.5 -23l170 -293q6 -16 6 -29q0 -25 -17.5 -45.5t-45.5 -20.5 q-39 0 -53 31l-170 295q-6 12 -7 27z" />
<glyph unicode="&#xf3;" d="M80 494q0 102 38 191t104.5 155.5t158 106.5t197.5 44q98 0 187 -40t156.5 -107.5t107.5 -157.5t40 -192q0 -100 -39 -189.5t-105.5 -157t-156.5 -106.5t-195 -39q-102 0 -191 37t-156.5 102.5t-106.5 155.5t-39 197zM207 494q0 -76 28.5 -142.5t79 -117t117 -79 t141.5 -28.5q76 0 143.5 28.5t118 79t79 117t28.5 142.5t-28.5 143.5t-79 117.5t-118 78.5t-143.5 28.5t-142 -28.5t-116.5 -78.5t-79 -118t-28.5 -143zM512 1163q0 14 7 27l170 295q16 31 53 30q29 0 46 -20.5t17 -44.5q0 -16 -6 -29l-170 -293q-8 -16 -22.5 -24.5 t-30.5 -8.5q-29 0 -46.5 22.5t-17.5 45.5z" />
<glyph unicode="&#xf4;" d="M80 494q0 102 38 191t104.5 155.5t158 106.5t197.5 44q98 0 187 -40t156.5 -107.5t107.5 -157.5t40 -192q0 -100 -39 -189.5t-105.5 -157t-156.5 -106.5t-195 -39q-102 0 -191 37t-156.5 102.5t-106.5 155.5t-39 197zM207 494q0 -76 28.5 -142.5t79 -117t117 -79 t141.5 -28.5q76 0 143.5 28.5t118 79t79 117t28.5 142.5t-28.5 143.5t-79 117.5t-118 78.5t-143.5 28.5t-142 -28.5t-116.5 -78.5t-79 -118t-28.5 -143zM227 1142q0 27 19 45l284 273q18 18 45 18t45 -18l287 -268q18 -18 19 -45q0 -27 -18.5 -45.5t-45.5 -18.5t-45 18 l-242 228l-239 -232q-18 -18 -45 -18t-45.5 18.5t-18.5 44.5z" />
<glyph unicode="&#xf5;" d="M80 494q0 102 38 191t104.5 155.5t158 106.5t197.5 44q98 0 187 -40t156.5 -107.5t107.5 -157.5t40 -192q0 -100 -39 -189.5t-105.5 -157t-156.5 -106.5t-195 -39q-102 0 -191 37t-156.5 102.5t-106.5 155.5t-39 197zM166 1157q0 23 26.5 57.5t65.5 67.5t85 56.5t85 23.5 q43 0 85 -24.5t82 -54.5t75 -54.5t63 -24.5q39 0 66 22.5t46 50.5t37.5 50.5t43.5 22.5q29 0 43 -19.5t14 -42.5q0 -35 -25.5 -71.5t-63.5 -65.5t-82 -47t-79 -18q-43 0 -81.5 24.5t-76.5 53t-74 53t-73 24.5q-25 0 -47 -12t-42.5 -30.5t-37 -39.5t-30.5 -37 q-14 -23 -46 -22q-23 0 -41 16.5t-18 40.5zM207 494q0 -76 28.5 -142.5t79 -117t117 -79t141.5 -28.5q76 0 143.5 28.5t118 79t79 117t28.5 142.5t-28.5 143.5t-79 117.5t-118 78.5t-143.5 28.5t-142 -28.5t-116.5 -78.5t-79 -118t-28.5 -143z" />
<glyph unicode="&#xf6;" d="M80 494q0 102 38 191t104.5 155.5t158 106.5t197.5 44q98 0 187 -40t156.5 -107.5t107.5 -157.5t40 -192q0 -100 -39 -189.5t-105.5 -157t-156.5 -106.5t-195 -39q-102 0 -191 37t-156.5 102.5t-106.5 155.5t-39 197zM207 494q0 -76 28.5 -142.5t79 -117t117 -79 t141.5 -28.5q76 0 143.5 28.5t118 79t79 117t28.5 142.5t-28.5 143.5t-79 117.5t-118 78.5t-143.5 28.5t-142 -28.5t-116.5 -78.5t-79 -118t-28.5 -143zM315 1176q0 35 24.5 59.5t59.5 24.5t59.5 -25t24.5 -59q0 -35 -24.5 -59.5t-59.5 -24.5t-59.5 24.5t-24.5 59.5z M639 1176q0 35 24.5 59.5t59.5 24.5t59.5 -25t24.5 -59q0 -35 -24.5 -59.5t-59.5 -24.5t-59.5 24.5t-24.5 59.5z" />
<glyph unicode="&#xf7;" horiz-adv-x="892" d="M47 637q0 27 18.5 45t45.5 18h669q27 0 45.5 -18t18.5 -45t-18.5 -45.5t-45.5 -18.5h-669q-27 0 -45.5 18.5t-18.5 45.5zM360 283q0 29 21.5 51t50.5 22q33 0 53.5 -22.5t20.5 -50.5q0 -29 -20.5 -50.5t-53.5 -21.5q-29 0 -50.5 21.5t-21.5 50.5zM360 993q0 29 21.5 51.5 t50.5 22.5q33 0 53.5 -22.5t20.5 -51.5t-20.5 -50t-53.5 -21q-29 0 -50.5 21.5t-21.5 49.5z" />
<glyph unicode="&#xf8;" d="M80 494q0 102 38 191t104.5 155.5t158 106.5t197.5 44q98 0 187 -40t156.5 -107.5t107.5 -157.5t40 -192q0 -100 -39 -189.5t-105.5 -157t-156.5 -106.5t-195 -39q-102 0 -191 37t-156.5 102.5t-106.5 155.5t-39 197zM207 494q0 -76 28.5 -142.5t79 -117t117 -79 t141.5 -28.5q76 0 143.5 28.5t118 79t79 117t28.5 142.5t-28.5 143.5t-79 117.5t-118 78.5t-143.5 28.5t-142 -28.5t-116.5 -78.5t-79 -118t-28.5 -143zM315 -101q0 8 4 21l394 1229q6 20 23.5 31.5t37.5 11.5q29 0 45 -20.5t16 -43.5q0 -12 -2 -18l-393 -1229 q-6 -20 -24.5 -32.5t-36.5 -12.5q-29 0 -46.5 20.5t-17.5 42.5z" />
<glyph unicode="&#xf9;" horiz-adv-x="927" d="M96 369v561q0 27 18.5 45t45.5 18t45 -18.5t18 -44.5v-561q0 -49 19.5 -93.5t52.5 -77t77 -51t93 -18.5t92 18.5t75 49t51 72.5t22 89v572q0 27 18 45t45 18t45 -18.5t18 -44.5v-867q0 -27 -18 -45t-45 -18t-45 18.5t-18 44.5v27q-47 -41 -108.5 -65.5t-131.5 -24.5 q-76 0 -143.5 28.5t-117.5 79t-79 118t-29 143.5zM231 1450q0 23 17.5 44t46.5 21q16 0 30.5 -7t22.5 -23l170 -293q6 -16 6 -29q0 -25 -17.5 -45.5t-45.5 -20.5q-39 0 -53 31l-170 295q-6 12 -7 27z" />
<glyph unicode="&#xfa;" horiz-adv-x="927" d="M96 369v561q0 27 18.5 45t45.5 18t45 -18.5t18 -44.5v-561q0 -49 19.5 -93.5t52.5 -77t77 -51t93 -18.5t92 18.5t75 49t51 72.5t22 89v572q0 27 18 45t45 18t45 -18.5t18 -44.5v-867q0 -27 -18 -45t-45 -18t-45 18.5t-18 44.5v27q-47 -41 -108.5 -65.5t-131.5 -24.5 q-76 0 -143.5 28.5t-117.5 79t-79 118t-29 143.5zM426 1165q0 14 7 27l170 295q16 31 53 30q29 0 46 -20.5t17 -44.5q0 -16 -6 -29l-170 -293q-8 -16 -22.5 -24.5t-30.5 -8.5q-29 0 -46.5 22.5t-17.5 45.5z" />
<glyph unicode="&#xfb;" horiz-adv-x="927" d="M96 369v561q0 27 18.5 45t45.5 18t45 -18.5t18 -44.5v-561q0 -49 19.5 -93.5t52.5 -77t77 -51t93 -18.5t92 18.5t75 49t51 72.5t22 89v572q0 27 18 45t45 18t45 -18.5t18 -44.5v-867q0 -27 -18 -45t-45 -18t-45 18.5t-18 44.5v27q-47 -41 -108.5 -65.5t-131.5 -24.5 q-76 0 -143.5 28.5t-117.5 79t-79 118t-29 143.5zM121 1151q0 27 19 45l284 273q18 18 45 18t45 -18l287 -268q18 -18 19 -45q0 -27 -18.5 -45.5t-45.5 -18.5t-45 18l-242 228l-239 -232q-18 -18 -45 -18t-45.5 18.5t-18.5 44.5z" />
<glyph unicode="&#xfc;" horiz-adv-x="927" d="M96 369v561q0 27 18.5 45t45.5 18t45 -18.5t18 -44.5v-561q0 -49 19.5 -93.5t52.5 -77t77 -51t93 -18.5t92 18.5t75 49t51 72.5t22 89v572q0 27 18 45t45 18t45 -18.5t18 -44.5v-867q0 -27 -18 -45t-45 -18t-45 18.5t-18 44.5v27q-47 -41 -108.5 -65.5t-131.5 -24.5 q-76 0 -143.5 28.5t-117.5 79t-79 118t-29 143.5zM223 1217q0 35 24.5 59.5t59.5 24.5t59.5 -25t24.5 -59q0 -35 -24.5 -59.5t-59.5 -24.5t-59.5 24.5t-24.5 59.5zM547 1217q0 35 24.5 59.5t59.5 24.5t59.5 -25t24.5 -59q0 -35 -24.5 -59.5t-59.5 -24.5t-59.5 24.5 t-24.5 59.5z" />
<glyph unicode="&#xfd;" horiz-adv-x="921" d="M68 932q0 27 15 44t44 17q23 0 39 -10t22 -27l267 -727l276 727q6 16 22.5 26.5t34.5 10.5q29 0 46.5 -19.5t17.5 -41.5q0 -12 -6 -25l-467 -1237q-16 -41 -57 -41q-29 0 -46.5 19.5t-17.5 44.5q0 6 1 11t3 11l123 336q-86 236 -145.5 398.5t-96.5 262t-53 144.5t-16 47 q-6 12 -6 29zM419 1165q0 14 7 27l170 295q16 31 53 30q29 0 46 -20.5t17 -44.5q0 -16 -6 -29l-170 -293q-8 -16 -22.5 -24.5t-30.5 -8.5q-29 0 -46.5 22.5t-17.5 45.5z" />
<glyph unicode="&#xfe;" horiz-adv-x="1142" d="M76 -256v1501q0 27 18.5 45.5t44.5 18.5q27 0 45.5 -18.5t18.5 -45.5v-442q68 74 162 128t208 58q98 0 187.5 -40t157 -107.5t107.5 -157.5t40 -192q0 -100 -39 -189.5t-105.5 -157t-156.5 -106.5t-195 -39q-111 0 -205 42t-161 116v-414q0 -27 -18.5 -45t-45.5 -18 t-45 18t-18 45zM203 475q2 -74 32.5 -137.5t80 -110.5t115 -74.5t138.5 -27.5q76 0 143.5 28.5t118 79t79 117t28.5 142.5t-28.5 143t-79 117.5t-118 79t-143.5 28.5q-74 0 -139 -27.5t-114.5 -76.5t-80 -117t-32.5 -147v-17z" />
<glyph unicode="&#xff;" horiz-adv-x="921" d="M68 932q0 27 15 44t44 17q23 0 39 -10t22 -27l267 -727l276 727q6 16 22.5 26.5t34.5 10.5q29 0 46.5 -19.5t17.5 -41.5q0 -12 -6 -25l-467 -1237q-16 -41 -57 -41q-29 0 -46.5 19.5t-17.5 44.5q0 6 1 11t3 11l123 336q-86 236 -145.5 398.5t-96.5 262t-53 144.5t-16 47 q-6 12 -6 29zM231 1219q0 35 24.5 59.5t59.5 24.5t59.5 -25t24.5 -59q0 -35 -24.5 -59.5t-59.5 -24.5t-59.5 24.5t-24.5 59.5zM555 1219q0 35 24.5 59.5t59.5 24.5t59.5 -25t24.5 -59q0 -35 -24.5 -59.5t-59.5 -24.5t-59.5 24.5t-24.5 59.5z" />
<glyph unicode="&#x152;" horiz-adv-x="2080" d="M80 651q0 135 51 254t139 208t207 140.5t254 51.5t254 -51.5t208 -140.5t140 -208t51 -254t-51 -253.5t-140 -207t-208 -139.5t-254 -51t-254 51t-207 139.5t-139 207t-51 253.5zM207 651q0 -109 41 -205t111.5 -166.5t167 -111.5t204.5 -41q109 0 205 41t168 111.5 t112.5 167t40.5 204.5q0 109 -40.5 205t-112.5 168t-168 113t-205 41t-205 -41t-166.5 -113t-111.5 -168t-41 -205zM1252 63v1182q0 27 18.5 45.5t44.5 18.5h623q27 0 45 -18.5t18 -45.5t-18.5 -45t-44.5 -18h-559v-457h372q27 0 45.5 -18.5t18.5 -44.5q0 -27 -18.5 -45.5 t-45.5 -18.5h-372v-471h559q27 0 45 -18.5t18 -45.5t-18.5 -45t-44.5 -18h-623q-27 0 -45 18.5t-18 44.5z" />
<glyph unicode="&#x153;" horiz-adv-x="2015" d="M80 494q0 102 38 191t104.5 155.5t158 106.5t197.5 44q98 0 187 -40t156.5 -107.5t107.5 -157.5t40 -192q0 -100 -39 -189.5t-105.5 -157t-156.5 -106.5t-195 -39q-102 0 -191 37t-156.5 102.5t-106.5 155.5t-39 197zM207 494q0 -76 28.5 -142.5t79 -117t117 -79 t141.5 -28.5q76 0 143.5 28.5t118 79t79 117t28.5 142.5t-28.5 143.5t-79 117.5t-118 78.5t-143.5 28.5t-142 -28.5t-116.5 -78.5t-79 -118t-28.5 -143zM946 494q0 102 38 191t104.5 155.5t157.5 106.5t198 44q96 0 185 -39t156.5 -106.5t108.5 -156.5t41 -191 q0 -31 -20.5 -47.5t-42.5 -16.5h-795q10 -66 43 -122t81 -97t109.5 -64.5t128.5 -23.5q76 0 141.5 27.5t116.5 76.5q18 18 46 19q27 0 45 -18.5t18 -45.5t-18 -45q-68 -76 -153 -107.5t-196 -31.5q-102 0 -191 37t-156.5 102.5t-106.5 155.5t-39 197zM1079 561h723 q-12 63 -45 118.5t-81 95.5t-108.5 63.5t-128.5 23.5t-128 -23.5t-108 -63.5t-80 -95t-44 -119z" />
<glyph unicode="&#x178;" horiz-adv-x="1060" d="M70 1243q0 25 17 44.5t46 19.5q35 0 53 -27l344 -514l344 514q18 27 54 27q27 0 45 -19.5t18 -44.5q0 -18 -10 -35l-387 -575v-570q0 -27 -18.5 -45t-45.5 -18t-45 18.5t-18 44.5v570l-385 575q-12 14 -12 35zM268 1500q0 35 24.5 59.5t59.5 24.5t59.5 -25t24.5 -59 q0 -35 -24.5 -59.5t-59.5 -24.5t-59.5 24.5t-24.5 59.5zM592 1500q0 35 24.5 59.5t59.5 24.5t59.5 -25t24.5 -59q0 -35 -24.5 -59.5t-59.5 -24.5t-59.5 24.5t-24.5 59.5z" />
<glyph unicode="&#x2c6;" horiz-adv-x="886" d="M96 1425q0 27 19 45l284 273q18 18 45 18t45 -18l287 -268q18 -18 19 -45q0 -27 -18.5 -45.5t-45.5 -18.5t-45 18l-242 228l-239 -232q-18 -18 -45 -18t-45.5 18.5t-18.5 44.5z" />
<glyph unicode="&#x2dc;" horiz-adv-x="995" d="M88 1118q0 23 26.5 57.5t65.5 67.5t85 56.5t85 23.5q43 0 85 -24.5t82 -54.5t75 -54.5t63 -24.5q39 0 66 22.5t46 50.5t37.5 50.5t43.5 22.5q29 0 43 -19.5t14 -42.5q0 -35 -25.5 -71.5t-63.5 -65.5t-82 -47t-79 -18q-43 0 -81.5 24.5t-76.5 53t-74 53t-73 24.5 q-25 0 -47 -12t-42.5 -30.5t-37 -39.5t-30.5 -37q-14 -23 -46 -22q-23 0 -41 16.5t-18 40.5z" />
<glyph unicode="&#x2000;" horiz-adv-x="909" />
<glyph unicode="&#x2001;" horiz-adv-x="1818" />
<glyph unicode="&#x2002;" horiz-adv-x="909" />
<glyph unicode="&#x2003;" horiz-adv-x="1818" />
<glyph unicode="&#x2004;" horiz-adv-x="606" />
<glyph unicode="&#x2005;" horiz-adv-x="454" />
<glyph unicode="&#x2006;" horiz-adv-x="303" />
<glyph unicode="&#x2007;" horiz-adv-x="303" />
<glyph unicode="&#x2008;" horiz-adv-x="227" />
<glyph unicode="&#x2009;" horiz-adv-x="363" />
<glyph unicode="&#x200a;" horiz-adv-x="101" />
<glyph unicode="&#x2010;" horiz-adv-x="950" d="M96 637q0 27 18.5 45t45.5 18h631q27 0 45 -18t18 -45t-18.5 -45.5t-44.5 -18.5h-631q-27 0 -45.5 18.5t-18.5 45.5z" />
<glyph unicode="&#x2011;" horiz-adv-x="950" d="M96 637q0 27 18.5 45t45.5 18h631q27 0 45 -18t18 -45t-18.5 -45.5t-44.5 -18.5h-631q-27 0 -45.5 18.5t-18.5 45.5z" />
<glyph unicode="&#x2012;" horiz-adv-x="950" d="M96 637q0 27 18.5 45t45.5 18h631q27 0 45 -18t18 -45t-18.5 -45.5t-44.5 -18.5h-631q-27 0 -45.5 18.5t-18.5 45.5z" />
<glyph unicode="&#x2013;" horiz-adv-x="950" d="M96 637q0 27 18.5 45t45.5 18h631q27 0 45 -18t18 -45t-18.5 -45.5t-44.5 -18.5h-631q-27 0 -45.5 18.5t-18.5 45.5z" />
<glyph unicode="&#x2014;" horiz-adv-x="1144" d="M96 637q0 27 18.5 45t45.5 18h825q27 0 45.5 -18t18.5 -45t-18.5 -45.5t-45.5 -18.5h-825q-27 0 -45.5 18.5t-18.5 45.5z" />
<glyph unicode="&#x2018;" horiz-adv-x="415" d="M61 1241q0 20 16.5 41t45.5 21q39 0 57 -31l168 -293q6 -12 6 -29q0 -27 -18.5 -47t-46.5 -20q-37 0 -53 35l-166 292q-8 14 -9 31z" />
<glyph unicode="&#x2019;" horiz-adv-x="417" d="M61 946q0 16 9 31l166 293q14 33 53 33q29 0 47 -19.5t18 -48.5q0 -14 -6 -27l-168 -293q-20 -33 -57 -32q-29 0 -45.5 20.5t-16.5 42.5z" />
<glyph unicode="&#x201a;" horiz-adv-x="313" d="M59 -371q0 2 1 9.5t7.5 42t19.5 109.5t38 212q4 25 20.5 44.5t42.5 19.5q27 0 45.5 -18.5t18.5 -45.5q0 -4 -3 -14.5t-15.5 -46t-38 -108.5t-72.5 -204q-10 -31 -33 -30q-31 0 -31 30z" />
<glyph unicode="&#x201c;" horiz-adv-x="729" d="M82 1233q0 29 18.5 48t46.5 19q39 0 54 -32l166 -293q8 -14 8 -31q0 -23 -16.5 -43t-45.5 -20q-37 0 -57 32l-168 293q-6 12 -6 27zM352 1233q0 29 18.5 48t47.5 19q39 0 53 -32l166 -293q8 -14 8 -31q0 -23 -16.5 -43t-44.5 -20q-37 0 -58 32l-168 293q-6 12 -6 27z" />
<glyph unicode="&#x201d;" horiz-adv-x="729" d="M82 944q0 16 8 31l166 293q14 33 53 32q29 0 47.5 -19t18.5 -48q0 -14 -6 -27l-168 -293q-20 -33 -58 -32q-29 0 -45 20.5t-16 42.5zM352 944q0 16 8 31l166 293q14 33 54 32q29 0 47 -19t18 -48q0 -14 -6 -27l-168 -293q-20 -33 -57 -32q-29 0 -45.5 20.5t-16.5 42.5z " />
<glyph unicode="&#x201e;" horiz-adv-x="735" d="M82 -371q0 2 1 9.5t7 42t19 109.5t38 212q4 25 20.5 44.5t43.5 19.5t45 -18.5t18 -45.5q0 -4 -3 -14.5t-15 -46t-37.5 -108.5t-73.5 -204q-10 -31 -32 -30q-31 0 -31 30zM459 -371q0 2 1 9.5t7 42t19 109.5t38 212q4 25 20.5 44.5t43.5 19.5t45 -18.5t18 -45.5 q0 -4 -3 -14.5t-15 -46t-38 -108.5t-73 -204q-10 -31 -33 -30q-31 0 -30 30z" />
<glyph unicode="&#x2022;" horiz-adv-x="479" d="M80 494q0 68 48.5 113.5t109.5 45.5q37 0 66.5 -14t51 -37.5t32.5 -52.5t11 -55q0 -66 -48 -112t-113 -46q-66 0 -112 46t-46 112z" />
<glyph unicode="&#x2026;" horiz-adv-x="1146" d="M94 84q0 35 24.5 59.5t59.5 24.5t59.5 -24.5t24.5 -59.5t-24.5 -59.5t-59.5 -24.5t-59.5 24.5t-24.5 59.5zM489 84q0 35 25 59.5t59 24.5q35 0 59.5 -24.5t24.5 -59.5t-24.5 -59.5t-59.5 -24.5t-59.5 24.5t-24.5 59.5zM885 84q0 35 24.5 59.5t59.5 24.5t59.5 -24.5 t24.5 -59.5t-24.5 -59.5t-59.5 -24.5t-59.5 24.5t-24.5 59.5z" />
<glyph unicode="&#x202f;" horiz-adv-x="363" />
<glyph unicode="&#x2039;" horiz-adv-x="710" d="M72 485q0 27 18 45l438 412q18 18 45 19q27 0 45.5 -18.5t18.5 -45.5t-19 -45l-391 -367l391 -372q18 -18 19 -45q0 -27 -18.5 -45.5t-45.5 -18.5t-45 19l-438 417q-18 18 -18 45z" />
<glyph unicode="&#x203a;" horiz-adv-x="708" d="M72 68q0 27 18 45l391 372l-391 367q-18 18 -18 45t18.5 45.5t44.5 18.5q27 0 45 -19l438 -412q18 -18 19 -45q0 -27 -19 -45l-438 -417q-18 -18 -45 -19q-27 0 -45 18.5t-18 45.5z" />
<glyph unicode="&#x205f;" horiz-adv-x="454" />
<glyph unicode="&#x20ac;" horiz-adv-x="1157" d="M78 498q0 27 18.5 45t44.5 18h39v191h-39q-27 0 -45 18t-18 45t18.5 45.5t44.5 18.5h39q6 92 45 174t103.5 141t147.5 94t179 35q131 0 241 -65.5t171 -172.5q8 -14 8 -34q0 -25 -15.5 -44.5t-45.5 -19.5q-16 0 -31.5 8.5t-26.5 24.5q-45 78 -124.5 127t-176.5 49 q-68 0 -129 -24.5t-107 -67.5t-76 -101.5t-36 -123.5h213q27 0 45.5 -18.5t18.5 -45.5t-18.5 -45t-45.5 -18h-213v-191h213q27 0 45.5 -18.5t18.5 -44.5q0 -27 -18.5 -45.5t-45.5 -18.5h-213q6 -68 35 -126t76 -102t107.5 -68.5t129.5 -24.5q98 0 178 48t125 126 q20 31 58 30q29 0 45 -19t16 -44q0 -16 -10 -37q-61 -104 -171 -167.5t-241 -63.5q-96 0 -180 34.5t-147.5 95t-102.5 142.5t-45 176h-39q-27 0 -45 18.5t-18 45.5z" />
<glyph unicode="&#x2122;" horiz-adv-x="1734" d="M90 1249q0 27 18.5 45.5t45.5 18.5h401q27 0 45 -18.5t18 -45.5t-18 -45t-45 -18h-137v-408q0 -27 -18.5 -45t-45.5 -18t-45 18.5t-18 44.5v408h-137q-27 0 -45.5 18.5t-18.5 44.5zM692 776v268q0 55 20.5 104.5t57.5 86.5t86 58.5t105 21.5q61 0 115 -25.5t91 -70.5 q37 43 90.5 69.5t116.5 26.5q55 0 104.5 -20.5t85 -57.5t57 -85t21.5 -103v-273q0 -27 -18 -45t-45 -18t-45 18.5t-18 44.5v275q-6 61 -46 99t-96 38q-59 0 -101 -42t-42 -102v-268q0 -27 -18.5 -45t-45.5 -18t-45 18.5t-18 44.5v275q-4 59 -45 98t-98 39q-59 0 -100.5 -41 t-41.5 -96v-275q0 -27 -18.5 -45t-44.5 -18q-27 0 -45.5 18.5t-18.5 44.5z" />
<glyph unicode="&#xe000;" horiz-adv-x="993" d="M0 0v993h993v-993h-993z" />
<glyph unicode="&#xfb01;" horiz-adv-x="825" d="M55 932q0 27 18.5 45t45.5 18h84v43q0 55 20.5 104.5t57 86.5t86 58.5t106.5 21.5q27 0 45.5 -18.5t18.5 -45.5t-18.5 -45t-45.5 -18q-59 0 -101 -42t-42 -102v-43h342q25 -2 42 -20.5t17 -42.5v-869q0 -27 -18.5 -45t-44.5 -18q-27 0 -45.5 18.5t-18.5 44.5v805h-274 v-805q0 -27 -18.5 -45t-45.5 -18t-45 18.5t-18 44.5v805h-84q-27 0 -45.5 18.5t-18.5 45.5zM584 1225q0 35 24.5 59.5t59.5 24.5t59.5 -24.5t24.5 -59.5t-25 -59.5t-59 -24.5q-35 0 -59.5 24.5t-24.5 59.5z" />
<glyph unicode="&#xfb02;" horiz-adv-x="839" d="M55 932q0 27 18.5 45t45.5 18h84v43q0 55 20.5 104.5t57 86.5t86 58.5t106.5 21.5h201q27 0 45 -18.5t18 -45.5v-1182q0 -27 -18.5 -45t-44.5 -18q-27 0 -45.5 18.5t-18.5 44.5v1119h-137q-59 0 -101 -42t-42 -102v-43h139q27 0 45 -18.5t18 -44.5q0 -27 -18 -45.5 t-45 -18.5h-139v-805q0 -27 -18.5 -45t-45.5 -18t-45 18.5t-18 44.5v805h-84q-27 0 -45.5 18.5t-18.5 45.5z" />
</font>
</defs>
</svg>
