<?xml version="1.0" standalone="no"?>
<!DOCTYPE svg PUBLIC "-//W3C//DTD SVG 1.1//EN" "http://www.w3.org/Graphics/SVG/1.1/DTD/svg11.dtd" >
<svg xmlns="http://www.w3.org/2000/svg">
<metadata></metadata>
<defs>
<font id="antipastoextrabold" horiz-adv-x="1464" >
<font-face units-per-em="2048" ascent="1638" descent="-410" />
<missing-glyph horiz-adv-x="512" />
<glyph horiz-adv-x="2048" />
<glyph horiz-adv-x="2048" />
<glyph unicode="&#xd;" horiz-adv-x="2048" />
<glyph unicode=" "  horiz-adv-x="512" />
<glyph unicode="&#x09;" horiz-adv-x="512" />
<glyph unicode="&#xa0;" horiz-adv-x="512" />
<glyph unicode="!" horiz-adv-x="311" d="M72 78q0 70 45 115t114 45q72 0 119 -45.5t47 -114.5q0 -72 -47 -119t-119 -47q-70 0 -114.5 47t-44.5 119zM72 500v643q0 70 45 115t114 45q72 0 119 -45.5t47 -114.5v-643q0 -70 -47 -115t-121 -45q-72 0 -114.5 45t-42.5 115z" />
<glyph unicode="&#x22;" horiz-adv-x="892" d="M98 997v260q0 70 43 115t115 45q74 0 121 -45t47 -115v-260q0 -70 -47 -114.5t-119 -44.5q-70 0 -115 45t-45 114zM467 997v260q0 70 43 115t115 45q74 0 121 -45t47 -115v-260q0 -70 -47.5 -114.5t-118.5 -44.5q-70 0 -115 45t-45 114z" />
<glyph unicode="#" horiz-adv-x="1296" d="M61 475q0 70 45.5 115t114.5 45h133l33 108h-59q-70 0 -115 47.5t-45 118.5q0 70 45 115t115 45h157l54 178q20 66 78.5 95.5t125.5 9.5q68 -20 98.5 -76.5t10.5 -122.5l-27 -84h93l53 178q20 66 78.5 95.5t126.5 9.5t98.5 -76.5t9.5 -122.5l-27 -84h41q70 0 115 -47 t45 -119q0 -70 -45 -115t-115 -45h-139l-33 -108h66q70 0 115 -47t45 -119q0 -70 -45 -115t-115 -45h-164l-61 -207q-20 -66 -79 -95.5t-126 -8.5q-66 20 -96.5 76.5t-10.5 122.5l33 112h-92l-61 -207q-20 -66 -79 -95.5t-126 -8.5q-66 20 -96.5 76.5t-10.5 122.5l33 112 h-35q-70 0 -115 47t-45 119zM694 635h92l33 108h-92z" />
<glyph unicode="$" horiz-adv-x="987" d="M104 274q0 63 44.5 113.5t107.5 50.5q35 0 61.5 -7t57.5 -32q20 -16 36.5 -28.5t33 -21.5t36 -14t47.5 -7q12 0 36 2t46.5 11t40 29.5t17.5 57.5q0 63 -34 96t-120 62q-76 25 -141.5 54.5t-114.5 70.5t-77.5 96t-28.5 129q0 90 27.5 153.5t71.5 106.5t101.5 66.5 t116.5 33.5v70q0 45 29.5 74.5t76.5 29.5q45 0 77 -26.5t32 -77.5v-70q47 -10 90 -30.5t84 -53.5q31 -27 57.5 -66.5t26.5 -84.5q0 -49 -39 -88q-23 -23 -49.5 -31t-54.5 -8q-47 0 -90 18q-31 12 -47.5 20.5t-28.5 12.5t-25.5 5t-38.5 3q-55 4 -74.5 -18.5t-19.5 -42.5 q12 -61 168 -111q94 -29 158.5 -71.5t104.5 -95t57.5 -111t17.5 -119.5q0 -82 -23.5 -147.5t-64.5 -115.5t-94.5 -85t-114.5 -53v-54q0 -47 -30.5 -76.5t-78.5 -29.5q-47 0 -76.5 29.5t-29.5 76.5v35q-55 6 -109.5 22.5t-102.5 43t-85 63.5t-55 82q-12 31 -13 59z" />
<glyph unicode="%" horiz-adv-x="1601" d="M70 1067q0 61 22.5 115.5t62.5 94.5t95.5 64.5t118.5 26.5q59 0 112.5 -23.5t94 -65.5t65.5 -96.5t25 -115.5q0 -59 -24 -113.5t-63.5 -94.5t-95 -63.5t-116.5 -23.5t-114.5 22.5t-94.5 61.5t-64.5 93.5t-23.5 117.5zM332 1069q0 -14 10 -24.5t25 -10.5q16 0 25 10.5 t9 24.5q0 35 -34 35q-14 0 -24.5 -9.5t-10.5 -25.5zM436 207l328 1040q20 66 79.5 95.5t125.5 9.5q66 -23 96.5 -79t9.5 -122l-327 -1040q-23 -66 -81.5 -95.5t-125.5 -7.5q-66 20 -95.5 76.5t-9.5 122.5zM915 293q0 61 23 115.5t62.5 94.5t95 64.5t118.5 26.5 q59 0 112.5 -23.5t94.5 -65.5t65.5 -96.5t24.5 -115.5q0 -59 -23.5 -113.5t-63.5 -94.5t-95 -63.5t-117 -23.5q-61 0 -114.5 22.5t-94 61.5t-64.5 93t-24 118zM1178 295q0 -14 10 -24.5t24 -10.5q16 0 25.5 10.5t9.5 24.5q0 35 -35 35q-14 0 -24 -9.5t-10 -25.5z" />
<glyph unicode="&#x26;" horiz-adv-x="1232" d="M84 430q2 72 31.5 132.5t66.5 101.5q41 49 97 88q-31 18 -54 51q-20 29 -36.5 76t-16.5 118q0 70 26.5 127.5t71.5 98.5t104.5 63.5t125.5 22.5q154 0 241.5 -86.5t87.5 -227.5q0 -72 -24.5 -125t-52.5 -88q-35 -41 -76 -69l192 -230l20.5 20.5t20.5 18.5q57 45 113 45 q53 0 89 -35.5t36 -87.5q0 -31 -16.5 -64.5t-55.5 -62.5l-39 -30l54 -62q37 -41 36 -92q0 -57 -41 -94q-41 -39 -96 -39t-94 41l-53 55q-70 -47 -154 -78.5t-190 -31.5q-84 0 -160 26.5t-133.5 80.5t-90 138t-30.5 199zM342 401q0 -49 21.5 -79.5t51 -47t62 -21.5t55.5 -5 q18 2 43 9t48 15q25 8 53 21l-227 268q-31 -14 -54 -37q-20 -20 -36.5 -50t-16.5 -73zM434 995q0 -29 18.5 -47t47.5 -18t47 18.5t18 46.5q0 29 -18.5 47.5t-46.5 18.5q-29 0 -47.5 -18.5t-18.5 -47.5z" />
<glyph unicode="'" horiz-adv-x="522" d="M98 997v260q0 70 43 115t115 45q74 0 121 -45t47 -115v-260q0 -70 -47 -114.5t-119 -44.5q-70 0 -115 45t-45 114z" />
<glyph unicode="(" horiz-adv-x="686" d="M72 258v795q0 72 22.5 153.5t70.5 151t122.5 116t181.5 48.5q68 0 116 -48.5t48 -115.5q0 -66 -49 -114t-121 -48q-25 0 -38 -21.5t-19 -50.5q-8 -33 -9 -71v92v-887q0 -39 9 -72q6 -29 19 -51t38 -20q72 0 121 -48.5t49 -113.5q0 -68 -48 -116t-116 -48q-106 2 -181 48 t-123 116t-70.5 151.5t-22.5 153.5z" />
<glyph unicode=")" horiz-adv-x="700" d="M74 -47q0 66 49 114t121 48q25 -2 38 20.5t19 50.5q8 33 8 72v887v-92q0 39 -8 71q-6 29 -19.5 50.5t-37.5 21.5q-72 0 -121 48t-49 114q0 68 48 116t116 48q106 -2 181 -48.5t123 -116t70.5 -151.5t22.5 -153v-795q0 -72 -22.5 -153.5t-70.5 -151.5t-123 -116t-181 -48 q-68 0 -116 48t-48 116z" />
<glyph unicode="*" horiz-adv-x="1132" d="M96 967q0 41 19.5 75.5t58.5 57.5l57 33l-51 28q-41 23 -60.5 59.5t-19.5 77.5t23 80q23 41 60.5 63.5t80.5 22.5q39 0 80 -22l39 -23v39q-4 68 43 115t119 47q70 4 116 -40t44 -116v-63l69 39q39 25 82 24q41 0 78 -21.5t61 -62.5q27 -43 27 -84q0 -39 -20.5 -73.5 t-61.5 -57.5l-57 -32l57 -33q39 -23 59.5 -57.5t20.5 -75.5q0 -49 -27 -90q-23 -41 -57.5 -61.5t-75.5 -20.5q-45 0 -84 24l-63 35l2 -53q4 -70 -44 -116t-112 -46q-70 -4 -118 41t-50 115l-2 55l-47 -27q-41 -25 -82 -24q-41 0 -78 21.5t-59 56.5q-27 41 -27 90z" />
<glyph unicode="+" horiz-adv-x="1040" d="M51 631q0 72 43 119t115 47h143v151q0 70 46 115t122 45q72 0 115 -45t43 -115l-2 -149h141q72 0 117 -43t45 -115q0 -74 -45 -120t-115 -48h-145l2 -158q0 -70 -45 -114.5t-115 -44.5q-72 -2 -119 44t-47 115l-2 156l-137 2q-72 2 -117 44t-43 114z" />
<glyph unicode="," horiz-adv-x="528" d="M98 84q0 70 43 115t115 45q74 0 121 -45t47 -115v-225q0 -70 -47 -115t-119 -45q-70 0 -115 45t-45 115v225z" />
<glyph unicode="-" horiz-adv-x="950" d="M96 635q0 70 45 115t115 45h438q70 0 115 -48.5t45 -111.5q0 -70 -45 -118t-115 -48h-438q-70 0 -115 47t-45 119z" />
<glyph unicode="." horiz-adv-x="557" d="M92 182q0 76 53.5 129.5t128.5 53.5q76 0 129.5 -53.5t53.5 -129.5t-53.5 -129t-129.5 -53t-129 53t-53 129z" />
<glyph unicode="/" horiz-adv-x="806" d="M80 207l328 1040q20 66 79.5 95.5t124.5 9.5q66 -23 96.5 -79t10.5 -122l-328 -1040q-23 -66 -81 -95.5t-126 -7.5q-66 20 -95.5 76.5t-8.5 122.5z" />
<glyph unicode="0" d="M80 651q0 135 51 254t139 208t207 140.5t254 51.5t254 -51.5t208 -140.5t140 -208t51 -254t-51 -253.5t-140 -207t-208 -139.5t-254 -51t-254 51t-207 139.5t-139 207t-51 253.5zM406 649q0 -68 25.5 -127t70.5 -104t104.5 -70.5t126.5 -25.5q68 0 127.5 25.5t104.5 70.5 t70.5 104.5t25.5 126.5q0 68 -25.5 127.5t-70.5 104.5t-104.5 70.5t-127.5 25.5t-127 -25.5t-104 -70.5t-70.5 -104.5t-25.5 -127.5z" />
<glyph unicode="1" horiz-adv-x="800" d="M96 958q0 29 12.5 56.5t38.5 48.5l261 197q23 18 50 31.5t62 13.5q74 0 121 -45.5t47 -114.5v-985q0 -70 -47 -115t-119 -45q-70 0 -115 45t-45 115v659q-45 -35 -96 -35q-66 0 -119 54q-51 51 -51 120z" />
<glyph unicode="2" horiz-adv-x="1146" d="M133 178q0 29 10.5 57.5t32.5 51.5l293 270q78 72 137 139q25 29 48.5 58.5t40 58.5t25.5 54.5t5 43.5q-6 29 -31.5 52.5t-79.5 23.5q-39 0 -61.5 -12t-37.5 -29.5t-27.5 -39t-30 -39t-43 -30t-68.5 -12.5q-68 0 -115 47t-47 115v2q0 49 33 105.5t91.5 104.5t137 80 t170.5 32q82 0 160 -23.5t139.5 -73t99.5 -126t38 -183.5q0 -78 -32 -147.5t-71 -122.5q-45 -61 -100 -115l-209 -196h274q68 0 115 -47.5t47 -114.5q0 -68 -47 -115t-115 -47h-596q-43 0 -77.5 15.5t-59 41t-37 57t-12.5 64.5z" />
<glyph unicode="3" horiz-adv-x="1050" d="M74 451q0 59 41 100t100 41t100 -41t41 -100q0 -31 14.5 -62t37 -55.5t53.5 -39.5t65 -15q23 0 52.5 7t57.5 26.5t46 52t18 84.5q0 57 -29.5 90.5t-66.5 52t-69.5 25t-40.5 6.5h-2q-59 0 -100.5 41t-41.5 100t41 100t101 41q43 0 65.5 9.5t31.5 21.5t10 23.5t1 13.5 q0 18 -14.5 41.5t-53.5 23.5q-14 0 -30.5 -9t-30.5 -34q-16 -37 -51 -60.5t-78 -23.5q-59 0 -100 41.5t-41 100.5q0 23 6 41q12 39 39.5 79.5t68.5 72.5t94.5 52.5t116.5 20.5q66 0 128.5 -20.5t111.5 -60.5t78.5 -97.5t29.5 -132.5q0 -72 -19 -124.5t-67 -88.5 q25 -4 59 -31t63.5 -71t51 -106.5t21.5 -137.5q0 -115 -40 -200t-104.5 -141.5t-145.5 -84t-165 -27.5q-102 0 -186 40t-143.5 104.5t-92 145.5t-32.5 165z" />
<glyph unicode="4" horiz-adv-x="1165" d="M72 461q0 25 8 50.5t26 47.5l529 676l2 2q20 31 54 49.5t79 18.5q74 0 121 -45.5t47 -114.5v-527h2q70 0 115 -47t45 -118q0 -70 -45 -115t-115 -45h-2v-133q0 -70 -47 -115t-119 -45q-70 0 -115 45t-45 115v133h-376q-35 0 -65 14.5t-52.5 38t-34.5 53t-12 62.5z M532 618h103v123z" />
<glyph unicode="5" horiz-adv-x="1050" d="M78 324q0 70 47 116.5t115 46.5q47 0 82.5 -25.5t62.5 -64.5q10 -16 40 -42.5t73 -26.5q80 0 113.5 37.5t33.5 85.5q0 76 -37 119.5t-98 43.5q-39 0 -78 -16q-25 -14 -55.5 -32.5t-65.5 -18.5q-59 0 -103 37t-56 92q0 14 -1 30.5t-1 61.5t-1.5 132t-1.5 245q0 66 43 113 t109 51h469q70 0 117 -47.5t47 -116.5q0 -68 -47 -115t-117 -47h-297v-49q98 8 188.5 -16.5t159 -85t110.5 -155.5t42 -226q0 -92 -39 -174t-104.5 -143.5t-150.5 -97.5t-177 -36q-129 0 -233.5 64.5t-164.5 171.5q-10 20 -17 41.5t-7 46.5z" />
<glyph unicode="6" horiz-adv-x="1007" d="M66 438q0 72 20 136.5t59 117.5l338 537q23 41 60 61.5t78 20.5q45 0 86 -25q41 -23 62.5 -58.5t21.5 -76.5q0 -45 -25 -84l-154 -266q68 8 127.5 -19.5t103.5 -79t69.5 -121t25.5 -143.5q0 -90 -34 -170t-93 -139t-139 -93t-170 -34t-170 34t-139.5 93t-93 139 t-33.5 170zM391 438q0 -47 32 -78.5t79 -31.5t78.5 31.5t31.5 78.5t-31.5 79t-78.5 32t-79 -32t-32 -79z" />
<glyph unicode="7" horiz-adv-x="935" d="M61 1139q0 74 45.5 121t114.5 47h486q33 0 61.5 -14.5t50 -37t33.5 -52t12 -62.5t-12 -64l-412 -983q-18 -47 -58 -70.5t-87 -23.5q-37 0 -72 14q-47 20 -71.5 58.5t-24.5 85.5q0 37 14 67l320 756h-240q-70 0 -115 43t-45 115z" />
<glyph unicode="8" horiz-adv-x="1089" d="M78 434q0 90 29.5 155.5t64.5 106.5q41 49 96 82q-23 25 -41 53q-16 25 -27.5 60t-11.5 76q0 74 29 138t77 112.5t113.5 77t139.5 28.5t138.5 -28.5t113.5 -77t76.5 -113t27.5 -137.5q0 -41 -12 -76t-29 -60q-18 -29 -41 -53q53 -33 94 -82q35 -41 66 -106.5t31 -155.5 q0 -98 -37 -183t-99.5 -147.5t-148.5 -99.5t-184 -37q-96 0 -180 37t-147.5 99.5t-100.5 147.5t-37 183zM403 436q0 -57 42 -99t100 -42q59 0 100 42t41 99q0 59 -41 100.5t-100 41.5q-57 0 -99.5 -41.5t-42.5 -100.5zM487 991q0 -25 17.5 -42t42.5 -17t42 17t17 42 t-17.5 42.5t-41.5 17.5q-25 0 -42.5 -17.5t-17.5 -42.5z" />
<glyph unicode="9" horiz-adv-x="1005" d="M66 866q0 90 33.5 170t93 139.5t139.5 93.5t170 34t170 -34t139 -93.5t93 -139.5t34 -170q0 -72 -20.5 -136t-59.5 -118l-338 -536q-23 -41 -59.5 -61.5t-77.5 -20.5q-47 0 -86 24q-41 23 -62.5 59t-21.5 77q0 43 25 84l153 266q-63 -6 -121.5 22.5t-103.5 78.5 t-72.5 118.5t-27.5 142.5zM389 872q0 -47 32 -78.5t79 -31.5t78.5 31.5t31.5 78.5t-31.5 79t-78.5 32t-79 -31.5t-32 -79.5z" />
<glyph unicode=":" horiz-adv-x="532" d="M84 170q0 78 49 129t125 51q78 0 129 -51t51 -129q0 -76 -51 -125t-129 -49q-76 0 -125 49t-49 125zM84 821q0 78 49 129t125 51q78 0 129 -51t51 -129q0 -76 -51 -125t-129 -49q-76 0 -125 49t-49 125z" />
<glyph unicode=";" horiz-adv-x="518" d="M68 831q0 78 49 129.5t125 51.5q78 0 129 -51.5t51 -129.5q0 -76 -51.5 -125t-128.5 -49q-76 0 -125 49t-49 125zM82 121q0 70 43 115t115 45q74 0 121 -45.5t47 -114.5v-260q0 -70 -47.5 -115t-118.5 -45q-70 0 -115 45t-45 115v260z" />
<glyph unicode="&#x3c;" horiz-adv-x="835" d="M72 625q0 74 47 108l332 215q33 18 59.5 37t62.5 19q68 0 117 -49.5t49 -116.5q0 -39 -28.5 -79t-63.5 -63l-108 -71l108 -72q35 -23 63.5 -62.5t28.5 -78.5q0 -68 -49 -117t-117 -49q-37 0 -63.5 18.5t-58.5 36.5l-332 215q-47 35 -47 109z" />
<glyph unicode="=" horiz-adv-x="923" d="M96 442q0 74 45 121t115 47h416q70 0 114.5 -47t44.5 -119q0 -70 -45 -114.5t-114 -44.5h-416q-70 0 -115 43t-45 114zM96 872q0 74 45 121t115 47h416q70 0 114.5 -47t44.5 -119q0 -70 -45 -114.5t-114 -44.5h-416q-70 0 -115 43t-45 114z" />
<glyph unicode="&#x3e;" horiz-adv-x="835" d="M74 412q0 39 28.5 78.5t63.5 62.5l108 72l-108 71q-35 23 -63.5 63t-28.5 79q0 68 49 117t117 49q37 0 63.5 -18.5t58.5 -37.5l332 -215q47 -34 47 -108t-47 -109l-332 -215q-33 -18 -59.5 -36.5t-62.5 -18.5q-68 0 -117 49t-49 117z" />
<glyph unicode="?" horiz-adv-x="1009" d="M80 940q23 168 132.5 262t274.5 105q80 0 146.5 -16.5t128.5 -57.5q61 -39 109.5 -118t54.5 -197q2 -236 -92.5 -342.5t-268.5 -112.5q-4 -14 -12 -28.5t-23.5 -27t-42 -20.5t-67.5 -8q-86 0 -124 44t-38 109v76q0 66 21.5 114t87.5 48h133q37 0 58.5 15.5t33.5 35t16 38 t4 24.5q0 53 -37.5 83.5t-74.5 28.5q-51 -2 -70.5 -23.5t-36.5 -49.5q-16 -43 -34.5 -69t-39 -39t-44 -15t-54.5 0q-27 2 -53.5 10t-47 24.5t-32.5 42t-8 64.5zM238 182q0 76 53 129.5t129 53.5t129 -53.5t53 -129.5t-53 -129t-129 -53t-129 53t-53 129z" />
<glyph unicode="@" horiz-adv-x="1632" d="M76 625q0 154 58.5 289t157.5 235t234.5 158.5t288.5 58.5q154 0 289 -58.5t235.5 -158.5t158.5 -235.5t58 -288.5q0 -16 -1 -53t-10 -83.5t-27.5 -96.5t-53 -92t-89 -68.5t-132.5 -26.5q-33 0 -76 5t-84 18.5t-74.5 35t-47.5 51.5q-12 -8 -33 -16q-39 -14 -113 -14 q-72 0 -134.5 26.5t-109.5 72.5t-73.5 108.5t-26.5 134.5t26.5 134t73.5 109.5t109.5 74t134.5 26.5t134.5 -26.5t109.5 -74t73.5 -110t26.5 -133.5v-49q0 -55 11.5 -84t72.5 -29q23 0 34 16.5t15 40t3 50t-1 49.5q0 98 -38.5 186t-105.5 153.5t-154 104.5t-181 39 q-96 0 -182 -39t-151.5 -105.5t-104.5 -152.5t-39 -180t38 -180.5t102.5 -153t148.5 -106.5t176 -42h227q55 0 93 -37.5t38 -93.5q0 -55 -38 -93t-93 -38h-227q-152 2 -284 61.5t-230.5 160t-155.5 234.5t-57 286zM733 629q0 -35 23.5 -58.5t58.5 -23.5q37 0 60.5 22.5 t23.5 57.5q2 37 -23.5 61.5t-60.5 24.5t-58.5 -24.5t-23.5 -59.5z" />
<glyph unicode="A" horiz-adv-x="1300" d="M76 160q0 35 14 65l408 987q18 45 62 70t91 27q51 0 91 -21.5t63 -73.5l405 -989q14 -31 15 -67q0 -47 -25.5 -85t-73.5 -59q-31 -14 -69 -14q-47 0 -87 24.5t-59 71.5l-92 221h-338l-92 -221q-20 -47 -58 -71.5t-85 -24.5q-33 0 -72 16q-47 20 -72.5 58.5t-25.5 85.5z M598 596h109l-56 152z" />
<glyph unicode="B" horiz-adv-x="1036" d="M88 139v1016q2 66 47 110t113 44h237q74 0 147 -18.5t131 -58.5t95 -105.5t37 -159.5q0 -72 -22.5 -124t-49.5 -91q29 -20 59.5 -53t55.5 -76t41 -93.5t16 -105.5q0 -129 -52 -211t-130 -130t-166 -65.5t-162 -17.5h-237q-68 0 -114 38t-46 101zM414 326h137q33 2 59 14 q23 10 41.5 33.5t18.5 66.5q0 45 -18.5 71t-41.5 36q-27 12 -59 14h-137v-235zM414 936h112q12 0 21 4q8 4 15 9t7 18q0 10 -7 16t-15 10t-21 4h-112v-61z" />
<glyph unicode="C" horiz-adv-x="1378" d="M80 651q0 135 51 254t139 208t207 140.5t254 51.5q160 0 296 -71t226 -192q41 -49 41 -104q0 -33 -14 -62.5t-36.5 -53t-53.5 -37t-64 -13.5q-31 0 -61.5 13.5t-58.5 43.5q-45 66 -116 107t-157 41q-68 0 -127 -25.5t-104 -70.5t-70.5 -104.5t-25.5 -127.5t25.5 -127 t70.5 -104t104.5 -70.5t126.5 -25.5q84 0 153.5 37.5t114.5 103.5q53 53 117 53q33 0 63.5 -14.5t54.5 -39t37 -55t13 -63.5q0 -23 -5 -42.5t-19 -39.5q-88 -125 -227.5 -193.5t-303.5 -68.5q-135 0 -254 51t-207 139.5t-139 207t-51 253.5z" />
<glyph unicode="D" horiz-adv-x="1189" d="M86 160v985q0 35 12 65q16 45 56.5 72t93.5 27h272q131 0 248 -55.5t203 -146.5t136 -210t50 -246q0 -135 -51 -253.5t-138 -207t-203 -139.5t-245 -51h-280q-66 2 -110 47t-44 113zM412 322h108q68 0 126.5 29.5t99 76.5t64.5 105.5t24 115.5q0 66 -25 124t-68 102.5 t-100 71t-123 30.5h-106v-655z" />
<glyph unicode="E" horiz-adv-x="913" d="M76 160v506v12v469q0 51 18.5 82t43 48t52 23.5t46.5 6.5h440q70 0 115 -47.5t45 -118.5q0 -70 -45.5 -115t-114.5 -45h-275v-156h91q70 0 114.5 -47t44.5 -119q0 -70 -45 -114.5t-114 -44.5h-91v-174h273q70 0 115 -47.5t45 -118.5q0 -70 -45.5 -115t-114.5 -45h-447 q-66 0 -108.5 46t-42.5 114z" />
<glyph unicode="F" horiz-adv-x="847" d="M70 160v987q0 51 18 82t43 48t52.5 23.5t45.5 6.5h441q70 0 114.5 -47.5t44.5 -118.5q0 -70 -45 -115t-114 -45h-275v-156h74q70 0 115 -47t45 -119q0 -70 -45 -114.5t-115 -44.5h-74v-342q-2 -45 -22 -80q-16 -29 -51 -53.5t-101 -24.5q-57 0 -88 24.5t-45 55.5 q-16 35 -18 80z" />
<glyph unicode="G" horiz-adv-x="1449" d="M78 651q0 135 51 254t139 208t207 140.5t254 51.5q88 0 156.5 -14.5t122 -38t93.5 -54.5t68 -63q29 -35 48.5 -63t19.5 -75q0 -70 -47 -114.5t-119 -44.5q-66 0 -108 39q-59 55 -107.5 77.5t-124.5 22.5q-68 0 -127 -25.5t-104 -70.5t-71 -104.5t-26 -127.5t26 -127 t71 -104t104.5 -70.5t126.5 -25.5q31 0 62.5 5t61.5 17t52.5 32.5t34.5 49.5h-127q-72 0 -115 41t-43 113q0 74 44 107.5t114 33.5h397q70 0 115 -47t45 -119q0 -106 -50 -205.5t-138 -177.5t-205 -125t-250 -47q-135 0 -254 51t-207 139.5t-139 207t-51 253.5z" />
<glyph unicode="H" horiz-adv-x="1204" d="M98 160v989q0 70 47.5 115t118.5 45q70 0 115 -45t45 -115v-358h356v358q0 70 47 115t119 45q70 0 115 -45t45 -115v-989q0 -70 -47 -115t-119 -45q-70 0 -115 45t-45 115v305h-356v-305q0 -70 -47 -115t-119 -45q-70 0 -115 45t-45 115z" />
<glyph unicode="I" horiz-adv-x="522" d="M98 160v985q0 70 47.5 115t118.5 45q70 0 115 -45.5t45 -114.5v-985q0 -70 -47 -115t-119 -45q-70 0 -115 45t-45 115z" />
<glyph unicode="J" horiz-adv-x="524" d="M-262 -209q0 70 44 117t112 49q55 6 95 18.5t65.5 35t36.5 60.5t11 95v985q0 70 47.5 115t118.5 45q70 0 115 -45t45 -115v-985q-4 -131 -32.5 -230.5t-91 -167t-162 -102.5t-244.5 -35q-70 0 -115 45t-45 115z" />
<glyph unicode="K" horiz-adv-x="991" d="M94 160v989q0 70 47 115t119 45q70 0 115 -45t45 -115v-180l252 266q41 41 100 41q35 0 68.5 -15.5t60.5 -43.5q41 -51 41 -105q0 -70 -55 -121l-264 -246l319 -493q29 -41 29 -92q0 -37 -17.5 -71t-52.5 -58q-49 -33 -98 -33q-37 0 -72 17.5t-57 52.5l-254 426v-334 q0 -70 -47 -115t-119 -45q-70 0 -115 45t-45 115z" />
<glyph unicode="L" horiz-adv-x="849" d="M70 160v989q0 70 47 115t119 45q70 0 114.5 -45t44.5 -115v-823h250q70 0 115 -47.5t45 -118.5q0 -70 -45 -115t-115 -45h-424q-66 0 -108.5 45t-42.5 115z" />
<glyph unicode="M" horiz-adv-x="1533" d="M100 182l109 971q4 29 15.5 56.5t34 48t59.5 33t92 12.5q49 0 81.5 -12.5t54 -32t36 -47t26.5 -58.5l158 -457l160 457q12 31 26.5 58.5t36 47t54 32t81.5 12.5q55 0 92 -12.5t59.5 -33t34 -48t15.5 -56.5l109 -971q2 -13 2 -25q0 -21 -4 -41q-6 -32 -22.5 -57.5 t-45.5 -42t-72 -16.5q-45 0 -75.5 15.5t-49 41t-29 58t-12.5 67.5l-45 590l-161 -672q-10 -31 -28 -51t-39.5 -32.5t-45 -16.5t-41.5 -4q-20 0 -43 4t-44.5 15.5t-38.5 32t-26 52.5l-161 672l-45 -590q-4 -35 -13.5 -67.5t-28 -58t-49 -41t-75.5 -15.5q-43 0 -72 16.5 t-45 41.5q-17 26 -23 59q-4 20 -4 40q0 13 2 25z" />
<glyph unicode="N" horiz-adv-x="1148" d="M98 160v985q0 70 47.5 115t118.5 45q47 0 83 -21.5t56 -58.5l322 -504v424q0 70 47 115t119 45q70 0 115 -45.5t45 -114.5v-985q0 -70 -47.5 -115t-118.5 -45q-84 0 -129 61l-332 525v-426q0 -70 -47 -115t-119 -45q-70 0 -115 45t-45 115z" />
<glyph unicode="O" d="M80 651q0 135 51 254t139 208t207 140.5t254 51.5t254 -51.5t208 -140.5t140 -208t51 -254t-51 -253.5t-140 -207t-208 -139.5t-254 -51t-254 51t-207 139.5t-139 207t-51 253.5zM406 649q0 -68 25.5 -127t70.5 -104t104.5 -70.5t126.5 -25.5q68 0 127.5 25.5t104.5 70.5 t70.5 104.5t25.5 126.5q0 68 -25.5 127.5t-70.5 104.5t-104.5 70.5t-127.5 25.5t-127 -25.5t-104 -70.5t-70.5 -104.5t-25.5 -127.5z" />
<glyph unicode="P" horiz-adv-x="901" d="M72 160v989q0 70 47 115t119 45h231q74 0 146.5 -35t131 -95.5t95.5 -140.5t37 -170q0 -96 -37 -178t-95.5 -141.5t-131 -93t-146.5 -33.5h-72v-262q0 -70 -47 -115t-119 -45q-70 0 -114.5 45t-44.5 115zM397 748h72q23 2 41 14q16 10 29.5 34.5t13.5 71.5 q0 43 -13.5 66.5t-29.5 34.5q-18 12 -41 14h-72v-235z" />
<glyph unicode="Q" horiz-adv-x="1460" d="M78 651q0 135 51 254t139 208t207 140.5t254 51.5t254 -51.5t208 -140.5t140 -208t51 -254q0 -96 -14 -164.5t-41 -122t-63.5 -96.5t-81.5 -88q2 -16 12 -30q10 -12 28.5 -26.5t55.5 -25.5q37 -10 64 -40q26 -27 26 -90v-9q-2 -70 -48 -115t-118 -45q-27 0 -50.5 7.5 t-43.5 17.5q-37 16 -70.5 43t-62.5 54.5t-51.5 54t-34.5 42.5q-35 -8 -73 -13t-87 -5q-125 0 -242.5 49t-208 137t-145.5 207t-55 258zM406 649q0 -53 15 -100t44 -88q0 63 23.5 115.5t60.5 89t85 56t99 19.5q49 0 97.5 -19.5t86 -55t62.5 -86t27 -113.5q55 84 55 182 q0 68 -25.5 127.5t-70.5 104.5t-104.5 70.5t-127.5 25.5t-127 -25.5t-104 -70.5t-70.5 -104.5t-25.5 -127.5zM676 434q0 -23 15 -39t42 -18q25 0 42.5 17.5t17.5 39.5q0 25 -17.5 42.5t-42.5 17.5q-23 0 -40 -17.5t-17 -42.5z" />
<glyph unicode="R" horiz-adv-x="993" d="M92 160v989q0 70 47 115t119 45h231q74 0 147 -35t131 -95.5t95 -140.5t37 -170q0 -49 -13.5 -97t-36 -91t-52 -77t-64.5 -52l205 -297q25 -43 25 -90q0 -39 -18.5 -74t-55.5 -59q-41 -29 -92 -29q-39 0 -73 18.5t-56 53.5l-201 348h-49v-262q0 -70 -47 -115t-119 -45 q-70 0 -115 45t-45 115zM418 748h71q23 2 41 14q16 10 29.5 34.5t13.5 71.5q0 43 -13 66.5t-30 34.5q-18 12 -41 14h-71v-235z" />
<glyph unicode="S" horiz-adv-x="1036" d="M80 274q0 63 44 113.5t107 50.5q35 0 61.5 -7t57.5 -32q20 -16 36.5 -28.5t33 -21.5t36 -14t48.5 -7q12 0 35.5 2t46 11t40 29.5t17.5 57.5q0 63 -34 96t-120 62q-76 25 -141 54.5t-114.5 70.5t-78 96t-28.5 129q0 111 41 182.5t103.5 113.5t137 58.5t142.5 16.5 q78 0 148.5 -20.5t134.5 -74.5q31 -27 57.5 -66.5t26.5 -84.5q0 -49 -39 -88q-23 -23 -49.5 -31t-55.5 -8q-47 0 -90 18q-31 12 -47 20.5t-28.5 12.5t-26 5t-37.5 3q-8 1 -16 1q-43 0 -59 -20q-20 -22 -19 -42q12 -61 167 -111q94 -29 159 -71.5t105 -95t57 -111t17 -119.5 q0 -106 -38.5 -185t-102 -132.5t-144.5 -80t-163 -26.5q-59 0 -124 14.5t-122 42t-102 67.5t-68 91q-12 31 -12 59z" />
<glyph unicode="T" horiz-adv-x="952" d="M53 1151q0 70 45 115t115 45h526q70 0 115 -47t45 -119q0 -70 -45 -115t-115 -45h-100v-825q0 -70 -47 -115t-119 -45q-70 0 -115 45t-45 115v825h-100q-70 0 -115 47t-45 119z" />
<glyph unicode="U" horiz-adv-x="1103" d="M92 457v686q0 70 44 115t116 45q70 0 118 -41t48 -119v-686q0 -33 12 -57.5t32.5 -41t43 -24.5t45.5 -8q20 0 45 8t44 24.5t32.5 41t13.5 57.5v686q0 78 48 119t118 41q72 0 116 -45.5t44 -114.5v-686q0 -82 -31 -164t-90.5 -146.5t-144 -105.5t-195.5 -41t-196 41 t-143 105.5t-89 146.5t-31 164z" />
<glyph unicode="V" horiz-adv-x="1177" d="M82 1149q0 47 25.5 85t72.5 58q39 16 76 17q47 0 86 -24.5t53 -72.5l195 -637l192 637q14 47 54.5 72t87.5 25q39 0 73 -15q47 -20 73 -58t26 -85q0 -37 -15 -68l-338 -989q-23 -51 -62.5 -72.5t-90.5 -21.5q-47 2 -91 26.5t-63 69.5l-340 987q-14 31 -14 66z" />
<glyph unicode="W" horiz-adv-x="1810" d="M82 1149q0 47 25.5 85t72.5 58q39 16 76 17q47 0 86 -24.5t53 -72.5l195 -634l158 622q20 66 67 85.5t90 19.5q41 0 87 -19.5t69 -85.5l162 -622l192 634q14 47 54 72t87 25q39 0 74 -15q47 -20 73 -58t26 -85q0 -37 -15 -68l-338 -989q-23 -51 -62.5 -72.5t-90.5 -21.5 q-47 2 -91.5 26.5t-62.5 69.5l-164 514l-162 -516q-23 -51 -62.5 -72.5t-90.5 -21.5q-47 2 -91 26.5t-63 69.5l-340 987q-14 31 -14 66z" />
<glyph unicode="X" horiz-adv-x="1511" d="M98 170q0 63 47 109l379 376l-379 377q-47 47 -47 113q0 68 52 119q47 47 112 47q61 0 113 -47l381 -379l381 379q51 47 112 47t113 -47q51 -51 51 -119q0 -66 -47 -113l-381 -377l381 -376q47 -45 47 -109q0 -66 -51 -121q-49 -49 -113 -49q-31 0 -60.5 12.5t-51.5 36.5 l-381 377l-381 -377q-49 -49 -113 -49q-63 0 -112 49q-51 55 -52 121z" />
<glyph unicode="Y" horiz-adv-x="1087" d="M91.5 1217.5q19.5 35.5 55.5 60.5q41 29 93 29q39 0 73.5 -18.5t59.5 -53.5l166 -303l176 303q25 35 59.5 53.5t73.5 18.5q51 0 92 -29q37 -25 56.5 -60.5t19.5 -74.5q0 -43 -29 -88l-287 -447v-448q0 -70 -47 -115t-118 -45q-70 0 -115 45t-45 115v448l-275 447 q-28 43 -28 85t19.5 77.5z" />
<glyph unicode="Z" horiz-adv-x="1118" d="M72 1149q0 70 45 115t114 45h656q72 0 112.5 -44t40.5 -110q0 -63 -39 -127l-473 -702h359q70 0 115 -47.5t45 -118.5q0 -70 -45.5 -115t-114.5 -45h-656q-72 0 -110.5 48t-38.5 114q0 59 33 117l477 704h-361q-70 0 -114.5 47t-44.5 119z" />
<glyph unicode="[" horiz-adv-x="757" d="M98 -172v1378q0 53 16.5 85t40 48.5t49 21.5t46.5 5h293q70 0 114.5 -47t44.5 -119q0 -70 -45 -115t-114 -45h-119v-1046h117q70 0 114.5 -47t44.5 -119q0 -70 -45 -115t-114 -45h-269q-80 0 -127 45t-47 115z" />
<glyph unicode="\" horiz-adv-x="790" d="M80 1151q-20 66 10.5 122t95.5 79q66 20 125.5 -9.5t79.5 -95.5l328 -1040q20 -66 -9.5 -122t-95.5 -77q-68 -23 -126 7t-80 96z" />
<glyph unicode="]" horiz-adv-x="761" d="M76 1200q0 72 45 119t115 47h292q20 0 46 -5t49.5 -21.5t40 -48t16.5 -85.5v-1378q0 -70 -47 -115t-127 -45h-268q-70 0 -115 45t-45 115q0 72 45 119t115 47h116v1046h-118q-70 0 -115 45t-45 115z" />
<glyph unicode="^" horiz-adv-x="1357" d="M68 627q0 37 18 65.5t37 57.5l452 583q39 53 103 53q31 0 55.5 -12t46.5 -41l449 -583q20 -27 37.5 -56.5t17.5 -66.5q0 -68 -44 -112t-112 -44q-47 0 -85.5 23.5t-65.5 58.5l-299 403l-303 -403q-27 -35 -66 -58.5t-86 -23.5q-68 0 -111.5 44t-43.5 112z" />
<glyph unicode="_" horiz-adv-x="1146" d="M96 61q0 70 45 115t115 45h637q70 0 115 -48t45 -112q0 -70 -45 -117.5t-115 -47.5h-637q-70 0 -115 47t-45 118z" />
<glyph unicode="`" horiz-adv-x="417" d="M86 1376q0 41 21.5 78t62.5 62q43 25 84 24q41 0 76 -20.5t57 -59.5l137 -221q25 -41 25 -86q0 -41 -19.5 -76t-58.5 -57q-41 -27 -92 -27q-41 0 -76 19.5t-57 56.5l-135 221q-25 39 -25 86z" />
<glyph unicode="a" horiz-adv-x="1159" d="M84 494q0 102 38 191t104.5 155.5t157.5 106.5t198 44q98 0 187 -40t156.5 -107.5t107.5 -158.5t40 -191v-15.5t-1 -42.5t-1 -97v-179q0 -35 -16.5 -63.5t-42 -50t-59 -34t-68.5 -12.5q-37 0 -75 27.5t-44 60.5q-4 -8 -19.5 -22.5t-42 -28.5t-63.5 -24.5t-84 -10.5 q-102 0 -188 37t-149.5 102.5t-99.5 155.5t-36 197zM410 496q0 -70 49 -119t119 -49q72 0 121 48t49 118v8q0 30 -12 58q-14 32 -38 55.5t-56 37t-64 13.5q-70 0 -119 -49t-49 -121z" />
<glyph unicode="b" horiz-adv-x="1142" d="M76 127v1018q0 70 45 115t115 45q72 0 118.5 -45.5t46.5 -114.5v-223q16 20 43 34q23 12 58 22.5t88 10.5q104 0 191 -39t149.5 -106.5t98.5 -156.5t36 -189q0 -102 -37 -192.5t-100.5 -158t-149.5 -107.5t-184 -40q-55 0 -98 14.5t-72 30.5q-35 20 -62 45 q-4 -25 -18 -45q-12 -16 -37.5 -30.5t-73.5 -14.5q-27 0 -54 8t-51 24.5t-38 40t-14 54.5zM403 489q4 -70 52.5 -116.5t115.5 -46.5q72 0 121 49t49 121q0 70 -49 119t-121 49q-70 0 -119 -50.5t-49 -124.5z" />
<glyph unicode="c" horiz-adv-x="1048" d="M84 508q0 113 41 202t108.5 151.5t154.5 95t181 32.5q55 0 111.5 -11t107 -31.5t91.5 -52.5t65 -71q27 -41 27 -90q0 -72 -47 -119t-119 -47q-37 0 -63.5 17.5t-53.5 40.5q-20 16 -48 27.5t-71 11.5q-47 -2 -84 -21q-31 -16 -56.5 -47t-25.5 -88q0 -66 25 -101.5 t54.5 -53t56 -21.5t30.5 -4q43 0 62.5 9t52.5 32q29 23 56.5 39t64.5 16q72 0 119 -47t47 -119q0 -51 -27 -90q-25 -41 -65.5 -71.5t-91 -51t-106.5 -32t-112 -11.5q-94 0 -181 30.5t-154.5 94t-108.5 158t-41 223.5z" />
<glyph unicode="d" horiz-adv-x="1142" d="M76 498q0 100 35.5 189t98 156.5t149.5 106.5t192 39q51 0 87 -10t58 -23q27 -14 43 -34v223q0 70 47.5 115t118.5 45q70 0 115 -45.5t45 -114.5v-1018q0 -31 -14.5 -54.5t-38 -40t-51 -24.5t-54.5 -8q-47 0 -72.5 14.5t-37.5 30.5q-14 20 -19 45q-27 -25 -61 -45 q-29 -16 -73 -30.5t-97 -14.5q-98 0 -184.5 40t-149.5 107.5t-100 157.5t-37 193zM401 496q0 -72 49.5 -121t120.5 -49q68 0 116 46.5t52 116.5q0 74 -49 124.5t-119 50.5q-72 0 -121 -49.5t-49 -118.5z" />
<glyph unicode="e" horiz-adv-x="1144" d="M80 494q0 102 38 191t104.5 155.5t157.5 106.5t198 44q94 0 181 -30.5t154.5 -92t108.5 -156t43 -220.5q0 -53 -38 -91.5t-91 -38.5h-526q14 -31 40.5 -49t54 -26t50.5 -10.5t27 -2.5q16 0 39 2q18 2 41.5 5.5t52.5 11.5q29 6 62.5 28.5t62.5 22.5q55 0 89 -36t34 -91 q0 -41 -23 -74q-31 -41 -73 -68.5t-90 -44t-100 -22.5t-104 -6q-102 0 -191 37t-156.5 102.5t-106.5 155.5t-39 197zM403 614h355q0 14 -14.5 33t-39 33t-57.5 24.5t-69 10.5q-82 0 -128.5 -35t-46.5 -66z" />
<glyph unicode="f" horiz-adv-x="804" d="M55 872q0 59 45 93t115 34q-1 14 -1 28q0 64 24 111q28 58 71 95t88 55.5t74 22.5q18 4 43 5t49 1q74 0 128 -34t54 -101q0 -59 -44 -92t-115 -33q-29 0 -37 -17.5t-8 -40.5h49q70 -2 115 -32.5t45 -102.5q0 -70 -45.5 -99.5t-114.5 -29.5h-49v-577q0 -70 -43 -115 t-115 -45q-74 0 -121 45t-47 115v577q-70 0 -115 33t-45 104z" />
<glyph unicode="g" horiz-adv-x="1159" d="M84 494q0 102 34 191t96 155.5t150.5 106.5t194.5 44q70 0 116 -12t75 -29q33 -18 49 -39q10 25 45 47.5t69 22.5q74 0 118 -46t44 -116v-676q0 -276 -131 -410t-366 -134q-55 0 -112.5 6t-110 22.5t-95.5 42t-67 66.5v2q-21 33 -21 82q0 45 22.5 72.5t56.5 39.5 q26 10 54 10q9 0 19 -1q38 -4 73 -19q35 -16 88.5 -24.5t94.5 -8.5q53 0 89 17.5t58.5 45.5t35.5 60.5t23 65.5q-18 -18 -46.5 -32.5t-61.5 -24t-62.5 -14.5t-48.5 -5q-102 0 -190 37t-152.5 102.5t-102.5 155.5t-38 197zM410 496q0 -70 49 -119t119 -49q72 0 121 49t49 119 q0 72 -49.5 121t-120.5 49q-70 0 -119 -49t-49 -121z" />
<glyph unicode="h" horiz-adv-x="923" d="M82 160v985q0 70 43 115t115 45q74 0 121 -45.5t47 -114.5v-195q10 12 26 21q14 8 34.5 15t49.5 7q111 0 174.5 -26.5t97 -83t43 -142.5t9.5 -202v-379q0 -70 -44 -115t-116 -45q-70 0 -118 41t-48 119v379q0 66 -8 97.5t-51 31.5q-35 0 -41 -30t-8 -83v-395 q0 -70 -45.5 -115t-120.5 -45q-66 4 -113 44t-47 116z" />
<glyph unicode="i" horiz-adv-x="512" d="M82 1167q0 63 48 105.5t122 42.5t124 -42t50 -106q0 -61 -50 -101t-124 -40t-122 40t-48 101zM92 160v676q0 70 43 114.5t115 44.5q74 0 121 -45t47 -114v-676q0 -70 -47 -115t-119 -45q-70 0 -115 45t-45 115z" />
<glyph unicode="j" horiz-adv-x="557" d="M-215 -213q0 72 45 119t115 47t107.5 19.5t56 86t21.5 193.5t3 342v242q0 70 43 114.5t115 44.5q74 0 121 -45t47 -114v-650q0 -152 -44 -257t-116 -170.5t-161 -96.5t-179 -33q-80 0 -127 44t-47 114zM121 1167q0 63 48 105.5t122 42.5t124 -42t50 -106q0 -61 -50 -101 t-124 -40t-122 40t-48 101z" />
<glyph unicode="k" horiz-adv-x="940" d="M78 160v985q0 70 43 115t115 45q74 0 120.5 -45.5t46.5 -114.5v-180l121 120q55 55 115 56q61 0 111 -43q59 -53 59 -123q0 -29 -11.5 -57.5t-31.5 -49.5l-221 -221l284 -395q29 -41 29 -88q0 -82 -80 -137q-41 -25 -88 -25q-41 0 -76.5 18.5t-56.5 53.5l-154 262v-176 q0 -70 -47 -115t-118 -45q-70 0 -115 45t-45 115z" />
<glyph unicode="l" horiz-adv-x="530" d="M102 160v989q0 70 44 115t116 45q70 0 118 -41t48 -119v-989q0 -70 -47 -115t-119 -45q-70 0 -115 45t-45 115z" />
<glyph unicode="m" horiz-adv-x="1415" d="M96 160v676q0 70 47 114.5t119 44.5q33 -4 54.5 -17t31.5 -28q12 -16 19 -37q23 20 55 39q29 16 66.5 28.5t89.5 12.5q47 0 80.5 -14t54.5 -31q23 -20 39 -43q31 31 92 59.5t160 28.5q100 0 162.5 -29.5t96 -88t45 -142.5t11.5 -194v-379q0 -78 -48 -119t-118 -41 q-72 0 -116 45t-44 115v379q-2 59 -11 94t-48 35q-41 0 -52.5 -36t-13.5 -93v-379q0 -45 -13 -75t-35.5 -48.5t-50.5 -26.5t-54 -10h-6q-80 0 -123 41t-43 119v383q0 55 -9.5 90t-48.5 35t-51 -35t-12 -94v-379q0 -70 -44 -115t-116 -45q-70 0 -118 41t-48 119z" />
<glyph unicode="n" horiz-adv-x="950" d="M94 160v676q0 70 37 114.5t109 44.5q29 0 48 -11t31 -26q14 -16 25 -34q18 18 41 34q20 12 51 23.5t74 11.5q98 0 163.5 -26.5t105.5 -83t57.5 -142.5t17.5 -202v-379q0 -70 -44 -115t-116 -45q-70 0 -118 41t-48 119v379q0 66 -5 95.5t-40 31.5h-5q-42 0 -49 -33 q-7 -35 -9 -94v-379q0 -70 -44 -115t-116 -45q-70 0 -118 41t-48 119z" />
<glyph unicode="o" horiz-adv-x="1148" d="M80 494q0 102 38 191t104.5 155.5t158 106.5t197.5 44q98 0 187 -40t156.5 -107.5t107.5 -158.5t40 -191t-39 -189.5t-105.5 -157t-156.5 -106.5t-195 -39q-102 0 -191 37t-156.5 102.5t-106.5 155.5t-39 197zM406 496q0 -70 49 -119t118 -49q72 0 121 49t49 119 q0 72 -49 121t-121 49q-70 0 -118.5 -49t-48.5 -121z" />
<glyph unicode="p" horiz-adv-x="1140" d="M76 -211v1079q0 31 14 54.5t38 40t51.5 24.5t53.5 8q47 0 73 -14t38 -31q14 -20 18 -45q27 25 62 45q29 16 72 30.5t98 14.5q98 0 184 -40t149.5 -107.5t100.5 -158.5t37 -191t-36 -189.5t-98.5 -157t-149.5 -106.5t-191 -39h-15q-43 0 -73 10q-35 11 -58 23 q-27 14 -43 35v-285q0 -70 -47 -115t-118 -45q-70 0 -115 45t-45 115zM401 506q0 -74 49.5 -124t118.5 -50q72 0 121 49t49 119q0 72 -49 121t-121 49q-68 0 -116 -47t-52 -117z" />
<glyph unicode="q" horiz-adv-x="1140" d="M76 500q0 100 37 191t100 159t149.5 107.5t184.5 39.5q53 0 97 -14t73 -31q35 -20 61 -45q4 25 19 45q12 16 37.5 30.5t72.5 14.5q27 0 54.5 -8t51 -24.5t38 -40t14.5 -54.5v-1079q0 -70 -45 -115t-115 -45q-72 0 -119 45t-47 115v285q-16 -20 -43 -35q-23 -12 -58 -23 q-31 -10 -72 -10h-15q-104 0 -191.5 39t-150 106.5t-98 156.5t-35.5 190zM401 502q0 -70 49.5 -119t120.5 -49q70 0 119 50t49 124q-4 70 -52 117t-116 47q-72 0 -121 -49.5t-49 -120.5z" />
<glyph unicode="r" horiz-adv-x="700" d="M72 160v676q0 70 35.5 114.5t107.5 44.5q29 0 49.5 -11t32.5 -23q14 -14 25 -33q14 18 36 33q20 12 55.5 23t90.5 11q70 -2 117 -49t47 -117t-47.5 -114.5t-118.5 -44.5q-37 0 -70 -37t-35 -94v-379q0 -70 -44 -115t-115 -45q-70 0 -118 41t-48 119z" />
<glyph unicode="s" horiz-adv-x="968" d="M86 250q0 59 36 102t93 43q35 0 64.5 -4t54.5 -16q49 -25 92 -34t100 -13q41 -4 36 14t-36 27q-66 14 -136.5 29.5t-128.5 46t-97 82t-39 137.5q0 100 37 163.5t90 99.5t113.5 49t107.5 17h14q31 0 83 -6q64 -8 128 -32.5t112 -67.5t48 -109q0 -16 -3 -35.5t-13 -40.5 q-16 -35 -47 -49t-68 -14q-29 0 -56.5 5t-56.5 13q-31 8 -60.5 16.5t-52 10.5t-36.5 -3t-16 -22q0 -16 14 -23t38.5 -11t56.5 -7.5t65 -13.5q141 -41 200.5 -124t63.5 -181q0 -98 -45 -156.5t-106.5 -90.5t-124 -42t-97.5 -10q-57 0 -118.5 8t-118 27.5t-101.5 51.5t-70 81 q-20 39 -20 82z" />
<glyph unicode="t" horiz-adv-x="778" d="M51 905q0 70 47 118t125 48v78q0 70 44 115t116 45q70 0 118 -41t48 -119v-78q37 0 68.5 -12t56 -33.5t39 -52.5t14.5 -66q0 -70 -54.5 -116t-123.5 -46v-585q0 -70 -47 -115t-119 -45q-70 0 -115 45t-45 115v585q-70 0 -121 44.5t-51 115.5z" />
<glyph unicode="u" horiz-adv-x="952" d="M96 457v379q0 70 44 114.5t116 44.5q70 0 118 -41t48 -118v-379q0 -66 5 -95.5t40 -31.5h5q42 0 49 32q7 34 9 95v379q0 70 44 114.5t116 44.5q70 0 118 -41t48 -118v-676q0 -70 -35 -115t-82 -45t-72.5 10t-39.5 25q-16 16 -21 37q-18 -20 -41 -35q-20 -14 -52 -24.5 t-73 -10.5q-176 0 -260 109.5t-84 345.5z" />
<glyph unicode="v" horiz-adv-x="915" d="M82 782q-10 28 -10 55q0 37 18 69q31 58 100 79q35 10 58 10q51 0 91 -28.5t50 -81.5l68 -348l69 352q10 51 50 78.5t90 27.5q35 0 61 -10q69 -25 99 -82q16 -31 16 -64q0 -28 -11 -59l-202 -622q-12 -31 -25.5 -59.5t-33 -50t-47 -35t-68.5 -13.5q-59 0 -106.5 43 t-69.5 115z" />
<glyph unicode="w" horiz-adv-x="1486" d="M51 780q-7 30 -7 57q0 39 16 71q26 54 96 77q16 6 30.5 8t30.5 2q94 0 139 -106l199 -488l57 111l-77 270q-8 31 -13.5 58.5t-5.5 50.5q0 35 15.5 59.5t56.5 36.5q27 8 52.5 -2t47 -32.5t35.5 -57.5t18 -74q4 39 19.5 74t37 57.5t47 32.5t52.5 2q41 -12 56.5 -36.5 t15.5 -59.5q0 -23 -5.5 -50.5t-13.5 -58.5l-78 -270l58 -111l198 488q45 106 140 106q35 0 61 -10q71 -25 97 -78q16 -32 15 -71q0 -26 -7 -56l-220 -622q-12 -31 -29.5 -59.5t-45 -50t-68.5 -35t-96 -13.5q-66 0 -109 18.5t-70.5 41t-40 44t-14.5 25.5q-4 -6 -16 -26.5 t-40 -44t-71 -41t-104 -17.5q-55 0 -96 13.5t-69 35t-45 50t-30 59.5z" />
<glyph unicode="x" horiz-adv-x="1173" d="M94 164q0 63 49 112l215 218l-217 219q-47 51 -47 110q0 31 13.5 63t39.5 58q49 49 111 49q63 0 115 -51l213 -217l215 217q51 51 114 51q61 0 111 -49q27 -27 40 -58.5t13 -62.5q0 -59 -47 -110l-217 -219l215 -218q49 -49 49 -112t-49 -113q-25 -27 -55.5 -39 t-61.5 -12q-66 0 -112 47l-215 215l-213 -215q-47 -47 -113 -47q-31 0 -61.5 12.5t-55.5 38.5q-49 49 -49 113z" />
<glyph unicode="y" horiz-adv-x="999" d="M68 836q0 51 28.5 89t81.5 56q35 10 60 10q47 0 85.5 -26.5t61.5 -79.5l129 -344l98 344q18 51 57.5 79.5t88.5 28.5q23 0 57 -10q53 -18 84 -56t31 -91q0 -25 -10 -60l-336 -1042q-18 -49 -58.5 -77t-89.5 -28q-16 0 -30.5 2t-30.5 9q-51 18 -80 57t-29 88q0 27 10 57 l86 269l-284 665q-10 35 -10 60z" />
<glyph unicode="z" horiz-adv-x="1110" d="M88 825q0 74 45 121t115 47h604q70 0 115 -47t45 -119q0 -35 -11.5 -62.5t-29.5 -47.5l-373 -391h264q70 0 115 -47.5t45 -118.5q0 -70 -45 -115t-115 -45h-614q-72 0 -114 46t-42 110q0 35 13.5 69.5t41.5 65.5l353 377h-252q-70 0 -115 43t-45 114z" />
<glyph unicode="{" horiz-adv-x="911" d="M59 647q0 63 44 113.5t114 50.5h64v242q0 72 22.5 153.5t70.5 151t122.5 116t181.5 48.5q68 0 116 -48.5t48 -115.5q0 -66 -49.5 -114t-120.5 -48q-25 0 -38 -21.5t-20 -50.5q-8 -33 -8 -71v-795q0 -39 8 -72q6 -29 19.5 -51t38.5 -20q72 0 121 -48.5t49 -113.5 q0 -68 -48.5 -116t-115.5 -48q-106 2 -181 48t-123 116t-70.5 151.5t-22.5 153.5v227h-60q-70 0 -116 46.5t-46 115.5z" />
<glyph unicode="|" horiz-adv-x="522" d="M100 -172v1378q0 70 47.5 115t118.5 45q70 0 115 -45t45 -115v-1378q0 -70 -47 -115t-119 -45q-70 0 -115 45t-45 115z" />
<glyph unicode="}" horiz-adv-x="921" d="M74 -47q0 66 49 114t121 48q25 -2 38 20.5t19 50.5q8 33 8 72v795q0 39 -8 71q-6 29 -19.5 50.5t-37.5 21.5q-72 0 -121 48t-49 114q0 68 48 116t116 48q106 -2 181 -48.5t123 -116t70.5 -151.5t22.5 -153v-242h63q70 0 114 -50t44 -114q0 -70 -46 -116t-116 -46h-59 v-227q0 -72 -22.5 -153.5t-70.5 -151.5t-123 -116t-181 -48q-68 0 -116 48t-48 116z" />
<glyph unicode="~" horiz-adv-x="1261" d="M116 555q-9 41 3 78q6 20 19.5 41.5t28.5 41t32.5 36t29.5 26.5q39 31 95.5 58.5t150.5 27.5q43 0 86 -24.5t84 -55t77 -55t64 -24.5q16 0 36 10t36 24.5t27.5 26.5t15.5 16q16 23 46 42.5t71 19.5q12 0 29.5 -5t36 -15.5t34 -27t23.5 -36.5q6 -16 8 -46t-4 -55 q-18 -59 -64.5 -104t-102.5 -77t-110.5 -48t-87.5 -16q-35 0 -68.5 15t-65.5 37.5t-62.5 45.5t-59 36t-55.5 13t-49 -22q-10 -6 -29.5 -23.5t-41 -37t-41 -36t-29.5 -18.5q-41 -8 -75 9.5t-56.5 49t-31.5 72.5z" />
<glyph unicode="&#xa1;" horiz-adv-x="557" d="M123 -107q0 -70 45 -115t114 -45q72 0 119 45.5t47 114.5v643q0 70 -47 115t-121 45q-72 0 -114.5 -45t-42.5 -115v-643zM123 958q0 -70 45 -115t114 -45q72 0 119 45.5t47 114.5q0 72 -47 119t-119 47q-70 0 -114.5 -47t-44.5 -119z" />
<glyph unicode="&#xa2;" horiz-adv-x="989" d="M63 508q0 96 30 176t82 139.5t121 98.5t146 55v108q0 70 26 115t97 45q70 0 95.5 -41t25.5 -119v-104q88 -16 142.5 -55t95.5 -103q27 -41 26 -90q0 -72 -47 -119t-119 -47q-18 0 -27 5.5t-17.5 14.5t-19.5 23.5t-34 30.5v-289q23 16 34 29.5t19.5 23t17.5 14.5t27 5 q72 0 119 -47t47 -119q0 -51 -26 -90q-41 -63 -95.5 -103t-142.5 -55v-76q-2 -57 -25.5 -97t-95.5 -40q-70 0 -96.5 39t-26.5 98v78q-78 14 -146.5 53t-120.5 100.5t-82 146.5t-30 196zM383 508q0 -55 17.5 -89t41.5 -54v264q-25 -16 -42 -45t-17 -76z" />
<glyph unicode="&#xa3;" horiz-adv-x="1126" d="M59 567q0 68 43 112t111 48l-2 160q0 125 37 207t97.5 129t136 64.5t155.5 17.5t127 -44t47 -114q0 -72 -45 -119t-115 -47q-43 0 -66.5 -12.5t-32.5 -42t-10 -77.5t-1 -122h65q70 0 115 -48t45 -112q0 -70 -45 -118t-115 -48h-65v-75h362q70 0 115 -47.5t45 -118.5 q0 -70 -45 -115t-115 -45h-536q-66 0 -109 45t-43 115v241q-68 2 -112 48.5t-44 117.5z" />
<glyph unicode="&#xa4;" horiz-adv-x="1173" d="M115 1214q0 80 71 134q45 33 95 32q78 0 129 -69l106 -148q68 23 143 25q59 0 121 -17l107 144q23 33 56.5 49t70.5 16q55 0 100 -32q33 -23 52.5 -58t19.5 -71q0 -43 -29 -84l-108 -150q47 -61 74.5 -136t27.5 -159q0 -86 -28.5 -162.5t-78.5 -140.5l115 -154 q29 -45 29 -90q0 -39 -18.5 -73.5t-55.5 -61.5q-45 -33 -96 -33q-74 0 -127 72l-121 164q-55 -12 -115 -12q-63 0 -118 12l-121 -166q-51 -70 -129 -70q-49 0 -94 33q-72 53 -72 133q0 51 29 92l112 154q-47 61 -73.5 138t-26.5 165q0 80 23.5 152.5t64.5 132.5l-107 147 q-29 41 -28 92zM487 692q0 -70 49.5 -119t118.5 -49q72 0 121 49.5t49 118.5q0 72 -49 121t-121 49q-70 0 -119 -49t-49 -121z" />
<glyph unicode="&#xa5;" horiz-adv-x="1085" d="M92 1143q0 39 19.5 74.5t56.5 60.5q41 29 92 29q39 0 74 -18.5t59 -53.5l164 -277l178 277q25 35 59.5 53.5t73.5 18.5q51 0 93 -29q37 -25 56 -60.5t19 -74.5q0 -43 -28 -88l-287 -445h106q47 0 77 -30.5t30 -77.5q0 -45 -30 -75t-77 -30h-106v-26h106q47 0 77 -31 t30 -78q0 -45 -30 -74.5t-77 -29.5h-106q-2 -70 -49 -114t-117 -44t-115 44t-45 114h-96q-45 0 -74.5 30.5t-29.5 77.5q0 45 29.5 75t74.5 30h96v26h-96q-45 0 -74.5 31t-29.5 78q0 45 29.5 74.5t74.5 29.5h86l-264 445q-29 45 -29 88z" />
<glyph unicode="&#xa6;" horiz-adv-x="528" d="M100 -211v1411q0 70 44 115t116 45q70 0 118 -41t48 -119v-1411q0 -70 -47 -115t-119 -45q-70 0 -115 45t-45 115z" />
<glyph unicode="&#xa7;" horiz-adv-x="995" d="M82 432q0 96 39 176t104 140q-51 33 -82.5 85t-31.5 132q0 100 36.5 163.5t90 99.5t114 49t107.5 17q33 2 96 -6t128 -32.5t113 -67.5t48 -109q0 -16 -3 -35.5t-14 -39.5q-16 -35 -46.5 -49.5t-67.5 -14.5q-29 0 -56.5 5t-56.5 13q-61 18 -94 19q-31 0 -57 -21 q-12 -12 -17.5 -26.5t0.5 -28.5t27.5 -27.5t64.5 -21.5q80 -6 150.5 -41t124 -92t85 -131t31.5 -156t-29.5 -153.5t-82.5 -128.5q78 -47 111.5 -113t37.5 -141q0 -98 -45 -156.5t-106.5 -90.5t-124 -42t-96.5 -10q-57 0 -119 8t-118 27.5t-101 51t-70 80.5q-20 39 -20 82 q0 59 35.5 102.5t93.5 43.5q35 0 64.5 -4t53.5 -17q25 -12 46.5 -26.5t43 -23.5t44 -11t49.5 8t27.5 27.5t-14.5 34t-40 27.5t-49 11q-88 -4 -166 27t-135.5 87t-90 133t-32.5 167zM385 434q0 -47 33 -79.5t80 -32.5t80.5 32.5t33.5 79.5t-33.5 81t-80.5 34t-80 -34t-33 -81 z" />
<glyph unicode="&#xa8;" horiz-adv-x="675" d="M92 1520q0 76 53.5 129t128.5 53q76 0 129.5 -53.5t53.5 -128.5q0 -76 -53.5 -129.5t-129.5 -53.5t-129 53.5t-53 129.5zM551 1520q0 76 53 129t129 53t129 -53.5t53 -128.5q0 -76 -53 -129.5t-129 -53.5t-129 53.5t-53 129.5z" />
<glyph unicode="&#xa9;" horiz-adv-x="1640" d="M80 651q0 154 58.5 290t158.5 236.5t235 159t289 58.5t290 -58.5t236.5 -159t159 -236.5t58.5 -290t-58.5 -289t-159 -235t-236.5 -158.5t-290 -58.5t-289 58.5t-235 158.5t-158.5 235.5t-58.5 288.5zM451 649q0 -78 29.5 -145.5t79.5 -117.5t117.5 -80t145.5 -30 q76 0 144.5 30t119 80t80 117.5t29.5 145.5q0 76 -29.5 144.5t-80 119t-119 80t-144.5 29.5q-78 0 -145.5 -29.5t-117.5 -80t-79.5 -119t-29.5 -144.5zM545 653q0 68 23.5 120t63.5 89t92 56.5t107 19.5q66 0 130.5 -24.5t93.5 -71.5q16 -23 16 -56q0 -41 -28.5 -68.5 t-69.5 -27.5q-23 0 -39 10.5t-33 24.5q-10 8 -26.5 15.5t-43.5 7.5q-27 -4 -49 -15q-18 -10 -32.5 -27.5t-14.5 -52.5q0 -37 14.5 -58.5t32 -32.5t32.5 -13t17 -2q27 0 38.5 6t29.5 20q16 10 33.5 20.5t40.5 10.5q41 0 69.5 -27.5t28.5 -68.5q0 -33 -16 -55 q-29 -47 -93.5 -72t-130.5 -25q-55 0 -107 18.5t-92 55.5t-63.5 92.5t-23.5 130.5z" />
<glyph unicode="&#xaa;" horiz-adv-x="995" d="M84 985q0 84 31.5 158t87 129t131.5 88t164 37q82 0 155.5 -33t129 -89t88 -131t32.5 -159v-12t-1 -35t-1 -81v-148q0 -57 -39 -94t-98 -37q-61 0 -98 38q-82 -39 -172 -38q-84 0 -159 30.5t-130 85t-88 129t-33 162.5zM440 987q0 -23 16.5 -39t39.5 -16t39 16.5t16 38.5 q0 23 -16.5 39t-38.5 16q-23 0 -39.5 -16t-16.5 -39z" />
<glyph unicode="&#xab;" horiz-adv-x="1347" d="M86 485q0 57 39 103l295 323q0 2 2 2q23 25 54.5 40.5t68.5 15.5q68 0 111.5 -44t43.5 -112q0 -47 -24.5 -83t-57.5 -68l-176 -179l179 -178q33 -33 57 -68.5t24 -82.5q0 -68 -44 -112t-111 -44q-37 0 -69 15.5t-54 39.5q-2 0 -80 83t-219 245q-39 45 -39 104zM659 485 q0 57 39 103l295 323q0 2 2 2q23 25 54.5 40.5t68.5 15.5q68 0 112 -44t44 -112q0 -47 -24.5 -83t-57.5 -68l-176 -179l178 -178q33 -33 57.5 -68.5t24.5 -82.5q0 -68 -44 -112t-112 -44q-37 0 -68.5 15.5t-54.5 39.5q-2 0 -79.5 83t-219.5 245q-39 45 -39 104z" />
<glyph unicode="&#xac;" horiz-adv-x="1118" d="M72 641q0 70 45 115t114 45h629q66 0 113 -44t47 -116l-2 -199q0 -70 -47 -114.5t-119 -44.5q-70 0 -115 45t-45 114v33h-461q-70 0 -114.5 47t-44.5 119z" />
<glyph unicode="&#xad;" horiz-adv-x="868" />
<glyph unicode="&#xae;" horiz-adv-x="1640" d="M80 651q0 154 58.5 290t158.5 236.5t235 159t289 58.5t290 -58.5t236.5 -159t159 -236.5t58.5 -290t-58.5 -289t-159 -235t-236.5 -158.5t-290 -58.5t-289 58.5t-235 158.5t-158.5 235.5t-58.5 288.5zM451 649q0 -78 29.5 -145.5t79.5 -117.5t117.5 -80t145.5 -30 q76 0 144.5 30t119 80t80 117.5t29.5 145.5q0 76 -29.5 144.5t-80 119t-119 80t-144.5 29.5q-78 0 -145.5 -29.5t-117.5 -80t-79.5 -119t-29.5 -144.5zM618 594q0 80 28 137t60.5 95t61.5 56l29 17q31 16 57.5 21.5t73.5 7.5q51 -2 86 -37t35 -84q0 -53 -35 -86t-86 -33 q-29 0 -48.5 -26.5t-21.5 -67.5l2 -125q0 -53 -32.5 -86t-86.5 -33q-51 0 -85.5 31t-34.5 88z" />
<glyph unicode="&#xaf;" horiz-adv-x="796" d="M78 1206q0 70 45 115t115 45h268q70 0 115 -48t45 -112q0 -70 -45.5 -118t-114.5 -48h-268q-70 0 -115 47.5t-45 118.5z" />
<glyph unicode="&#xb0;" horiz-adv-x="995" d="M80 926q0 86 30.5 159.5t86 129t131.5 88t166 36.5q82 0 155.5 -32.5t130 -89t89 -132t32.5 -159.5t-31.5 -158t-88 -129t-131.5 -88t-161 -33q-84 0 -158.5 31t-130 85t-88 129t-32.5 163zM438 924q0 -23 16.5 -39.5t39.5 -16.5t39 16.5t16 39.5t-16.5 39t-38.5 16 q-23 0 -39.5 -16t-16.5 -39z" />
<glyph unicode="&#xb1;" horiz-adv-x="1064" d="M59 299q0 70 45.5 115t114.5 45l617 -4q70 0 109.5 -46.5t39.5 -109.5q0 -70 -45 -118t-115 -48h-606q-70 0 -115 47t-45 119zM61 961q0 72 43 118.5t115 46.5h143v152q0 70 46.5 115t121.5 45q72 0 115 -45t43 -115l-2 -150h141q72 0 117 -43t45 -114q0 -74 -45 -120 t-115 -48h-145l2 -158q0 -70 -45 -115t-115 -45q-72 -2 -119 44t-47 116l-2 156l-137 2q-72 2 -117 44t-43 114z" />
<glyph unicode="&#xb2;" horiz-adv-x="825" d="M76 413q0 14 5 27.5t16 24.5l140 130q38 35 66 67q12 14 23.5 28t19.5 28t12 26.5t2 20.5q-3 14 -15 25.5t-38 11.5q-19 0 -29.5 -6t-18 -14t-13.5 -18.5t-14.5 -19t-20.5 -14.5t-33 -6q-32 0 -55 22.5t-23 55.5v1q0 24 16 51t44 50t66 38.5t82 15.5q39 0 76.5 -11.5 t67 -35t48 -60.5t18.5 -88q0 -38 -15.5 -71.5t-34.5 -58.5q-21 -30 -48 -56l-100 -94h132q32 0 54.5 -23t22.5 -55q0 -33 -22.5 -55.5t-54.5 -22.5h-287q-20 0 -37 7.5t-28.5 19.5t-17.5 27.5t-6 31.5z" />
<glyph unicode="&#xb3;" horiz-adv-x="694" d="M52 572q0 32 22.5 54.5t54.5 22.5t54 -22.5t22 -54.5q0 -17 8 -33.5t20 -30t29 -21.5t36 -8q12 0 28 3.5t31 14t25 28.5t10 46q0 31 -16 49t-36 28t-38 13.5t-22 3.5h-1q-32 0 -54.5 22.5t-22.5 54.5t22 54.5t55 22.5q23 0 35.5 5t17.5 11.5t5.5 13t0.5 7.5q0 9 -8 22 t-29 13q-8 0 -17 -5t-16 -18q-9 -20 -28 -33t-42 -13q-32 0 -54.5 22.5t-22.5 54.5q0 13 3 22q7 22 22 44t37 39t51 28.5t64 11.5t69 -11.5t60.5 -33t42.5 -53t16 -71.5q0 -39 -10 -67.5t-36 -48.5q13 -2 31.5 -17t34.5 -38.5t28 -57.5t12 -75q0 -63 -22 -109t-57 -76.5 t-79 -45.5t-89 -15q-56 0 -101.5 21.5t-78 56.5t-50 79t-17.5 90z" />
<glyph unicode="&#xb4;" horiz-adv-x="415" d="M82 1153q0 45 24 86l138 221q23 39 57.5 59.5t75.5 20.5t84 -24q41 -25 62.5 -62t21.5 -78q0 -47 -25 -86l-135 -221q-23 -37 -57.5 -56.5t-75.5 -19.5q-51 0 -92 27q-39 23 -58.5 57.5t-19.5 75.5z" />
<glyph unicode="&#xb6;" horiz-adv-x="538" d="M100 160v1046q0 70 47.5 115t118.5 45q70 0 115 -45t45 -115v-1046q0 -70 -47 -115t-119 -45q-70 0 -115 45t-45 115z" />
<glyph unicode="&#xb7;" horiz-adv-x="493" d="M82 494q0 68 48 115.5t116 47.5t116 -48t48 -115q0 -68 -48.5 -116t-115.5 -48q-68 0 -116 48t-48 116z" />
<glyph unicode="&#xb8;" horiz-adv-x="493" d="M69 -115q-1 23 3 33q10 39 41.5 56.5t62.5 17.5q41 0 62 -25q12 -16 22 -40.5t23.5 -49t33 -42t48.5 -17.5q4 0 11 5t5 17q-4 23 -18.5 37t-32 32.5t-30.5 48.5t-13 81v82h243v-82q41 -12 63.5 -31.5t32 -45t10.5 -54.5t1 -58q0 -31 -10.5 -76.5t-40 -87.5t-80.5 -73 t-131 -31t-136.5 22.5t-92 59.5t-53 84t-21.5 96q-2 18 -3 41z" />
<glyph unicode="&#xb9;" horiz-adv-x="518" d="M54 781q0 13 5.5 26.5t18.5 23.5l124 93q11 9 23.5 15.5t29.5 6.5q35 0 57.5 -22t22.5 -54v-469q0 -33 -22.5 -54.5t-56.5 -21.5q-33 0 -54.5 21.5t-21.5 54.5v314q-21 -17 -46 -17q-31 0 -56 26q-24 24 -24 57z" />
<glyph unicode="&#xba;" horiz-adv-x="921" d="M80 928q0 80 29.5 148.5t82 120.5t121 82t148.5 30t148.5 -30t120.5 -82t82 -120.5t30 -148.5t-30 -148.5t-82 -121t-120.5 -82t-148.5 -29.5t-148.5 29.5t-121 82t-82 121t-29.5 148.5zM416 928q0 -18 13 -31.5t32 -13.5q18 0 30.5 13t12.5 32q0 18 -12.5 30.5 t-30.5 12.5t-31.5 -12.5t-13.5 -30.5z" />
<glyph unicode="&#xbb;" horiz-adv-x="1347" d="M86 154q0 47 24.5 82.5t57.5 68.5l178 178l-176 179q-33 33 -57.5 68.5t-24.5 82.5q0 68 44 112t112 44q37 0 68.5 -15.5t54.5 -40.5q2 0 2 -2l295 -323q38 -46 38 -103q0 -59 -38 -104q-141 -162 -219 -245t-80 -83q-23 -25 -54.5 -40t-68.5 -15q-68 0 -112 44t-44 112z M659 154q0 47 25 82.5t57 68.5l179 178l-177 179q-33 33 -57 68.5t-24 82.5q0 68 44 112t111 44q37 0 69 -15.5t54 -40.5q2 0 2 -2l295 -323q39 -46 39 -103q0 -59 -39 -104q-141 -162 -219 -245t-80 -83q-23 -25 -54.5 -40t-68.5 -15q-68 0 -112 44t-44 112z" />
<glyph unicode="&#xbc;" horiz-adv-x="1187" d="M53 785q0 14 6 27t18 23l125 94q11 9 24 15.5t30 6.5q35 0 57.5 -22t22.5 -55v-471q0 -34 -22.5 -55.5t-56.5 -21.5t-55.5 21.5t-21.5 55.5v315q-21 -17 -46 -17q-31 0 -57 26q-24 25 -24 58zM260 207l328 1040q20 66 79.5 95.5t124.5 9.5q66 -23 96.5 -79t10.5 -122 l-328 -1040q-23 -66 -81 -95.5t-126 -7.5q-66 20 -95.5 76.5t-8.5 122.5zM387 242q0 14 4 27t14 25l277 355l1 2q11 16 28.5 25.5t41.5 9.5q39 0 63.5 -24t24.5 -60v-277h1q37 0 60.5 -24.5t23.5 -62.5q0 -37 -23.5 -60.5t-60.5 -23.5h-1v-70q0 -37 -24.5 -60.5t-62.5 -23.5 q-37 0 -60.5 23.5t-23.5 60.5v70h-197q-19 0 -34.5 7.5t-27.5 20t-18 28t-6 32.5zM628 325h54v65z" />
<glyph unicode="&#xbd;" horiz-adv-x="1411" d="M52 785q0 14 6 27t18 23l125 94q11 9 24 15.5t30 6.5q35 0 57.5 -22t22.5 -55v-471q0 -34 -22.5 -55.5t-56.5 -21.5t-55.5 21.5t-21.5 55.5v315q-21 -17 -46 -17q-31 0 -57 26q-24 25 -24 58zM302 205l325 1031q20 65 79 94.5t124 9.5q65 -23 95 -78.5t11 -120.5 l-325 -1031q-23 -65 -80.5 -94.5t-125.5 -7.5q-65 20 -94.5 76t-8.5 121zM404 81q0 13 4.5 26t14.5 24l134 123q35 33 62 64q12 13 22.5 26.5t18 26.5t11.5 24.5t3 20.5q-3 13 -14.5 23.5t-36.5 10.5q-18 0 -28 -5.5t-17 -13.5t-12.5 -17.5t-13.5 -17.5t-20 -14t-31 -6 q-31 0 -52.5 21.5t-21.5 52.5v1q0 23 15 48.5t41.5 47.5t62.5 36.5t78 14.5q37 0 72.5 -10.5t63.5 -33t45.5 -57.5t17.5 -84q0 -36 -14.5 -67.5t-32.5 -55.5q-20 -28 -46 -53l-95 -89h125q31 0 52.5 -22t21.5 -52q0 -31 -21.5 -52.5t-52.5 -21.5h-272q-19 0 -35 7t-27 18.5 t-16.5 26t-5.5 29.5z" />
<glyph unicode="&#xbe;" horiz-adv-x="1316" d="M47 572q0 32 22.5 54.5t54.5 22.5t54 -22.5t22 -54.5q0 -17 8 -33.5t20 -30t29 -21.5t36 -8q12 0 28 3.5t31 14t25 28.5t10 46q0 31 -16 49t-36 28t-38 13.5t-22 3.5h-1q-32 0 -54.5 22.5t-22.5 54.5t22 54.5t55 22.5q23 0 35.5 5t17.5 11.5t5.5 13t0.5 7.5q0 9 -8 22 t-29 13q-8 0 -17 -5t-16 -18q-9 -20 -28 -33t-42 -13q-32 0 -54.5 22.5t-22.5 54.5q0 13 3 22q7 22 22 44t37 39t51 28.5t64 11.5t69 -11.5t60.5 -33t42.5 -53t16 -71.5q0 -39 -10 -67.5t-36 -48.5q13 -2 31.5 -17t34.5 -38.5t28 -57.5t12 -75q0 -63 -22 -109t-57 -76.5 t-79 -45.5t-89 -15q-56 0 -101.5 21.5t-78 56.5t-50 79t-17.5 90zM432 207l328 1040q20 66 79.5 95.5t124.5 9.5q66 -23 96.5 -79t10.5 -122l-328 -1040q-23 -66 -81 -95.5t-126 -7.5q-66 20 -95.5 76.5t-8.5 122.5zM440 239q0 13 4 26t14 25l273 350l1 1q11 16 28.5 25.5 t40.5 9.5q38 0 62.5 -23.5t24.5 -59.5v-273h1q36 0 59.5 -24.5t23.5 -60.5q0 -37 -23.5 -60t-59.5 -23h-1v-69q0 -36 -24.5 -59.5t-61.5 -23.5q-36 0 -59.5 23.5t-23.5 59.5v69h-194q-18 0 -33.5 7.5t-27 19.5t-18 27.5t-6.5 32.5zM678 320h53v64z" />
<glyph unicode="&#xbf;" horiz-adv-x="993" d="M-11 75q-2 236 92.5 342.5t268.5 112.5q4 14 12 28.5t23.5 27t42 20.5t67.5 8q86 0 124 -44t38 -109v-76q0 -66 -21.5 -114t-87.5 -48h-133q-37 0 -58.5 -15.5t-33.5 -35t-16 -38t-4 -24.5q0 -53 37.5 -83.5t74.5 -28.5q51 2 70.5 23.5t36.5 49.5q16 43 34.5 69t39 39 t44 15t54.5 0q27 -2 53.5 -10t47 -24.5t32.5 -42t8 -64.5q-23 -168 -132.5 -262t-274.5 -105q-80 0 -146.5 16.5t-128.5 57.5q-61 39 -109.5 118t-54.5 197zM313 811q0 76 53 129t129 53t129 -53t53 -129t-53 -129.5t-129 -53.5t-129 53.5t-53 129.5z" />
<glyph unicode="&#xc0;" horiz-adv-x="1300" d="M76 160q0 35 14 65l408 987q18 45 62 70t91 27q51 0 91 -21.5t63 -73.5l405 -989q14 -31 15 -67q0 -47 -25.5 -85t-73.5 -59q-31 -14 -69 -14q-47 0 -87 24.5t-59 71.5l-92 221h-338l-92 -221q-20 -47 -58 -71.5t-85 -24.5q-33 0 -72 16q-47 20 -72.5 58.5t-25.5 85.5z M305 1792q0 41 21.5 78t62.5 62q43 25 84 24q41 0 76 -20.5t57 -59.5l137 -221q25 -41 25 -86q0 -41 -19.5 -76t-58.5 -57q-41 -27 -92 -27q-41 0 -76 19.5t-57 56.5l-135 221q-25 39 -25 86zM598 596h109l-56 152z" />
<glyph unicode="&#xc1;" horiz-adv-x="1300" d="M76 160q0 35 14 65l408 987q18 45 62 70t91 27q51 0 91 -21.5t63 -73.5l405 -989q14 -31 15 -67q0 -47 -25.5 -85t-73.5 -59q-31 -14 -69 -14q-47 0 -87 24.5t-59 71.5l-92 221h-338l-92 -221q-20 -47 -58 -71.5t-85 -24.5q-33 0 -72 16q-47 20 -72.5 58.5t-25.5 85.5z M473 1546q0 45 24 86l138 221q23 39 57.5 59.5t75.5 20.5t84 -24q41 -25 62.5 -62t21.5 -78q0 -47 -25 -86l-135 -221q-23 -37 -57.5 -56.5t-75.5 -19.5q-51 0 -92 27q-39 23 -58.5 57.5t-19.5 75.5zM598 596h109l-56 152z" />
<glyph unicode="&#xc2;" horiz-adv-x="1300" d="M76 160q0 35 14 65l408 987q18 45 62 70t91 27q51 0 91 -21.5t63 -73.5l405 -989q14 -31 15 -67q0 -47 -25.5 -85t-73.5 -59q-31 -14 -69 -14q-47 0 -87 24.5t-59 71.5l-92 221h-338l-92 -221q-20 -47 -58 -71.5t-85 -24.5q-33 0 -72 16q-47 20 -72.5 58.5t-25.5 85.5z M258 1543q0 37 15.5 68.5t40.5 53.5l2 2l215 187q45 39 104 39q57 0 102 -39l216 -187q2 0 2 -2q25 -23 40 -54.5t15 -67.5q0 -68 -44 -112t-112 -44q-47 0 -83 24.5t-68 57.5l-70 67l-68 -67q-33 -33 -68.5 -57.5t-82.5 -24.5q-68 0 -112 44t-44 112zM598 596h109l-56 152z " />
<glyph unicode="&#xc3;" horiz-adv-x="1300" d="M76 160q0 35 14 65l408 987q18 45 62 70t91 27q51 0 91 -21.5t63 -73.5l405 -989q14 -31 15 -67q0 -47 -25.5 -85t-73.5 -59q-31 -14 -69 -14q-47 0 -87 24.5t-59 71.5l-92 221h-338l-92 -221q-20 -47 -58 -71.5t-85 -24.5q-33 0 -72 16q-47 20 -72.5 58.5t-25.5 85.5z M145 1527.5q-9 40.5 3 77.5q6 20 19.5 42t28.5 41.5t32.5 36t29.5 26.5q39 31 95.5 58.5t150.5 27.5q43 0 86 -24.5t84 -55.5t77 -55.5t64 -24.5q16 0 36 10.5t36 24.5t27.5 26.5t15.5 16.5q16 23 46 42t71 19q12 0 29.5 -5t36 -15t34 -26.5t23.5 -37.5q6 -16 8 -45.5 t-4 -54.5q-18 -59 -64.5 -104t-102.5 -77t-110.5 -48.5t-87.5 -16.5q-35 0 -68.5 15.5t-65.5 38t-62.5 45t-59 36t-55.5 13.5t-49 -23q-10 -6 -29.5 -23.5t-41 -37t-41 -35.5t-29.5 -18q-41 -8 -75 9t-56.5 49t-31.5 72.5zM598 596h109l-56 152z" />
<glyph unicode="&#xc4;" horiz-adv-x="1300" d="M76 160q0 35 14 65l408 987q18 45 62 70t91 27q51 0 91 -21.5t63 -73.5l405 -989q14 -31 15 -67q0 -47 -25.5 -85t-73.5 -59q-31 -14 -69 -14q-47 0 -87 24.5t-59 71.5l-92 221h-338l-92 -221q-20 -47 -58 -71.5t-85 -24.5q-33 0 -72 16q-47 20 -72.5 58.5t-25.5 85.5z M219 1575q0 76 53.5 129t128.5 53q76 0 129.5 -53.5t53.5 -128.5q0 -76 -53.5 -129.5t-129.5 -53.5t-129 53.5t-53 129.5zM598 596h109l-56 152zM678 1575q0 76 53 129t129 53t129 -53.5t53 -128.5q0 -76 -53 -129.5t-129 -53.5t-129 53.5t-53 129.5z" />
<glyph unicode="&#xc5;" horiz-adv-x="1300" d="M76 160q0 35 14 65l408 987q18 45 62 70t91 27q51 0 91 -21.5t63 -73.5l405 -989q14 -31 15 -67q0 -47 -25.5 -85t-73.5 -59q-31 -14 -69 -14q-47 0 -87 24.5t-59 71.5l-92 221h-338l-92 -221q-20 -47 -58 -71.5t-85 -24.5q-33 0 -72 16q-47 20 -72.5 58.5t-25.5 85.5z M424 1597q0 43 16.5 82t44 67.5t66.5 45t82 16.5t82 -16.5t67.5 -45t45 -67.5t16.5 -82t-16.5 -82t-45 -66.5t-67.5 -44t-82 -16.5q-88 0 -148.5 60.5t-60.5 148.5zM598 596h109l-56 152zM614 1597q0 -18 19 -18q18 0 18 18q0 19 -18 19t-19 -19z" />
<glyph unicode="&#xc6;" horiz-adv-x="1703" d="M76 160q0 35 14 65l408 987q18 45 62 70t91 27q51 0 91 -21.5t63 -73.5l405 -989q14 -31 15 -67q0 -47 -25.5 -85t-73.5 -59q-31 -14 -69 -14q-47 0 -87 24.5t-59 71.5l-92 221h-338l-92 -221q-20 -47 -58 -71.5t-85 -24.5q-33 0 -72 16q-47 20 -72.5 58.5t-25.5 85.5z M598 596h109l-56 152zM883 160v506v12v469q0 51 18.5 82t43 48t52 23.5t46.5 6.5h440q70 0 115 -47.5t45 -118.5q0 -70 -45.5 -115t-114.5 -45h-275v-156h91q70 0 114.5 -47t44.5 -119q0 -70 -45 -114.5t-114 -44.5h-91v-174h273q70 0 115 -47.5t45 -118.5q0 -70 -45.5 -115 t-114.5 -45h-447q-66 0 -108.5 46t-42.5 114z" />
<glyph unicode="&#xc7;" horiz-adv-x="1378" d="M80 651q0 135 51 254t139 208t207 140.5t254 51.5q160 0 296 -71t226 -192q41 -49 41 -104q0 -33 -14 -62.5t-36.5 -53t-53.5 -37t-64 -13.5q-31 0 -61.5 13.5t-58.5 43.5q-45 66 -116 107t-157 41q-68 0 -127 -25.5t-104 -70.5t-70.5 -104.5t-25.5 -127.5t25.5 -127 t70.5 -104t104.5 -70.5t126.5 -25.5q84 0 153.5 37.5t114.5 103.5q53 53 117 53q33 0 63.5 -14.5t54.5 -39t37 -55t13 -63.5q0 -23 -5 -42.5t-19 -39.5q-88 -125 -227.5 -193.5t-303.5 -68.5q-135 0 -254 51t-207 139.5t-139 207t-51 253.5zM354 -183q-1 23 3 33 q10 39 41.5 56.5t62.5 17.5q41 0 62 -25q12 -16 22 -40.5t23.5 -49t33 -42t48.5 -17.5q4 0 11 5t5 17q-4 23 -18.5 37t-32 32.5t-30.5 48.5t-13 81v82h243v-82q41 -12 63.5 -31.5t32 -45t10.5 -54.5t1 -58q0 -31 -10.5 -76.5t-40 -87.5t-80.5 -73t-131 -31t-136.5 22.5 t-92 59.5t-53 84t-21.5 96q-2 18 -3 41z" />
<glyph unicode="&#xc8;" horiz-adv-x="913" d="M76 160v506v12v469q0 51 18.5 82t43 48t52 23.5t46.5 6.5h440q70 0 115 -47.5t45 -118.5q0 -70 -45.5 -115t-114.5 -45h-275v-156h91q70 0 114.5 -47t44.5 -119q0 -70 -45 -114.5t-114 -44.5h-91v-174h273q70 0 115 -47.5t45 -118.5q0 -70 -45.5 -115t-114.5 -45h-447 q-66 0 -108.5 46t-42.5 114zM160 1761q0 41 21.5 78t62.5 62q43 25 84 24q41 0 76 -20.5t57 -59.5l137 -221q25 -41 25 -86q0 -41 -19.5 -76t-58.5 -57q-41 -27 -92 -27q-41 0 -76 19.5t-57 56.5l-135 221q-25 39 -25 86z" />
<glyph unicode="&#xc9;" horiz-adv-x="913" d="M76 160v506v12v469q0 51 18.5 82t43 48t52 23.5t46.5 6.5h440q70 0 115 -47.5t45 -118.5q0 -70 -45.5 -115t-114.5 -45h-275v-156h91q70 0 114.5 -47t44.5 -119q0 -70 -45 -114.5t-114 -44.5h-91v-174h273q70 0 115 -47.5t45 -118.5q0 -70 -45.5 -115t-114.5 -45h-447 q-66 0 -108.5 46t-42.5 114zM232 1550q0 45 24 86l138 221q23 39 57.5 59.5t75.5 20.5t84 -24q41 -25 62.5 -62t21.5 -78q0 -47 -25 -86l-135 -221q-23 -37 -57.5 -56.5t-75.5 -19.5q-51 0 -92 27q-39 23 -58.5 57.5t-19.5 75.5z" />
<glyph unicode="&#xca;" horiz-adv-x="942" d="M88 1549q0 37 15.5 68.5t40.5 53.5l2 2l215 187q45 39 104 39q57 0 102 -39l216 -187q2 0 2 -2q25 -23 40 -54.5t15 -67.5q0 -68 -44 -112t-112 -44q-47 0 -83 24.5t-68 57.5l-70 67l-68 -67q-33 -33 -68.5 -57.5t-82.5 -24.5q-68 0 -112 44t-44 112zM96 160v506v12v469 q0 51 18.5 82t43 48t52 23.5t46.5 6.5h440q70 0 115 -47.5t45 -118.5q0 -70 -45.5 -115t-114.5 -45h-275v-156h91q70 0 114.5 -47t44.5 -119q0 -70 -45 -114.5t-114 -44.5h-91v-174h273q70 0 115 -47.5t45 -118.5q0 -70 -45.5 -115t-114.5 -45h-447q-66 0 -108.5 46 t-42.5 114z" />
<glyph unicode="&#xcb;" horiz-adv-x="976" d="M78 1575q0 76 53.5 129t128.5 53q76 0 129.5 -53.5t53.5 -128.5q0 -76 -53.5 -129.5t-129.5 -53.5t-129 53.5t-53 129.5zM127 160v506v12v469q0 51 18.5 82t43 48t52 23.5t46.5 6.5h440q70 0 115 -47.5t45 -118.5q0 -70 -45.5 -115t-114.5 -45h-275v-156h91 q70 0 114.5 -47t44.5 -119q0 -70 -45 -114.5t-114 -44.5h-91v-174h273q70 0 115 -47.5t45 -118.5q0 -70 -45.5 -115t-114.5 -45h-447q-66 0 -108.5 46t-42.5 114zM537 1575q0 76 53 129t129 53t129 -53.5t53 -128.5q0 -76 -53 -129.5t-129 -53.5t-129 53.5t-53 129.5z" />
<glyph unicode="&#xcc;" horiz-adv-x="532" d="M-70 1769q0 41 21.5 78t62.5 62q43 25 84 24q41 0 76 -20.5t57 -59.5l137 -221q25 -41 25 -86q0 -41 -19.5 -76t-58.5 -57q-41 -27 -92 -27q-41 0 -76 19.5t-57 56.5l-135 221q-25 39 -25 86zM104 160v985q0 70 47.5 115t118.5 45q70 0 115 -45.5t45 -114.5v-985 q0 -70 -47 -115t-119 -45q-70 0 -115 45t-45 115z" />
<glyph unicode="&#xcd;" horiz-adv-x="514" d="M98 160v985q0 70 47.5 115t118.5 45q70 0 115 -45.5t45 -114.5v-985q0 -70 -47 -115t-119 -45q-70 0 -115 45t-45 115zM102 1536q0 45 24 86l138 221q23 39 57.5 59.5t75.5 20.5t84 -24q41 -25 62.5 -62t21.5 -78q0 -47 -25 -86l-135 -221q-23 -37 -57.5 -56.5 t-75.5 -19.5q-51 0 -92 27q-39 23 -58.5 57.5t-19.5 75.5z" />
<glyph unicode="&#xce;" horiz-adv-x="550" d="M-115 1545q0 37 15.5 68.5t40.5 53.5l2 2l215 187q45 39 104 39q57 0 102 -39l216 -187q2 0 2 -2q25 -23 40 -54.5t15 -67.5q0 -68 -44 -112t-112 -44q-47 0 -83 24.5t-68 57.5l-70 67l-68 -67q-33 -33 -68.5 -57.5t-82.5 -24.5q-68 0 -112 44t-44 112zM108 160v985 q0 70 47.5 115t118.5 45q70 0 115 -45.5t45 -114.5v-985q0 -70 -47 -115t-119 -45q-70 0 -115 45t-45 115z" />
<glyph unicode="&#xcf;" horiz-adv-x="542" d="M-146 1575q0 76 53.5 129t128.5 53q76 0 129.5 -53.5t53.5 -128.5q0 -76 -53.5 -129.5t-129.5 -53.5t-129 53.5t-53 129.5zM104 160v985q0 70 47.5 115t118.5 45q70 0 115 -45.5t45 -114.5v-985q0 -70 -47 -115t-119 -45q-70 0 -115 45t-45 115zM313 1575q0 76 53 129 t129 53t129 -53.5t53 -128.5q0 -76 -53 -129.5t-129 -53.5t-129 53.5t-53 129.5z" />
<glyph unicode="&#xd0;" horiz-adv-x="1413" d="M88 635q0 70 45 115t115 45h438q70 0 115 -48.5t45 -111.5q0 -70 -45 -118t-115 -48h-438q-70 0 -115 47t-45 119zM254 160v985q0 35 12 65q16 45 56 72t94 27h272q131 0 248 -55.5t203 -146.5t136 -210t50 -246q0 -135 -51 -253.5t-138 -207t-203 -139.5t-245 -51h-280 q-66 2 -110 47t-44 113zM580 322h108q68 0 126 29.5t99 76.5t64.5 105.5t23.5 115.5q0 66 -24.5 124t-67.5 102.5t-100 71t-123 30.5h-106v-655z" />
<glyph unicode="&#xd1;" horiz-adv-x="1153" d="M69 1521.5q-9 40.5 3 77.5q6 20 19.5 42t28.5 41.5t32.5 36t29.5 26.5q39 31 95.5 58.5t150.5 27.5q43 0 86 -24.5t84 -55.5t77 -55.5t64 -24.5q16 0 36 10.5t36 24.5t27.5 26.5t15.5 16.5q16 23 46 42t71 19q12 0 29.5 -5t36 -15t34 -26.5t23.5 -37.5q6 -16 8 -45.5 t-4 -54.5q-18 -59 -64.5 -104t-102.5 -77t-110.5 -48.5t-87.5 -16.5q-35 0 -68.5 15.5t-65.5 38t-62.5 45t-59 36t-55.5 13.5t-49 -23q-10 -6 -29.5 -23.5t-41 -37t-41 -35.5t-29.5 -18q-41 -8 -75 9t-56.5 49t-31.5 72.5zM98 160v985q0 70 47.5 115t118.5 45q47 0 83 -21.5 t56 -58.5l322 -504v424q0 70 47 115t119 45q70 0 115 -45.5t45 -114.5v-985q0 -70 -47.5 -115t-118.5 -45q-84 0 -129 61l-332 525v-426q0 -70 -47 -115t-119 -45q-70 0 -115 45t-45 115z" />
<glyph unicode="&#xd2;" d="M80 651q0 135 51 254t139 208t207 140.5t254 51.5t254 -51.5t208 -140.5t140 -208t51 -254t-51 -253.5t-140 -207t-208 -139.5t-254 -51t-254 51t-207 139.5t-139 207t-51 253.5zM406 649q0 -68 25.5 -127t70.5 -104t104.5 -70.5t126.5 -25.5q68 0 127.5 25.5t104.5 70.5 t70.5 104.5t25.5 126.5q0 68 -25.5 127.5t-70.5 104.5t-104.5 70.5t-127.5 25.5t-127 -25.5t-104 -70.5t-70.5 -104.5t-25.5 -127.5zM424 1767q0 41 21.5 78t62.5 62q43 25 84 24q41 0 76 -20.5t57 -59.5l137 -221q25 -41 25 -86q0 -41 -19.5 -76t-58.5 -57q-41 -27 -92 -27 q-41 0 -76 19.5t-57 56.5l-135 221q-25 39 -25 86z" />
<glyph unicode="&#xd3;" d="M80 651q0 135 51 254t139 208t207 140.5t254 51.5t254 -51.5t208 -140.5t140 -208t51 -254t-51 -253.5t-140 -207t-208 -139.5t-254 -51t-254 51t-207 139.5t-139 207t-51 253.5zM406 649q0 -68 25.5 -127t70.5 -104t104.5 -70.5t126.5 -25.5q68 0 127.5 25.5t104.5 70.5 t70.5 104.5t25.5 126.5q0 68 -25.5 127.5t-70.5 104.5t-104.5 70.5t-127.5 25.5t-127 -25.5t-104 -70.5t-70.5 -104.5t-25.5 -127.5zM553 1538q0 45 24 86l138 221q23 39 57.5 59.5t75.5 20.5t84 -24q41 -25 62.5 -62t21.5 -78q0 -47 -25 -86l-135 -221q-23 -37 -57.5 -56.5 t-75.5 -19.5q-51 0 -92 27q-39 23 -58.5 57.5t-19.5 75.5z" />
<glyph unicode="&#xd4;" d="M80 651q0 135 51 254t139 208t207 140.5t254 51.5t254 -51.5t208 -140.5t140 -208t51 -254t-51 -253.5t-140 -207t-208 -139.5t-254 -51t-254 51t-207 139.5t-139 207t-51 253.5zM342 1549q0 37 15.5 68.5t40.5 53.5l2 2l215 187q45 39 104 39q57 0 102 -39l216 -187 q2 0 2 -2q25 -23 40 -54.5t15 -67.5q0 -68 -44 -112t-112 -44q-47 0 -83 24.5t-68 57.5l-70 67l-68 -67q-33 -33 -68.5 -57.5t-82.5 -24.5q-68 0 -112 44t-44 112zM406 649q0 -68 25.5 -127t70.5 -104t104.5 -70.5t126.5 -25.5q68 0 127.5 25.5t104.5 70.5t70.5 104.5 t25.5 126.5q0 68 -25.5 127.5t-70.5 104.5t-104.5 70.5t-127.5 25.5t-127 -25.5t-104 -70.5t-70.5 -104.5t-25.5 -127.5z" />
<glyph unicode="&#xd5;" d="M80 651q0 135 51 254t139 208t207 140.5t254 51.5t254 -51.5t208 -140.5t140 -208t51 -254t-51 -253.5t-140 -207t-208 -139.5t-254 -51t-254 51t-207 139.5t-139 207t-51 253.5zM220 1525.5q-9 40.5 3 77.5q6 20 19.5 42t28.5 41.5t32.5 36t29.5 26.5q39 31 95.5 58.5 t150.5 27.5q43 0 86 -24.5t84 -55.5t77 -55.5t64 -24.5q16 0 36 10.5t36 24.5t27.5 26.5t15.5 16.5q16 23 46 42t71 19q12 0 29.5 -5t36 -15t34 -26.5t23.5 -37.5q6 -16 8 -45.5t-4 -54.5q-18 -59 -64.5 -104t-102.5 -77t-110.5 -48.5t-87.5 -16.5q-35 0 -68.5 15.5 t-65.5 38t-62.5 45t-59 36t-55.5 13.5t-49 -23q-10 -6 -29.5 -23.5t-41 -37t-41 -35.5t-29.5 -18q-41 -8 -75 9t-56.5 49t-31.5 72.5zM406 649q0 -68 25.5 -127t70.5 -104t104.5 -70.5t126.5 -25.5q68 0 127.5 25.5t104.5 70.5t70.5 104.5t25.5 126.5q0 68 -25.5 127.5 t-70.5 104.5t-104.5 70.5t-127.5 25.5t-127 -25.5t-104 -70.5t-70.5 -104.5t-25.5 -127.5z" />
<glyph unicode="&#xd6;" d="M80 651q0 135 51 254t139 208t207 140.5t254 51.5t254 -51.5t208 -140.5t140 -208t51 -254t-51 -253.5t-140 -207t-208 -139.5t-254 -51t-254 51t-207 139.5t-139 207t-51 253.5zM317 1565q0 76 53.5 129t128.5 53q76 0 129.5 -53.5t53.5 -128.5q0 -76 -53.5 -129.5 t-129.5 -53.5t-129 53.5t-53 129.5zM406 649q0 -68 25.5 -127t70.5 -104t104.5 -70.5t126.5 -25.5q68 0 127.5 25.5t104.5 70.5t70.5 104.5t25.5 126.5q0 68 -25.5 127.5t-70.5 104.5t-104.5 70.5t-127.5 25.5t-127 -25.5t-104 -70.5t-70.5 -104.5t-25.5 -127.5zM776 1565 q0 76 53 129t129 53t129 -53.5t53 -128.5q0 -76 -53 -129.5t-129 -53.5t-129 53.5t-53 129.5z" />
<glyph unicode="&#xd7;" horiz-adv-x="1185" d="M113 807q0 59 49 108q53 53 121 54q57 0 108 -47l195 -213l207 215q49 49 110 49q63 0 121 -53q49 -49 49 -111q0 -63 -51 -115l-205 -213l201 -190q51 -51 51 -115q0 -61 -49 -110q-27 -27 -58.5 -40.5t-62.5 -13.5q-59 0 -111 47l-202 193l-189 -191q-49 -49 -112 -49 q-31 0 -60.5 12.5t-52.5 36.5q-53 49 -53 117q0 66 49 115l186 188l-190 209q-51 51 -51 117z" />
<glyph unicode="&#xd8;" d="M80 651q0 135 51 254t139 208t207 140.5t254 51.5t254 -51.5t208 -140.5t140 -208t51 -254t-51 -253.5t-140 -207t-208 -139.5t-254 -51t-254 51t-207 139.5t-139 207t-51 253.5zM404 182l328 1040q20 66 79.5 95.5t124.5 9.5q66 -23 96.5 -79t10.5 -122l-328 -1040 q-23 -66 -81 -95.5t-126 -7.5q-66 20 -95.5 76.5t-8.5 122.5zM406 649q0 -68 25.5 -127t70.5 -104t104.5 -70.5t126.5 -25.5q68 0 127.5 25.5t104.5 70.5t70.5 104.5t25.5 126.5q0 68 -25.5 127.5t-70.5 104.5t-104.5 70.5t-127.5 25.5t-127 -25.5t-104 -70.5t-70.5 -104.5 t-25.5 -127.5z" />
<glyph unicode="&#xd9;" horiz-adv-x="1103" d="M92 457v686q0 70 44 115t116 45q70 0 118 -41t48 -119v-686q0 -33 12 -57.5t32.5 -41t43 -24.5t45.5 -8q20 0 45 8t44 24.5t32.5 41t13.5 57.5v686q0 78 48 119t118 41q72 0 116 -45.5t44 -114.5v-686q0 -82 -31 -164t-90.5 -146.5t-144 -105.5t-195.5 -41t-196 41 t-143 105.5t-89 146.5t-31 164zM244 1759q0 41 21.5 78t62.5 62q43 25 84 24q41 0 76 -20.5t57 -59.5l137 -221q25 -41 25 -86q0 -41 -19.5 -76t-58.5 -57q-41 -27 -92 -27q-41 0 -76 19.5t-57 56.5l-135 221q-25 39 -25 86z" />
<glyph unicode="&#xda;" horiz-adv-x="1103" d="M92 457v686q0 70 44 115t116 45q70 0 118 -41t48 -119v-686q0 -33 12 -57.5t32.5 -41t43 -24.5t45.5 -8q20 0 45 8t44 24.5t32.5 41t13.5 57.5v686q0 78 48 119t118 41q72 0 116 -45.5t44 -114.5v-686q0 -82 -31 -164t-90.5 -146.5t-144 -105.5t-195.5 -41t-196 41 t-143 105.5t-89 146.5t-31 164zM361 1550q0 45 24 86l138 221q23 39 57.5 59.5t75.5 20.5t84 -24q41 -25 62.5 -62t21.5 -78q0 -47 -25 -86l-135 -221q-23 -37 -57.5 -56.5t-75.5 -19.5q-51 0 -92 27q-39 23 -58.5 57.5t-19.5 75.5z" />
<glyph unicode="&#xdb;" horiz-adv-x="1103" d="M92 457v686q0 70 44 115t116 45q70 0 118 -41t48 -119v-686q0 -33 12 -57.5t32.5 -41t43 -24.5t45.5 -8q20 0 45 8t44 24.5t32.5 41t13.5 57.5v686q0 78 48 119t118 41q72 0 116 -45.5t44 -114.5v-686q0 -82 -31 -164t-90.5 -146.5t-144 -105.5t-195.5 -41t-196 41 t-143 105.5t-89 146.5t-31 164zM170 1551q0 37 15.5 68.5t40.5 53.5l2 2l215 187q45 39 104 39q57 0 102 -39l216 -187q2 0 2 -2q25 -23 40 -54.5t15 -67.5q0 -68 -44 -112t-112 -44q-47 0 -83 24.5t-68 57.5l-70 67l-68 -67q-33 -33 -68.5 -57.5t-82.5 -24.5q-68 0 -112 44 t-44 112z" />
<glyph unicode="&#xdc;" horiz-adv-x="1103" d="M92 457v686q0 70 44 115t116 45q70 0 118 -41t48 -119v-686q0 -33 12 -57.5t32.5 -41t43 -24.5t45.5 -8q20 0 45 8t44 24.5t32.5 41t13.5 57.5v686q0 78 48 119t118 41q72 0 116 -45.5t44 -114.5v-686q0 -82 -31 -164t-90.5 -146.5t-144 -105.5t-195.5 -41t-196 41 t-143 105.5t-89 146.5t-31 164zM143 1565q0 76 53.5 129t128.5 53q76 0 129.5 -53.5t53.5 -128.5q0 -76 -53.5 -129.5t-129.5 -53.5t-129 53.5t-53 129.5zM602 1565q0 76 53 129t129 53t129 -53.5t53 -128.5q0 -76 -53 -129.5t-129 -53.5t-129 53.5t-53 129.5z" />
<glyph unicode="&#xdd;" horiz-adv-x="1087" d="M72 1143q0 39 19.5 74.5t55.5 60.5q41 29 93 29q39 0 73.5 -18.5t59.5 -53.5l166 -303l176 303q25 35 59.5 53.5t73.5 18.5q51 0 92 -29q37 -25 56.5 -60.5t19.5 -74.5q0 -43 -29 -88l-287 -447v-448q0 -70 -47 -115t-118 -45q-70 0 -115 45t-45 115v448l-275 447 q-29 45 -28 88zM383 1546q0 45 24 86l138 221q23 39 57.5 59.5t75.5 20.5t84 -24q41 -25 62.5 -62t21.5 -78q0 -47 -25 -86l-135 -221q-23 -37 -57.5 -56.5t-75.5 -19.5q-51 0 -92 27q-39 23 -58.5 57.5t-19.5 75.5z" />
<glyph unicode="&#xde;" horiz-adv-x="1136" d="M70 -211v1360q0 70 44 115t115 45q70 0 118 -41t48 -119v-215q78 35 174 37q98 0 187.5 -40t157 -107.5t107.5 -159t40 -191.5t-39 -189t-105.5 -157t-156.5 -106.5t-195 -38.5q-94 0 -170 30v-223q0 -70 -47 -115t-119 -45q-70 0 -114.5 45t-44.5 115zM397 475 q0 -70 49.5 -119t118.5 -49q72 0 121 49.5t49 118.5q0 72 -49 121t-121 49q-70 0 -119 -49t-49 -121z" />
<glyph unicode="&#xdf;" horiz-adv-x="1069" d="M88 160l8 714q0 106 40 191.5t108.5 144t160 90t193.5 33.5q78 -2 149.5 -26.5t126 -72.5t87 -115.5t32.5 -155.5q0 -96 -30.5 -154.5t-65.5 -93.5q-43 -39 -96 -58q53 -29 94 -71q35 -37 65.5 -93.5t30.5 -134.5q0 -74 -31.5 -140t-85 -117.5t-124 -81t-146.5 -31.5 q-66 0 -118 35.5t-52 101.5q0 102 35 138t100 36q14 0 31.5 5t33 16.5t27 30t11.5 46.5q0 49 -33 75t-70 28q-78 0 -105.5 45t-27.5 110q0 66 29 111t106 45q4 0 20.5 3t34 13.5t32 30t14.5 53.5q0 14 -6.5 33t-18.5 34t-31.5 25.5t-46.5 10.5q-53 0 -83.5 -16.5t-46 -39 t-20.5 -46t-5 -38.5l-6 -714q0 -66 -47.5 -113t-112.5 -47q-66 0 -113 47t-47 113z" />
<glyph unicode="&#xe0;" horiz-adv-x="1159" d="M84 494q0 102 38 191t104.5 155.5t157.5 106.5t198 44q98 0 187 -40t156.5 -107.5t107.5 -158.5t40 -191v-15.5t-1 -42.5t-1 -97v-179q0 -35 -16.5 -63.5t-42 -50t-59 -34t-68.5 -12.5q-37 0 -75 27.5t-44 60.5q-4 -8 -19.5 -22.5t-42 -28.5t-63.5 -24.5t-84 -10.5 q-102 0 -188 37t-149.5 102.5t-99.5 155.5t-36 197zM266 1454q0 41 21.5 78t62.5 62q43 25 84 24q41 0 76 -20.5t57 -59.5l137 -221q25 -41 25 -86q0 -41 -19.5 -76t-58.5 -57q-41 -27 -92 -27q-41 0 -76 19.5t-57 56.5l-135 221q-25 39 -25 86zM410 496q0 -70 49 -119 t119 -49q72 0 121 48t49 118q2 35 -12.5 66.5t-38 55t-55.5 37t-64 13.5q-70 0 -119 -49t-49 -121z" />
<glyph unicode="&#xe1;" horiz-adv-x="1159" d="M84 494q0 102 38 191t104.5 155.5t157.5 106.5t198 44q98 0 187 -40t156.5 -107.5t107.5 -158.5t40 -191v-15.5t-1 -42.5t-1 -97v-179q0 -35 -16.5 -63.5t-42 -50t-59 -34t-68.5 -12.5q-37 0 -75 27.5t-44 60.5q-4 -8 -19.5 -22.5t-42 -28.5t-63.5 -24.5t-84 -10.5 q-102 0 -188 37t-149.5 102.5t-99.5 155.5t-36 197zM410 496q0 -70 49 -119t119 -49q72 0 121 48t49 118q2 35 -12.5 66.5t-38 55t-55.5 37t-64 13.5q-70 0 -119 -49t-49 -121zM414 1231q0 45 24 86l138 221q23 39 57.5 59.5t75.5 20.5t84 -24q41 -25 62.5 -62t21.5 -78 q0 -47 -25 -86l-135 -221q-23 -37 -57.5 -56.5t-75.5 -19.5q-51 0 -92 27q-39 23 -58.5 57.5t-19.5 75.5z" />
<glyph unicode="&#xe2;" horiz-adv-x="1159" d="M84 498q0 102 38 191t104.5 155.5t157.5 106.5t198 44q98 0 187 -40t156.5 -107.5t107.5 -158.5t40 -191v-15.5t-1 -42.5t-1 -97v-179q0 -35 -16.5 -63.5t-42 -50t-59 -34t-68.5 -12.5q-37 0 -75 27.5t-44 60.5q-4 -8 -19.5 -22.5t-42 -28.5t-63.5 -24.5t-84 -10.5 q-102 0 -188 37t-149.5 102.5t-99.5 155.5t-36 197zM219 1217q0 37 15.5 68.5t40.5 53.5l2 2l215 187q45 39 104 39q57 0 102 -39l216 -187q2 0 2 -2q25 -23 40 -54.5t15 -67.5q0 -68 -44 -112t-112 -44q-47 0 -83 24.5t-68 57.5l-70 67l-68 -67q-33 -33 -68.5 -57.5 t-82.5 -24.5q-68 0 -112 44t-44 112zM410 500q0 -70 49 -119t119 -49q72 0 121 48t49 118q2 35 -12.5 66.5t-38 55t-55.5 37t-64 13.5q-70 0 -119 -49t-49 -121z" />
<glyph unicode="&#xe3;" horiz-adv-x="1159" d="M114 1216.5q-9 40.5 3 77.5q6 20 19.5 42t28.5 41.5t32.5 36t29.5 26.5q39 31 95.5 58.5t150.5 27.5q43 0 86 -24.5t84 -55.5t77 -55.5t64 -24.5q16 0 36 10.5t36 24.5t27.5 26.5t15.5 16.5q16 23 46 42t71 19q12 0 29.5 -5t36 -15t34 -26.5t23.5 -37.5q6 -16 8 -45.5 t-4 -54.5q-18 -59 -64.5 -104t-102.5 -77t-110.5 -48.5t-87.5 -16.5q-35 0 -68.5 15.5t-65.5 38t-62.5 45t-59 36t-55.5 13.5t-49 -23q-10 -6 -29.5 -23.5t-41 -37t-41 -35.5t-29.5 -18q-41 -8 -75 9t-56.5 49t-31.5 72.5zM133 494q0 102 38 191t104.5 155.5t157.5 106.5 t198 44q98 0 187 -40t156.5 -107.5t107.5 -158.5t40 -191v-15.5t-1 -42.5t-1 -97v-179q0 -35 -16.5 -63.5t-42 -50t-59 -34t-68.5 -12.5q-37 0 -75 27.5t-44 60.5q-4 -8 -19.5 -22.5t-42 -28.5t-63.5 -24.5t-84 -10.5q-102 0 -188 37t-149.5 102.5t-99.5 155.5t-36 197z M459 496q0 -70 49 -119t119 -49q72 0 121 48t49 118q2 35 -12.5 66.5t-38 55t-55.5 37t-64 13.5q-70 0 -119 -49t-49 -121z" />
<glyph unicode="&#xe4;" horiz-adv-x="1159" d="M84 494q0 102 38 191t104.5 155.5t157.5 106.5t198 44q98 0 187 -40t156.5 -107.5t107.5 -158.5t40 -191v-15.5t-1 -42.5t-1 -97v-179q0 -35 -16.5 -63.5t-42 -50t-59 -34t-68.5 -12.5q-37 0 -75 27.5t-44 60.5q-4 -8 -19.5 -22.5t-42 -28.5t-63.5 -24.5t-84 -10.5 q-102 0 -188 37t-149.5 102.5t-99.5 155.5t-36 197zM170 1315q0 76 53.5 129t128.5 53q76 0 129.5 -53.5t53.5 -128.5q0 -76 -53.5 -129.5t-129.5 -53.5t-129 53.5t-53 129.5zM410 496q0 -70 49 -119t119 -49q72 0 121 48t49 118q2 35 -12.5 66.5t-38 55t-55.5 37t-64 13.5 q-70 0 -119 -49t-49 -121zM629 1315q0 76 53 129t129 53t129 -53.5t53 -128.5q0 -76 -53 -129.5t-129 -53.5t-129 53.5t-53 129.5z" />
<glyph unicode="&#xe5;" horiz-adv-x="1159" d="M84 494q0 102 38 191t104.5 155.5t157.5 106.5t198 44q98 0 187 -40t156.5 -107.5t107.5 -158.5t40 -191v-15.5t-1 -42.5t-1 -97v-179q0 -35 -16.5 -63.5t-42 -50t-59 -34t-68.5 -12.5q-37 0 -75 27.5t-44 60.5q-4 -8 -19.5 -22.5t-42 -28.5t-63.5 -24.5t-84 -10.5 q-102 0 -188 37t-149.5 102.5t-99.5 155.5t-36 197zM387 1286q0 43 16.5 82t44 67.5t66.5 45t82 16.5t82 -16.5t67.5 -45t45 -67.5t16.5 -82t-16.5 -82t-45 -66.5t-67.5 -44t-82 -16.5q-88 0 -148.5 60.5t-60.5 148.5zM410 496q0 -70 49 -119t119 -49q72 0 121 48t49 118 q2 35 -12.5 66.5t-38 55t-55.5 37t-64 13.5q-70 0 -119 -49t-49 -121zM577 1286q0 -18 19 -18q18 0 18 18q0 19 -18 19t-19 -19z" />
<glyph unicode="&#xe6;" horiz-adv-x="1884" d="M84 494q0 102 38 191t104.5 155.5t157.5 106.5t198 44q98 0 187 -40t156.5 -107.5t107.5 -158.5t40 -191v-15.5t-1 -42.5t-1 -97v-179q0 -35 -16.5 -63.5t-42 -50t-59 -34t-68.5 -12.5q-37 0 -75 27.5t-44 60.5q-4 -8 -19.5 -22.5t-42 -28.5t-63.5 -24.5t-84 -10.5 q-102 0 -188 37t-149.5 102.5t-99.5 155.5t-36 197zM410 496q0 -70 49 -119t119 -49q72 0 121 48t49 118q2 35 -12.5 66.5t-38 55t-55.5 37t-64 13.5q-70 0 -119 -49t-49 -121zM813 494q0 102 38 191t104.5 155.5t157.5 106.5t198 44q94 0 181 -30.5t154.5 -92t108.5 -156 t43 -220.5q0 -53 -38 -91.5t-91 -38.5h-526q14 -31 40.5 -49t54 -26t50.5 -10.5t27 -2.5q16 0 39 2q18 2 41.5 5.5t52.5 11.5q29 6 62.5 28.5t62.5 22.5q55 0 89 -36t34 -91q0 -41 -23 -74q-31 -41 -73 -68.5t-90 -44t-100 -22.5t-104 -6q-102 0 -191 37t-156.5 102.5 t-106.5 155.5t-39 197zM1136 614h355q0 14 -14.5 33t-39 33t-57.5 24.5t-69 10.5q-82 0 -128.5 -35t-46.5 -66z" />
<glyph unicode="&#xe7;" horiz-adv-x="1048" d="M84 508q0 113 41 202t108.5 151.5t154.5 95t181 32.5q55 0 111.5 -11t107 -31.5t91.5 -52.5t65 -71q27 -41 27 -90q0 -72 -47 -119t-119 -47q-37 0 -63.5 17.5t-53.5 40.5q-20 16 -48 27.5t-71 11.5q-47 -2 -84 -21q-31 -16 -56.5 -47t-25.5 -88q0 -66 25 -101.5 t54.5 -53t56 -21.5t30.5 -4q43 0 62.5 9t52.5 32q29 23 56.5 39t64.5 16q72 0 119 -47t47 -119q0 -51 -27 -90q-25 -41 -65.5 -71.5t-91 -51t-106.5 -32t-112 -11.5q-94 0 -181 30.5t-154.5 94t-108.5 158t-41 223.5zM221 -162q-1 23 3 33q10 39 41.5 56.5t62.5 17.5 q41 0 62 -25q12 -16 22 -40.5t23.5 -49t33 -42t48.5 -17.5q4 0 11 5t5 17q-4 23 -18.5 37t-32 32.5t-30.5 48.5t-13 81v82h243v-82q41 -12 63.5 -31.5t32 -45t10.5 -54.5t1 -58q0 -31 -10.5 -76.5t-40 -87.5t-80.5 -73t-131 -31t-136.5 22.5t-92 59.5t-53 84t-21.5 96 q-2 18 -3 41z" />
<glyph unicode="&#xe8;" horiz-adv-x="1144" d="M80 494q0 102 38 191t104.5 155.5t157.5 106.5t198 44q94 0 181 -30.5t154.5 -92t108.5 -156t43 -220.5q0 -53 -38 -91.5t-91 -38.5h-526q14 -31 40.5 -49t54 -26t50.5 -10.5t27 -2.5q16 0 39 2q18 2 41.5 5.5t52.5 11.5q29 6 62.5 28.5t62.5 22.5q55 0 89 -36t34 -91 q0 -41 -23 -74q-31 -41 -73 -68.5t-90 -44t-100 -22.5t-104 -6q-102 0 -191 37t-156.5 102.5t-106.5 155.5t-39 197zM260 1452q0 41 21.5 78t62.5 62q43 25 84 24q41 0 76 -20.5t57 -59.5l137 -221q25 -41 25 -86q0 -41 -19.5 -76t-58.5 -57q-41 -27 -92 -27q-41 0 -76 19.5 t-57 56.5l-135 221q-25 39 -25 86zM403 614h355q0 14 -14.5 33t-39 33t-57.5 24.5t-69 10.5q-82 0 -128.5 -35t-46.5 -66z" />
<glyph unicode="&#xe9;" horiz-adv-x="1144" d="M80 494q0 102 38 191t104.5 155.5t157.5 106.5t198 44q94 0 181 -30.5t154.5 -92t108.5 -156t43 -220.5q0 -53 -38 -91.5t-91 -38.5h-526q14 -31 40.5 -49t54 -26t50.5 -10.5t27 -2.5q16 0 39 2q18 2 41.5 5.5t52.5 11.5q29 6 62.5 28.5t62.5 22.5q55 0 89 -36t34 -91 q0 -41 -23 -74q-31 -41 -73 -68.5t-90 -44t-100 -22.5t-104 -6q-102 0 -191 37t-156.5 102.5t-106.5 155.5t-39 197zM367 1231q0 45 24 86l138 221q23 39 57.5 59.5t75.5 20.5t84 -24q41 -25 62.5 -62t21.5 -78q0 -47 -25 -86l-135 -221q-23 -37 -57.5 -56.5t-75.5 -19.5 q-51 0 -92 27q-39 23 -58.5 57.5t-19.5 75.5zM403 614h355q0 14 -14.5 33t-39 33t-57.5 24.5t-69 10.5q-82 0 -128.5 -35t-46.5 -66z" />
<glyph unicode="&#xea;" horiz-adv-x="1144" d="M80 494q0 102 38 191t104.5 155.5t157.5 106.5t198 44q94 0 181 -30.5t154.5 -92t108.5 -156t43 -220.5q0 -53 -38 -91.5t-91 -38.5h-526q14 -31 40.5 -49t54 -26t50.5 -10.5t27 -2.5q16 0 39 2q18 2 41.5 5.5t52.5 11.5q29 6 62.5 28.5t62.5 22.5q55 0 89 -36t34 -91 q0 -41 -23 -74q-31 -41 -73 -68.5t-90 -44t-100 -22.5t-104 -6q-102 0 -191 37t-156.5 102.5t-106.5 155.5t-39 197zM202 1225q0 37 15.5 68.5t40.5 53.5l2 2l215 187q45 39 104 39q57 0 102 -39l216 -187q2 0 2 -2q25 -23 40 -54.5t15 -67.5q0 -68 -44 -112t-112 -44 q-47 0 -83 24.5t-68 57.5l-70 67l-68 -67q-33 -33 -68.5 -57.5t-82.5 -24.5q-68 0 -112 44t-44 112zM403 614h355q0 14 -14.5 33t-39 33t-57.5 24.5t-69 10.5q-82 0 -128.5 -35t-46.5 -66z" />
<glyph unicode="&#xeb;" horiz-adv-x="1144" d="M80 494q0 102 38 191t104.5 155.5t157.5 106.5t198 44q94 0 181 -30.5t154.5 -92t108.5 -156t43 -220.5q0 -53 -38 -91.5t-91 -38.5h-526q14 -31 40.5 -49t54 -26t50.5 -10.5t27 -2.5q16 0 39 2q18 2 41.5 5.5t52.5 11.5q29 6 62.5 28.5t62.5 22.5q55 0 89 -36t34 -91 q0 -41 -23 -74q-31 -41 -73 -68.5t-90 -44t-100 -22.5t-104 -6q-102 0 -191 37t-156.5 102.5t-106.5 155.5t-39 197zM160 1319q0 76 53.5 129t128.5 53q76 0 129.5 -53.5t53.5 -128.5q0 -76 -53.5 -129.5t-129.5 -53.5t-129 53.5t-53 129.5zM403 614h355q0 14 -14.5 33 t-39 33t-57.5 24.5t-69 10.5q-82 0 -128.5 -35t-46.5 -66zM619 1319q0 76 53 129t129 53t129 -53.5t53 -128.5q0 -76 -53 -129.5t-129 -53.5t-129 53.5t-53 129.5z" />
<glyph unicode="&#xec;" horiz-adv-x="462" d="M-78 1450q0 41 21.5 78t62.5 62q43 25 84 24q41 0 76 -20.5t57 -59.5l137 -221q25 -41 25 -86q0 -41 -19.5 -76t-58.5 -57q-41 -27 -92 -27q-41 0 -76 19.5t-57 56.5l-135 221q-25 39 -25 86zM70 160v676q0 70 43 114.5t114 44.5q74 0 121 -45t47 -114v-676 q0 -70 -47 -115t-119 -45q-70 0 -114.5 45t-44.5 115z" />
<glyph unicode="&#xed;" horiz-adv-x="491" d="M76 160v676q0 70 43 114.5t114 44.5q74 0 121 -45t47 -114v-676q0 -70 -47 -115t-119 -45q-70 0 -114.5 45t-44.5 115zM109 1208q0 45 24 86l138 221q23 39 57.5 59.5t75.5 20.5t84 -24q41 -25 62.5 -62t21.5 -78q0 -47 -25 -86l-135 -221q-23 -37 -57.5 -56.5 t-75.5 -19.5q-51 0 -92 27q-39 23 -58.5 57.5t-19.5 75.5z" />
<glyph unicode="&#xee;" horiz-adv-x="514" d="M-82 1235q0 37 15.5 68.5t40.5 53.5l2 2l215 187q45 39 104 39q57 0 102 -39l216 -187q2 0 2 -2q25 -23 40 -54.5t15 -67.5q0 -68 -44 -112t-112 -44q-47 0 -83 24.5t-68 57.5l-70 67l-68 -67q-33 -33 -68.5 -57.5t-82.5 -24.5q-68 0 -112 44t-44 112zM103 160v676 q0 70 43 114.5t114 44.5q74 0 121 -45t47 -114v-676q0 -70 -47 -115t-119 -45q-70 0 -114.5 45t-44.5 115z" />
<glyph unicode="&#xef;" horiz-adv-x="653" d="M-84 1311q0 76 53.5 129t128.5 53q76 0 129.5 -53.5t53.5 -128.5q0 -76 -53.5 -129.5t-129.5 -53.5t-129 53.5t-53 129.5zM146 160v676q0 70 43 114.5t114 44.5q74 0 121 -45t47 -114v-676q0 -70 -47 -115t-119 -45q-70 0 -114.5 45t-44.5 115zM375 1311q0 76 53 129 t129 53t129 -53.5t53 -128.5q0 -76 -53 -129.5t-129 -53.5t-129 53.5t-53 129.5z" />
<glyph unicode="&#xf1;" horiz-adv-x="966" d="M-9 1210.5q-9 40.5 3 77.5q6 20 19.5 42t28.5 41.5t32.5 36t29.5 26.5q39 31 95.5 58.5t150.5 27.5q43 0 86 -24.5t84 -55.5t77 -55.5t64 -24.5q16 0 36 10.5t36 24.5t27.5 26.5t15.5 16.5q16 23 46 42t71 19q12 0 29.5 -5t36 -15t34 -26.5t23.5 -37.5q6 -16 8 -45.5 t-4 -54.5q-18 -59 -64.5 -104t-102.5 -77t-110.5 -48.5t-87.5 -16.5q-35 0 -68.5 15.5t-65.5 38t-62.5 45t-59 36t-55.5 13.5t-49 -23q-10 -6 -29.5 -23.5t-41 -37t-41 -35.5t-29.5 -18q-41 -8 -75 9t-56.5 49t-31.5 72.5zM104 160v676q0 70 37 114.5t109 44.5q29 0 48 -11 t31 -26q14 -16 25 -34q18 18 41 34q20 12 51 23.5t74 11.5q98 0 163.5 -26.5t105.5 -83t57.5 -142.5t17.5 -202v-379q0 -70 -44 -115t-116 -45q-70 0 -118 41t-48 119v379q0 66 -5 95.5t-40 31.5q-47 2 -54 -33t-9 -94v-379q0 -70 -44 -115t-116 -45q-70 0 -118 41t-48 119z " />
<glyph unicode="&#xf2;" horiz-adv-x="1148" d="M80 494q0 102 38 191t104.5 155.5t158 106.5t197.5 44q98 0 187 -40t156.5 -107.5t107.5 -158.5t40 -191t-39 -189.5t-105.5 -157t-156.5 -106.5t-195 -39q-102 0 -191 37t-156.5 102.5t-106.5 155.5t-39 197zM254 1458q0 41 21.5 78t62.5 62q43 25 84 24q41 0 76 -20.5 t57 -59.5l137 -221q25 -41 25 -86q0 -41 -19.5 -76t-58.5 -57q-41 -27 -92 -27q-41 0 -76 19.5t-57 56.5l-135 221q-25 39 -25 86zM406 496q0 -70 49 -119t118 -49q72 0 121 49t49 119q0 72 -49 121t-121 49q-70 0 -118.5 -49t-48.5 -121z" />
<glyph unicode="&#xf3;" horiz-adv-x="1148" d="M80 494q0 102 38 191t104.5 155.5t158 106.5t197.5 44q98 0 187 -40t156.5 -107.5t107.5 -158.5t40 -191t-39 -189.5t-105.5 -157t-156.5 -106.5t-195 -39q-102 0 -191 37t-156.5 102.5t-106.5 155.5t-39 197zM406 496q0 -70 49 -119t118 -49q72 0 121 49t49 119 q0 72 -49 121t-121 49q-70 0 -118.5 -49t-48.5 -121zM416 1235q0 45 24 86l138 221q23 39 57.5 59.5t75.5 20.5t84 -24q41 -25 62.5 -62t21.5 -78q0 -47 -25 -86l-135 -221q-23 -37 -57.5 -56.5t-75.5 -19.5q-51 0 -92 27q-39 23 -58.5 57.5t-19.5 75.5z" />
<glyph unicode="&#xf4;" horiz-adv-x="1148" d="M80 494q0 102 38 191t104.5 155.5t158 106.5t197.5 44q98 0 187 -40t156.5 -107.5t107.5 -158.5t40 -191t-39 -189.5t-105.5 -157t-156.5 -106.5t-195 -39q-102 0 -191 37t-156.5 102.5t-106.5 155.5t-39 197zM213 1231q0 37 15.5 68.5t40.5 53.5l2 2l215 187 q45 39 104 39q57 0 102 -39l216 -187q2 0 2 -2q25 -23 40 -54.5t15 -67.5q0 -68 -44 -112t-112 -44q-47 0 -83 24.5t-68 57.5l-70 67l-68 -67q-33 -33 -68.5 -57.5t-82.5 -24.5q-68 0 -112 44t-44 112zM406 496q0 -70 49 -119t118 -49q72 0 121 49t49 119q0 72 -49 121 t-121 49q-70 0 -118.5 -49t-48.5 -121z" />
<glyph unicode="&#xf5;" horiz-adv-x="1148" d="M105 494q0 102 38 191t104.5 155.5t158 106.5t197.5 44q98 0 187 -40t156.5 -107.5t107.5 -158.5t40 -191t-39 -189.5t-105.5 -157t-156.5 -106.5t-195 -39q-102 0 -191 37t-156.5 102.5t-106.5 155.5t-39 197zM110 1216.5q-9 40.5 3 77.5q6 20 19.5 42t28.5 41.5 t32.5 36t29.5 26.5q39 31 95.5 58.5t150.5 27.5q43 0 86 -24.5t84 -55.5t77 -55.5t64 -24.5q16 0 36 10.5t36 24.5t27.5 26.5t15.5 16.5q16 23 46 42t71 19q12 0 29.5 -5t36 -15t34 -26.5t23.5 -37.5q6 -16 8 -45.5t-4 -54.5q-18 -59 -64.5 -104t-102.5 -77t-110.5 -48.5 t-87.5 -16.5q-35 0 -68.5 15.5t-65.5 38t-62.5 45t-59 36t-55.5 13.5t-49 -23q-10 -6 -29.5 -23.5t-41 -37t-41 -35.5t-29.5 -18q-41 -8 -75 9t-56.5 49t-31.5 72.5zM431 496q0 -70 49 -119t118 -49q72 0 121 49t49 119q0 72 -49 121t-121 49q-70 0 -118.5 -49t-48.5 -121z " />
<glyph unicode="&#xf6;" horiz-adv-x="1148" d="M80 494q0 102 38 191t104.5 155.5t158 106.5t197.5 44q98 0 187 -40t156.5 -107.5t107.5 -158.5t40 -191t-39 -189.5t-105.5 -157t-156.5 -106.5t-195 -39q-102 0 -191 37t-156.5 102.5t-106.5 155.5t-39 197zM172 1313q0 76 53.5 129t128.5 53q76 0 129.5 -53.5 t53.5 -128.5q0 -76 -53.5 -129.5t-129.5 -53.5t-129 53.5t-53 129.5zM406 496q0 -70 49 -119t118 -49q72 0 121 49t49 119q0 72 -49 121t-121 49q-70 0 -118.5 -49t-48.5 -121zM631 1313q0 76 53 129t129 53t129 -53.5t53 -128.5q0 -76 -53 -129.5t-129 -53.5t-129 53.5 t-53 129.5z" />
<glyph unicode="&#xf7;" horiz-adv-x="892" d="M47 641q0 70 45 115t115 45h495q70 0 109 -48t39 -112q0 -70 -45 -118t-115 -48h-483q-70 0 -115 47t-45 119zM254 270q0 76 53 129.5t129 53.5t129 -53.5t53 -129.5t-53 -129t-129 -53t-129 53t-53 129zM254 1008q0 76 53 129t129 53t129 -53.5t53 -128.5 q0 -76 -53 -129.5t-129 -53.5t-129 53.5t-53 129.5z" />
<glyph unicode="&#xf8;" horiz-adv-x="1148" d="M80 494q0 102 38 191t104.5 155.5t158 106.5t197.5 44q98 0 187 -40t156.5 -107.5t107.5 -158.5t40 -191t-39 -189.5t-105.5 -157t-156.5 -106.5t-195 -39q-102 0 -191 37t-156.5 102.5t-106.5 155.5t-39 197zM264 49l328 1040q20 66 79.5 95.5t124.5 9.5 q66 -23 96.5 -79t10.5 -122l-328 -1040q-23 -66 -81 -95.5t-126 -7.5q-66 20 -95.5 76.5t-8.5 122.5zM406 496q0 -70 49 -119t118 -49q72 0 121 49t49 119q0 72 -49 121t-121 49q-70 0 -118.5 -49t-48.5 -121z" />
<glyph unicode="&#xf9;" horiz-adv-x="952" d="M96 457v379q0 70 44 114.5t116 44.5q70 0 118 -41t48 -118v-379q0 -66 5 -95.5t40 -31.5q47 -2 54 32.5t9 94.5v379q0 70 44 114.5t116 44.5q70 0 118 -41t48 -118v-676q0 -70 -35 -115t-82 -45t-72.5 10t-39.5 25q-16 16 -21 37q-18 -20 -41 -35q-20 -14 -52 -24.5 t-73 -10.5q-176 0 -260 109.5t-84 345.5zM164 1458q0 41 21.5 78t62.5 62q43 25 84 24q41 0 76 -20.5t57 -59.5l137 -221q25 -41 25 -86q0 -41 -19.5 -76t-58.5 -57q-41 -27 -92 -27q-41 0 -76 19.5t-57 56.5l-135 221q-25 39 -25 86z" />
<glyph unicode="&#xfa;" horiz-adv-x="952" d="M96 457v379q0 70 44 114.5t116 44.5q70 0 118 -41t48 -118v-379q0 -66 5 -95.5t40 -31.5q47 -2 54 32.5t9 94.5v379q0 70 44 114.5t116 44.5q70 0 118 -41t48 -118v-676q0 -70 -35 -115t-82 -45t-72.5 10t-39.5 25q-16 16 -21 37q-18 -20 -41 -35q-20 -14 -52 -24.5 t-73 -10.5q-176 0 -260 109.5t-84 345.5zM293 1231q0 45 24 86l138 221q23 39 57.5 59.5t75.5 20.5t84 -24q41 -25 62.5 -62t21.5 -78q0 -47 -25 -86l-135 -221q-23 -37 -57.5 -56.5t-75.5 -19.5q-51 0 -92 27q-39 23 -58.5 57.5t-19.5 75.5z" />
<glyph unicode="&#xfb;" horiz-adv-x="952" d="M96 457v379q0 70 44 114.5t116 44.5q70 0 118 -41t48 -118v-379q0 -66 5 -95.5t40 -31.5q47 -2 54 32.5t9 94.5v379q0 70 44 114.5t116 44.5q70 0 118 -41t48 -118v-676q0 -70 -35 -115t-82 -45t-72.5 10t-39.5 25q-16 16 -21 37q-18 -20 -41 -35q-20 -14 -52 -24.5 t-73 -10.5q-176 0 -260 109.5t-84 345.5zM98 1231q0 37 15.5 68.5t40.5 53.5l2 2l215 187q45 39 104 39q57 0 102 -39l216 -187q2 0 2 -2q25 -23 40 -54.5t15 -67.5q0 -68 -44 -112t-112 -44q-47 0 -83 24.5t-68 57.5l-70 67l-68 -67q-33 -33 -68.5 -57.5t-82.5 -24.5 q-68 0 -112 44t-44 112z" />
<glyph unicode="&#xfc;" horiz-adv-x="997" d="M96 1311q0 76 53.5 129t128.5 53q76 0 129.5 -53.5t53.5 -128.5q0 -76 -53.5 -129.5t-129.5 -53.5t-129 53.5t-53 129.5zM129 457v379q0 70 44 114.5t116 44.5q70 0 118 -41t48 -118v-379q0 -66 5 -95.5t40 -31.5q47 -2 54 32.5t9 94.5v379q0 70 44 114.5t116 44.5 q70 0 118 -41t48 -118v-676q0 -70 -35 -115t-82 -45t-72.5 10t-39.5 25q-16 16 -21 37q-18 -20 -41 -35q-20 -14 -52 -24.5t-73 -10.5q-176 0 -260 109.5t-84 345.5zM555 1311q0 76 53 129t129 53t129 -53.5t53 -128.5q0 -76 -53 -129.5t-129 -53.5t-129 53.5t-53 129.5z " />
<glyph unicode="&#xfd;" horiz-adv-x="999" d="M68 836q0 51 28.5 89t81.5 56q35 10 60 10q47 0 85.5 -26.5t61.5 -79.5l129 -344l98 344q18 51 57.5 79.5t88.5 28.5q23 0 57 -10q53 -18 84 -56t31 -91q0 -25 -10 -60l-336 -1042q-18 -49 -58.5 -77t-89.5 -28q-16 0 -30.5 2t-30.5 9q-51 18 -80 57t-29 88q0 27 10 57 l86 269l-284 665q-10 35 -10 60zM332 1243q0 45 24 86l138 221q23 39 57.5 59.5t75.5 20.5t84 -24q41 -25 62.5 -62t21.5 -78q0 -47 -25 -86l-135 -221q-23 -37 -57.5 -56.5t-75.5 -19.5q-51 0 -92 27q-39 23 -58.5 57.5t-19.5 75.5z" />
<glyph unicode="&#xfe;" horiz-adv-x="1142" d="M76 -162v1311q0 70 44 115t116 45q70 0 117.5 -41t47.5 -119v-215q78 35 174 37q98 0 187.5 -40t157 -107.5t107.5 -159t40 -191.5t-39 -189t-105.5 -157t-156.5 -106.5t-195 -38.5q-94 0 -170 30v-174q0 -70 -47 -115t-118 -45q-70 0 -115 45.5t-45 114.5zM403 475 q0 -70 49.5 -119t118.5 -49q72 0 121 49.5t49 118.5q0 72 -49 121t-121 49q-70 0 -119 -49t-49 -121z" />
<glyph unicode="&#xff;" horiz-adv-x="999" d="M68 836q0 51 28.5 89t81.5 56q35 10 60 10q47 0 85.5 -26.5t61.5 -79.5l129 -344l98 344q18 51 57.5 79.5t88.5 28.5q23 0 57 -10q53 -18 84 -56t31 -91q0 -25 -10 -60l-336 -1042q-18 -49 -58.5 -77t-89.5 -28q-16 0 -30.5 2t-30.5 9q-51 18 -80 57t-29 88q0 27 10 57 l86 269l-284 665q-10 35 -10 60zM86 1309q0 76 53.5 129t128.5 53q76 0 129.5 -53.5t53.5 -128.5q0 -76 -53.5 -129.5t-129.5 -53.5t-129 53.5t-53 129.5zM545 1309q0 76 53 129t129 53t129 -53.5t53 -128.5q0 -76 -53 -129.5t-129 -53.5t-129 53.5t-53 129.5z" />
<glyph unicode="&#x152;" horiz-adv-x="1892" d="M80 651q0 135 51 254t139 208t207 140.5t254 51.5t254 -51.5t208 -140.5t140 -208t51 -254t-51 -253.5t-140 -207t-208 -139.5t-254 -51t-254 51t-207 139.5t-139 207t-51 253.5zM406 649q0 -68 25.5 -127t70.5 -104t104.5 -70.5t126.5 -25.5q68 0 127.5 25.5t104.5 70.5 t70.5 104.5t25.5 126.5q0 68 -25.5 127.5t-70.5 104.5t-104.5 70.5t-127.5 25.5t-127 -25.5t-104 -70.5t-70.5 -104.5t-25.5 -127.5zM1055 160v506v12v469q0 51 18.5 82t43 48t52 23.5t46.5 6.5h440q70 0 115 -47.5t45 -118.5q0 -70 -45.5 -115t-114.5 -45h-275v-156h91 q70 0 114.5 -47t44.5 -119q0 -70 -45 -114.5t-114 -44.5h-91v-174h273q70 0 115 -47.5t45 -118.5q0 -70 -45.5 -115t-114.5 -45h-447q-66 0 -108.5 46t-42.5 114z" />
<glyph unicode="&#x153;" horiz-adv-x="1828" d="M80 494q0 102 38 191t104.5 155.5t158 106.5t197.5 44q98 0 187 -40t156.5 -107.5t107.5 -158.5t40 -191t-39 -189.5t-105.5 -157t-156.5 -106.5t-195 -39q-102 0 -191 37t-156.5 102.5t-106.5 155.5t-39 197zM406 496q0 -70 49 -119t118 -49q72 0 121 49t49 119 q0 72 -49 121t-121 49q-70 0 -118.5 -49t-48.5 -121zM764 494q0 102 38 191t104.5 155.5t157.5 106.5t198 44q94 0 181 -30.5t154.5 -92t108.5 -156t43 -220.5q0 -53 -38 -91.5t-91 -38.5h-526q14 -31 40.5 -49t54 -26t50.5 -10.5t27 -2.5q16 0 39 2q18 2 41.5 5.5 t52.5 11.5q29 6 62.5 28.5t62.5 22.5q55 0 89 -36t34 -91q0 -41 -23 -74q-31 -41 -73 -68.5t-90 -44t-100 -22.5t-104 -6q-102 0 -191 37t-156.5 102.5t-106.5 155.5t-39 197zM1087 614h355q0 14 -14.5 33t-39 33t-57.5 24.5t-69 10.5q-82 0 -128.5 -35t-46.5 -66z" />
<glyph unicode="&#x178;" horiz-adv-x="1087" d="M72 1143q0 39 19.5 74.5t55.5 60.5q41 29 93 29q39 0 73.5 -18.5t59.5 -53.5l166 -303l176 303q25 35 59.5 53.5t73.5 18.5q51 0 92 -29q37 -25 56.5 -60.5t19.5 -74.5q0 -43 -29 -88l-287 -447v-448q0 -70 -47 -115t-118 -45q-70 0 -115 45t-45 115v448l-275 447 q-29 45 -28 88zM117 1571q0 76 53.5 129t128.5 53q76 0 129.5 -53.5t53.5 -128.5q0 -76 -53.5 -129.5t-129.5 -53.5t-129 53.5t-53 129.5zM576 1571q0 76 53 129t129 53t129 -53.5t53 -128.5q0 -76 -53 -129.5t-129 -53.5t-129 53.5t-53 129.5z" />
<glyph unicode="&#x2c6;" horiz-adv-x="886" d="M96 1432q0 37 15.5 68.5t40.5 53.5l2 2l215 187q45 39 104 39q57 0 102 -39l216 -187q2 0 2 -2q25 -23 40 -54.5t15 -67.5q0 -68 -44 -112t-112 -44q-47 0 -83 24.5t-68 57.5l-70 67l-68 -67q-33 -33 -68.5 -57.5t-82.5 -24.5q-68 0 -112 44t-44 112z" />
<glyph unicode="&#x2dc;" horiz-adv-x="995" d="M116 1091.5q-9 40.5 3 77.5q6 20 19.5 42t28.5 41.5t32.5 36t29.5 26.5q39 31 95.5 58.5t150.5 27.5q43 0 86 -24.5t84 -55.5t77 -55.5t64 -24.5q16 0 36 10.5t36 24.5t27.5 26.5t15.5 16.5q16 23 46 42t71 19q12 0 29.5 -5t36 -15t34 -26.5t23.5 -37.5q6 -16 8 -45.5 t-4 -54.5q-18 -59 -64.5 -104t-102.5 -77t-110.5 -48.5t-87.5 -16.5q-35 0 -68.5 15.5t-65.5 38t-62.5 45t-59 36t-55.5 13.5t-49 -23q-10 -6 -29.5 -23.5t-41 -37t-41 -35.5t-29.5 -18q-41 -8 -75 9t-56.5 49t-31.5 72.5z" />
<glyph unicode="&#x2000;" horiz-adv-x="978" />
<glyph unicode="&#x2001;" horiz-adv-x="1956" />
<glyph unicode="&#x2002;" horiz-adv-x="978" />
<glyph unicode="&#x2003;" horiz-adv-x="1956" />
<glyph unicode="&#x2004;" horiz-adv-x="652" />
<glyph unicode="&#x2005;" horiz-adv-x="489" />
<glyph unicode="&#x2006;" horiz-adv-x="326" />
<glyph unicode="&#x2007;" horiz-adv-x="326" />
<glyph unicode="&#x2008;" horiz-adv-x="244" />
<glyph unicode="&#x2009;" horiz-adv-x="391" />
<glyph unicode="&#x200a;" horiz-adv-x="108" />
<glyph unicode="&#x2010;" horiz-adv-x="950" d="M96 635q0 70 45 115t115 45h438q70 0 115 -48.5t45 -111.5q0 -70 -45 -118t-115 -48h-438q-70 0 -115 47t-45 119z" />
<glyph unicode="&#x2011;" horiz-adv-x="950" d="M96 635q0 70 45 115t115 45h438q70 0 115 -48.5t45 -111.5q0 -70 -45 -118t-115 -48h-438q-70 0 -115 47t-45 119z" />
<glyph unicode="&#x2012;" horiz-adv-x="950" d="M96 635q0 70 45 115t115 45h438q70 0 115 -48.5t45 -111.5q0 -70 -45 -118t-115 -48h-438q-70 0 -115 47t-45 119z" />
<glyph unicode="&#x2013;" horiz-adv-x="950" d="M96 637q0 70 45 115t115 45h440q70 0 115 -48.5t45 -111.5q0 -70 -45 -118t-115 -48h-440q-70 0 -115 47t-45 119z" />
<glyph unicode="&#x2014;" horiz-adv-x="1144" d="M96 635q0 70 45 115t115 45h637q70 0 115 -48.5t45 -111.5q0 -70 -45 -118t-115 -48h-637q-70 0 -115 47t-45 119z" />
<glyph unicode="&#x2018;" horiz-adv-x="647" d="M86 1188q0 41 21.5 78t62.5 61q43 25 84 25t76 -20.5t57 -59.5l137 -221q25 -41 25 -86q0 -41 -19.5 -76t-58.5 -58q-41 -27 -92 -26q-41 0 -76 19.5t-57 56.5l-135 221q-25 39 -25 86z" />
<glyph unicode="&#x2019;" horiz-adv-x="643" d="M84 967q0 45 25 86l137 221q23 39 57.5 59.5t75.5 20.5t84 -25q41 -25 62.5 -61.5t21.5 -77.5q0 -47 -25 -86l-135 -221q-23 -37 -57.5 -56.5t-75.5 -19.5q-51 0 -92 27q-39 23 -58.5 57.5t-19.5 75.5z" />
<glyph unicode="&#x201a;" horiz-adv-x="479" d="M92 -262q0 6 2 30.5t5 76t10 141.5q4 53 41.5 89t91.5 36q55 0 94 -39t39 -95q0 -10 -3 -22t-15.5 -41t-37 -78t-67.5 -133q-27 -55 -78 -55q-35 0 -58.5 23.5t-23.5 58.5v8z" />
<glyph unicode="&#x201c;" horiz-adv-x="1122" d="M104 977q0 45 25 86l137 221q23 39 57.5 59.5t75.5 20.5t84 -25q41 -25 62.5 -61.5t21.5 -77.5q0 -47 -24 -86l-135 -221q-23 -37 -58 -56.5t-76 -19.5q-51 0 -92 27q-39 23 -58.5 57.5t-19.5 75.5zM557 967q0 45 27 86l135 221q51 80 133 80q43 0 86 -25 q41 -25 62.5 -61.5t21.5 -77.5q0 -47 -25 -86l-135 -221q-23 -37 -58.5 -56.5t-76.5 -19.5q-49 0 -90 27q-39 23 -59.5 57.5t-20.5 75.5z" />
<glyph unicode="&#x201d;" horiz-adv-x="1126" d="M104 1190q0 41 21.5 78t62.5 61q43 25 86 25q82 0 134 -80l135 -221q27 -41 26 -86q0 -41 -20.5 -76t-59.5 -57q-41 -27 -90 -27q-41 0 -76.5 19.5t-58.5 56.5l-135 221q-25 39 -25 86zM559 1200q0 41 21.5 78t62.5 61q43 25 84 25t76 -20.5t57 -59.5l137 -221 q25 -41 25 -86q0 -41 -19.5 -76t-58.5 -57q-41 -27 -92 -27q-41 0 -76 19.5t-57 56.5l-135 221q-25 39 -25 86z" />
<glyph unicode="&#x201e;" horiz-adv-x="821" d="M82 -307q0 6 2 30.5t5 75.5t9 142q4 53 42 89t91 36q55 0 94.5 -39t39.5 -95q0 -10 -3.5 -22t-15.5 -41t-36.5 -78t-67.5 -133q-27 -55 -78 -55q-35 0 -58.5 23.5t-23.5 58.5v8zM449 -305q0 6 2 30.5t5 76t9 141.5q4 53 42 89t91 36q55 0 94 -39t39 -95q0 -10 -3 -22 t-15.5 -41t-37 -78t-67.5 -133q-27 -55 -78 -55q-35 0 -58 23.5t-23 58.5v8z" />
<glyph unicode="&#x2022;" horiz-adv-x="624" d="M80 496q0 47 18.5 89t49 72.5t72.5 49t89 18.5t89 -18.5t73 -49t49.5 -72.5t18.5 -89t-18.5 -89t-49.5 -73t-73 -49.5t-89 -18.5t-89 18.5t-72.5 49.5t-49 73t-18.5 89z" />
<glyph unicode="&#x2026;" horiz-adv-x="1386" d="M94 182q0 76 53.5 129.5t128.5 53.5q76 0 129.5 -53.5t53.5 -129.5t-53.5 -129t-129.5 -53t-129 53t-53 129zM520 182q0 76 53.5 129.5t128.5 53.5q76 0 129.5 -53.5t53.5 -129.5t-53.5 -129t-129.5 -53t-129 53t-53 129zM938 182q0 76 53 129.5t129 53.5t129.5 -53.5 t53.5 -129.5t-53.5 -129t-129.5 -53t-129 53t-53 129z" />
<glyph unicode="&#x202f;" horiz-adv-x="391" />
<glyph unicode="&#x2039;" horiz-adv-x="782" d="M72 485q0 57 39 103l295 323q0 2 2 2q23 25 54.5 40.5t67.5 15.5q68 0 112 -44t44 -112q0 -47 -24.5 -83t-57.5 -68l-176 -179l178 -178q33 -33 57.5 -68.5t24.5 -82.5q0 -68 -44 -112t-112 -44q-37 0 -68.5 15.5t-53.5 39.5q-2 0 -80 83t-219 245q-39 45 -39 104z" />
<glyph unicode="&#x203a;" horiz-adv-x="772" d="M72 154q0 47 24.5 82.5t57.5 68.5l178 178l-176 179q-33 33 -57.5 68.5t-24.5 82.5q0 68 44 112t111 44q37 0 69 -15.5t54 -40.5l2 -2l295 -323q39 -46 39 -103q0 -59 -39 -104q-141 -162 -219 -245t-80 -83q-23 -25 -54.5 -40t-68.5 -15q-68 0 -111.5 44t-43.5 112z" />
<glyph unicode="&#x205f;" horiz-adv-x="489" />
<glyph unicode="&#x20ac;" horiz-adv-x="1157" d="M78 504q0 45 29.5 74.5t74.5 29.5h41v64h-41q-45 0 -74.5 30.5t-29.5 75.5t29.5 75t74.5 30h41q8 100 48 181t103.5 138.5t146.5 89t177 31.5q123 0 228.5 -52t167.5 -153q33 -43 32 -98q0 -68 -45 -110t-112 -42q-35 0 -58.5 20.5t-48.5 47.5q-16 14 -53 41t-111 27 q-8 0 -29.5 -2.5t-46 -13.5t-47 -35.5t-28.5 -69.5h151q45 0 75 -32t30 -73q0 -43 -30 -74.5t-75 -31.5h-151v-64h151q45 0 75 -31.5t30 -72.5q0 -43 -30 -75t-75 -32h-149q8 -45 28.5 -68.5t44 -34.5t46 -13t34.5 -2q57 0 108.5 22.5t74.5 48.5q25 27 49 44.5t59 17.5 q68 0 100.5 -37t32.5 -105q0 -55 -32 -98q-66 -94 -169.5 -144.5t-226.5 -50.5q-92 0 -175 32t-145.5 88.5t-103.5 133t-49 166.5h-43q-45 0 -74.5 31t-29.5 76z" />
<glyph unicode="&#x2122;" horiz-adv-x="2234" d="M90 1151q0 70 45 115t115 45h518q70 0 115 -47t45 -119q0 -70 -45 -115t-115 -45h-96v-268q0 -70 -47 -115t-119 -45q-70 0 -115 45t-45 115v268h-96q-70 0 -115 47t-45 119zM911 713v147q0 219 100.5 336t288.5 117q141 0 226 -47q90 47 231 47q203 0 290 -118t87 -337 v-145q0 -78 -48 -119t-118 -41q-72 0 -116 45t-44 115v178q-2 59 -11 94t-48 35q-41 0 -52 -36t-14 -93v-178q0 -45 -13 -75t-35.5 -48.5t-50.5 -26.5t-54 -10h-6q-80 0 -123 41t-43 119v182q0 55 -9.5 90t-48.5 35t-51 -35t-12 -94v-178q0 -70 -44 -115t-116 -45 q-70 0 -118 41t-48 119z" />
<glyph unicode="&#xe000;" horiz-adv-x="993" d="M0 0v993h993v-993h-993z" />
<glyph unicode="&#xfb01;" horiz-adv-x="1193" d="M55 868q0 59 45 95t115 36q-4 80 24.5 137.5t70.5 94.5t87 56.5t74 23.5q39 6 92 6q74 0 128 -34t54 -101q0 -59 -44 -92t-115 -33q-29 0 -37 -19.5t-8 -42.5h409q72 -4 117 -48t45 -111v-676q0 -70 -47 -115t-119 -45q-70 0 -115 45t-45 115v575h-245v-577 q0 -70 -43 -115t-115 -45q-74 0 -121 45t-47 115v573q-70 0 -115 33t-45 104zM778 1167q0 63 48 105.5t122 42.5t124 -42t50 -106q0 -61 -50 -101t-124 -40t-122 40t-48 101z" />
<glyph unicode="&#xfb02;" horiz-adv-x="1177" d="M55 872q0 59 45 93t115 34q-6 82 20.5 141.5t66.5 97.5t86 55.5t83 17.5l459 -2q70 0 118 -41t48 -119v-989q0 -70 -47.5 -115t-118.5 -45q-70 0 -115 45t-45 115v889h-186q-35 0 -39 -17.5t-4 -32.5h49q70 -2 115 -32.5t45 -102.5q0 -70 -45.5 -99.5t-114.5 -29.5h-49 v-577q0 -70 -43 -115t-115 -45q-74 0 -121 45t-47 115v577q-70 0 -115 33t-45 104z" />
</font>
</defs>
</svg>
