<?xml version="1.0" standalone="no"?>
<!DOCTYPE svg PUBLIC "-//W3C//DTD SVG 1.1//EN" "http://www.w3.org/Graphics/SVG/1.1/DTD/svg11.dtd" >
<svg xmlns="http://www.w3.org/2000/svg">
<metadata></metadata>
<defs>
<font id="karmatic_arcaderegular" horiz-adv-x="1801" >
<font-face units-per-em="2048" ascent="1638" descent="-410" />
<missing-glyph horiz-adv-x="569" />
<glyph horiz-adv-x="2048" />
<glyph horiz-adv-x="2048" />
<glyph unicode="&#xd;" horiz-adv-x="569" />
<glyph unicode=" "  horiz-adv-x="569" />
<glyph unicode="&#x09;" horiz-adv-x="569" />
<glyph unicode="&#xa0;" horiz-adv-x="569" />
<glyph unicode="!" horiz-adv-x="798" d="M0 -2h201v-196h-201v196zM0 -2v201h201v-201h-201zM0 199v200h201v-200h-201zM0 399v201h201v-201h-201zM0 600v200h201v-200h-201zM0 800v201h201v-201h-201zM0 1001v201h201v-201h-201zM0 1202v196h201v-196h-201zM0 1398v201h201v-201h-201zM201 -2h200v-196h-200v196 zM201 -198h200v-198h-200v198zM201 199v200h200v-200h-200zM201 1398v201h200v-201h-200zM401 -2h201v-196h-201v196zM401 -2v201h201v-201h-201zM401 -198h201v-198h-201v198zM401 199v200h201v-200h-201zM401 399v201h201v-201h-201zM401 600v200h201v-200h-201zM401 1398 v201h201v-201h-201zM602 -2h196v-196h-196v196zM602 -2v201h196v-201h-196zM602 -198h196v-198h-196v198zM602 199v200h196v-200h-196zM602 399v201h196v-201h-196zM602 600v200h196v-200h-196zM602 800v201h196v-201h-196zM602 1001v201h196v-201h-196zM602 1202v196h196 v-196h-196zM602 1398v201h196v-201h-196zM798 399v201h201v-201h-201zM798 600v200h201v-200h-201zM798 800v201h201v-201h-201zM798 1001v201h201v-201h-201zM798 1202v196h201v-196h-201z" />
<glyph unicode="&#x22;" horiz-adv-x="1400" d="M0 600v200h201v-200h-201zM0 800v201h201v-201h-201zM0 1001v201h201v-201h-201zM0 1202v196h201v-196h-201zM0 1398v201h201v-201h-201zM201 399v201h200v-201h-200zM201 600v200h200v-200h-200zM201 1398v201h200v-201h-200zM401 399v201h201v-201h-201zM401 600v200 h201v-200h-201zM401 1398v201h201v-201h-201zM602 399v201h196v-201h-196zM602 600v200h196v-200h-196zM602 800v201h196v-201h-196zM602 1001v201h196v-201h-196zM602 1202v196h196v-196h-196zM602 1398v201h196v-201h-196zM798 399v201h201v-201h-201zM798 600v200h201 v-200h-201zM798 1398v201h201v-201h-201zM999 399v201h201v-201h-201zM999 600v200h201v-200h-201zM999 1398v201h201v-201h-201zM1200 399v201h200v-201h-200zM1200 600v200h200v-200h-200zM1200 800v201h200v-201h-200zM1200 1001v201h200v-201h-200zM1200 1202v196h200 v-196h-200zM1200 1398v201h200v-201h-200zM1400 399v201h201v-201h-201zM1400 600v200h201v-200h-201zM1400 800v201h201v-201h-201zM1400 1001v201h201v-201h-201zM1400 1202v196h201v-196h-201z" />
<glyph unicode="#" horiz-adv-x="1139" />
<glyph unicode="$" horiz-adv-x="1139" />
<glyph unicode="%" horiz-adv-x="1821" />
<glyph unicode="&#x26;" horiz-adv-x="1366" />
<glyph unicode="'" horiz-adv-x="798" d="M0 600v200h201v-200h-201zM0 800v201h201v-201h-201zM0 1001v201h201v-201h-201zM0 1202v196h201v-196h-201zM0 1398v201h201v-201h-201zM201 399v201h200v-201h-200zM201 600v200h200v-200h-200zM201 1398v201h200v-201h-200zM401 399v201h201v-201h-201zM401 600v200 h201v-200h-201zM401 1398v201h201v-201h-201zM602 399v201h196v-201h-196zM602 600v200h196v-200h-196zM602 800v201h196v-201h-196zM602 1001v201h196v-201h-196zM602 1202v196h196v-196h-196zM602 1398v201h196v-201h-196zM798 399v201h201v-201h-201zM798 600v200h201 v-200h-201zM798 800v201h201v-201h-201zM798 1001v201h201v-201h-201zM798 1202v196h201v-196h-201z" />
<glyph unicode="(" horiz-adv-x="682" />
<glyph unicode=")" horiz-adv-x="682" />
<glyph unicode="*" horiz-adv-x="797" />
<glyph unicode="+" horiz-adv-x="1196" />
<glyph unicode="," horiz-adv-x="569" />
<glyph unicode="-" horiz-adv-x="999" d="M0 399v201h201v-201h-201zM0 600v200h201v-200h-201zM0 800v201h201v-201h-201zM201 199v200h200v-200h-200zM201 399v201h200v-201h-200zM201 800v201h200v-201h-200zM401 199v200h201v-200h-201zM401 399v201h201v-201h-201zM401 800v201h201v-201h-201zM602 199v200 h196v-200h-196zM602 399v201h196v-201h-196zM602 800v201h196v-201h-196zM798 199v200h201v-200h-201zM798 399v201h201v-201h-201zM798 600v200h201v-200h-201zM798 800v201h201v-201h-201zM999 199v200h201v-200h-201zM999 399v201h201v-201h-201zM999 600v200h201v-200 h-201z" />
<glyph unicode="." horiz-adv-x="1200" d="M201 -2v201h200v-201h-200zM201 -2h200v-196h-200v196zM201 199v200h200v-200h-200zM201 399v201h200v-201h-200zM401 -2h201v-196h-201v196zM401 -198h201v-198h-201v198zM401 399v201h201v-201h-201zM602 -2h196v-196h-196v196zM602 -198h196v-198h-196v198zM602 399 v201h196v-201h-196zM798 -2v201h201v-201h-201zM798 -2h201v-196h-201v196zM798 -198h201v-198h-201v198zM798 199v200h201v-200h-201zM798 399v201h201v-201h-201zM999 -2h201v-196h-201v196zM999 -2v201h201v-201h-201zM999 -198h201v-198h-201v198zM999 199v200h201v-200 h-201z" />
<glyph unicode="/" horiz-adv-x="569" />
<glyph unicode="0" d="M0 -2v201h201v-201h-201zM0 199v200h201v-200h-201zM0 399v201h201v-201h-201zM0 600v200h201v-200h-201zM0 800v201h201v-201h-201zM0 1001v201h201v-201h-201zM0 1202v196h201v-196h-201zM201 -2h200v-196h-200v196zM201 -2v201h200v-201h-200zM201 1202v196h200v-196 h-200zM201 1398v201h200v-201h-200zM401 -2h201v-196h-201v196zM401 -198h201v-198h-201v198zM401 1398v201h201v-201h-201zM602 -2h196v-196h-196v196zM602 -198h196v-198h-196v198zM602 199v200h196v-200h-196zM602 600v200h196v-200h-196zM602 800v201h196v-201h-196z M602 1001v201h196v-201h-196zM602 1398v201h196v-201h-196zM798 -2h201v-196h-201v196zM798 -198h201v-198h-201v198zM798 199v200h201v-200h-201zM798 399v201h201v-201h-201zM798 800v201h201v-201h-201zM798 1001v201h201v-201h-201zM798 1398v201h201v-201h-201zM999 -2 h201v-196h-201v196zM999 -198h201v-198h-201v198zM999 199v200h201v-200h-201zM999 399v201h201v-201h-201zM999 600v200h201v-200h-201zM999 1001v201h201v-201h-201zM999 1398v201h201v-201h-201zM1200 -2h200v-196h-200v196zM1200 -198h200v-198h-200v198zM1200 1398v201 h200v-201h-200zM1400 -2v201h201v-201h-201zM1400 -2h201v-196h-201v196zM1400 -198h201v-198h-201v198zM1400 1202v196h201v-196h-201zM1400 1398v201h201v-201h-201zM1601 -2v201h200v-201h-200zM1601 -2h200v-196h-200v196zM1601 -198h200v-198h-200v198zM1601 199v200 h200v-200h-200zM1601 399v201h200v-201h-200zM1601 600v200h200v-200h-200zM1601 800v201h200v-201h-200zM1601 1001v201h200v-201h-200zM1601 1202v196h200v-196h-200zM1801 -2v201h197v-201h-197zM1801 -2h197v-196h-197v196zM1801 199v200h197v-200h-197zM1801 399v201 h197v-201h-197zM1801 600v200h197v-200h-197zM1801 800v201h197v-201h-197zM1801 1001v201h197v-201h-197z" />
<glyph unicode="1" horiz-adv-x="1601" d="M0 -2h201v-196h-201v196zM0 -2v201h201v-201h-201zM0 199v200h201v-200h-201zM201 -2h200v-196h-200v196zM201 -198h200v-198h-200v198zM201 199v200h200v-200h-200zM201 800v201h200v-201h-200zM201 1001v201h200v-201h-200zM201 1202v196h200v-196h-200zM401 -2h201 v-196h-201v196zM401 -198h201v-198h-201v198zM401 199v200h201v-200h-201zM401 399v201h201v-201h-201zM401 600v200h201v-200h-201zM401 800v201h201v-201h-201zM401 1202v196h201v-196h-201zM401 1398v201h201v-201h-201zM602 -2h196v-196h-196v196zM602 -198h196v-198 h-196v198zM602 1398v201h196v-201h-196zM798 -2h201v-196h-201v196zM798 -198h201v-198h-201v198zM798 1398v201h201v-201h-201zM999 -2h201v-196h-201v196zM999 -198h201v-198h-201v198zM999 199v200h201v-200h-201zM999 399v201h201v-201h-201zM999 600v200h201v-200h-201 zM999 800v201h201v-201h-201zM999 1001v201h201v-201h-201zM999 1202v196h201v-196h-201zM999 1398v201h201v-201h-201zM1200 -2h200v-196h-200v196zM1200 -198h200v-198h-200v198zM1200 199v200h200v-200h-200zM1200 399v201h200v-201h-200zM1200 600v200h200v-200h-200z M1200 800v201h200v-201h-200zM1200 1001v201h200v-201h-200zM1200 1202v196h200v-196h-200zM1400 -2v201h201v-201h-201zM1400 -2h201v-196h-201v196zM1400 -198h201v-198h-201v198zM1400 199v200h201v-200h-201zM1601 -2h200v-196h-200v196zM1601 -2v201h200v-201h-200z M1601 -198h200v-198h-200v198z" />
<glyph unicode="2" d="M0 -2v201h201v-201h-201zM0 -2h201v-196h-201v196zM0 199v200h201v-200h-201zM0 600v200h201v-200h-201zM0 800v201h201v-201h-201zM0 1001v201h201v-201h-201zM0 1202v196h201v-196h-201zM201 -2h200v-196h-200v196zM201 -198h200v-198h-200v198zM201 199v200h200v-200 h-200zM201 399v201h200v-201h-200zM201 600v200h200v-200h-200zM201 1202v196h200v-196h-200zM201 1398v201h200v-201h-200zM401 -2h201v-196h-201v196zM401 -198h201v-198h-201v198zM401 399v201h201v-201h-201zM401 600v200h201v-200h-201zM401 1398v201h201v-201h-201z M602 -2h196v-196h-196v196zM602 -198h196v-198h-196v198zM602 600v200h196v-200h-196zM602 800v201h196v-201h-196zM602 1001v201h196v-201h-196zM602 1398v201h196v-201h-196zM798 -2h201v-196h-201v196zM798 -198h201v-198h-201v198zM798 800v201h201v-201h-201zM798 1001 v201h201v-201h-201zM798 1398v201h201v-201h-201zM999 -2h201v-196h-201v196zM999 -198h201v-198h-201v198zM999 199v200h201v-200h-201zM999 1001v201h201v-201h-201zM999 1398v201h201v-201h-201zM1200 -2h200v-196h-200v196zM1200 -198h200v-198h-200v198zM1200 199v200 h200v-200h-200zM1200 399v201h200v-201h-200zM1200 1398v201h200v-201h-200zM1400 -2h201v-196h-201v196zM1400 -198h201v-198h-201v198zM1400 199v200h201v-200h-201zM1400 399v201h201v-201h-201zM1400 600v200h201v-200h-201zM1400 1202v196h201v-196h-201zM1400 1398 v201h201v-201h-201zM1601 -2v201h200v-201h-200zM1601 -2h200v-196h-200v196zM1601 -198h200v-198h-200v198zM1601 199v200h200v-200h-200zM1601 399v201h200v-201h-200zM1601 600v200h200v-200h-200zM1601 800v201h200v-201h-200zM1601 1001v201h200v-201h-200zM1601 1202 v196h200v-196h-200zM1801 -2h197v-196h-197v196zM1801 -2v201h197v-201h-197zM1801 -198h197v-198h-197v198zM1801 399v201h197v-201h-197zM1801 600v200h197v-200h-197zM1801 800v201h197v-201h-197zM1801 1001v201h197v-201h-197z" />
<glyph unicode="3" d="M0 -2v201h201v-201h-201zM0 199v200h201v-200h-201zM0 399v201h201v-201h-201zM0 800v201h201v-201h-201zM0 1001v201h201v-201h-201zM0 1202v196h201v-196h-201zM201 -2v201h200v-201h-200zM201 -2h200v-196h-200v196zM201 399v201h200v-201h-200zM201 600v200h200v-200 h-200zM201 800v201h200v-201h-200zM201 1202v196h200v-196h-200zM201 1398v201h200v-201h-200zM401 -2h201v-196h-201v196zM401 -198h201v-198h-201v198zM401 399v201h201v-201h-201zM401 600v200h201v-200h-201zM401 800v201h201v-201h-201zM401 1398v201h201v-201h-201z M602 -2h196v-196h-196v196zM602 -198h196v-198h-196v198zM602 199v200h196v-200h-196zM602 399v201h196v-201h-196zM602 600v200h196v-200h-196zM602 800v201h196v-201h-196zM602 1001v201h196v-201h-196zM602 1398v201h196v-201h-196zM798 -2h201v-196h-201v196zM798 -198 h201v-198h-201v198zM798 199v200h201v-200h-201zM798 399v201h201v-201h-201zM798 800v201h201v-201h-201zM798 1001v201h201v-201h-201zM798 1398v201h201v-201h-201zM999 -2h201v-196h-201v196zM999 -198h201v-198h-201v198zM999 199v200h201v-200h-201zM999 399v201h201 v-201h-201zM999 800v201h201v-201h-201zM999 1001v201h201v-201h-201zM999 1398v201h201v-201h-201zM1200 -2h200v-196h-200v196zM1200 -198h200v-198h-200v198zM1200 1398v201h200v-201h-200zM1400 -2v201h201v-201h-201zM1400 -2h201v-196h-201v196zM1400 -198h201v-198 h-201v198zM1400 600v200h201v-200h-201zM1400 1202v196h201v-196h-201zM1400 1398v201h201v-201h-201zM1601 -2v201h200v-201h-200zM1601 -2h200v-196h-200v196zM1601 -198h200v-198h-200v198zM1601 199v200h200v-200h-200zM1601 399v201h200v-201h-200zM1601 600v200h200 v-200h-200zM1601 800v201h200v-201h-200zM1601 1001v201h200v-201h-200zM1601 1202v196h200v-196h-200zM1801 -2h197v-196h-197v196zM1801 -2v201h197v-201h-197zM1801 199v200h197v-200h-197zM1801 399v201h197v-201h-197zM1801 600v200h197v-200h-197zM1801 800v201h197 v-201h-197zM1801 1001v201h197v-201h-197z" />
<glyph unicode="4" d="M0 -2v201h201v-201h-201zM0 199v200h201v-200h-201zM0 399v201h201v-201h-201zM0 600v200h201v-200h-201zM201 -2v201h200v-201h-200zM201 -2h200v-196h-200v196zM201 600v200h200v-200h-200zM201 800v201h200v-201h-200zM401 -2v201h201v-201h-201zM401 -2h201v-196 h-201v196zM401 800v201h201v-201h-201zM401 1001v201h201v-201h-201zM602 -2h196v-196h-196v196zM602 -2v201h196v-201h-196zM602 399v201h196v-201h-196zM602 1001v201h196v-201h-196zM602 1202v196h196v-196h-196zM798 -2h201v-196h-201v196zM798 -2v201h201v-201h-201z M798 399v201h201v-201h-201zM798 600v200h201v-200h-201zM798 1202v196h201v-196h-201zM798 1398v201h201v-201h-201zM999 -2h201v-196h-201v196zM999 -198h201v-198h-201v198zM999 1398v201h201v-201h-201zM1200 -2h200v-196h-200v196zM1200 -198h200v-198h-200v198z M1200 1398v201h200v-201h-200zM1400 -2h201v-196h-201v196zM1400 -2v201h201v-201h-201zM1400 -198h201v-198h-201v198zM1400 399v201h201v-201h-201zM1400 600v200h201v-200h-201zM1400 800v201h201v-201h-201zM1400 1001v201h201v-201h-201zM1400 1202v196h201v-196h-201z M1400 1398v201h201v-201h-201zM1601 -2h200v-196h-200v196zM1601 -2v201h200v-201h-200zM1601 -198h200v-198h-200v198zM1601 199v200h200v-200h-200zM1601 399v201h200v-201h-200zM1601 600v200h200v-200h-200zM1601 800v201h200v-201h-200zM1601 1001v201h200v-201h-200z M1601 1202v196h200v-196h-200zM1801 -2v201h197v-201h-197zM1801 -2h197v-196h-197v196zM1801 199v200h197v-200h-197z" />
<glyph unicode="5" d="M0 -2v201h201v-201h-201zM0 199v200h201v-200h-201zM0 399v201h201v-201h-201zM0 600v200h201v-200h-201zM0 800v201h201v-201h-201zM0 1001v201h201v-201h-201zM0 1202v196h201v-196h-201zM0 1398v201h201v-201h-201zM201 -2h200v-196h-200v196zM201 -2v201h200v-201 h-200zM201 399v201h200v-201h-200zM201 600v200h200v-200h-200zM201 1398v201h200v-201h-200zM401 -2h201v-196h-201v196zM401 -198h201v-198h-201v198zM401 399v201h201v-201h-201zM401 600v200h201v-200h-201zM401 1398v201h201v-201h-201zM602 -2h196v-196h-196v196z M602 -198h196v-198h-196v198zM602 199v200h196v-200h-196zM602 399v201h196v-201h-196zM602 600v200h196v-200h-196zM602 1001v201h196v-201h-196zM602 1398v201h196v-201h-196zM798 -2h201v-196h-201v196zM798 -198h201v-198h-201v198zM798 199v200h201v-200h-201zM798 399 v201h201v-201h-201zM798 600v200h201v-200h-201zM798 1001v201h201v-201h-201zM798 1398v201h201v-201h-201zM999 -2h201v-196h-201v196zM999 -198h201v-198h-201v198zM999 199v200h201v-200h-201zM999 399v201h201v-201h-201zM999 600v200h201v-200h-201zM999 1001v201h201 v-201h-201zM999 1398v201h201v-201h-201zM1200 -2h200v-196h-200v196zM1200 -198h200v-198h-200v198zM1200 1001v201h200v-201h-200zM1200 1398v201h200v-201h-200zM1400 -2h201v-196h-201v196zM1400 -2v201h201v-201h-201zM1400 -198h201v-198h-201v198zM1400 800v201h201 v-201h-201zM1400 1001v201h201v-201h-201zM1400 1398v201h201v-201h-201zM1601 -2h200v-196h-200v196zM1601 -2v201h200v-201h-200zM1601 -198h200v-198h-200v198zM1601 199v200h200v-200h-200zM1601 399v201h200v-201h-200zM1601 600v200h200v-200h-200zM1601 800v201h200 v-201h-200zM1601 1001v201h200v-201h-200zM1601 1202v196h200v-196h-200zM1601 1398v201h200v-201h-200zM1801 -2v201h197v-201h-197zM1801 -2h197v-196h-197v196zM1801 199v200h197v-200h-197zM1801 399v201h197v-201h-197zM1801 600v200h197v-200h-197zM1801 800v201h197 v-201h-197zM1801 1001v201h197v-201h-197zM1801 1202v196h197v-196h-197zM1801 1398v201h197v-201h-197z" />
<glyph unicode="6" d="M0 -2v201h201v-201h-201zM0 199v200h201v-200h-201zM0 399v201h201v-201h-201zM0 600v200h201v-200h-201zM0 800v201h201v-201h-201zM0 1001v201h201v-201h-201zM201 -2v201h200v-201h-200zM201 -2h200v-196h-200v196zM201 1001v201h200v-201h-200zM201 1202v196h200 v-196h-200zM401 -2h201v-196h-201v196zM401 -198h201v-198h-201v198zM401 1202v196h201v-196h-201zM401 1398v201h201v-201h-201zM602 -2h196v-196h-196v196zM602 -198h196v-198h-196v198zM602 199v200h196v-200h-196zM602 399v201h196v-201h-196zM602 800v201h196v-201 h-196zM602 1398v201h196v-201h-196zM798 -2h201v-196h-201v196zM798 -198h201v-198h-201v198zM798 199v200h201v-200h-201zM798 399v201h201v-201h-201zM798 800v201h201v-201h-201zM798 1001v201h201v-201h-201zM798 1398v201h201v-201h-201zM999 -2h201v-196h-201v196z M999 -198h201v-198h-201v198zM999 199v200h201v-200h-201zM999 399v201h201v-201h-201zM999 800v201h201v-201h-201zM999 1001v201h201v-201h-201zM999 1398v201h201v-201h-201zM1200 -2h200v-196h-200v196zM1200 -198h200v-198h-200v198zM1200 800v201h200v-201h-200z M1200 1001v201h200v-201h-200zM1200 1202v196h200v-196h-200zM1200 1398v201h200v-201h-200zM1400 -2h201v-196h-201v196zM1400 -2v201h201v-201h-201zM1400 -198h201v-198h-201v198zM1400 600v200h201v-200h-201zM1400 800v201h201v-201h-201zM1400 1001v201h201v-201h-201 zM1400 1202v196h201v-196h-201zM1601 -2h200v-196h-200v196zM1601 -2v201h200v-201h-200zM1601 -198h200v-198h-200v198zM1601 199v200h200v-200h-200zM1601 399v201h200v-201h-200zM1601 600v200h200v-200h-200zM1801 -2h197v-196h-197v196zM1801 -2v201h197v-201h-197z M1801 199v200h197v-200h-197zM1801 399v201h197v-201h-197z" />
<glyph unicode="7" d="M0 1001v201h201v-201h-201zM0 1202v196h201v-196h-201zM0 1398v201h201v-201h-201zM201 800v201h200v-201h-200zM201 1001v201h200v-201h-200zM201 1398v201h200v-201h-200zM401 -2h201v-196h-201v196zM401 -2v201h201v-201h-201zM401 199v200h201v-200h-201zM401 399 v201h201v-201h-201zM401 800v201h201v-201h-201zM401 1001v201h201v-201h-201zM401 1398v201h201v-201h-201zM602 -2h196v-196h-196v196zM602 -198h196v-198h-196v198zM602 399v201h196v-201h-196zM602 600v200h196v-200h-196zM602 800v201h196v-201h-196zM602 1001v201h196 v-201h-196zM602 1398v201h196v-201h-196zM798 -2h201v-196h-201v196zM798 -198h201v-198h-201v198zM798 800v201h201v-201h-201zM798 1001v201h201v-201h-201zM798 1398v201h201v-201h-201zM999 -2v201h201v-201h-201zM999 -2h201v-196h-201v196zM999 -198h201v-198h-201 v198zM999 199v200h201v-200h-201zM999 1398v201h201v-201h-201zM1200 -2h200v-196h-200v196zM1200 -2v201h200v-201h-200zM1200 -198h200v-198h-200v198zM1200 199v200h200v-200h-200zM1200 399v201h200v-201h-200zM1200 600v200h200v-200h-200zM1200 1398v201h200v-201 h-200zM1400 -2v201h201v-201h-201zM1400 199v200h201v-200h-201zM1400 399v201h201v-201h-201zM1400 600v200h201v-200h-201zM1400 800v201h201v-201h-201zM1400 1001v201h201v-201h-201zM1400 1398v201h201v-201h-201zM1601 399v201h200v-201h-200zM1601 600v200h200v-200 h-200zM1601 800v201h200v-201h-200zM1601 1001v201h200v-201h-200zM1601 1202v196h200v-196h-200zM1601 1398v201h200v-201h-200zM1801 800v201h197v-201h-197zM1801 1001v201h197v-201h-197zM1801 1202v196h197v-196h-197z" />
<glyph unicode="8" d="M0 -2v201h201v-201h-201zM0 199v200h201v-200h-201zM0 399v201h201v-201h-201zM0 600v200h201v-200h-201zM0 800v201h201v-201h-201zM0 1001v201h201v-201h-201zM0 1202v196h201v-196h-201zM201 -2v201h200v-201h-200zM201 -2h200v-196h-200v196zM201 600v200h200v-200 h-200zM201 1202v196h200v-196h-200zM201 1398v201h200v-201h-200zM401 -2h201v-196h-201v196zM401 -198h201v-198h-201v198zM401 1398v201h201v-201h-201zM602 -2h196v-196h-196v196zM602 -198h196v-198h-196v198zM602 199v200h196v-200h-196zM602 399v201h196v-201h-196z M602 1001v201h196v-201h-196zM602 1398v201h196v-201h-196zM798 -2h201v-196h-201v196zM798 -198h201v-198h-201v198zM798 199v200h201v-200h-201zM798 399v201h201v-201h-201zM798 800v201h201v-201h-201zM798 1001v201h201v-201h-201zM798 1398v201h201v-201h-201zM999 -2 h201v-196h-201v196zM999 -198h201v-198h-201v198zM999 199v200h201v-200h-201zM999 800v201h201v-201h-201zM999 1001v201h201v-201h-201zM999 1398v201h201v-201h-201zM1200 -2h200v-196h-200v196zM1200 -198h200v-198h-200v198zM1200 1398v201h200v-201h-200zM1400 -2v201 h201v-201h-201zM1400 -2h201v-196h-201v196zM1400 -198h201v-198h-201v198zM1400 600v200h201v-200h-201zM1400 1202v196h201v-196h-201zM1400 1398v201h201v-201h-201zM1601 -2v201h200v-201h-200zM1601 -2h200v-196h-200v196zM1601 -198h200v-198h-200v198zM1601 199v200 h200v-200h-200zM1601 399v201h200v-201h-200zM1601 600v200h200v-200h-200zM1601 800v201h200v-201h-200zM1601 1001v201h200v-201h-200zM1601 1202v196h200v-196h-200zM1801 -2h197v-196h-197v196zM1801 -2v201h197v-201h-197zM1801 199v200h197v-200h-197zM1801 399v201 h197v-201h-197zM1801 600v200h197v-200h-197zM1801 800v201h197v-201h-197zM1801 1001v201h197v-201h-197z" />
<glyph unicode="9" d="M0 600v200h201v-200h-201zM0 800v201h201v-201h-201zM0 1001v201h201v-201h-201zM0 1202v196h201v-196h-201zM201 399v201h200v-201h-200zM201 600v200h200v-200h-200zM201 1202v196h200v-196h-200zM201 1398v201h200v-201h-200zM401 -2v201h201v-201h-201zM401 -2h201 v-196h-201v196zM401 199v200h201v-200h-201zM401 399v201h201v-201h-201zM401 1398v201h201v-201h-201zM602 -2h196v-196h-196v196zM602 -198h196v-198h-196v198zM602 199v200h196v-200h-196zM602 399v201h196v-201h-196zM602 800v201h196v-201h-196zM602 1001v201h196v-201 h-196zM602 1398v201h196v-201h-196zM798 -2h201v-196h-201v196zM798 -198h201v-198h-201v198zM798 199v200h201v-200h-201zM798 399v201h201v-201h-201zM798 800v201h201v-201h-201zM798 1001v201h201v-201h-201zM798 1398v201h201v-201h-201zM999 -2h201v-196h-201v196z M999 -198h201v-198h-201v198zM999 399v201h201v-201h-201zM999 800v201h201v-201h-201zM999 1001v201h201v-201h-201zM999 1398v201h201v-201h-201zM1200 -2v201h200v-201h-200zM1200 -2h200v-196h-200v196zM1200 -198h200v-198h-200v198zM1200 1398v201h200v-201h-200z M1400 -2h201v-196h-201v196zM1400 -2v201h201v-201h-201zM1400 -198h201v-198h-201v198zM1400 199v200h201v-200h-201zM1400 1202v196h201v-196h-201zM1400 1398v201h201v-201h-201zM1601 -2v201h200v-201h-200zM1601 -2h200v-196h-200v196zM1601 199v200h200v-200h-200z M1601 399v201h200v-201h-200zM1601 600v200h200v-200h-200zM1601 800v201h200v-201h-200zM1601 1001v201h200v-201h-200zM1601 1202v196h200v-196h-200zM1801 -2v201h197v-201h-197zM1801 199v200h197v-200h-197zM1801 399v201h197v-201h-197zM1801 600v200h197v-200h-197z M1801 800v201h197v-201h-197zM1801 1001v201h197v-201h-197z" />
<glyph unicode=":" horiz-adv-x="569" />
<glyph unicode=";" horiz-adv-x="569" />
<glyph unicode="&#x3c;" horiz-adv-x="1196" />
<glyph unicode="=" horiz-adv-x="1196" />
<glyph unicode="&#x3e;" horiz-adv-x="1196" />
<glyph unicode="?" d="M0 800v201h201v-201h-201zM0 1001v201h201v-201h-201zM0 1202v196h201v-196h-201zM201 600v200h200v-200h-200zM201 800v201h200v-201h-200zM201 1202v196h200v-196h-200zM201 1398v201h200v-201h-200zM401 -2h201v-196h-201v196zM401 -2v201h201v-201h-201zM401 199v200 h201v-200h-201zM401 399v201h201v-201h-201zM401 600v200h201v-200h-201zM401 800v201h201v-201h-201zM401 1398v201h201v-201h-201zM602 -2h196v-196h-196v196zM602 -198h196v-198h-196v198zM602 199v200h196v-200h-196zM602 600v200h196v-200h-196zM602 800v201h196v-201 h-196zM602 1001v201h196v-201h-196zM602 1398v201h196v-201h-196zM798 -2h201v-196h-201v196zM798 -198h201v-198h-201v198zM798 199v200h201v-200h-201zM798 800v201h201v-201h-201zM798 1001v201h201v-201h-201zM798 1398v201h201v-201h-201zM999 -2v201h201v-201h-201z M999 -2h201v-196h-201v196zM999 -198h201v-198h-201v198zM999 199v200h201v-200h-201zM999 399v201h201v-201h-201zM999 800v201h201v-201h-201zM999 1001v201h201v-201h-201zM999 1398v201h201v-201h-201zM1200 -2v201h200v-201h-200zM1200 -2h200v-196h-200v196z M1200 -198h200v-198h-200v198zM1200 199v200h200v-200h-200zM1200 399v201h200v-201h-200zM1200 1398v201h200v-201h-200zM1400 199v200h201v-200h-201zM1400 399v201h201v-201h-201zM1400 600v200h201v-200h-201zM1400 1202v196h201v-196h-201zM1400 1398v201h201v-201 h-201zM1601 199v200h200v-200h-200zM1601 399v201h200v-201h-200zM1601 600v200h200v-200h-200zM1601 800v201h200v-201h-200zM1601 1001v201h200v-201h-200zM1601 1202v196h200v-196h-200zM1801 399v201h197v-201h-197zM1801 600v200h197v-200h-197zM1801 800v201h197v-201 h-197zM1801 1001v201h197v-201h-197z" />
<glyph unicode="@" d="M0 -2h201v-196h-201v196zM0 -2v201h201v-201h-201zM0 -198h201v-198h-201v198zM0 199v200h201v-200h-201zM0 399v201h201v-201h-201zM0 600v200h201v-200h-201zM0 800v201h201v-201h-201zM0 1001v201h201v-201h-201zM0 1202v196h201v-196h-201zM0 1398v201h201v-201h-201 zM201 -2v201h200v-201h-200zM201 -2h200v-196h-200v196zM201 -198h200v-198h-200v198zM201 199v200h200v-200h-200zM201 399v201h200v-201h-200zM201 600v200h200v-200h-200zM201 800v201h200v-201h-200zM201 1001v201h200v-201h-200zM201 1202v196h200v-196h-200zM201 1398 v201h200v-201h-200zM401 -2v201h201v-201h-201zM401 -2h201v-196h-201v196zM401 -198h201v-198h-201v198zM401 199v200h201v-200h-201zM401 399v201h201v-201h-201zM401 600v200h201v-200h-201zM401 800v201h201v-201h-201zM401 1001v201h201v-201h-201zM401 1202v196h201 v-196h-201zM401 1398v201h201v-201h-201zM602 -2v201h196v-201h-196zM602 -2h196v-196h-196v196zM602 -198h196v-198h-196v198zM602 199v200h196v-200h-196zM602 399v201h196v-201h-196zM602 600v200h196v-200h-196zM602 800v201h196v-201h-196zM602 1001v201h196v-201h-196 zM602 1202v196h196v-196h-196zM602 1398v201h196v-201h-196zM798 -2h201v-196h-201v196zM798 -2v201h201v-201h-201zM798 -198h201v-198h-201v198zM798 199v200h201v-200h-201zM798 399v201h201v-201h-201zM798 600v200h201v-200h-201zM798 800v201h201v-201h-201zM798 1001 v201h201v-201h-201zM798 1202v196h201v-196h-201zM798 1398v201h201v-201h-201zM999 -2h201v-196h-201v196zM999 -2v201h201v-201h-201zM999 -198h201v-198h-201v198zM999 199v200h201v-200h-201zM999 399v201h201v-201h-201zM999 600v200h201v-200h-201zM999 800v201h201 v-201h-201zM999 1001v201h201v-201h-201zM999 1202v196h201v-196h-201zM999 1398v201h201v-201h-201zM1200 -2h200v-196h-200v196zM1200 -2v201h200v-201h-200zM1200 -198h200v-198h-200v198zM1200 199v200h200v-200h-200zM1200 399v201h200v-201h-200zM1200 600v200h200 v-200h-200zM1200 800v201h200v-201h-200zM1200 1001v201h200v-201h-200zM1200 1202v196h200v-196h-200zM1200 1398v201h200v-201h-200zM1400 -2v201h201v-201h-201zM1400 -2h201v-196h-201v196zM1400 -198h201v-198h-201v198zM1400 199v200h201v-200h-201zM1400 399v201h201 v-201h-201zM1400 600v200h201v-200h-201zM1400 800v201h201v-201h-201zM1400 1001v201h201v-201h-201zM1400 1202v196h201v-196h-201zM1400 1398v201h201v-201h-201zM1601 -2h200v-196h-200v196zM1601 -2v201h200v-201h-200zM1601 -198h200v-198h-200v198zM1601 199v200h200 v-200h-200zM1601 399v201h200v-201h-200zM1601 600v200h200v-200h-200zM1601 800v201h200v-201h-200zM1601 1001v201h200v-201h-200zM1601 1202v196h200v-196h-200zM1601 1398v201h200v-201h-200zM1801 -2h197v-196h-197v196zM1801 -2v201h197v-201h-197zM1801 -198h197 v-198h-197v198zM1801 199v200h197v-200h-197zM1801 399v201h197v-201h-197zM1801 600v200h197v-200h-197zM1801 800v201h197v-201h-197zM1801 1001v201h197v-201h-197zM1801 1202v196h197v-196h-197zM1801 1398v201h197v-201h-197z" />
<glyph unicode="A" d="M0 -2h201v-196h-201v196zM0 -2v201h201v-201h-201zM0 199v200h201v-200h-201zM0 399v201h201v-201h-201zM0 600v200h201v-200h-201zM0 800v201h201v-201h-201zM0 1001v201h201v-201h-201zM0 1202v196h201v-196h-201zM201 -2h200v-196h-200v196zM201 -198h200v-198h-200 v198zM201 1202v196h200v-196h-200zM201 1398v201h200v-201h-200zM401 -2h201v-196h-201v196zM401 -198h201v-198h-201v198zM401 1398v201h201v-201h-201zM602 -2h196v-196h-196v196zM602 -2v201h196v-201h-196zM602 -198h196v-198h-196v198zM602 199v200h196v-200h-196z M602 600v200h196v-200h-196zM602 800v201h196v-201h-196zM602 1001v201h196v-201h-196zM602 1398v201h196v-201h-196zM798 -2h201v-196h-201v196zM798 -2v201h201v-201h-201zM798 -198h201v-198h-201v198zM798 199v200h201v-200h-201zM798 600v200h201v-200h-201zM798 800 v201h201v-201h-201zM798 1001v201h201v-201h-201zM798 1398v201h201v-201h-201zM999 -2h201v-196h-201v196zM999 -2v201h201v-201h-201zM999 199v200h201v-200h-201zM999 600v200h201v-200h-201zM999 800v201h201v-201h-201zM999 1001v201h201v-201h-201zM999 1398v201h201 v-201h-201zM1200 -2h200v-196h-200v196zM1200 -198h200v-198h-200v198zM1200 1398v201h200v-201h-200zM1400 -2h201v-196h-201v196zM1400 -198h201v-198h-201v198zM1400 1202v196h201v-196h-201zM1400 1398v201h201v-201h-201zM1601 -2h200v-196h-200v196zM1601 -2v201h200 v-201h-200zM1601 -198h200v-198h-200v198zM1601 199v200h200v-200h-200zM1601 399v201h200v-201h-200zM1601 600v200h200v-200h-200zM1601 800v201h200v-201h-200zM1601 1001v201h200v-201h-200zM1601 1202v196h200v-196h-200zM1801 -2h197v-196h-197v196zM1801 -2v201h197 v-201h-197zM1801 -198h197v-198h-197v198zM1801 199v200h197v-200h-197zM1801 399v201h197v-201h-197zM1801 600v200h197v-200h-197zM1801 800v201h197v-201h-197zM1801 1001v201h197v-201h-197z" />
<glyph unicode="B" d="M0 -2h201v-196h-201v196zM0 -2v201h201v-201h-201zM0 199v200h201v-200h-201zM0 399v201h201v-201h-201zM0 600v200h201v-200h-201zM0 800v201h201v-201h-201zM0 1001v201h201v-201h-201zM0 1202v196h201v-196h-201zM0 1398v201h201v-201h-201zM201 -2h200v-196h-200v196 zM201 -198h200v-198h-200v198zM201 1398v201h200v-201h-200zM401 -2h201v-196h-201v196zM401 -198h201v-198h-201v198zM401 1398v201h201v-201h-201zM602 -2h196v-196h-196v196zM602 -198h196v-198h-196v198zM602 199v200h196v-200h-196zM602 399v201h196v-201h-196z M602 800v201h196v-201h-196zM602 1001v201h196v-201h-196zM602 1398v201h196v-201h-196zM798 -2h201v-196h-201v196zM798 -198h201v-198h-201v198zM798 199v200h201v-200h-201zM798 399v201h201v-201h-201zM798 800v201h201v-201h-201zM798 1001v201h201v-201h-201z M798 1398v201h201v-201h-201zM999 -2h201v-196h-201v196zM999 -198h201v-198h-201v198zM999 199v200h201v-200h-201zM999 399v201h201v-201h-201zM999 800v201h201v-201h-201zM999 1001v201h201v-201h-201zM999 1398v201h201v-201h-201zM1200 -2h200v-196h-200v196z M1200 -198h200v-198h-200v198zM1200 1398v201h200v-201h-200zM1400 -2v201h201v-201h-201zM1400 -2h201v-196h-201v196zM1400 -198h201v-198h-201v198zM1400 600v200h201v-200h-201zM1400 1202v196h201v-196h-201zM1400 1398v201h201v-201h-201zM1601 -2v201h200v-201h-200z M1601 -2h200v-196h-200v196zM1601 -198h200v-198h-200v198zM1601 199v200h200v-200h-200zM1601 399v201h200v-201h-200zM1601 600v200h200v-200h-200zM1601 800v201h200v-201h-200zM1601 1001v201h200v-201h-200zM1601 1202v196h200v-196h-200zM1801 -2h197v-196h-197v196z M1801 -2v201h197v-201h-197zM1801 199v200h197v-200h-197zM1801 399v201h197v-201h-197zM1801 600v200h197v-200h-197zM1801 800v201h197v-201h-197zM1801 1001v201h197v-201h-197z" />
<glyph unicode="C" d="M0 -2v201h201v-201h-201zM0 199v200h201v-200h-201zM0 399v201h201v-201h-201zM0 600v200h201v-200h-201zM0 800v201h201v-201h-201zM0 1001v201h201v-201h-201zM0 1202v196h201v-196h-201zM201 -2v201h200v-201h-200zM201 -2h200v-196h-200v196zM201 1202v196h200v-196 h-200zM201 1398v201h200v-201h-200zM401 -2h201v-196h-201v196zM401 -198h201v-198h-201v198zM401 1398v201h201v-201h-201zM602 -2h196v-196h-196v196zM602 -198h196v-198h-196v198zM602 199v200h196v-200h-196zM602 399v201h196v-201h-196zM602 600v200h196v-200h-196z M602 800v201h196v-201h-196zM602 1001v201h196v-201h-196zM602 1398v201h196v-201h-196zM798 -2h201v-196h-201v196zM798 -198h201v-198h-201v198zM798 199v200h201v-200h-201zM798 399v201h201v-201h-201zM798 600v200h201v-200h-201zM798 800v201h201v-201h-201zM798 1001 v201h201v-201h-201zM798 1398v201h201v-201h-201zM999 -2h201v-196h-201v196zM999 -198h201v-198h-201v198zM999 199v200h201v-200h-201zM999 399v201h201v-201h-201zM999 600v200h201v-200h-201zM999 800v201h201v-201h-201zM999 1001v201h201v-201h-201zM999 1398v201h201 v-201h-201zM1200 -2h200v-196h-200v196zM1200 -198h200v-198h-200v198zM1200 399v201h200v-201h-200zM1200 600v200h200v-200h-200zM1200 800v201h200v-201h-200zM1200 1398v201h200v-201h-200zM1400 -2h201v-196h-201v196zM1400 -2v201h201v-201h-201zM1400 -198h201v-198 h-201v198zM1400 399v201h201v-201h-201zM1400 600v200h201v-200h-201zM1400 800v201h201v-201h-201zM1400 1202v196h201v-196h-201zM1400 1398v201h201v-201h-201zM1601 -2v201h200v-201h-200zM1601 -2h200v-196h-200v196zM1601 -198h200v-198h-200v198zM1601 199v200h200 v-200h-200zM1601 399v201h200v-201h-200zM1601 600v200h200v-200h-200zM1601 800v201h200v-201h-200zM1601 1001v201h200v-201h-200zM1601 1202v196h200v-196h-200zM1801 -2v201h197v-201h-197zM1801 -2h197v-196h-197v196zM1801 199v200h197v-200h-197zM1801 600v200h197 v-200h-197zM1801 800v201h197v-201h-197zM1801 1001v201h197v-201h-197z" />
<glyph unicode="D" d="M0 -2h201v-196h-201v196zM0 -2v201h201v-201h-201zM0 199v200h201v-200h-201zM0 399v201h201v-201h-201zM0 600v200h201v-200h-201zM0 800v201h201v-201h-201zM0 1001v201h201v-201h-201zM0 1202v196h201v-196h-201zM0 1398v201h201v-201h-201zM201 -2h200v-196h-200v196 zM201 -198h200v-198h-200v198zM201 1398v201h200v-201h-200zM401 -2h201v-196h-201v196zM401 -198h201v-198h-201v198zM401 1398v201h201v-201h-201zM602 -2h196v-196h-196v196zM602 -198h196v-198h-196v198zM602 199v200h196v-200h-196zM602 399v201h196v-201h-196z M602 600v200h196v-200h-196zM602 800v201h196v-201h-196zM602 1001v201h196v-201h-196zM602 1398v201h196v-201h-196zM798 -2h201v-196h-201v196zM798 -198h201v-198h-201v198zM798 199v200h201v-200h-201zM798 399v201h201v-201h-201zM798 600v200h201v-200h-201zM798 800 v201h201v-201h-201zM798 1001v201h201v-201h-201zM798 1398v201h201v-201h-201zM999 -2h201v-196h-201v196zM999 -198h201v-198h-201v198zM999 399v201h201v-201h-201zM999 600v200h201v-200h-201zM999 800v201h201v-201h-201zM999 1398v201h201v-201h-201zM1200 -2h200 v-196h-200v196zM1200 -2v201h200v-201h-200zM1200 -198h200v-198h-200v198zM1200 1202v196h200v-196h-200zM1200 1398v201h200v-201h-200zM1400 -2v201h201v-201h-201zM1400 -2h201v-196h-201v196zM1400 -198h201v-198h-201v198zM1400 199v200h201v-200h-201zM1400 1001v201 h201v-201h-201zM1400 1202v196h201v-196h-201zM1601 -2h200v-196h-200v196zM1601 -2v201h200v-201h-200zM1601 199v200h200v-200h-200zM1601 399v201h200v-201h-200zM1601 600v200h200v-200h-200zM1601 800v201h200v-201h-200zM1601 1001v201h200v-201h-200zM1801 -2v201 h197v-201h-197zM1801 199v200h197v-200h-197zM1801 399v201h197v-201h-197zM1801 600v200h197v-200h-197zM1801 800v201h197v-201h-197z" />
<glyph unicode="E" d="M0 -2h201v-196h-201v196zM0 -2v201h201v-201h-201zM0 199v200h201v-200h-201zM0 399v201h201v-201h-201zM0 600v200h201v-200h-201zM0 800v201h201v-201h-201zM0 1001v201h201v-201h-201zM0 1202v196h201v-196h-201zM0 1398v201h201v-201h-201zM201 -2h200v-196h-200v196 zM201 -198h200v-198h-200v198zM201 1398v201h200v-201h-200zM401 -2h201v-196h-201v196zM401 -198h201v-198h-201v198zM401 1398v201h201v-201h-201zM602 -2h196v-196h-196v196zM602 -198h196v-198h-196v198zM602 199v200h196v-200h-196zM602 399v201h196v-201h-196z M602 800v201h196v-201h-196zM602 1001v201h196v-201h-196zM602 1398v201h196v-201h-196zM798 -2h201v-196h-201v196zM798 -198h201v-198h-201v198zM798 199v200h201v-200h-201zM798 399v201h201v-201h-201zM798 800v201h201v-201h-201zM798 1001v201h201v-201h-201z M798 1398v201h201v-201h-201zM999 -2h201v-196h-201v196zM999 -198h201v-198h-201v198zM999 199v200h201v-200h-201zM999 399v201h201v-201h-201zM999 800v201h201v-201h-201zM999 1001v201h201v-201h-201zM999 1398v201h201v-201h-201zM1200 -2h200v-196h-200v196z M1200 -198h200v-198h-200v198zM1200 199v200h200v-200h-200zM1200 399v201h200v-201h-200zM1200 800v201h200v-201h-200zM1200 1001v201h200v-201h-200zM1200 1398v201h200v-201h-200zM1400 -2h201v-196h-201v196zM1400 -198h201v-198h-201v198zM1400 199v200h201v-200h-201 zM1400 399v201h201v-201h-201zM1400 600v200h201v-200h-201zM1400 800v201h201v-201h-201zM1400 1001v201h201v-201h-201zM1400 1398v201h201v-201h-201zM1601 -2v201h200v-201h-200zM1601 -2h200v-196h-200v196zM1601 -198h200v-198h-200v198zM1601 199v200h200v-200h-200z M1601 399v201h200v-201h-200zM1601 600v200h200v-200h-200zM1601 800v201h200v-201h-200zM1601 1001v201h200v-201h-200zM1601 1202v196h200v-196h-200zM1601 1398v201h200v-201h-200zM1801 -2v201h197v-201h-197zM1801 -2h197v-196h-197v196zM1801 -198h197v-198h-197v198z M1801 800v201h197v-201h-197zM1801 1001v201h197v-201h-197zM1801 1202v196h197v-196h-197z" />
<glyph unicode="F" d="M0 -2h201v-196h-201v196zM0 -2v201h201v-201h-201zM0 199v200h201v-200h-201zM0 399v201h201v-201h-201zM0 600v200h201v-200h-201zM0 800v201h201v-201h-201zM0 1001v201h201v-201h-201zM0 1202v196h201v-196h-201zM0 1398v201h201v-201h-201zM201 -2h200v-196h-200v196 zM201 -198h200v-198h-200v198zM201 1398v201h200v-201h-200zM401 -2h201v-196h-201v196zM401 -198h201v-198h-201v198zM401 1398v201h201v-201h-201zM602 -2h196v-196h-196v196zM602 -2v201h196v-201h-196zM602 -198h196v-198h-196v198zM602 199v200h196v-200h-196zM602 399 v201h196v-201h-196zM602 800v201h196v-201h-196zM602 1001v201h196v-201h-196zM602 1398v201h196v-201h-196zM798 -2h201v-196h-201v196zM798 -2v201h201v-201h-201zM798 -198h201v-198h-201v198zM798 199v200h201v-200h-201zM798 399v201h201v-201h-201zM798 800v201h201 v-201h-201zM798 1001v201h201v-201h-201zM798 1398v201h201v-201h-201zM999 199v200h201v-200h-201zM999 399v201h201v-201h-201zM999 800v201h201v-201h-201zM999 1001v201h201v-201h-201zM999 1398v201h201v-201h-201zM1200 199v200h200v-200h-200zM1200 399v201h200v-201 h-200zM1200 800v201h200v-201h-200zM1200 1001v201h200v-201h-200zM1200 1398v201h200v-201h-200zM1400 199v200h201v-200h-201zM1400 399v201h201v-201h-201zM1400 600v200h201v-200h-201zM1400 800v201h201v-201h-201zM1400 1001v201h201v-201h-201zM1400 1398v201h201 v-201h-201zM1601 199v200h200v-200h-200zM1601 399v201h200v-201h-200zM1601 600v200h200v-200h-200zM1601 800v201h200v-201h-200zM1601 1001v201h200v-201h-200zM1601 1202v196h200v-196h-200zM1601 1398v201h200v-201h-200zM1801 800v201h197v-201h-197zM1801 1001v201 h197v-201h-197zM1801 1202v196h197v-196h-197z" />
<glyph unicode="G" d="M0 -2v201h201v-201h-201zM0 199v200h201v-200h-201zM0 399v201h201v-201h-201zM0 600v200h201v-200h-201zM0 800v201h201v-201h-201zM0 1001v201h201v-201h-201zM0 1202v196h201v-196h-201zM201 -2h200v-196h-200v196zM201 -2v201h200v-201h-200zM201 1202v196h200v-196 h-200zM201 1398v201h200v-201h-200zM401 -2h201v-196h-201v196zM401 -198h201v-198h-201v198zM401 1398v201h201v-201h-201zM602 -2h196v-196h-196v196zM602 -198h196v-198h-196v198zM602 199v200h196v-200h-196zM602 399v201h196v-201h-196zM602 600v200h196v-200h-196z M602 800v201h196v-201h-196zM602 1001v201h196v-201h-196zM602 1398v201h196v-201h-196zM798 -2h201v-196h-201v196zM798 -198h201v-198h-201v198zM798 199v200h201v-200h-201zM798 399v201h201v-201h-201zM798 600v200h201v-200h-201zM798 800v201h201v-201h-201zM798 1001 v201h201v-201h-201zM798 1398v201h201v-201h-201zM999 -2h201v-196h-201v196zM999 -198h201v-198h-201v198zM999 199v200h201v-200h-201zM999 399v201h201v-201h-201zM999 800v201h201v-201h-201zM999 1001v201h201v-201h-201zM999 1398v201h201v-201h-201zM1200 -2v201h200 v-201h-200zM1200 -2h200v-196h-200v196zM1200 -198h200v-198h-200v198zM1200 800v201h200v-201h-200zM1200 1398v201h200v-201h-200zM1400 -2h201v-196h-201v196zM1400 -198h201v-198h-201v198zM1400 800v201h201v-201h-201zM1400 1202v196h201v-196h-201zM1400 1398v201 h201v-201h-201zM1601 -2v201h200v-201h-200zM1601 -2h200v-196h-200v196zM1601 -198h200v-198h-200v198zM1601 199v200h200v-200h-200zM1601 399v201h200v-201h-200zM1601 600v200h200v-200h-200zM1601 800v201h200v-201h-200zM1601 1001v201h200v-201h-200zM1601 1202v196 h200v-196h-200zM1801 -2h197v-196h-197v196zM1801 -2v201h197v-201h-197zM1801 -198h197v-198h-197v198zM1801 199v200h197v-200h-197zM1801 399v201h197v-201h-197zM1801 600v200h197v-200h-197zM1801 800v201h197v-201h-197zM1801 1001v201h197v-201h-197z" />
<glyph unicode="H" d="M0 -2h201v-196h-201v196zM0 -2v201h201v-201h-201zM0 199v200h201v-200h-201zM0 399v201h201v-201h-201zM0 600v200h201v-200h-201zM0 800v201h201v-201h-201zM0 1001v201h201v-201h-201zM0 1202v196h201v-196h-201zM0 1398v201h201v-201h-201zM201 -2h200v-196h-200v196 zM201 -198h200v-198h-200v198zM201 1398v201h200v-201h-200zM401 -2h201v-196h-201v196zM401 -198h201v-198h-201v198zM401 1398v201h201v-201h-201zM602 -2h196v-196h-196v196zM602 -2v201h196v-201h-196zM602 -198h196v-198h-196v198zM602 199v200h196v-200h-196zM602 399 v201h196v-201h-196zM602 800v201h196v-201h-196zM602 1001v201h196v-201h-196zM602 1202v196h196v-196h-196zM602 1398v201h196v-201h-196zM798 -2h201v-196h-201v196zM798 -2v201h201v-201h-201zM798 -198h201v-198h-201v198zM798 199v200h201v-200h-201zM798 399v201h201 v-201h-201zM798 800v201h201v-201h-201zM798 1001v201h201v-201h-201zM798 1202v196h201v-196h-201zM999 -2v201h201v-201h-201zM999 -2h201v-196h-201v196zM999 199v200h201v-200h-201zM999 399v201h201v-201h-201zM999 800v201h201v-201h-201zM999 1001v201h201v-201h-201 zM999 1202v196h201v-196h-201zM999 1398v201h201v-201h-201zM1200 -2h200v-196h-200v196zM1200 -198h200v-198h-200v198zM1200 1398v201h200v-201h-200zM1400 -2h201v-196h-201v196zM1400 -198h201v-198h-201v198zM1400 1398v201h201v-201h-201zM1601 -2v201h200v-201h-200z M1601 -2h200v-196h-200v196zM1601 -198h200v-198h-200v198zM1601 199v200h200v-200h-200zM1601 399v201h200v-201h-200zM1601 600v200h200v-200h-200zM1601 800v201h200v-201h-200zM1601 1001v201h200v-201h-200zM1601 1202v196h200v-196h-200zM1601 1398v201h200v-201h-200 zM1801 -2h197v-196h-197v196zM1801 -2v201h197v-201h-197zM1801 -198h197v-198h-197v198zM1801 199v200h197v-200h-197zM1801 399v201h197v-201h-197zM1801 600v200h197v-200h-197zM1801 800v201h197v-201h-197zM1801 1001v201h197v-201h-197zM1801 1202v196h197v-196h-197z " />
<glyph unicode="I" horiz-adv-x="798" d="M0 -2h201v-196h-201v196zM0 -2v201h201v-201h-201zM0 199v200h201v-200h-201zM0 399v201h201v-201h-201zM0 600v200h201v-200h-201zM0 800v201h201v-201h-201zM0 1001v201h201v-201h-201zM0 1202v196h201v-196h-201zM0 1398v201h201v-201h-201zM201 -2h200v-196h-200v196 zM201 -198h200v-198h-200v198zM201 1398v201h200v-201h-200zM401 -2h201v-196h-201v196zM401 -198h201v-198h-201v198zM401 1398v201h201v-201h-201zM602 -2v201h196v-201h-196zM602 -2h196v-196h-196v196zM602 -198h196v-198h-196v198zM602 199v200h196v-200h-196zM602 399 v201h196v-201h-196zM602 600v200h196v-200h-196zM602 800v201h196v-201h-196zM602 1001v201h196v-201h-196zM602 1202v196h196v-196h-196zM602 1398v201h196v-201h-196zM798 -2h201v-196h-201v196zM798 -2v201h201v-201h-201zM798 -198h201v-198h-201v198zM798 199v200h201 v-200h-201zM798 399v201h201v-201h-201zM798 600v200h201v-200h-201zM798 800v201h201v-201h-201zM798 1001v201h201v-201h-201zM798 1202v196h201v-196h-201z" />
<glyph unicode="J" d="M0 -2v201h201v-201h-201zM0 199v200h201v-200h-201zM0 399v201h201v-201h-201zM0 600v200h201v-200h-201zM201 -2h200v-196h-200v196zM201 -2v201h200v-201h-200zM201 600v200h200v-200h-200zM401 -2h201v-196h-201v196zM401 -198h201v-198h-201v198zM401 600v200h201 v-200h-201zM602 -2h196v-196h-196v196zM602 -198h196v-198h-196v198zM602 199v200h196v-200h-196zM602 399v201h196v-201h-196zM602 600v200h196v-200h-196zM798 -2h201v-196h-201v196zM798 -198h201v-198h-201v198zM798 199v200h201v-200h-201zM798 399v201h201v-201h-201z M798 600v200h201v-200h-201zM999 -2h201v-196h-201v196zM999 -198h201v-198h-201v198zM999 199v200h201v-200h-201zM999 399v201h201v-201h-201zM999 600v200h201v-200h-201zM999 800v201h201v-201h-201zM999 1001v201h201v-201h-201zM999 1202v196h201v-196h-201zM999 1398 v201h201v-201h-201zM1200 -2h200v-196h-200v196zM1200 -198h200v-198h-200v198zM1200 1398v201h200v-201h-200zM1400 -2h201v-196h-201v196zM1400 -2v201h201v-201h-201zM1400 -198h201v-198h-201v198zM1400 1398v201h201v-201h-201zM1601 -2h200v-196h-200v196zM1601 -2 v201h200v-201h-200zM1601 -198h200v-198h-200v198zM1601 199v200h200v-200h-200zM1601 399v201h200v-201h-200zM1601 600v200h200v-200h-200zM1601 800v201h200v-201h-200zM1601 1001v201h200v-201h-200zM1601 1202v196h200v-196h-200zM1601 1398v201h200v-201h-200z M1801 -2v201h197v-201h-197zM1801 -2h197v-196h-197v196zM1801 199v200h197v-200h-197zM1801 399v201h197v-201h-197zM1801 600v200h197v-200h-197zM1801 800v201h197v-201h-197zM1801 1001v201h197v-201h-197zM1801 1202v196h197v-196h-197z" />
<glyph unicode="K" d="M0 -2h201v-196h-201v196zM0 -2v201h201v-201h-201zM0 199v200h201v-200h-201zM0 399v201h201v-201h-201zM0 600v200h201v-200h-201zM0 800v201h201v-201h-201zM0 1001v201h201v-201h-201zM0 1202v196h201v-196h-201zM0 1398v201h201v-201h-201zM201 -2h200v-196h-200v196 zM201 -198h200v-198h-200v198zM201 1398v201h200v-201h-200zM401 -2h201v-196h-201v196zM401 -198h201v-198h-201v198zM401 1398v201h201v-201h-201zM602 -2h196v-196h-196v196zM602 -2v201h196v-201h-196zM602 -198h196v-198h-196v198zM602 199v200h196v-200h-196zM602 399 v201h196v-201h-196zM602 800v201h196v-201h-196zM602 1001v201h196v-201h-196zM602 1202v196h196v-196h-196zM602 1398v201h196v-201h-196zM798 -2h201v-196h-201v196zM798 -2v201h201v-201h-201zM798 -198h201v-198h-201v198zM798 199v200h201v-200h-201zM798 1001v201h201 v-201h-201zM798 1202v196h201v-196h-201zM999 -2h201v-196h-201v196zM999 -2v201h201v-201h-201zM999 600v200h201v-200h-201zM999 1202v196h201v-196h-201zM999 1398v201h201v-201h-201zM1200 -2h200v-196h-200v196zM1200 -198h200v-198h-200v198zM1200 399v201h200v-201 h-200zM1200 600v200h200v-200h-200zM1200 800v201h200v-201h-200zM1200 1398v201h200v-201h-200zM1400 -2h201v-196h-201v196zM1400 -198h201v-198h-201v198zM1400 199v200h201v-200h-201zM1400 399v201h201v-201h-201zM1400 600v200h201v-200h-201zM1400 800v201h201v-201 h-201zM1400 1001v201h201v-201h-201zM1400 1398v201h201v-201h-201zM1601 -2v201h200v-201h-200zM1601 -2h200v-196h-200v196zM1601 -198h200v-198h-200v198zM1601 199v200h200v-200h-200zM1601 600v200h200v-200h-200zM1601 800v201h200v-201h-200zM1601 1001v201h200v-201 h-200zM1601 1202v196h200v-196h-200zM1601 1398v201h200v-201h-200zM1801 -2h197v-196h-197v196zM1801 -2v201h197v-201h-197zM1801 -198h197v-198h-197v198zM1801 800v201h197v-201h-197zM1801 1001v201h197v-201h-197zM1801 1202v196h197v-196h-197z" />
<glyph unicode="L" horiz-adv-x="1601" d="M0 -2h201v-196h-201v196zM0 -2v201h201v-201h-201zM0 199v200h201v-200h-201zM0 399v201h201v-201h-201zM0 600v200h201v-200h-201zM0 800v201h201v-201h-201zM0 1001v201h201v-201h-201zM0 1202v196h201v-196h-201zM0 1398v201h201v-201h-201zM201 -2h200v-196h-200v196 zM201 -198h200v-198h-200v198zM201 1398v201h200v-201h-200zM401 -2h201v-196h-201v196zM401 -198h201v-198h-201v198zM401 1398v201h201v-201h-201zM602 -2h196v-196h-196v196zM602 -198h196v-198h-196v198zM602 199v200h196v-200h-196zM602 399v201h196v-201h-196z M602 600v200h196v-200h-196zM602 800v201h196v-201h-196zM602 1001v201h196v-201h-196zM602 1202v196h196v-196h-196zM602 1398v201h196v-201h-196zM798 -2h201v-196h-201v196zM798 -198h201v-198h-201v198zM798 199v200h201v-200h-201zM798 399v201h201v-201h-201zM798 600 v200h201v-200h-201zM798 800v201h201v-201h-201zM798 1001v201h201v-201h-201zM798 1202v196h201v-196h-201zM999 -2h201v-196h-201v196zM999 -198h201v-198h-201v198zM999 199v200h201v-200h-201zM1200 -2h200v-196h-200v196zM1200 -198h200v-198h-200v198zM1200 199v200 h200v-200h-200zM1400 -2v201h201v-201h-201zM1400 -2h201v-196h-201v196zM1400 -198h201v-198h-201v198zM1400 199v200h201v-200h-201zM1601 -2h200v-196h-200v196zM1601 -2v201h200v-201h-200zM1601 -198h200v-198h-200v198z" />
<glyph unicode="M" d="M0 -2h201v-196h-201v196zM0 -2v201h201v-201h-201zM0 199v200h201v-200h-201zM0 399v201h201v-201h-201zM0 600v200h201v-200h-201zM0 800v201h201v-201h-201zM0 1001v201h201v-201h-201zM0 1202v196h201v-196h-201zM0 1398v201h201v-201h-201zM201 -2h200v-196h-200v196 zM201 -198h200v-198h-200v198zM201 1398v201h200v-201h-200zM401 -2h201v-196h-201v196zM401 -198h201v-198h-201v198zM401 1398v201h201v-201h-201zM602 -2h196v-196h-196v196zM602 -2v201h196v-201h-196zM602 -198h196v-198h-196v198zM602 199v200h196v-200h-196zM602 399 v201h196v-201h-196zM602 600v200h196v-200h-196zM602 1202v196h196v-196h-196zM602 1398v201h196v-201h-196zM798 -2v201h201v-201h-201zM798 -2h201v-196h-201v196zM798 -198h201v-198h-201v198zM798 199v200h201v-200h-201zM798 399v201h201v-201h-201zM798 1001v201h201 v-201h-201zM798 1202v196h201v-196h-201zM999 -2v201h201v-201h-201zM999 -2h201v-196h-201v196zM999 199v200h201v-200h-201zM999 399v201h201v-201h-201zM999 600v200h201v-200h-201zM999 1202v196h201v-196h-201zM999 1398v201h201v-201h-201zM1200 -2h200v-196h-200v196 zM1200 -198h200v-198h-200v198zM1200 1398v201h200v-201h-200zM1400 -2h201v-196h-201v196zM1400 -198h201v-198h-201v198zM1400 1398v201h201v-201h-201zM1601 -2v201h200v-201h-200zM1601 -2h200v-196h-200v196zM1601 -198h200v-198h-200v198zM1601 199v200h200v-200h-200 zM1601 399v201h200v-201h-200zM1601 600v200h200v-200h-200zM1601 800v201h200v-201h-200zM1601 1001v201h200v-201h-200zM1601 1202v196h200v-196h-200zM1601 1398v201h200v-201h-200zM1801 -2h197v-196h-197v196zM1801 -2v201h197v-201h-197zM1801 -198h197v-198h-197v198 zM1801 199v200h197v-200h-197zM1801 399v201h197v-201h-197zM1801 600v200h197v-200h-197zM1801 800v201h197v-201h-197zM1801 1001v201h197v-201h-197zM1801 1202v196h197v-196h-197z" />
<glyph unicode="N" d="M0 -2h201v-196h-201v196zM0 -2v201h201v-201h-201zM0 199v200h201v-200h-201zM0 399v201h201v-201h-201zM0 600v200h201v-200h-201zM0 800v201h201v-201h-201zM0 1001v201h201v-201h-201zM0 1202v196h201v-196h-201zM0 1398v201h201v-201h-201zM201 -2h200v-196h-200v196 zM201 -198h200v-198h-200v198zM201 1398v201h200v-201h-200zM401 -2h201v-196h-201v196zM401 -198h201v-198h-201v198zM401 1398v201h201v-201h-201zM602 -2h196v-196h-196v196zM602 -2v201h196v-201h-196zM602 -198h196v-198h-196v198zM602 199v200h196v-200h-196zM602 399 v201h196v-201h-196zM602 600v200h196v-200h-196zM602 1202v196h196v-196h-196zM602 1398v201h196v-201h-196zM798 -2v201h201v-201h-201zM798 -2h201v-196h-201v196zM798 -198h201v-198h-201v198zM798 199v200h201v-200h-201zM798 399v201h201v-201h-201zM798 1001v201h201 v-201h-201zM798 1202v196h201v-196h-201zM999 -2v201h201v-201h-201zM999 -2h201v-196h-201v196zM999 199v200h201v-200h-201zM999 800v201h201v-201h-201zM999 1001v201h201v-201h-201zM999 1202v196h201v-196h-201zM999 1398v201h201v-201h-201zM1200 -2h200v-196h-200 v196zM1200 -198h200v-198h-200v198zM1200 1398v201h200v-201h-200zM1400 -2h201v-196h-201v196zM1400 -198h201v-198h-201v198zM1400 1398v201h201v-201h-201zM1601 -2v201h200v-201h-200zM1601 -2h200v-196h-200v196zM1601 -198h200v-198h-200v198zM1601 199v200h200v-200 h-200zM1601 399v201h200v-201h-200zM1601 600v200h200v-200h-200zM1601 800v201h200v-201h-200zM1601 1001v201h200v-201h-200zM1601 1202v196h200v-196h-200zM1601 1398v201h200v-201h-200zM1801 -2h197v-196h-197v196zM1801 -2v201h197v-201h-197zM1801 -198h197v-198 h-197v198zM1801 199v200h197v-200h-197zM1801 399v201h197v-201h-197zM1801 600v200h197v-200h-197zM1801 800v201h197v-201h-197zM1801 1001v201h197v-201h-197zM1801 1202v196h197v-196h-197z" />
<glyph unicode="O" d="M0 -2v201h201v-201h-201zM0 199v200h201v-200h-201zM0 399v201h201v-201h-201zM0 600v200h201v-200h-201zM0 800v201h201v-201h-201zM0 1001v201h201v-201h-201zM0 1202v196h201v-196h-201zM201 -2v201h200v-201h-200zM201 -2h200v-196h-200v196zM201 1202v196h200v-196 h-200zM201 1398v201h200v-201h-200zM401 -2h201v-196h-201v196zM401 -198h201v-198h-201v198zM401 1398v201h201v-201h-201zM602 -2h196v-196h-196v196zM602 -198h196v-198h-196v198zM602 199v200h196v-200h-196zM602 399v201h196v-201h-196zM602 600v200h196v-200h-196z M602 800v201h196v-201h-196zM602 1001v201h196v-201h-196zM602 1398v201h196v-201h-196zM798 -2h201v-196h-201v196zM798 -198h201v-198h-201v198zM798 199v200h201v-200h-201zM798 399v201h201v-201h-201zM798 600v200h201v-200h-201zM798 800v201h201v-201h-201zM798 1001 v201h201v-201h-201zM798 1398v201h201v-201h-201zM999 -2h201v-196h-201v196zM999 -198h201v-198h-201v198zM999 199v200h201v-200h-201zM999 399v201h201v-201h-201zM999 600v200h201v-200h-201zM999 800v201h201v-201h-201zM999 1001v201h201v-201h-201zM999 1398v201h201 v-201h-201zM1200 -2h200v-196h-200v196zM1200 -198h200v-198h-200v198zM1200 1398v201h200v-201h-200zM1400 -2v201h201v-201h-201zM1400 -2h201v-196h-201v196zM1400 -198h201v-198h-201v198zM1400 1202v196h201v-196h-201zM1400 1398v201h201v-201h-201zM1601 -2h200v-196 h-200v196zM1601 -2v201h200v-201h-200zM1601 -198h200v-198h-200v198zM1601 199v200h200v-200h-200zM1601 399v201h200v-201h-200zM1601 600v200h200v-200h-200zM1601 800v201h200v-201h-200zM1601 1001v201h200v-201h-200zM1601 1202v196h200v-196h-200zM1801 -2v201h197 v-201h-197zM1801 -2h197v-196h-197v196zM1801 199v200h197v-200h-197zM1801 399v201h197v-201h-197zM1801 600v200h197v-200h-197zM1801 800v201h197v-201h-197zM1801 1001v201h197v-201h-197z" />
<glyph unicode="P" d="M0 -2h201v-196h-201v196zM0 -2v201h201v-201h-201zM0 199v200h201v-200h-201zM0 399v201h201v-201h-201zM0 600v200h201v-200h-201zM0 800v201h201v-201h-201zM0 1001v201h201v-201h-201zM0 1202v196h201v-196h-201zM0 1398v201h201v-201h-201zM201 -2h200v-196h-200v196 zM201 -198h200v-198h-200v198zM201 1398v201h200v-201h-200zM401 -2h201v-196h-201v196zM401 -198h201v-198h-201v198zM401 1398v201h201v-201h-201zM602 -2h196v-196h-196v196zM602 -2v201h196v-201h-196zM602 -198h196v-198h-196v198zM602 199v200h196v-200h-196zM602 600 v200h196v-200h-196zM602 800v201h196v-201h-196zM602 1001v201h196v-201h-196zM602 1398v201h196v-201h-196zM798 -2h201v-196h-201v196zM798 -2v201h201v-201h-201zM798 -198h201v-198h-201v198zM798 199v200h201v-200h-201zM798 600v200h201v-200h-201zM798 800v201h201 v-201h-201zM798 1001v201h201v-201h-201zM798 1398v201h201v-201h-201zM999 -2v201h201v-201h-201zM999 199v200h201v-200h-201zM999 600v200h201v-200h-201zM999 800v201h201v-201h-201zM999 1001v201h201v-201h-201zM999 1398v201h201v-201h-201zM1200 -2v201h200v-201 h-200zM1200 199v200h200v-200h-200zM1200 1398v201h200v-201h-200zM1400 -2v201h201v-201h-201zM1400 199v200h201v-200h-201zM1400 399v201h201v-201h-201zM1400 1202v196h201v-196h-201zM1400 1398v201h201v-201h-201zM1601 -2v201h200v-201h-200zM1601 199v200h200v-200 h-200zM1601 399v201h200v-201h-200zM1601 600v200h200v-200h-200zM1601 800v201h200v-201h-200zM1601 1001v201h200v-201h-200zM1601 1202v196h200v-196h-200zM1801 199v200h197v-200h-197zM1801 399v201h197v-201h-197zM1801 600v200h197v-200h-197zM1801 800v201h197v-201 h-197zM1801 1001v201h197v-201h-197z" />
<glyph unicode="Q" d="M0 -2v201h201v-201h-201zM0 199v200h201v-200h-201zM0 399v201h201v-201h-201zM0 600v200h201v-200h-201zM0 800v201h201v-201h-201zM0 1001v201h201v-201h-201zM0 1202v196h201v-196h-201zM201 -2v201h200v-201h-200zM201 -2h200v-196h-200v196zM201 1202v196h200v-196 h-200zM201 1398v201h200v-201h-200zM401 -2h201v-196h-201v196zM401 -198h201v-198h-201v198zM401 1398v201h201v-201h-201zM602 -2h196v-196h-196v196zM602 -198h196v-198h-196v198zM602 199v200h196v-200h-196zM602 399v201h196v-201h-196zM602 600v200h196v-200h-196z M602 800v201h196v-201h-196zM602 1001v201h196v-201h-196zM602 1398v201h196v-201h-196zM798 -2h201v-196h-201v196zM798 -198h201v-198h-201v198zM798 199v200h201v-200h-201zM798 399v201h201v-201h-201zM798 600v200h201v-200h-201zM798 800v201h201v-201h-201zM798 1001 v201h201v-201h-201zM798 1398v201h201v-201h-201zM999 -2h201v-196h-201v196zM999 -198h201v-198h-201v198zM999 399v201h201v-201h-201zM999 600v200h201v-200h-201zM999 800v201h201v-201h-201zM999 1001v201h201v-201h-201zM999 1398v201h201v-201h-201zM1200 -2h200 v-196h-200v196zM1200 -198h200v-198h-200v198zM1200 1398v201h200v-201h-200zM1400 -2h201v-196h-201v196zM1400 -198h201v-198h-201v198zM1400 199v200h201v-200h-201zM1400 1202v196h201v-196h-201zM1400 1398v201h201v-201h-201zM1601 -2h200v-196h-200v196zM1601 -2v201 h200v-201h-200zM1601 -198h200v-198h-200v198zM1601 199v200h200v-200h-200zM1601 399v201h200v-201h-200zM1601 600v200h200v-200h-200zM1601 800v201h200v-201h-200zM1601 1001v201h200v-201h-200zM1601 1202v196h200v-196h-200zM1801 -2h197v-196h-197v196zM1801 -2v201 h197v-201h-197zM1801 -198h197v-198h-197v198zM1801 199v200h197v-200h-197zM1801 399v201h197v-201h-197zM1801 600v200h197v-200h-197zM1801 800v201h197v-201h-197zM1801 1001v201h197v-201h-197z" />
<glyph unicode="R" d="M0 -2h201v-196h-201v196zM0 -2v201h201v-201h-201zM0 199v200h201v-200h-201zM0 399v201h201v-201h-201zM0 600v200h201v-200h-201zM0 800v201h201v-201h-201zM0 1001v201h201v-201h-201zM0 1202v196h201v-196h-201zM0 1398v201h201v-201h-201zM201 -2h200v-196h-200v196 zM201 -198h200v-198h-200v198zM201 1398v201h200v-201h-200zM401 -2h201v-196h-201v196zM401 -198h201v-198h-201v198zM401 1398v201h201v-201h-201zM602 -2h196v-196h-196v196zM602 -2v201h196v-201h-196zM602 -198h196v-198h-196v198zM602 199v200h196v-200h-196zM602 399 v201h196v-201h-196zM602 800v201h196v-201h-196zM602 1001v201h196v-201h-196zM602 1398v201h196v-201h-196zM798 -2v201h201v-201h-201zM798 -2h201v-196h-201v196zM798 -198h201v-198h-201v198zM798 199v200h201v-200h-201zM798 399v201h201v-201h-201zM798 800v201h201 v-201h-201zM798 1001v201h201v-201h-201zM798 1398v201h201v-201h-201zM999 -2v201h201v-201h-201zM999 -2h201v-196h-201v196zM999 199v200h201v-200h-201zM999 399v201h201v-201h-201zM999 800v201h201v-201h-201zM999 1001v201h201v-201h-201zM999 1398v201h201v-201 h-201zM1200 -2h200v-196h-200v196zM1200 -198h200v-198h-200v198zM1200 1398v201h200v-201h-200zM1400 -2h201v-196h-201v196zM1400 -198h201v-198h-201v198zM1400 600v200h201v-200h-201zM1400 1202v196h201v-196h-201zM1400 1398v201h201v-201h-201zM1601 -2h200v-196 h-200v196zM1601 -2v201h200v-201h-200zM1601 -198h200v-198h-200v198zM1601 199v200h200v-200h-200zM1601 399v201h200v-201h-200zM1601 600v200h200v-200h-200zM1601 800v201h200v-201h-200zM1601 1001v201h200v-201h-200zM1601 1202v196h200v-196h-200zM1801 -2h197v-196 h-197v196zM1801 -2v201h197v-201h-197zM1801 -198h197v-198h-197v198zM1801 199v200h197v-200h-197zM1801 399v201h197v-201h-197zM1801 600v200h197v-200h-197zM1801 800v201h197v-201h-197zM1801 1001v201h197v-201h-197z" />
<glyph unicode="S" d="M0 -2v201h201v-201h-201zM0 199v200h201v-200h-201zM0 399v201h201v-201h-201zM0 600v200h201v-200h-201zM0 800v201h201v-201h-201zM0 1001v201h201v-201h-201zM0 1202v196h201v-196h-201zM201 -2v201h200v-201h-200zM201 -2h200v-196h-200v196zM201 399v201h200v-201 h-200zM201 600v200h200v-200h-200zM201 1202v196h200v-196h-200zM201 1398v201h200v-201h-200zM401 -2h201v-196h-201v196zM401 -198h201v-198h-201v198zM401 399v201h201v-201h-201zM401 1398v201h201v-201h-201zM602 -2h196v-196h-196v196zM602 -198h196v-198h-196v198z M602 199v200h196v-200h-196zM602 399v201h196v-201h-196zM602 800v201h196v-201h-196zM602 1001v201h196v-201h-196zM602 1398v201h196v-201h-196zM798 -2h201v-196h-201v196zM798 -198h201v-198h-201v198zM798 199v200h201v-200h-201zM798 399v201h201v-201h-201zM798 800 v201h201v-201h-201zM798 1001v201h201v-201h-201zM798 1398v201h201v-201h-201zM999 -2h201v-196h-201v196zM999 -198h201v-198h-201v198zM999 199v200h201v-200h-201zM999 399v201h201v-201h-201zM999 800v201h201v-201h-201zM999 1001v201h201v-201h-201zM999 1398v201 h201v-201h-201zM1200 -2h200v-196h-200v196zM1200 -198h200v-198h-200v198zM1200 800v201h200v-201h-200zM1200 1398v201h200v-201h-200zM1400 -2h201v-196h-201v196zM1400 -2v201h201v-201h-201zM1400 -198h201v-198h-201v198zM1400 600v200h201v-200h-201zM1400 800v201 h201v-201h-201zM1400 1202v196h201v-196h-201zM1400 1398v201h201v-201h-201zM1601 -2v201h200v-201h-200zM1601 -2h200v-196h-200v196zM1601 -198h200v-198h-200v198zM1601 199v200h200v-200h-200zM1601 399v201h200v-201h-200zM1601 600v200h200v-200h-200zM1601 800v201 h200v-201h-200zM1601 1001v201h200v-201h-200zM1601 1202v196h200v-196h-200zM1801 -2v201h197v-201h-197zM1801 -2h197v-196h-197v196zM1801 199v200h197v-200h-197zM1801 399v201h197v-201h-197zM1801 600v200h197v-200h-197zM1801 800v201h197v-201h-197zM1801 1001v201 h197v-201h-197z" />
<glyph unicode="T" horiz-adv-x="1601" d="M0 1001v201h201v-201h-201zM0 1202v196h201v-196h-201zM0 1398v201h201v-201h-201zM201 1001v201h200v-201h-200zM201 1398v201h200v-201h-200zM401 -2h201v-196h-201v196zM401 -2v201h201v-201h-201zM401 199v200h201v-200h-201zM401 399v201h201v-201h-201zM401 600 v200h201v-200h-201zM401 800v201h201v-201h-201zM401 1001v201h201v-201h-201zM401 1398v201h201v-201h-201zM602 -2h196v-196h-196v196zM602 -198h196v-198h-196v198zM602 1398v201h196v-201h-196zM798 -2h201v-196h-201v196zM798 -198h201v-198h-201v198zM798 1398v201 h201v-201h-201zM999 -2h201v-196h-201v196zM999 -2v201h201v-201h-201zM999 -198h201v-198h-201v198zM999 199v200h201v-200h-201zM999 399v201h201v-201h-201zM999 600v200h201v-200h-201zM999 800v201h201v-201h-201zM999 1001v201h201v-201h-201zM999 1398v201h201v-201 h-201zM1200 -2h200v-196h-200v196zM1200 -2v201h200v-201h-200zM1200 -198h200v-198h-200v198zM1200 199v200h200v-200h-200zM1200 399v201h200v-201h-200zM1200 600v200h200v-200h-200zM1200 800v201h200v-201h-200zM1200 1001v201h200v-201h-200zM1200 1398v201h200v-201 h-200zM1400 800v201h201v-201h-201zM1400 1001v201h201v-201h-201zM1400 1202v196h201v-196h-201zM1400 1398v201h201v-201h-201zM1601 800v201h200v-201h-200zM1601 1001v201h200v-201h-200zM1601 1202v196h200v-196h-200z" />
<glyph unicode="U" d="M0 -2v201h201v-201h-201zM0 199v200h201v-200h-201zM0 399v201h201v-201h-201zM0 600v200h201v-200h-201zM0 800v201h201v-201h-201zM0 1001v201h201v-201h-201zM0 1202v196h201v-196h-201zM0 1398v201h201v-201h-201zM201 -2v201h200v-201h-200zM201 -2h200v-196h-200 v196zM201 1398v201h200v-201h-200zM401 -2h201v-196h-201v196zM401 -198h201v-198h-201v198zM401 1398v201h201v-201h-201zM602 -2h196v-196h-196v196zM602 -198h196v-198h-196v198zM602 199v200h196v-200h-196zM602 399v201h196v-201h-196zM602 600v200h196v-200h-196z M602 800v201h196v-201h-196zM602 1001v201h196v-201h-196zM602 1202v196h196v-196h-196zM602 1398v201h196v-201h-196zM798 -2h201v-196h-201v196zM798 -198h201v-198h-201v198zM798 199v200h201v-200h-201zM798 399v201h201v-201h-201zM798 600v200h201v-200h-201zM798 800 v201h201v-201h-201zM798 1001v201h201v-201h-201zM798 1202v196h201v-196h-201zM999 -2h201v-196h-201v196zM999 -198h201v-198h-201v198zM999 199v200h201v-200h-201zM999 399v201h201v-201h-201zM999 600v200h201v-200h-201zM999 800v201h201v-201h-201zM999 1001v201h201 v-201h-201zM999 1202v196h201v-196h-201zM999 1398v201h201v-201h-201zM1200 -2h200v-196h-200v196zM1200 -198h200v-198h-200v198zM1200 1398v201h200v-201h-200zM1400 -2h201v-196h-201v196zM1400 -2v201h201v-201h-201zM1400 -198h201v-198h-201v198zM1400 1398v201h201 v-201h-201zM1601 -2h200v-196h-200v196zM1601 -2v201h200v-201h-200zM1601 -198h200v-198h-200v198zM1601 199v200h200v-200h-200zM1601 399v201h200v-201h-200zM1601 600v200h200v-200h-200zM1601 800v201h200v-201h-200zM1601 1001v201h200v-201h-200zM1601 1202v196h200 v-196h-200zM1601 1398v201h200v-201h-200zM1801 -2v201h197v-201h-197zM1801 -2h197v-196h-197v196zM1801 199v200h197v-200h-197zM1801 399v201h197v-201h-197zM1801 600v200h197v-200h-197zM1801 800v201h197v-201h-197zM1801 1001v201h197v-201h-197zM1801 1202v196h197 v-196h-197z" />
<glyph unicode="V" d="M0 399v201h201v-201h-201zM0 600v200h201v-200h-201zM0 800v201h201v-201h-201zM0 1001v201h201v-201h-201zM0 1202v196h201v-196h-201zM0 1398v201h201v-201h-201zM201 199v200h200v-200h-200zM201 399v201h200v-201h-200zM201 1398v201h200v-201h-200zM401 -2v201h201 v-201h-201zM401 199v200h201v-200h-201zM401 1398v201h201v-201h-201zM602 -2h196v-196h-196v196zM602 -2v201h196v-201h-196zM602 600v200h196v-200h-196zM602 800v201h196v-201h-196zM602 1001v201h196v-201h-196zM602 1202v196h196v-196h-196zM602 1398v201h196v-201 h-196zM798 -2h201v-196h-201v196zM798 -198h201v-198h-201v198zM798 399v201h201v-201h-201zM798 600v200h201v-200h-201zM798 800v201h201v-201h-201zM798 1001v201h201v-201h-201zM798 1202v196h201v-196h-201zM999 -2h201v-196h-201v196zM999 -2v201h201v-201h-201z M999 -198h201v-198h-201v198zM999 600v200h201v-200h-201zM999 800v201h201v-201h-201zM999 1001v201h201v-201h-201zM999 1202v196h201v-196h-201zM999 1398v201h201v-201h-201zM1200 -2h200v-196h-200v196zM1200 -2v201h200v-201h-200zM1200 -198h200v-198h-200v198z M1200 199v200h200v-200h-200zM1200 1398v201h200v-201h-200zM1400 -2v201h201v-201h-201zM1400 -2h201v-196h-201v196zM1400 199v200h201v-200h-201zM1400 399v201h201v-201h-201zM1400 1398v201h201v-201h-201zM1601 -2v201h200v-201h-200zM1601 199v200h200v-200h-200z M1601 399v201h200v-201h-200zM1601 600v200h200v-200h-200zM1601 800v201h200v-201h-200zM1601 1001v201h200v-201h-200zM1601 1202v196h200v-196h-200zM1601 1398v201h200v-201h-200zM1801 199v200h197v-200h-197zM1801 399v201h197v-201h-197zM1801 600v200h197v-200h-197 zM1801 800v201h197v-201h-197zM1801 1001v201h197v-201h-197zM1801 1202v196h197v-196h-197z" />
<glyph unicode="W" d="M0 -2h201v-196h-201v196zM0 -2v201h201v-201h-201zM0 199v200h201v-200h-201zM0 399v201h201v-201h-201zM0 600v200h201v-200h-201zM0 800v201h201v-201h-201zM0 1001v201h201v-201h-201zM0 1202v196h201v-196h-201zM0 1398v201h201v-201h-201zM201 -2h200v-196h-200v196 zM201 -198h200v-198h-200v198zM201 1398v201h200v-201h-200zM401 -2h201v-196h-201v196zM401 -198h201v-198h-201v198zM401 1398v201h201v-201h-201zM602 -2h196v-196h-196v196zM602 -2v201h196v-201h-196zM602 -198h196v-198h-196v198zM602 600v200h196v-200h-196zM602 800 v201h196v-201h-196zM602 1001v201h196v-201h-196zM602 1202v196h196v-196h-196zM602 1398v201h196v-201h-196zM798 -2v201h201v-201h-201zM798 -2h201v-196h-201v196zM798 -198h201v-198h-201v198zM798 199v200h201v-200h-201zM798 800v201h201v-201h-201zM798 1001v201h201 v-201h-201zM798 1202v196h201v-196h-201zM999 -2v201h201v-201h-201zM999 -2h201v-196h-201v196zM999 600v200h201v-200h-201zM999 800v201h201v-201h-201zM999 1001v201h201v-201h-201zM999 1202v196h201v-196h-201zM999 1398v201h201v-201h-201zM1200 -2h200v-196h-200 v196zM1200 -198h200v-198h-200v198zM1200 1398v201h200v-201h-200zM1400 -2h201v-196h-201v196zM1400 -198h201v-198h-201v198zM1400 1398v201h201v-201h-201zM1601 -2v201h200v-201h-200zM1601 -2h200v-196h-200v196zM1601 -198h200v-198h-200v198zM1601 199v200h200v-200 h-200zM1601 399v201h200v-201h-200zM1601 600v200h200v-200h-200zM1601 800v201h200v-201h-200zM1601 1001v201h200v-201h-200zM1601 1202v196h200v-196h-200zM1601 1398v201h200v-201h-200zM1801 -2h197v-196h-197v196zM1801 -2v201h197v-201h-197zM1801 -198h197v-198 h-197v198zM1801 199v200h197v-200h-197zM1801 399v201h197v-201h-197zM1801 600v200h197v-200h-197zM1801 800v201h197v-201h-197zM1801 1001v201h197v-201h-197zM1801 1202v196h197v-196h-197z" />
<glyph unicode="X" d="M0 -2h201v-196h-201v196zM0 -2v201h201v-201h-201zM0 199v200h201v-200h-201zM0 399v201h201v-201h-201zM0 800v201h201v-201h-201zM0 1001v201h201v-201h-201zM0 1202v196h201v-196h-201zM0 1398v201h201v-201h-201zM201 -2h200v-196h-200v196zM201 -198h200v-198h-200 v198zM201 399v201h200v-201h-200zM201 600v200h200v-200h-200zM201 800v201h200v-201h-200zM201 1398v201h200v-201h-200zM401 -2h201v-196h-201v196zM401 -198h201v-198h-201v198zM401 600v200h201v-200h-201zM401 1398v201h201v-201h-201zM602 -2v201h196v-201h-196z M602 -2h196v-196h-196v196zM602 -198h196v-198h-196v198zM602 1202v196h196v-196h-196zM602 1398v201h196v-201h-196zM798 -2h201v-196h-201v196zM798 -2v201h201v-201h-201zM798 -198h201v-198h-201v198zM798 199v200h201v-200h-201zM798 1001v201h201v-201h-201zM798 1202 v196h201v-196h-201zM999 -2v201h201v-201h-201zM999 -2h201v-196h-201v196zM999 1202v196h201v-196h-201zM999 1398v201h201v-201h-201zM1200 -2h200v-196h-200v196zM1200 -198h200v-198h-200v198zM1200 600v200h200v-200h-200zM1200 1398v201h200v-201h-200zM1400 -2h201 v-196h-201v196zM1400 -198h201v-198h-201v198zM1400 399v201h201v-201h-201zM1400 600v200h201v-200h-201zM1400 800v201h201v-201h-201zM1400 1398v201h201v-201h-201zM1601 -2h200v-196h-200v196zM1601 -2v201h200v-201h-200zM1601 -198h200v-198h-200v198zM1601 199v200 h200v-200h-200zM1601 399v201h200v-201h-200zM1601 600v200h200v-200h-200zM1601 800v201h200v-201h-200zM1601 1001v201h200v-201h-200zM1601 1202v196h200v-196h-200zM1601 1398v201h200v-201h-200zM1801 -2h197v-196h-197v196zM1801 -2v201h197v-201h-197zM1801 -198h197 v-198h-197v198zM1801 199v200h197v-200h-197zM1801 600v200h197v-200h-197zM1801 800v201h197v-201h-197zM1801 1001v201h197v-201h-197zM1801 1202v196h197v-196h-197z" />
<glyph unicode="Y" horiz-adv-x="1601" d="M0 600v200h201v-200h-201zM0 800v201h201v-201h-201zM0 1001v201h201v-201h-201zM0 1202v196h201v-196h-201zM0 1398v201h201v-201h-201zM201 399v201h200v-201h-200zM201 600v200h200v-200h-200zM201 1398v201h200v-201h-200zM401 -2v201h201v-201h-201zM401 -2h201 v-196h-201v196zM401 199v200h201v-200h-201zM401 399v201h201v-201h-201zM401 1398v201h201v-201h-201zM602 -2h196v-196h-196v196zM602 -198h196v-198h-196v198zM602 800v201h196v-201h-196zM602 1001v201h196v-201h-196zM602 1202v196h196v-196h-196zM602 1398v201h196 v-201h-196zM798 -2h201v-196h-201v196zM798 -198h201v-198h-201v198zM798 800v201h201v-201h-201zM798 1001v201h201v-201h-201zM798 1202v196h201v-196h-201zM798 1398v201h201v-201h-201zM999 -2h201v-196h-201v196zM999 -2v201h201v-201h-201zM999 -198h201v-198h-201 v198zM999 199v200h201v-200h-201zM999 399v201h201v-201h-201zM999 1398v201h201v-201h-201zM1200 -2v201h200v-201h-200zM1200 -2h200v-196h-200v196zM1200 -198h200v-198h-200v198zM1200 199v200h200v-200h-200zM1200 399v201h200v-201h-200zM1200 600v200h200v-200h-200z M1200 1398v201h200v-201h-200zM1400 199v200h201v-200h-201zM1400 399v201h201v-201h-201zM1400 600v200h201v-200h-201zM1400 800v201h201v-201h-201zM1400 1001v201h201v-201h-201zM1400 1202v196h201v-196h-201zM1400 1398v201h201v-201h-201zM1601 399v201h200v-201 h-200zM1601 600v200h200v-200h-200zM1601 800v201h200v-201h-200zM1601 1001v201h200v-201h-200zM1601 1202v196h200v-196h-200z" />
<glyph unicode="Z" d="M0 -2v201h201v-201h-201zM0 -2h201v-196h-201v196zM0 199v200h201v-200h-201zM0 399v201h201v-201h-201zM0 1001v201h201v-201h-201zM0 1202v196h201v-196h-201zM0 1398v201h201v-201h-201zM201 -2h200v-196h-200v196zM201 -198h200v-198h-200v198zM201 399v201h200v-201 h-200zM201 600v200h200v-200h-200zM201 1001v201h200v-201h-200zM201 1398v201h200v-201h-200zM401 -2h201v-196h-201v196zM401 -198h201v-198h-201v198zM401 600v200h201v-200h-201zM401 800v201h201v-201h-201zM401 1001v201h201v-201h-201zM401 1398v201h201v-201h-201z M602 -2h196v-196h-196v196zM602 -198h196v-198h-196v198zM602 800v201h196v-201h-196zM602 1001v201h196v-201h-196zM602 1398v201h196v-201h-196zM798 -2h201v-196h-201v196zM798 -198h201v-198h-201v198zM798 199v200h201v-200h-201zM798 1001v201h201v-201h-201z M798 1398v201h201v-201h-201zM999 -2h201v-196h-201v196zM999 -198h201v-198h-201v198zM999 199v200h201v-200h-201zM999 399v201h201v-201h-201zM999 1398v201h201v-201h-201zM1200 -2h200v-196h-200v196zM1200 -198h200v-198h-200v198zM1200 199v200h200v-200h-200z M1200 399v201h200v-201h-200zM1200 600v200h200v-200h-200zM1200 1398v201h200v-201h-200zM1400 -2h201v-196h-201v196zM1400 -198h201v-198h-201v198zM1400 199v200h201v-200h-201zM1400 399v201h201v-201h-201zM1400 600v200h201v-200h-201zM1400 800v201h201v-201h-201z M1400 1398v201h201v-201h-201zM1601 -2h200v-196h-200v196zM1601 -2v201h200v-201h-200zM1601 -198h200v-198h-200v198zM1601 199v200h200v-200h-200zM1601 399v201h200v-201h-200zM1601 600v200h200v-200h-200zM1601 800v201h200v-201h-200zM1601 1001v201h200v-201h-200z M1601 1202v196h200v-196h-200zM1601 1398v201h200v-201h-200zM1801 -2h197v-196h-197v196zM1801 -2v201h197v-201h-197zM1801 -198h197v-198h-197v198zM1801 600v200h197v-200h-197zM1801 800v201h197v-201h-197zM1801 1001v201h197v-201h-197zM1801 1202v196h197v-196h-197 z" />
<glyph unicode="[" horiz-adv-x="569" />
<glyph unicode="\" horiz-adv-x="569" />
<glyph unicode="]" horiz-adv-x="569" />
<glyph unicode="^" horiz-adv-x="1400" d="M0 399v201h201v-201h-201zM0 600v200h201v-200h-201zM0 800v201h201v-201h-201zM0 1001v201h201v-201h-201zM201 199v200h200v-200h-200zM201 399v201h200v-201h-200zM201 1001v201h200v-201h-200zM201 1202v196h200v-196h-200zM401 199v200h201v-200h-201zM401 399v201 h201v-201h-201zM401 600v200h201v-200h-201zM401 1202v196h201v-196h-201zM401 1398v201h201v-201h-201zM602 199v200h196v-200h-196zM602 399v201h196v-201h-196zM602 600v200h196v-200h-196zM602 800v201h196v-201h-196zM602 1398v201h196v-201h-196zM798 399v201h201 v-201h-201zM798 600v200h201v-200h-201zM798 1202v196h201v-196h-201zM798 1398v201h201v-201h-201zM999 199v200h201v-200h-201zM999 399v201h201v-201h-201zM999 1001v201h201v-201h-201zM999 1202v196h201v-196h-201zM1200 199v200h200v-200h-200zM1200 399v201h200v-201 h-200zM1200 600v200h200v-200h-200zM1200 800v201h200v-201h-200zM1200 1001v201h200v-201h-200zM1400 199v200h201v-200h-201zM1400 399v201h201v-201h-201zM1400 600v200h201v-200h-201zM1400 800v201h201v-201h-201z" />
<glyph unicode="_" d="M0 -2h201v-196h-201v196zM0 -2v201h201v-201h-201zM0 199v200h201v-200h-201zM201 -2h200v-196h-200v196zM201 -198h200v-198h-200v198zM201 199v200h200v-200h-200zM401 -2h201v-196h-201v196zM401 -198h201v-198h-201v198zM401 199v200h201v-200h-201zM602 -2h196v-196 h-196v196zM602 -198h196v-198h-196v198zM602 199v200h196v-200h-196zM798 -2h201v-196h-201v196zM798 -198h201v-198h-201v198zM798 199v200h201v-200h-201zM999 -2h201v-196h-201v196zM999 -198h201v-198h-201v198zM999 199v200h201v-200h-201zM1200 -2h200v-196h-200v196z M1200 -198h200v-198h-200v198zM1200 199v200h200v-200h-200zM1400 -2h201v-196h-201v196zM1400 -198h201v-198h-201v198zM1400 199v200h201v-200h-201zM1601 -2h200v-196h-200v196zM1601 -2v201h200v-201h-200zM1601 -198h200v-198h-200v198zM1601 199v200h200v-200h-200z M1801 -2h197v-196h-197v196zM1801 -2v201h197v-201h-197zM1801 -198h197v-198h-197v198z" />
<glyph unicode="`" horiz-adv-x="682" />
<glyph unicode="a" d="M0 -2h201v-196h-201v196zM0 -2v201h201v-201h-201zM0 199v200h201v-200h-201zM0 399v201h201v-201h-201zM0 600v200h201v-200h-201zM0 800v201h201v-201h-201zM0 1001v201h201v-201h-201zM0 1202v196h201v-196h-201zM201 -2h200v-196h-200v196zM201 -198h200v-198h-200 v198zM201 1202v196h200v-196h-200zM201 1398v201h200v-201h-200zM401 -2h201v-196h-201v196zM401 -198h201v-198h-201v198zM401 1398v201h201v-201h-201zM602 -2h196v-196h-196v196zM602 -2v201h196v-201h-196zM602 -198h196v-198h-196v198zM602 199v200h196v-200h-196z M602 600v200h196v-200h-196zM602 800v201h196v-201h-196zM602 1001v201h196v-201h-196zM602 1398v201h196v-201h-196zM798 -2h201v-196h-201v196zM798 -2v201h201v-201h-201zM798 -198h201v-198h-201v198zM798 199v200h201v-200h-201zM798 600v200h201v-200h-201zM798 800 v201h201v-201h-201zM798 1001v201h201v-201h-201zM798 1398v201h201v-201h-201zM999 -2h201v-196h-201v196zM999 -2v201h201v-201h-201zM999 199v200h201v-200h-201zM999 600v200h201v-200h-201zM999 800v201h201v-201h-201zM999 1001v201h201v-201h-201zM999 1398v201h201 v-201h-201zM1200 -2h200v-196h-200v196zM1200 -198h200v-198h-200v198zM1200 1398v201h200v-201h-200zM1400 -2h201v-196h-201v196zM1400 -198h201v-198h-201v198zM1400 1202v196h201v-196h-201zM1400 1398v201h201v-201h-201zM1601 -2h200v-196h-200v196zM1601 -2v201h200 v-201h-200zM1601 -198h200v-198h-200v198zM1601 199v200h200v-200h-200zM1601 399v201h200v-201h-200zM1601 600v200h200v-200h-200zM1601 800v201h200v-201h-200zM1601 1001v201h200v-201h-200zM1601 1202v196h200v-196h-200zM1801 -2h197v-196h-197v196zM1801 -2v201h197 v-201h-197zM1801 -198h197v-198h-197v198zM1801 199v200h197v-200h-197zM1801 399v201h197v-201h-197zM1801 600v200h197v-200h-197zM1801 800v201h197v-201h-197zM1801 1001v201h197v-201h-197z" />
<glyph unicode="b" d="M0 -2h201v-196h-201v196zM0 -2v201h201v-201h-201zM0 199v200h201v-200h-201zM0 399v201h201v-201h-201zM0 600v200h201v-200h-201zM0 800v201h201v-201h-201zM0 1001v201h201v-201h-201zM0 1202v196h201v-196h-201zM0 1398v201h201v-201h-201zM201 -2h200v-196h-200v196 zM201 -198h200v-198h-200v198zM201 1398v201h200v-201h-200zM401 -2h201v-196h-201v196zM401 -198h201v-198h-201v198zM401 1398v201h201v-201h-201zM602 -2h196v-196h-196v196zM602 -198h196v-198h-196v198zM602 199v200h196v-200h-196zM602 399v201h196v-201h-196z M602 800v201h196v-201h-196zM602 1001v201h196v-201h-196zM602 1398v201h196v-201h-196zM798 -2h201v-196h-201v196zM798 -198h201v-198h-201v198zM798 199v200h201v-200h-201zM798 399v201h201v-201h-201zM798 800v201h201v-201h-201zM798 1001v201h201v-201h-201z M798 1398v201h201v-201h-201zM999 -2h201v-196h-201v196zM999 -198h201v-198h-201v198zM999 199v200h201v-200h-201zM999 399v201h201v-201h-201zM999 800v201h201v-201h-201zM999 1001v201h201v-201h-201zM999 1398v201h201v-201h-201zM1200 -2h200v-196h-200v196z M1200 -198h200v-198h-200v198zM1200 1398v201h200v-201h-200zM1400 -2v201h201v-201h-201zM1400 -2h201v-196h-201v196zM1400 -198h201v-198h-201v198zM1400 600v200h201v-200h-201zM1400 1202v196h201v-196h-201zM1400 1398v201h201v-201h-201zM1601 -2v201h200v-201h-200z M1601 -2h200v-196h-200v196zM1601 -198h200v-198h-200v198zM1601 199v200h200v-200h-200zM1601 399v201h200v-201h-200zM1601 600v200h200v-200h-200zM1601 800v201h200v-201h-200zM1601 1001v201h200v-201h-200zM1601 1202v196h200v-196h-200zM1801 -2h197v-196h-197v196z M1801 -2v201h197v-201h-197zM1801 199v200h197v-200h-197zM1801 399v201h197v-201h-197zM1801 600v200h197v-200h-197zM1801 800v201h197v-201h-197zM1801 1001v201h197v-201h-197z" />
<glyph unicode="c" d="M0 -2v201h201v-201h-201zM0 199v200h201v-200h-201zM0 399v201h201v-201h-201zM0 600v200h201v-200h-201zM0 800v201h201v-201h-201zM0 1001v201h201v-201h-201zM0 1202v196h201v-196h-201zM201 -2v201h200v-201h-200zM201 -2h200v-196h-200v196zM201 1202v196h200v-196 h-200zM201 1398v201h200v-201h-200zM401 -2h201v-196h-201v196zM401 -198h201v-198h-201v198zM401 1398v201h201v-201h-201zM602 -2h196v-196h-196v196zM602 -198h196v-198h-196v198zM602 199v200h196v-200h-196zM602 399v201h196v-201h-196zM602 600v200h196v-200h-196z M602 800v201h196v-201h-196zM602 1001v201h196v-201h-196zM602 1398v201h196v-201h-196zM798 -2h201v-196h-201v196zM798 -198h201v-198h-201v198zM798 199v200h201v-200h-201zM798 399v201h201v-201h-201zM798 600v200h201v-200h-201zM798 800v201h201v-201h-201zM798 1001 v201h201v-201h-201zM798 1398v201h201v-201h-201zM999 -2h201v-196h-201v196zM999 -198h201v-198h-201v198zM999 199v200h201v-200h-201zM999 399v201h201v-201h-201zM999 600v200h201v-200h-201zM999 800v201h201v-201h-201zM999 1001v201h201v-201h-201zM999 1398v201h201 v-201h-201zM1200 -2h200v-196h-200v196zM1200 -198h200v-198h-200v198zM1200 399v201h200v-201h-200zM1200 600v200h200v-200h-200zM1200 800v201h200v-201h-200zM1200 1398v201h200v-201h-200zM1400 -2h201v-196h-201v196zM1400 -2v201h201v-201h-201zM1400 -198h201v-198 h-201v198zM1400 399v201h201v-201h-201zM1400 600v200h201v-200h-201zM1400 800v201h201v-201h-201zM1400 1202v196h201v-196h-201zM1400 1398v201h201v-201h-201zM1601 -2v201h200v-201h-200zM1601 -2h200v-196h-200v196zM1601 -198h200v-198h-200v198zM1601 199v200h200 v-200h-200zM1601 399v201h200v-201h-200zM1601 600v200h200v-200h-200zM1601 800v201h200v-201h-200zM1601 1001v201h200v-201h-200zM1601 1202v196h200v-196h-200zM1801 -2v201h197v-201h-197zM1801 -2h197v-196h-197v196zM1801 199v200h197v-200h-197zM1801 600v200h197 v-200h-197zM1801 800v201h197v-201h-197zM1801 1001v201h197v-201h-197z" />
<glyph unicode="d" d="M0 -2h201v-196h-201v196zM0 -2v201h201v-201h-201zM0 199v200h201v-200h-201zM0 399v201h201v-201h-201zM0 600v200h201v-200h-201zM0 800v201h201v-201h-201zM0 1001v201h201v-201h-201zM0 1202v196h201v-196h-201zM0 1398v201h201v-201h-201zM201 -2h200v-196h-200v196 zM201 -198h200v-198h-200v198zM201 1398v201h200v-201h-200zM401 -2h201v-196h-201v196zM401 -198h201v-198h-201v198zM401 1398v201h201v-201h-201zM602 -2h196v-196h-196v196zM602 -198h196v-198h-196v198zM602 199v200h196v-200h-196zM602 399v201h196v-201h-196z M602 600v200h196v-200h-196zM602 800v201h196v-201h-196zM602 1001v201h196v-201h-196zM602 1398v201h196v-201h-196zM798 -2h201v-196h-201v196zM798 -198h201v-198h-201v198zM798 199v200h201v-200h-201zM798 399v201h201v-201h-201zM798 600v200h201v-200h-201zM798 800 v201h201v-201h-201zM798 1001v201h201v-201h-201zM798 1398v201h201v-201h-201zM999 -2h201v-196h-201v196zM999 -198h201v-198h-201v198zM999 399v201h201v-201h-201zM999 600v200h201v-200h-201zM999 800v201h201v-201h-201zM999 1398v201h201v-201h-201zM1200 -2h200 v-196h-200v196zM1200 -2v201h200v-201h-200zM1200 -198h200v-198h-200v198zM1200 1202v196h200v-196h-200zM1200 1398v201h200v-201h-200zM1400 -2v201h201v-201h-201zM1400 -2h201v-196h-201v196zM1400 -198h201v-198h-201v198zM1400 199v200h201v-200h-201zM1400 1001v201 h201v-201h-201zM1400 1202v196h201v-196h-201zM1601 -2h200v-196h-200v196zM1601 -2v201h200v-201h-200zM1601 199v200h200v-200h-200zM1601 399v201h200v-201h-200zM1601 600v200h200v-200h-200zM1601 800v201h200v-201h-200zM1601 1001v201h200v-201h-200zM1801 -2v201 h197v-201h-197zM1801 199v200h197v-200h-197zM1801 399v201h197v-201h-197zM1801 600v200h197v-200h-197zM1801 800v201h197v-201h-197z" />
<glyph unicode="e" d="M0 -2h201v-196h-201v196zM0 -2v201h201v-201h-201zM0 199v200h201v-200h-201zM0 399v201h201v-201h-201zM0 600v200h201v-200h-201zM0 800v201h201v-201h-201zM0 1001v201h201v-201h-201zM0 1202v196h201v-196h-201zM0 1398v201h201v-201h-201zM201 -2h200v-196h-200v196 zM201 -198h200v-198h-200v198zM201 1398v201h200v-201h-200zM401 -2h201v-196h-201v196zM401 -198h201v-198h-201v198zM401 1398v201h201v-201h-201zM602 -2h196v-196h-196v196zM602 -198h196v-198h-196v198zM602 199v200h196v-200h-196zM602 399v201h196v-201h-196z M602 800v201h196v-201h-196zM602 1001v201h196v-201h-196zM602 1398v201h196v-201h-196zM798 -2h201v-196h-201v196zM798 -198h201v-198h-201v198zM798 199v200h201v-200h-201zM798 399v201h201v-201h-201zM798 800v201h201v-201h-201zM798 1001v201h201v-201h-201z M798 1398v201h201v-201h-201zM999 -2h201v-196h-201v196zM999 -198h201v-198h-201v198zM999 199v200h201v-200h-201zM999 399v201h201v-201h-201zM999 800v201h201v-201h-201zM999 1001v201h201v-201h-201zM999 1398v201h201v-201h-201zM1200 -2h200v-196h-200v196z M1200 -198h200v-198h-200v198zM1200 199v200h200v-200h-200zM1200 399v201h200v-201h-200zM1200 800v201h200v-201h-200zM1200 1001v201h200v-201h-200zM1200 1398v201h200v-201h-200zM1400 -2h201v-196h-201v196zM1400 -198h201v-198h-201v198zM1400 199v200h201v-200h-201 zM1400 399v201h201v-201h-201zM1400 600v200h201v-200h-201zM1400 800v201h201v-201h-201zM1400 1001v201h201v-201h-201zM1400 1398v201h201v-201h-201zM1601 -2v201h200v-201h-200zM1601 -2h200v-196h-200v196zM1601 -198h200v-198h-200v198zM1601 199v200h200v-200h-200z M1601 399v201h200v-201h-200zM1601 600v200h200v-200h-200zM1601 800v201h200v-201h-200zM1601 1001v201h200v-201h-200zM1601 1202v196h200v-196h-200zM1601 1398v201h200v-201h-200zM1801 -2v201h197v-201h-197zM1801 -2h197v-196h-197v196zM1801 -198h197v-198h-197v198z M1801 800v201h197v-201h-197zM1801 1001v201h197v-201h-197zM1801 1202v196h197v-196h-197z" />
<glyph unicode="f" d="M0 -2h201v-196h-201v196zM0 -2v201h201v-201h-201zM0 199v200h201v-200h-201zM0 399v201h201v-201h-201zM0 600v200h201v-200h-201zM0 800v201h201v-201h-201zM0 1001v201h201v-201h-201zM0 1202v196h201v-196h-201zM0 1398v201h201v-201h-201zM201 -2h200v-196h-200v196 zM201 -198h200v-198h-200v198zM201 1398v201h200v-201h-200zM401 -2h201v-196h-201v196zM401 -198h201v-198h-201v198zM401 1398v201h201v-201h-201zM602 -2h196v-196h-196v196zM602 -2v201h196v-201h-196zM602 -198h196v-198h-196v198zM602 199v200h196v-200h-196zM602 399 v201h196v-201h-196zM602 800v201h196v-201h-196zM602 1001v201h196v-201h-196zM602 1398v201h196v-201h-196zM798 -2h201v-196h-201v196zM798 -2v201h201v-201h-201zM798 -198h201v-198h-201v198zM798 199v200h201v-200h-201zM798 399v201h201v-201h-201zM798 800v201h201 v-201h-201zM798 1001v201h201v-201h-201zM798 1398v201h201v-201h-201zM999 199v200h201v-200h-201zM999 399v201h201v-201h-201zM999 800v201h201v-201h-201zM999 1001v201h201v-201h-201zM999 1398v201h201v-201h-201zM1200 199v200h200v-200h-200zM1200 399v201h200v-201 h-200zM1200 800v201h200v-201h-200zM1200 1001v201h200v-201h-200zM1200 1398v201h200v-201h-200zM1400 199v200h201v-200h-201zM1400 399v201h201v-201h-201zM1400 600v200h201v-200h-201zM1400 800v201h201v-201h-201zM1400 1001v201h201v-201h-201zM1400 1398v201h201 v-201h-201zM1601 199v200h200v-200h-200zM1601 399v201h200v-201h-200zM1601 600v200h200v-200h-200zM1601 800v201h200v-201h-200zM1601 1001v201h200v-201h-200zM1601 1202v196h200v-196h-200zM1601 1398v201h200v-201h-200zM1801 800v201h197v-201h-197zM1801 1001v201 h197v-201h-197zM1801 1202v196h197v-196h-197z" />
<glyph unicode="g" d="M0 -2v201h201v-201h-201zM0 199v200h201v-200h-201zM0 399v201h201v-201h-201zM0 600v200h201v-200h-201zM0 800v201h201v-201h-201zM0 1001v201h201v-201h-201zM0 1202v196h201v-196h-201zM201 -2h200v-196h-200v196zM201 -2v201h200v-201h-200zM201 1202v196h200v-196 h-200zM201 1398v201h200v-201h-200zM401 -2h201v-196h-201v196zM401 -198h201v-198h-201v198zM401 1398v201h201v-201h-201zM602 -2h196v-196h-196v196zM602 -198h196v-198h-196v198zM602 199v200h196v-200h-196zM602 399v201h196v-201h-196zM602 600v200h196v-200h-196z M602 800v201h196v-201h-196zM602 1001v201h196v-201h-196zM602 1398v201h196v-201h-196zM798 -2h201v-196h-201v196zM798 -198h201v-198h-201v198zM798 199v200h201v-200h-201zM798 399v201h201v-201h-201zM798 600v200h201v-200h-201zM798 800v201h201v-201h-201zM798 1001 v201h201v-201h-201zM798 1398v201h201v-201h-201zM999 -2h201v-196h-201v196zM999 -198h201v-198h-201v198zM999 199v200h201v-200h-201zM999 399v201h201v-201h-201zM999 800v201h201v-201h-201zM999 1001v201h201v-201h-201zM999 1398v201h201v-201h-201zM1200 -2v201h200 v-201h-200zM1200 -2h200v-196h-200v196zM1200 -198h200v-198h-200v198zM1200 800v201h200v-201h-200zM1200 1398v201h200v-201h-200zM1400 -2h201v-196h-201v196zM1400 -198h201v-198h-201v198zM1400 800v201h201v-201h-201zM1400 1202v196h201v-196h-201zM1400 1398v201 h201v-201h-201zM1601 -2v201h200v-201h-200zM1601 -2h200v-196h-200v196zM1601 -198h200v-198h-200v198zM1601 199v200h200v-200h-200zM1601 399v201h200v-201h-200zM1601 600v200h200v-200h-200zM1601 800v201h200v-201h-200zM1601 1001v201h200v-201h-200zM1601 1202v196 h200v-196h-200zM1801 -2h197v-196h-197v196zM1801 -2v201h197v-201h-197zM1801 -198h197v-198h-197v198zM1801 199v200h197v-200h-197zM1801 399v201h197v-201h-197zM1801 600v200h197v-200h-197zM1801 800v201h197v-201h-197zM1801 1001v201h197v-201h-197z" />
<glyph unicode="h" d="M0 -2h201v-196h-201v196zM0 -2v201h201v-201h-201zM0 199v200h201v-200h-201zM0 399v201h201v-201h-201zM0 600v200h201v-200h-201zM0 800v201h201v-201h-201zM0 1001v201h201v-201h-201zM0 1202v196h201v-196h-201zM0 1398v201h201v-201h-201zM201 -2h200v-196h-200v196 zM201 -198h200v-198h-200v198zM201 1398v201h200v-201h-200zM401 -2h201v-196h-201v196zM401 -198h201v-198h-201v198zM401 1398v201h201v-201h-201zM602 -2h196v-196h-196v196zM602 -2v201h196v-201h-196zM602 -198h196v-198h-196v198zM602 199v200h196v-200h-196zM602 399 v201h196v-201h-196zM602 800v201h196v-201h-196zM602 1001v201h196v-201h-196zM602 1202v196h196v-196h-196zM602 1398v201h196v-201h-196zM798 -2h201v-196h-201v196zM798 -2v201h201v-201h-201zM798 -198h201v-198h-201v198zM798 199v200h201v-200h-201zM798 399v201h201 v-201h-201zM798 800v201h201v-201h-201zM798 1001v201h201v-201h-201zM798 1202v196h201v-196h-201zM999 -2v201h201v-201h-201zM999 -2h201v-196h-201v196zM999 199v200h201v-200h-201zM999 399v201h201v-201h-201zM999 800v201h201v-201h-201zM999 1001v201h201v-201h-201 zM999 1202v196h201v-196h-201zM999 1398v201h201v-201h-201zM1200 -2h200v-196h-200v196zM1200 -198h200v-198h-200v198zM1200 1398v201h200v-201h-200zM1400 -2h201v-196h-201v196zM1400 -198h201v-198h-201v198zM1400 1398v201h201v-201h-201zM1601 -2v201h200v-201h-200z M1601 -2h200v-196h-200v196zM1601 -198h200v-198h-200v198zM1601 199v200h200v-200h-200zM1601 399v201h200v-201h-200zM1601 600v200h200v-200h-200zM1601 800v201h200v-201h-200zM1601 1001v201h200v-201h-200zM1601 1202v196h200v-196h-200zM1601 1398v201h200v-201h-200 zM1801 -2h197v-196h-197v196zM1801 -2v201h197v-201h-197zM1801 -198h197v-198h-197v198zM1801 199v200h197v-200h-197zM1801 399v201h197v-201h-197zM1801 600v200h197v-200h-197zM1801 800v201h197v-201h-197zM1801 1001v201h197v-201h-197zM1801 1202v196h197v-196h-197z " />
<glyph unicode="i" horiz-adv-x="798" d="M0 -2h201v-196h-201v196zM0 -2v201h201v-201h-201zM0 199v200h201v-200h-201zM0 399v201h201v-201h-201zM0 600v200h201v-200h-201zM0 800v201h201v-201h-201zM0 1001v201h201v-201h-201zM0 1202v196h201v-196h-201zM0 1398v201h201v-201h-201zM201 -2h200v-196h-200v196 zM201 -198h200v-198h-200v198zM201 1398v201h200v-201h-200zM401 -2h201v-196h-201v196zM401 -198h201v-198h-201v198zM401 1398v201h201v-201h-201zM602 -2v201h196v-201h-196zM602 -2h196v-196h-196v196zM602 -198h196v-198h-196v198zM602 199v200h196v-200h-196zM602 399 v201h196v-201h-196zM602 600v200h196v-200h-196zM602 800v201h196v-201h-196zM602 1001v201h196v-201h-196zM602 1202v196h196v-196h-196zM602 1398v201h196v-201h-196zM798 -2h201v-196h-201v196zM798 -2v201h201v-201h-201zM798 -198h201v-198h-201v198zM798 199v200h201 v-200h-201zM798 399v201h201v-201h-201zM798 600v200h201v-200h-201zM798 800v201h201v-201h-201zM798 1001v201h201v-201h-201zM798 1202v196h201v-196h-201z" />
<glyph unicode="j" d="M0 -2v201h201v-201h-201zM0 199v200h201v-200h-201zM0 399v201h201v-201h-201zM0 600v200h201v-200h-201zM201 -2h200v-196h-200v196zM201 -2v201h200v-201h-200zM201 600v200h200v-200h-200zM401 -2h201v-196h-201v196zM401 -198h201v-198h-201v198zM401 600v200h201 v-200h-201zM602 -2h196v-196h-196v196zM602 -198h196v-198h-196v198zM602 199v200h196v-200h-196zM602 399v201h196v-201h-196zM602 600v200h196v-200h-196zM798 -2h201v-196h-201v196zM798 -198h201v-198h-201v198zM798 199v200h201v-200h-201zM798 399v201h201v-201h-201z M798 600v200h201v-200h-201zM999 -2h201v-196h-201v196zM999 -198h201v-198h-201v198zM999 199v200h201v-200h-201zM999 399v201h201v-201h-201zM999 600v200h201v-200h-201zM999 800v201h201v-201h-201zM999 1001v201h201v-201h-201zM999 1202v196h201v-196h-201zM999 1398 v201h201v-201h-201zM1200 -2h200v-196h-200v196zM1200 -198h200v-198h-200v198zM1200 1398v201h200v-201h-200zM1400 -2h201v-196h-201v196zM1400 -2v201h201v-201h-201zM1400 -198h201v-198h-201v198zM1400 1398v201h201v-201h-201zM1601 -2h200v-196h-200v196zM1601 -2 v201h200v-201h-200zM1601 -198h200v-198h-200v198zM1601 199v200h200v-200h-200zM1601 399v201h200v-201h-200zM1601 600v200h200v-200h-200zM1601 800v201h200v-201h-200zM1601 1001v201h200v-201h-200zM1601 1202v196h200v-196h-200zM1601 1398v201h200v-201h-200z M1801 -2v201h197v-201h-197zM1801 -2h197v-196h-197v196zM1801 199v200h197v-200h-197zM1801 399v201h197v-201h-197zM1801 600v200h197v-200h-197zM1801 800v201h197v-201h-197zM1801 1001v201h197v-201h-197zM1801 1202v196h197v-196h-197z" />
<glyph unicode="k" d="M0 -2h201v-196h-201v196zM0 -2v201h201v-201h-201zM0 199v200h201v-200h-201zM0 399v201h201v-201h-201zM0 600v200h201v-200h-201zM0 800v201h201v-201h-201zM0 1001v201h201v-201h-201zM0 1202v196h201v-196h-201zM0 1398v201h201v-201h-201zM201 -2h200v-196h-200v196 zM201 -198h200v-198h-200v198zM201 1398v201h200v-201h-200zM401 -2h201v-196h-201v196zM401 -198h201v-198h-201v198zM401 1398v201h201v-201h-201zM602 -2h196v-196h-196v196zM602 -2v201h196v-201h-196zM602 -198h196v-198h-196v198zM602 199v200h196v-200h-196zM602 399 v201h196v-201h-196zM602 800v201h196v-201h-196zM602 1001v201h196v-201h-196zM602 1202v196h196v-196h-196zM602 1398v201h196v-201h-196zM798 -2h201v-196h-201v196zM798 -2v201h201v-201h-201zM798 -198h201v-198h-201v198zM798 199v200h201v-200h-201zM798 1001v201h201 v-201h-201zM798 1202v196h201v-196h-201zM999 -2h201v-196h-201v196zM999 -2v201h201v-201h-201zM999 600v200h201v-200h-201zM999 1202v196h201v-196h-201zM999 1398v201h201v-201h-201zM1200 -2h200v-196h-200v196zM1200 -198h200v-198h-200v198zM1200 399v201h200v-201 h-200zM1200 600v200h200v-200h-200zM1200 800v201h200v-201h-200zM1200 1398v201h200v-201h-200zM1400 -2h201v-196h-201v196zM1400 -198h201v-198h-201v198zM1400 199v200h201v-200h-201zM1400 399v201h201v-201h-201zM1400 600v200h201v-200h-201zM1400 800v201h201v-201 h-201zM1400 1001v201h201v-201h-201zM1400 1398v201h201v-201h-201zM1601 -2v201h200v-201h-200zM1601 -2h200v-196h-200v196zM1601 -198h200v-198h-200v198zM1601 199v200h200v-200h-200zM1601 600v200h200v-200h-200zM1601 800v201h200v-201h-200zM1601 1001v201h200v-201 h-200zM1601 1202v196h200v-196h-200zM1601 1398v201h200v-201h-200zM1801 -2h197v-196h-197v196zM1801 -2v201h197v-201h-197zM1801 -198h197v-198h-197v198zM1801 800v201h197v-201h-197zM1801 1001v201h197v-201h-197zM1801 1202v196h197v-196h-197z" />
<glyph unicode="l" horiz-adv-x="1601" d="M0 -2h201v-196h-201v196zM0 -2v201h201v-201h-201zM0 199v200h201v-200h-201zM0 399v201h201v-201h-201zM0 600v200h201v-200h-201zM0 800v201h201v-201h-201zM0 1001v201h201v-201h-201zM0 1202v196h201v-196h-201zM0 1398v201h201v-201h-201zM201 -2h200v-196h-200v196 zM201 -198h200v-198h-200v198zM201 1398v201h200v-201h-200zM401 -2h201v-196h-201v196zM401 -198h201v-198h-201v198zM401 1398v201h201v-201h-201zM602 -2h196v-196h-196v196zM602 -198h196v-198h-196v198zM602 199v200h196v-200h-196zM602 399v201h196v-201h-196z M602 600v200h196v-200h-196zM602 800v201h196v-201h-196zM602 1001v201h196v-201h-196zM602 1202v196h196v-196h-196zM602 1398v201h196v-201h-196zM798 -2h201v-196h-201v196zM798 -198h201v-198h-201v198zM798 199v200h201v-200h-201zM798 399v201h201v-201h-201zM798 600 v200h201v-200h-201zM798 800v201h201v-201h-201zM798 1001v201h201v-201h-201zM798 1202v196h201v-196h-201zM999 -2h201v-196h-201v196zM999 -198h201v-198h-201v198zM999 199v200h201v-200h-201zM1200 -2h200v-196h-200v196zM1200 -198h200v-198h-200v198zM1200 199v200 h200v-200h-200zM1400 -2v201h201v-201h-201zM1400 -2h201v-196h-201v196zM1400 -198h201v-198h-201v198zM1400 199v200h201v-200h-201zM1601 -2h200v-196h-200v196zM1601 -2v201h200v-201h-200zM1601 -198h200v-198h-200v198z" />
<glyph unicode="m" d="M0 -2h201v-196h-201v196zM0 -2v201h201v-201h-201zM0 199v200h201v-200h-201zM0 399v201h201v-201h-201zM0 600v200h201v-200h-201zM0 800v201h201v-201h-201zM0 1001v201h201v-201h-201zM0 1202v196h201v-196h-201zM0 1398v201h201v-201h-201zM201 -2h200v-196h-200v196 zM201 -198h200v-198h-200v198zM201 1398v201h200v-201h-200zM401 -2h201v-196h-201v196zM401 -198h201v-198h-201v198zM401 1398v201h201v-201h-201zM602 -2h196v-196h-196v196zM602 -2v201h196v-201h-196zM602 -198h196v-198h-196v198zM602 199v200h196v-200h-196zM602 399 v201h196v-201h-196zM602 600v200h196v-200h-196zM602 1202v196h196v-196h-196zM602 1398v201h196v-201h-196zM798 -2v201h201v-201h-201zM798 -2h201v-196h-201v196zM798 -198h201v-198h-201v198zM798 199v200h201v-200h-201zM798 399v201h201v-201h-201zM798 1001v201h201 v-201h-201zM798 1202v196h201v-196h-201zM999 -2v201h201v-201h-201zM999 -2h201v-196h-201v196zM999 199v200h201v-200h-201zM999 399v201h201v-201h-201zM999 600v200h201v-200h-201zM999 1202v196h201v-196h-201zM999 1398v201h201v-201h-201zM1200 -2h200v-196h-200v196 zM1200 -198h200v-198h-200v198zM1200 1398v201h200v-201h-200zM1400 -2h201v-196h-201v196zM1400 -198h201v-198h-201v198zM1400 1398v201h201v-201h-201zM1601 -2v201h200v-201h-200zM1601 -2h200v-196h-200v196zM1601 -198h200v-198h-200v198zM1601 199v200h200v-200h-200 zM1601 399v201h200v-201h-200zM1601 600v200h200v-200h-200zM1601 800v201h200v-201h-200zM1601 1001v201h200v-201h-200zM1601 1202v196h200v-196h-200zM1601 1398v201h200v-201h-200zM1801 -2h197v-196h-197v196zM1801 -2v201h197v-201h-197zM1801 -198h197v-198h-197v198 zM1801 199v200h197v-200h-197zM1801 399v201h197v-201h-197zM1801 600v200h197v-200h-197zM1801 800v201h197v-201h-197zM1801 1001v201h197v-201h-197zM1801 1202v196h197v-196h-197z" />
<glyph unicode="n" d="M0 -2h201v-196h-201v196zM0 -2v201h201v-201h-201zM0 199v200h201v-200h-201zM0 399v201h201v-201h-201zM0 600v200h201v-200h-201zM0 800v201h201v-201h-201zM0 1001v201h201v-201h-201zM0 1202v196h201v-196h-201zM0 1398v201h201v-201h-201zM201 -2h200v-196h-200v196 zM201 -198h200v-198h-200v198zM201 1398v201h200v-201h-200zM401 -2h201v-196h-201v196zM401 -198h201v-198h-201v198zM401 1398v201h201v-201h-201zM602 -2h196v-196h-196v196zM602 -2v201h196v-201h-196zM602 -198h196v-198h-196v198zM602 199v200h196v-200h-196zM602 399 v201h196v-201h-196zM602 600v200h196v-200h-196zM602 1202v196h196v-196h-196zM602 1398v201h196v-201h-196zM798 -2v201h201v-201h-201zM798 -2h201v-196h-201v196zM798 -198h201v-198h-201v198zM798 199v200h201v-200h-201zM798 399v201h201v-201h-201zM798 1001v201h201 v-201h-201zM798 1202v196h201v-196h-201zM999 -2v201h201v-201h-201zM999 -2h201v-196h-201v196zM999 199v200h201v-200h-201zM999 800v201h201v-201h-201zM999 1001v201h201v-201h-201zM999 1202v196h201v-196h-201zM999 1398v201h201v-201h-201zM1200 -2h200v-196h-200 v196zM1200 -198h200v-198h-200v198zM1200 1398v201h200v-201h-200zM1400 -2h201v-196h-201v196zM1400 -198h201v-198h-201v198zM1400 1398v201h201v-201h-201zM1601 -2v201h200v-201h-200zM1601 -2h200v-196h-200v196zM1601 -198h200v-198h-200v198zM1601 199v200h200v-200 h-200zM1601 399v201h200v-201h-200zM1601 600v200h200v-200h-200zM1601 800v201h200v-201h-200zM1601 1001v201h200v-201h-200zM1601 1202v196h200v-196h-200zM1601 1398v201h200v-201h-200zM1801 -2h197v-196h-197v196zM1801 -2v201h197v-201h-197zM1801 -198h197v-198 h-197v198zM1801 199v200h197v-200h-197zM1801 399v201h197v-201h-197zM1801 600v200h197v-200h-197zM1801 800v201h197v-201h-197zM1801 1001v201h197v-201h-197zM1801 1202v196h197v-196h-197z" />
<glyph unicode="o" d="M0 -2v201h201v-201h-201zM0 199v200h201v-200h-201zM0 399v201h201v-201h-201zM0 600v200h201v-200h-201zM0 800v201h201v-201h-201zM0 1001v201h201v-201h-201zM0 1202v196h201v-196h-201zM201 -2v201h200v-201h-200zM201 -2h200v-196h-200v196zM201 1202v196h200v-196 h-200zM201 1398v201h200v-201h-200zM401 -2h201v-196h-201v196zM401 -198h201v-198h-201v198zM401 1398v201h201v-201h-201zM602 -2h196v-196h-196v196zM602 -198h196v-198h-196v198zM602 199v200h196v-200h-196zM602 399v201h196v-201h-196zM602 600v200h196v-200h-196z M602 800v201h196v-201h-196zM602 1001v201h196v-201h-196zM602 1398v201h196v-201h-196zM798 -2h201v-196h-201v196zM798 -198h201v-198h-201v198zM798 199v200h201v-200h-201zM798 399v201h201v-201h-201zM798 600v200h201v-200h-201zM798 800v201h201v-201h-201zM798 1001 v201h201v-201h-201zM798 1398v201h201v-201h-201zM999 -2h201v-196h-201v196zM999 -198h201v-198h-201v198zM999 199v200h201v-200h-201zM999 399v201h201v-201h-201zM999 600v200h201v-200h-201zM999 800v201h201v-201h-201zM999 1001v201h201v-201h-201zM999 1398v201h201 v-201h-201zM1200 -2h200v-196h-200v196zM1200 -198h200v-198h-200v198zM1200 1398v201h200v-201h-200zM1400 -2v201h201v-201h-201zM1400 -2h201v-196h-201v196zM1400 -198h201v-198h-201v198zM1400 1202v196h201v-196h-201zM1400 1398v201h201v-201h-201zM1601 -2h200v-196 h-200v196zM1601 -2v201h200v-201h-200zM1601 -198h200v-198h-200v198zM1601 199v200h200v-200h-200zM1601 399v201h200v-201h-200zM1601 600v200h200v-200h-200zM1601 800v201h200v-201h-200zM1601 1001v201h200v-201h-200zM1601 1202v196h200v-196h-200zM1801 -2v201h197 v-201h-197zM1801 -2h197v-196h-197v196zM1801 199v200h197v-200h-197zM1801 399v201h197v-201h-197zM1801 600v200h197v-200h-197zM1801 800v201h197v-201h-197zM1801 1001v201h197v-201h-197z" />
<glyph unicode="p" d="M0 -2h201v-196h-201v196zM0 -2v201h201v-201h-201zM0 199v200h201v-200h-201zM0 399v201h201v-201h-201zM0 600v200h201v-200h-201zM0 800v201h201v-201h-201zM0 1001v201h201v-201h-201zM0 1202v196h201v-196h-201zM0 1398v201h201v-201h-201zM201 -2h200v-196h-200v196 zM201 -198h200v-198h-200v198zM201 1398v201h200v-201h-200zM401 -2h201v-196h-201v196zM401 -198h201v-198h-201v198zM401 1398v201h201v-201h-201zM602 -2h196v-196h-196v196zM602 -2v201h196v-201h-196zM602 -198h196v-198h-196v198zM602 199v200h196v-200h-196zM602 600 v200h196v-200h-196zM602 800v201h196v-201h-196zM602 1001v201h196v-201h-196zM602 1398v201h196v-201h-196zM798 -2h201v-196h-201v196zM798 -2v201h201v-201h-201zM798 -198h201v-198h-201v198zM798 199v200h201v-200h-201zM798 600v200h201v-200h-201zM798 800v201h201 v-201h-201zM798 1001v201h201v-201h-201zM798 1398v201h201v-201h-201zM999 -2v201h201v-201h-201zM999 199v200h201v-200h-201zM999 600v200h201v-200h-201zM999 800v201h201v-201h-201zM999 1001v201h201v-201h-201zM999 1398v201h201v-201h-201zM1200 -2v201h200v-201 h-200zM1200 199v200h200v-200h-200zM1200 1398v201h200v-201h-200zM1400 -2v201h201v-201h-201zM1400 199v200h201v-200h-201zM1400 399v201h201v-201h-201zM1400 1202v196h201v-196h-201zM1400 1398v201h201v-201h-201zM1601 -2v201h200v-201h-200zM1601 199v200h200v-200 h-200zM1601 399v201h200v-201h-200zM1601 600v200h200v-200h-200zM1601 800v201h200v-201h-200zM1601 1001v201h200v-201h-200zM1601 1202v196h200v-196h-200zM1801 199v200h197v-200h-197zM1801 399v201h197v-201h-197zM1801 600v200h197v-200h-197zM1801 800v201h197v-201 h-197zM1801 1001v201h197v-201h-197z" />
<glyph unicode="q" d="M0 -2v201h201v-201h-201zM0 199v200h201v-200h-201zM0 399v201h201v-201h-201zM0 600v200h201v-200h-201zM0 800v201h201v-201h-201zM0 1001v201h201v-201h-201zM0 1202v196h201v-196h-201zM201 -2v201h200v-201h-200zM201 -2h200v-196h-200v196zM201 1202v196h200v-196 h-200zM201 1398v201h200v-201h-200zM401 -2h201v-196h-201v196zM401 -198h201v-198h-201v198zM401 1398v201h201v-201h-201zM602 -2h196v-196h-196v196zM602 -198h196v-198h-196v198zM602 199v200h196v-200h-196zM602 399v201h196v-201h-196zM602 600v200h196v-200h-196z M602 800v201h196v-201h-196zM602 1001v201h196v-201h-196zM602 1398v201h196v-201h-196zM798 -2h201v-196h-201v196zM798 -198h201v-198h-201v198zM798 199v200h201v-200h-201zM798 399v201h201v-201h-201zM798 600v200h201v-200h-201zM798 800v201h201v-201h-201zM798 1001 v201h201v-201h-201zM798 1398v201h201v-201h-201zM999 -2h201v-196h-201v196zM999 -198h201v-198h-201v198zM999 399v201h201v-201h-201zM999 600v200h201v-200h-201zM999 800v201h201v-201h-201zM999 1001v201h201v-201h-201zM999 1398v201h201v-201h-201zM1200 -2h200 v-196h-200v196zM1200 -198h200v-198h-200v198zM1200 1398v201h200v-201h-200zM1400 -2h201v-196h-201v196zM1400 -198h201v-198h-201v198zM1400 199v200h201v-200h-201zM1400 1202v196h201v-196h-201zM1400 1398v201h201v-201h-201zM1601 -2h200v-196h-200v196zM1601 -2v201 h200v-201h-200zM1601 -198h200v-198h-200v198zM1601 199v200h200v-200h-200zM1601 399v201h200v-201h-200zM1601 600v200h200v-200h-200zM1601 800v201h200v-201h-200zM1601 1001v201h200v-201h-200zM1601 1202v196h200v-196h-200zM1801 -2h197v-196h-197v196zM1801 -2v201 h197v-201h-197zM1801 -198h197v-198h-197v198zM1801 199v200h197v-200h-197zM1801 399v201h197v-201h-197zM1801 600v200h197v-200h-197zM1801 800v201h197v-201h-197zM1801 1001v201h197v-201h-197z" />
<glyph unicode="r" d="M0 -2h201v-196h-201v196zM0 -2v201h201v-201h-201zM0 199v200h201v-200h-201zM0 399v201h201v-201h-201zM0 600v200h201v-200h-201zM0 800v201h201v-201h-201zM0 1001v201h201v-201h-201zM0 1202v196h201v-196h-201zM0 1398v201h201v-201h-201zM201 -2h200v-196h-200v196 zM201 -198h200v-198h-200v198zM201 1398v201h200v-201h-200zM401 -2h201v-196h-201v196zM401 -198h201v-198h-201v198zM401 1398v201h201v-201h-201zM602 -2h196v-196h-196v196zM602 -2v201h196v-201h-196zM602 -198h196v-198h-196v198zM602 199v200h196v-200h-196zM602 399 v201h196v-201h-196zM602 800v201h196v-201h-196zM602 1001v201h196v-201h-196zM602 1398v201h196v-201h-196zM798 -2v201h201v-201h-201zM798 -2h201v-196h-201v196zM798 -198h201v-198h-201v198zM798 199v200h201v-200h-201zM798 399v201h201v-201h-201zM798 800v201h201 v-201h-201zM798 1001v201h201v-201h-201zM798 1398v201h201v-201h-201zM999 -2v201h201v-201h-201zM999 -2h201v-196h-201v196zM999 199v200h201v-200h-201zM999 399v201h201v-201h-201zM999 800v201h201v-201h-201zM999 1001v201h201v-201h-201zM999 1398v201h201v-201 h-201zM1200 -2h200v-196h-200v196zM1200 -198h200v-198h-200v198zM1200 1398v201h200v-201h-200zM1400 -2h201v-196h-201v196zM1400 -198h201v-198h-201v198zM1400 600v200h201v-200h-201zM1400 1202v196h201v-196h-201zM1400 1398v201h201v-201h-201zM1601 -2h200v-196 h-200v196zM1601 -2v201h200v-201h-200zM1601 -198h200v-198h-200v198zM1601 199v200h200v-200h-200zM1601 399v201h200v-201h-200zM1601 600v200h200v-200h-200zM1601 800v201h200v-201h-200zM1601 1001v201h200v-201h-200zM1601 1202v196h200v-196h-200zM1801 -2h197v-196 h-197v196zM1801 -2v201h197v-201h-197zM1801 -198h197v-198h-197v198zM1801 199v200h197v-200h-197zM1801 399v201h197v-201h-197zM1801 600v200h197v-200h-197zM1801 800v201h197v-201h-197zM1801 1001v201h197v-201h-197z" />
<glyph unicode="s" d="M0 -2v201h201v-201h-201zM0 199v200h201v-200h-201zM0 399v201h201v-201h-201zM0 600v200h201v-200h-201zM0 800v201h201v-201h-201zM0 1001v201h201v-201h-201zM0 1202v196h201v-196h-201zM201 -2v201h200v-201h-200zM201 -2h200v-196h-200v196zM201 399v201h200v-201 h-200zM201 600v200h200v-200h-200zM201 1202v196h200v-196h-200zM201 1398v201h200v-201h-200zM401 -2h201v-196h-201v196zM401 -198h201v-198h-201v198zM401 399v201h201v-201h-201zM401 1398v201h201v-201h-201zM602 -2h196v-196h-196v196zM602 -198h196v-198h-196v198z M602 199v200h196v-200h-196zM602 399v201h196v-201h-196zM602 800v201h196v-201h-196zM602 1001v201h196v-201h-196zM602 1398v201h196v-201h-196zM798 -2h201v-196h-201v196zM798 -198h201v-198h-201v198zM798 199v200h201v-200h-201zM798 399v201h201v-201h-201zM798 800 v201h201v-201h-201zM798 1001v201h201v-201h-201zM798 1398v201h201v-201h-201zM999 -2h201v-196h-201v196zM999 -198h201v-198h-201v198zM999 199v200h201v-200h-201zM999 399v201h201v-201h-201zM999 800v201h201v-201h-201zM999 1001v201h201v-201h-201zM999 1398v201 h201v-201h-201zM1200 -2h200v-196h-200v196zM1200 -198h200v-198h-200v198zM1200 800v201h200v-201h-200zM1200 1398v201h200v-201h-200zM1400 -2h201v-196h-201v196zM1400 -2v201h201v-201h-201zM1400 -198h201v-198h-201v198zM1400 600v200h201v-200h-201zM1400 800v201 h201v-201h-201zM1400 1202v196h201v-196h-201zM1400 1398v201h201v-201h-201zM1601 -2v201h200v-201h-200zM1601 -2h200v-196h-200v196zM1601 -198h200v-198h-200v198zM1601 199v200h200v-200h-200zM1601 399v201h200v-201h-200zM1601 600v200h200v-200h-200zM1601 800v201 h200v-201h-200zM1601 1001v201h200v-201h-200zM1601 1202v196h200v-196h-200zM1801 -2v201h197v-201h-197zM1801 -2h197v-196h-197v196zM1801 199v200h197v-200h-197zM1801 399v201h197v-201h-197zM1801 600v200h197v-200h-197zM1801 800v201h197v-201h-197zM1801 1001v201 h197v-201h-197z" />
<glyph unicode="t" horiz-adv-x="1601" d="M0 1001v201h201v-201h-201zM0 1202v196h201v-196h-201zM0 1398v201h201v-201h-201zM201 1001v201h200v-201h-200zM201 1398v201h200v-201h-200zM401 -2h201v-196h-201v196zM401 -2v201h201v-201h-201zM401 199v200h201v-200h-201zM401 399v201h201v-201h-201zM401 600 v200h201v-200h-201zM401 800v201h201v-201h-201zM401 1001v201h201v-201h-201zM401 1398v201h201v-201h-201zM602 -2h196v-196h-196v196zM602 -198h196v-198h-196v198zM602 1398v201h196v-201h-196zM798 -2h201v-196h-201v196zM798 -198h201v-198h-201v198zM798 1398v201 h201v-201h-201zM999 -2h201v-196h-201v196zM999 -2v201h201v-201h-201zM999 -198h201v-198h-201v198zM999 199v200h201v-200h-201zM999 399v201h201v-201h-201zM999 600v200h201v-200h-201zM999 800v201h201v-201h-201zM999 1001v201h201v-201h-201zM999 1398v201h201v-201 h-201zM1200 -2h200v-196h-200v196zM1200 -2v201h200v-201h-200zM1200 -198h200v-198h-200v198zM1200 199v200h200v-200h-200zM1200 399v201h200v-201h-200zM1200 600v200h200v-200h-200zM1200 800v201h200v-201h-200zM1200 1001v201h200v-201h-200zM1200 1398v201h200v-201 h-200zM1400 800v201h201v-201h-201zM1400 1001v201h201v-201h-201zM1400 1202v196h201v-196h-201zM1400 1398v201h201v-201h-201zM1601 800v201h200v-201h-200zM1601 1001v201h200v-201h-200zM1601 1202v196h200v-196h-200z" />
<glyph unicode="u" d="M0 -2v201h201v-201h-201zM0 199v200h201v-200h-201zM0 399v201h201v-201h-201zM0 600v200h201v-200h-201zM0 800v201h201v-201h-201zM0 1001v201h201v-201h-201zM0 1202v196h201v-196h-201zM0 1398v201h201v-201h-201zM201 -2v201h200v-201h-200zM201 -2h200v-196h-200 v196zM201 1398v201h200v-201h-200zM401 -2h201v-196h-201v196zM401 -198h201v-198h-201v198zM401 1398v201h201v-201h-201zM602 -2h196v-196h-196v196zM602 -198h196v-198h-196v198zM602 199v200h196v-200h-196zM602 399v201h196v-201h-196zM602 600v200h196v-200h-196z M602 800v201h196v-201h-196zM602 1001v201h196v-201h-196zM602 1202v196h196v-196h-196zM602 1398v201h196v-201h-196zM798 -2h201v-196h-201v196zM798 -198h201v-198h-201v198zM798 199v200h201v-200h-201zM798 399v201h201v-201h-201zM798 600v200h201v-200h-201zM798 800 v201h201v-201h-201zM798 1001v201h201v-201h-201zM798 1202v196h201v-196h-201zM999 -2h201v-196h-201v196zM999 -198h201v-198h-201v198zM999 199v200h201v-200h-201zM999 399v201h201v-201h-201zM999 600v200h201v-200h-201zM999 800v201h201v-201h-201zM999 1001v201h201 v-201h-201zM999 1202v196h201v-196h-201zM999 1398v201h201v-201h-201zM1200 -2h200v-196h-200v196zM1200 -198h200v-198h-200v198zM1200 1398v201h200v-201h-200zM1400 -2h201v-196h-201v196zM1400 -2v201h201v-201h-201zM1400 -198h201v-198h-201v198zM1400 1398v201h201 v-201h-201zM1601 -2h200v-196h-200v196zM1601 -2v201h200v-201h-200zM1601 -198h200v-198h-200v198zM1601 199v200h200v-200h-200zM1601 399v201h200v-201h-200zM1601 600v200h200v-200h-200zM1601 800v201h200v-201h-200zM1601 1001v201h200v-201h-200zM1601 1202v196h200 v-196h-200zM1601 1398v201h200v-201h-200zM1801 -2v201h197v-201h-197zM1801 -2h197v-196h-197v196zM1801 199v200h197v-200h-197zM1801 399v201h197v-201h-197zM1801 600v200h197v-200h-197zM1801 800v201h197v-201h-197zM1801 1001v201h197v-201h-197zM1801 1202v196h197 v-196h-197z" />
<glyph unicode="v" d="M0 399v201h201v-201h-201zM0 600v200h201v-200h-201zM0 800v201h201v-201h-201zM0 1001v201h201v-201h-201zM0 1202v196h201v-196h-201zM0 1398v201h201v-201h-201zM201 199v200h200v-200h-200zM201 399v201h200v-201h-200zM201 1398v201h200v-201h-200zM401 -2v201h201 v-201h-201zM401 199v200h201v-200h-201zM401 1398v201h201v-201h-201zM602 -2h196v-196h-196v196zM602 -2v201h196v-201h-196zM602 600v200h196v-200h-196zM602 800v201h196v-201h-196zM602 1001v201h196v-201h-196zM602 1202v196h196v-196h-196zM602 1398v201h196v-201 h-196zM798 -2h201v-196h-201v196zM798 -198h201v-198h-201v198zM798 399v201h201v-201h-201zM798 600v200h201v-200h-201zM798 800v201h201v-201h-201zM798 1001v201h201v-201h-201zM798 1202v196h201v-196h-201zM999 -2h201v-196h-201v196zM999 -2v201h201v-201h-201z M999 -198h201v-198h-201v198zM999 600v200h201v-200h-201zM999 800v201h201v-201h-201zM999 1001v201h201v-201h-201zM999 1202v196h201v-196h-201zM999 1398v201h201v-201h-201zM1200 -2h200v-196h-200v196zM1200 -2v201h200v-201h-200zM1200 -198h200v-198h-200v198z M1200 199v200h200v-200h-200zM1200 1398v201h200v-201h-200zM1400 -2v201h201v-201h-201zM1400 -2h201v-196h-201v196zM1400 199v200h201v-200h-201zM1400 399v201h201v-201h-201zM1400 1398v201h201v-201h-201zM1601 -2v201h200v-201h-200zM1601 199v200h200v-200h-200z M1601 399v201h200v-201h-200zM1601 600v200h200v-200h-200zM1601 800v201h200v-201h-200zM1601 1001v201h200v-201h-200zM1601 1202v196h200v-196h-200zM1601 1398v201h200v-201h-200zM1801 199v200h197v-200h-197zM1801 399v201h197v-201h-197zM1801 600v200h197v-200h-197 zM1801 800v201h197v-201h-197zM1801 1001v201h197v-201h-197zM1801 1202v196h197v-196h-197z" />
<glyph unicode="w" d="M0 -2h201v-196h-201v196zM0 -2v201h201v-201h-201zM0 199v200h201v-200h-201zM0 399v201h201v-201h-201zM0 600v200h201v-200h-201zM0 800v201h201v-201h-201zM0 1001v201h201v-201h-201zM0 1202v196h201v-196h-201zM0 1398v201h201v-201h-201zM201 -2h200v-196h-200v196 zM201 -198h200v-198h-200v198zM201 1398v201h200v-201h-200zM401 -2h201v-196h-201v196zM401 -198h201v-198h-201v198zM401 1398v201h201v-201h-201zM602 -2h196v-196h-196v196zM602 -2v201h196v-201h-196zM602 -198h196v-198h-196v198zM602 600v200h196v-200h-196zM602 800 v201h196v-201h-196zM602 1001v201h196v-201h-196zM602 1202v196h196v-196h-196zM602 1398v201h196v-201h-196zM798 -2v201h201v-201h-201zM798 -2h201v-196h-201v196zM798 -198h201v-198h-201v198zM798 199v200h201v-200h-201zM798 800v201h201v-201h-201zM798 1001v201h201 v-201h-201zM798 1202v196h201v-196h-201zM999 -2v201h201v-201h-201zM999 -2h201v-196h-201v196zM999 600v200h201v-200h-201zM999 800v201h201v-201h-201zM999 1001v201h201v-201h-201zM999 1202v196h201v-196h-201zM999 1398v201h201v-201h-201zM1200 -2h200v-196h-200 v196zM1200 -198h200v-198h-200v198zM1200 1398v201h200v-201h-200zM1400 -2h201v-196h-201v196zM1400 -198h201v-198h-201v198zM1400 1398v201h201v-201h-201zM1601 -2v201h200v-201h-200zM1601 -2h200v-196h-200v196zM1601 -198h200v-198h-200v198zM1601 199v200h200v-200 h-200zM1601 399v201h200v-201h-200zM1601 600v200h200v-200h-200zM1601 800v201h200v-201h-200zM1601 1001v201h200v-201h-200zM1601 1202v196h200v-196h-200zM1601 1398v201h200v-201h-200zM1801 -2h197v-196h-197v196zM1801 -2v201h197v-201h-197zM1801 -198h197v-198 h-197v198zM1801 199v200h197v-200h-197zM1801 399v201h197v-201h-197zM1801 600v200h197v-200h-197zM1801 800v201h197v-201h-197zM1801 1001v201h197v-201h-197zM1801 1202v196h197v-196h-197z" />
<glyph unicode="x" d="M0 -2h201v-196h-201v196zM0 -2v201h201v-201h-201zM0 199v200h201v-200h-201zM0 399v201h201v-201h-201zM0 800v201h201v-201h-201zM0 1001v201h201v-201h-201zM0 1202v196h201v-196h-201zM0 1398v201h201v-201h-201zM201 -2h200v-196h-200v196zM201 -198h200v-198h-200 v198zM201 399v201h200v-201h-200zM201 600v200h200v-200h-200zM201 800v201h200v-201h-200zM201 1398v201h200v-201h-200zM401 -2h201v-196h-201v196zM401 -198h201v-198h-201v198zM401 600v200h201v-200h-201zM401 1398v201h201v-201h-201zM602 -2v201h196v-201h-196z M602 -2h196v-196h-196v196zM602 -198h196v-198h-196v198zM602 1202v196h196v-196h-196zM602 1398v201h196v-201h-196zM798 -2h201v-196h-201v196zM798 -2v201h201v-201h-201zM798 -198h201v-198h-201v198zM798 199v200h201v-200h-201zM798 1001v201h201v-201h-201zM798 1202 v196h201v-196h-201zM999 -2v201h201v-201h-201zM999 -2h201v-196h-201v196zM999 1202v196h201v-196h-201zM999 1398v201h201v-201h-201zM1200 -2h200v-196h-200v196zM1200 -198h200v-198h-200v198zM1200 600v200h200v-200h-200zM1200 1398v201h200v-201h-200zM1400 -2h201 v-196h-201v196zM1400 -198h201v-198h-201v198zM1400 399v201h201v-201h-201zM1400 600v200h201v-200h-201zM1400 800v201h201v-201h-201zM1400 1398v201h201v-201h-201zM1601 -2h200v-196h-200v196zM1601 -2v201h200v-201h-200zM1601 -198h200v-198h-200v198zM1601 199v200 h200v-200h-200zM1601 399v201h200v-201h-200zM1601 600v200h200v-200h-200zM1601 800v201h200v-201h-200zM1601 1001v201h200v-201h-200zM1601 1202v196h200v-196h-200zM1601 1398v201h200v-201h-200zM1801 -2h197v-196h-197v196zM1801 -2v201h197v-201h-197zM1801 -198h197 v-198h-197v198zM1801 199v200h197v-200h-197zM1801 600v200h197v-200h-197zM1801 800v201h197v-201h-197zM1801 1001v201h197v-201h-197zM1801 1202v196h197v-196h-197z" />
<glyph unicode="y" horiz-adv-x="1601" d="M0 600v200h201v-200h-201zM0 800v201h201v-201h-201zM0 1001v201h201v-201h-201zM0 1202v196h201v-196h-201zM0 1398v201h201v-201h-201zM201 399v201h200v-201h-200zM201 600v200h200v-200h-200zM201 1398v201h200v-201h-200zM401 -2v201h201v-201h-201zM401 -2h201 v-196h-201v196zM401 199v200h201v-200h-201zM401 399v201h201v-201h-201zM401 1398v201h201v-201h-201zM602 -2h196v-196h-196v196zM602 -198h196v-198h-196v198zM602 800v201h196v-201h-196zM602 1001v201h196v-201h-196zM602 1202v196h196v-196h-196zM602 1398v201h196 v-201h-196zM798 -2h201v-196h-201v196zM798 -198h201v-198h-201v198zM798 800v201h201v-201h-201zM798 1001v201h201v-201h-201zM798 1202v196h201v-196h-201zM798 1398v201h201v-201h-201zM999 -2h201v-196h-201v196zM999 -2v201h201v-201h-201zM999 -198h201v-198h-201 v198zM999 199v200h201v-200h-201zM999 399v201h201v-201h-201zM999 1398v201h201v-201h-201zM1200 -2v201h200v-201h-200zM1200 -2h200v-196h-200v196zM1200 -198h200v-198h-200v198zM1200 199v200h200v-200h-200zM1200 399v201h200v-201h-200zM1200 600v200h200v-200h-200z M1200 1398v201h200v-201h-200zM1400 199v200h201v-200h-201zM1400 399v201h201v-201h-201zM1400 600v200h201v-200h-201zM1400 800v201h201v-201h-201zM1400 1001v201h201v-201h-201zM1400 1202v196h201v-196h-201zM1400 1398v201h201v-201h-201zM1601 399v201h200v-201 h-200zM1601 600v200h200v-200h-200zM1601 800v201h200v-201h-200zM1601 1001v201h200v-201h-200zM1601 1202v196h200v-196h-200z" />
<glyph unicode="z" d="M0 -2v201h201v-201h-201zM0 -2h201v-196h-201v196zM0 199v200h201v-200h-201zM0 399v201h201v-201h-201zM0 1001v201h201v-201h-201zM0 1202v196h201v-196h-201zM0 1398v201h201v-201h-201zM201 -2h200v-196h-200v196zM201 -198h200v-198h-200v198zM201 399v201h200v-201 h-200zM201 600v200h200v-200h-200zM201 1001v201h200v-201h-200zM201 1398v201h200v-201h-200zM401 -2h201v-196h-201v196zM401 -198h201v-198h-201v198zM401 600v200h201v-200h-201zM401 800v201h201v-201h-201zM401 1001v201h201v-201h-201zM401 1398v201h201v-201h-201z M602 -2h196v-196h-196v196zM602 -198h196v-198h-196v198zM602 800v201h196v-201h-196zM602 1001v201h196v-201h-196zM602 1398v201h196v-201h-196zM798 -2h201v-196h-201v196zM798 -198h201v-198h-201v198zM798 199v200h201v-200h-201zM798 1001v201h201v-201h-201z M798 1398v201h201v-201h-201zM999 -2h201v-196h-201v196zM999 -198h201v-198h-201v198zM999 199v200h201v-200h-201zM999 399v201h201v-201h-201zM999 1398v201h201v-201h-201zM1200 -2h200v-196h-200v196zM1200 -198h200v-198h-200v198zM1200 199v200h200v-200h-200z M1200 399v201h200v-201h-200zM1200 600v200h200v-200h-200zM1200 1398v201h200v-201h-200zM1400 -2h201v-196h-201v196zM1400 -198h201v-198h-201v198zM1400 199v200h201v-200h-201zM1400 399v201h201v-201h-201zM1400 600v200h201v-200h-201zM1400 800v201h201v-201h-201z M1400 1398v201h201v-201h-201zM1601 -2h200v-196h-200v196zM1601 -2v201h200v-201h-200zM1601 -198h200v-198h-200v198zM1601 199v200h200v-200h-200zM1601 399v201h200v-201h-200zM1601 600v200h200v-200h-200zM1601 800v201h200v-201h-200zM1601 1001v201h200v-201h-200z M1601 1202v196h200v-196h-200zM1601 1398v201h200v-201h-200zM1801 -2h197v-196h-197v196zM1801 -2v201h197v-201h-197zM1801 -198h197v-198h-197v198zM1801 600v200h197v-200h-197zM1801 800v201h197v-201h-197zM1801 1001v201h197v-201h-197zM1801 1202v196h197v-196h-197 z" />
<glyph unicode="{" horiz-adv-x="684" />
<glyph unicode="|" horiz-adv-x="532" />
<glyph unicode="}" horiz-adv-x="684" />
<glyph unicode="~" horiz-adv-x="1196" />
<glyph unicode="&#xa1;" horiz-adv-x="682" />
<glyph unicode="&#xa2;" horiz-adv-x="1139" />
<glyph unicode="&#xa3;" horiz-adv-x="1139" />
<glyph unicode="&#xa4;" horiz-adv-x="1139" />
<glyph unicode="&#xa5;" horiz-adv-x="1139" />
<glyph unicode="&#xa6;" horiz-adv-x="532" />
<glyph unicode="&#xa7;" horiz-adv-x="1139" />
<glyph unicode="&#xa8;" horiz-adv-x="682" />
<glyph unicode="&#xa9;" horiz-adv-x="1509" />
<glyph unicode="&#xaa;" horiz-adv-x="758" />
<glyph unicode="&#xab;" horiz-adv-x="1139" />
<glyph unicode="&#xac;" horiz-adv-x="1196" />
<glyph unicode="&#xad;" horiz-adv-x="999" d="M0 399v201h201v-201h-201zM0 600v200h201v-200h-201zM0 800v201h201v-201h-201zM201 199v200h200v-200h-200zM201 399v201h200v-201h-200zM201 800v201h200v-201h-200zM401 199v200h201v-200h-201zM401 399v201h201v-201h-201zM401 800v201h201v-201h-201zM602 199v200 h196v-200h-196zM602 399v201h196v-201h-196zM602 800v201h196v-201h-196zM798 199v200h201v-200h-201zM798 399v201h201v-201h-201zM798 600v200h201v-200h-201zM798 800v201h201v-201h-201zM999 199v200h201v-200h-201zM999 399v201h201v-201h-201zM999 600v200h201v-200 h-201z" />
<glyph unicode="&#xae;" horiz-adv-x="1509" />
<glyph unicode="&#xaf;" horiz-adv-x="1131" />
<glyph unicode="&#xb0;" horiz-adv-x="819" />
<glyph unicode="&#xb1;" horiz-adv-x="1124" />
<glyph unicode="&#xb2;" horiz-adv-x="682" />
<glyph unicode="&#xb3;" horiz-adv-x="682" />
<glyph unicode="&#xb4;" horiz-adv-x="682" />
<glyph unicode="&#xb5;" horiz-adv-x="1180" />
<glyph unicode="&#xb6;" horiz-adv-x="1100" />
<glyph unicode="&#xb7;" horiz-adv-x="569" />
<glyph unicode="&#xb8;" horiz-adv-x="682" />
<glyph unicode="&#xb9;" horiz-adv-x="682" />
<glyph unicode="&#xba;" horiz-adv-x="748" />
<glyph unicode="&#xbb;" horiz-adv-x="1139" />
<glyph unicode="&#xbc;" horiz-adv-x="1708" />
<glyph unicode="&#xbd;" horiz-adv-x="1708" />
<glyph unicode="&#xbe;" horiz-adv-x="1708" />
<glyph unicode="&#xbf;" horiz-adv-x="1251" />
<glyph unicode="&#xc0;" horiz-adv-x="1366" />
<glyph unicode="&#xc1;" horiz-adv-x="1366" />
<glyph unicode="&#xc2;" horiz-adv-x="1366" />
<glyph unicode="&#xc3;" horiz-adv-x="1366" />
<glyph unicode="&#xc4;" horiz-adv-x="1366" />
<glyph unicode="&#xc5;" horiz-adv-x="1366" />
<glyph unicode="&#xc6;" horiz-adv-x="2048" />
<glyph unicode="&#xc7;" horiz-adv-x="1479" />
<glyph unicode="&#xc8;" horiz-adv-x="1366" />
<glyph unicode="&#xc9;" horiz-adv-x="1366" />
<glyph unicode="&#xca;" horiz-adv-x="1366" />
<glyph unicode="&#xcb;" horiz-adv-x="1366" />
<glyph unicode="&#xcc;" horiz-adv-x="569" />
<glyph unicode="&#xcd;" horiz-adv-x="569" />
<glyph unicode="&#xce;" horiz-adv-x="569" />
<glyph unicode="&#xcf;" horiz-adv-x="569" />
<glyph unicode="&#xd0;" horiz-adv-x="1479" />
<glyph unicode="&#xd1;" horiz-adv-x="1479" />
<glyph unicode="&#xd2;" horiz-adv-x="1593" />
<glyph unicode="&#xd3;" horiz-adv-x="1593" />
<glyph unicode="&#xd4;" horiz-adv-x="1593" />
<glyph unicode="&#xd5;" horiz-adv-x="1593" />
<glyph unicode="&#xd6;" horiz-adv-x="1593" />
<glyph unicode="&#xd7;" horiz-adv-x="1196" />
<glyph unicode="&#xd8;" horiz-adv-x="1593" />
<glyph unicode="&#xd9;" horiz-adv-x="1479" />
<glyph unicode="&#xda;" horiz-adv-x="1479" />
<glyph unicode="&#xdb;" horiz-adv-x="1479" />
<glyph unicode="&#xdc;" horiz-adv-x="1479" />
<glyph unicode="&#xdd;" horiz-adv-x="1366" />
<glyph unicode="&#xde;" horiz-adv-x="1366" />
<glyph unicode="&#xdf;" horiz-adv-x="1251" />
<glyph unicode="&#xe0;" horiz-adv-x="1139" />
<glyph unicode="&#xe1;" horiz-adv-x="1139" />
<glyph unicode="&#xe2;" horiz-adv-x="1139" />
<glyph unicode="&#xe3;" horiz-adv-x="1139" />
<glyph unicode="&#xe4;" horiz-adv-x="1139" />
<glyph unicode="&#xe5;" horiz-adv-x="1139" />
<glyph unicode="&#xe6;" horiz-adv-x="1821" />
<glyph unicode="&#xe7;" horiz-adv-x="1024" />
<glyph unicode="&#xe8;" horiz-adv-x="1139" />
<glyph unicode="&#xe9;" horiz-adv-x="1139" />
<glyph unicode="&#xea;" horiz-adv-x="1139" />
<glyph unicode="&#xeb;" horiz-adv-x="1139" />
<glyph unicode="&#xec;" horiz-adv-x="569" />
<glyph unicode="&#xed;" horiz-adv-x="569" />
<glyph unicode="&#xee;" horiz-adv-x="569" />
<glyph unicode="&#xef;" horiz-adv-x="569" />
<glyph unicode="&#xf0;" horiz-adv-x="1139" />
<glyph unicode="&#xf1;" horiz-adv-x="1139" />
<glyph unicode="&#xf2;" horiz-adv-x="1139" />
<glyph unicode="&#xf3;" horiz-adv-x="1139" />
<glyph unicode="&#xf4;" horiz-adv-x="1139" />
<glyph unicode="&#xf5;" horiz-adv-x="1139" />
<glyph unicode="&#xf6;" horiz-adv-x="1139" />
<glyph unicode="&#xf7;" horiz-adv-x="1124" />
<glyph unicode="&#xf8;" horiz-adv-x="1251" />
<glyph unicode="&#xf9;" horiz-adv-x="1139" />
<glyph unicode="&#xfa;" horiz-adv-x="1139" />
<glyph unicode="&#xfb;" horiz-adv-x="1139" />
<glyph unicode="&#xfc;" horiz-adv-x="1139" />
<glyph unicode="&#xfd;" horiz-adv-x="1024" />
<glyph unicode="&#xfe;" horiz-adv-x="1139" />
<glyph unicode="&#xff;" horiz-adv-x="1024" />
<glyph unicode="&#x152;" horiz-adv-x="2048" />
<glyph unicode="&#x153;" horiz-adv-x="1933" />
<glyph unicode="&#x178;" horiz-adv-x="1366" />
<glyph unicode="&#x2c6;" horiz-adv-x="682" />
<glyph unicode="&#x2dc;" horiz-adv-x="682" />
<glyph unicode="&#x2000;" horiz-adv-x="800" />
<glyph unicode="&#x2001;" horiz-adv-x="1600" />
<glyph unicode="&#x2002;" horiz-adv-x="800" />
<glyph unicode="&#x2003;" horiz-adv-x="1600" />
<glyph unicode="&#x2004;" horiz-adv-x="533" />
<glyph unicode="&#x2005;" horiz-adv-x="400" />
<glyph unicode="&#x2006;" horiz-adv-x="266" />
<glyph unicode="&#x2007;" horiz-adv-x="266" />
<glyph unicode="&#x2008;" horiz-adv-x="200" />
<glyph unicode="&#x2009;" horiz-adv-x="320" />
<glyph unicode="&#x200a;" horiz-adv-x="88" />
<glyph unicode="&#x2010;" horiz-adv-x="999" d="M0 399v201h201v-201h-201zM0 600v200h201v-200h-201zM0 800v201h201v-201h-201zM201 199v200h200v-200h-200zM201 399v201h200v-201h-200zM201 800v201h200v-201h-200zM401 199v200h201v-200h-201zM401 399v201h201v-201h-201zM401 800v201h201v-201h-201zM602 199v200 h196v-200h-196zM602 399v201h196v-201h-196zM602 800v201h196v-201h-196zM798 199v200h201v-200h-201zM798 399v201h201v-201h-201zM798 600v200h201v-200h-201zM798 800v201h201v-201h-201zM999 199v200h201v-200h-201zM999 399v201h201v-201h-201zM999 600v200h201v-200 h-201z" />
<glyph unicode="&#x2011;" horiz-adv-x="999" d="M0 399v201h201v-201h-201zM0 600v200h201v-200h-201zM0 800v201h201v-201h-201zM201 199v200h200v-200h-200zM201 399v201h200v-201h-200zM201 800v201h200v-201h-200zM401 199v200h201v-200h-201zM401 399v201h201v-201h-201zM401 800v201h201v-201h-201zM602 199v200 h196v-200h-196zM602 399v201h196v-201h-196zM602 800v201h196v-201h-196zM798 199v200h201v-200h-201zM798 399v201h201v-201h-201zM798 600v200h201v-200h-201zM798 800v201h201v-201h-201zM999 199v200h201v-200h-201zM999 399v201h201v-201h-201zM999 600v200h201v-200 h-201z" />
<glyph unicode="&#x2012;" horiz-adv-x="999" d="M0 399v201h201v-201h-201zM0 600v200h201v-200h-201zM0 800v201h201v-201h-201zM201 199v200h200v-200h-200zM201 399v201h200v-201h-200zM201 800v201h200v-201h-200zM401 199v200h201v-200h-201zM401 399v201h201v-201h-201zM401 800v201h201v-201h-201zM602 199v200 h196v-200h-196zM602 399v201h196v-201h-196zM602 800v201h196v-201h-196zM798 199v200h201v-200h-201zM798 399v201h201v-201h-201zM798 600v200h201v-200h-201zM798 800v201h201v-201h-201zM999 199v200h201v-200h-201zM999 399v201h201v-201h-201zM999 600v200h201v-200 h-201z" />
<glyph unicode="&#x2013;" horiz-adv-x="1139" />
<glyph unicode="&#x2014;" horiz-adv-x="2048" />
<glyph unicode="&#x2018;" horiz-adv-x="455" />
<glyph unicode="&#x2019;" horiz-adv-x="455" />
<glyph unicode="&#x201a;" horiz-adv-x="455" />
<glyph unicode="&#x201c;" horiz-adv-x="682" />
<glyph unicode="&#x201d;" horiz-adv-x="682" />
<glyph unicode="&#x201e;" horiz-adv-x="682" />
<glyph unicode="&#x2022;" horiz-adv-x="717" />
<glyph unicode="&#x2026;" horiz-adv-x="2048" />
<glyph unicode="&#x202f;" horiz-adv-x="320" />
<glyph unicode="&#x2039;" horiz-adv-x="682" />
<glyph unicode="&#x203a;" horiz-adv-x="682" />
<glyph unicode="&#x205f;" horiz-adv-x="400" />
<glyph unicode="&#x20ac;" horiz-adv-x="1139" />
<glyph unicode="&#x2122;" horiz-adv-x="2048" />
<glyph unicode="&#xe000;" horiz-adv-x="1600" d="M0 0v1600h1600v-1600h-1600z" />
</font>
</defs>
</svg>
